<?xml version="1.0" encoding="UTF-8"?>
<!DOCTYPE svg PUBLIC "-//W3C//DTD SVG 1.1//EN" "http://www.w3.org/Graphics/SVG/1.1/DTD/svg11.dtd">
<!-- Creator: CorelDRAW 2020 (64-Bit) -->
<svg xmlns="http://www.w3.org/2000/svg" xml:space="preserve" width="511px" height="462px" version="1.1" style="shape-rendering:geometricPrecision; text-rendering:geometricPrecision; image-rendering:optimizeQuality; fill-rule:evenodd; clip-rule:evenodd"
viewBox="0 0 484.309 437.869"
 xmlns:xlink="http://www.w3.org/1999/xlink"
 xmlns:xodm="http://www.corel.com/coreldraw/odm/2003">
 <defs>
  <style type="text/css">
   <![CDATA[
    polygon { transition: fill .6s ease-in-out; }
    polygon:hover { fill: #00FF00; }
   ]]>
  </style>
 </defs>
 <g id="main_hex_group">
  <metadata id="Hex-Layer"/>
  
  <polygon fill="#000000" class="base" points="138.374,0 155.671,9.952 172.968,19.903 172.968,39.806 172.968,59.709 155.671,69.661 138.374,79.613 121.077,69.661 103.781,59.709 103.781,39.806 103.781,19.903 121.077,9.952 "/>
  <polygon fill="#222222" class="board-1" points="106.624,23.694 114.206,27.377 114.206,52.236 106.624,55.918 "/>
  <polygon fill="#222222" class="board-1" points="170.124,55.918 162.542,52.236 162.542,27.377 170.124,23.694 "/>
  <polygon fill="#222222" class="board-1" points="136.578,4.049 137.18,12.456 115.652,24.886 108.671,20.161 "/>
  <polygon fill="#222222" class="board-1" points="140.422,75.154 139.82,66.746 161.348,54.317 168.328,59.042 "/>
  <polygon fill="#222222" class="board-1" points="168.447,20.279 161.467,25.004 139.939,12.575 140.541,4.167 "/>
  <polygon fill="#222222" class="board-1" points="108.79,59.16 115.771,54.435 137.299,66.864 136.697,75.272 "/>
  <polygon fill="#000000" class="main" points="138.374,15.268 149.037,21.402 159.699,27.537 159.699,39.806 159.699,52.075 149.037,58.21 138.374,64.345 127.712,58.21 117.049,52.075 117.049,39.806 117.049,27.537 127.712,21.402 "/>
  
  <polygon fill="#000000" class="base" points="207.561,0 224.858,9.952 242.155,19.903 242.155,39.806 242.155,59.709 224.858,69.661 207.561,79.613 190.264,69.661 172.968,59.709 172.968,39.806 172.968,19.903 190.264,9.952 "/>
  <polygon fill="#222222" class="board-1" points="175.811,23.694 183.393,27.377 183.393,52.236 175.811,55.918 "/>
  <polygon fill="#222222" class="board-1" points="239.311,55.918 231.729,52.236 231.729,27.377 239.311,23.694 "/>
  <polygon fill="#222222" class="board-1" points="205.765,4.049 206.367,12.456 184.839,24.886 177.859,20.161 "/>
  <polygon fill="#222222" class="board-1" points="209.609,75.154 209.007,66.746 230.535,54.317 237.515,59.042 "/>
  <polygon fill="#222222" class="board-1" points="237.634,20.279 230.654,25.004 209.126,12.575 209.728,4.167 "/>
  <polygon fill="#222222" class="board-1" points="177.977,59.16 184.958,54.435 206.486,66.864 205.884,75.272 "/>
  <polygon fill="#000000" class="main" points="207.561,15.268 218.224,21.402 228.886,27.537 228.886,39.806 228.886,52.075 218.224,58.21 207.561,64.345 196.899,58.21 186.236,52.075 186.236,39.806 186.236,27.537 196.899,21.402 "/>
  
  <polygon fill="#000000" class="base" points="276.748,0 294.045,9.952 311.342,19.903 311.342,39.806 311.342,59.709 294.045,69.661 276.748,79.613 259.451,69.661 242.155,59.709 242.155,39.806 242.155,19.903 259.451,9.952 "/>
  <polygon fill="#222222" class="board-1" points="244.998,23.694 252.58,27.377 252.58,52.236 244.998,55.918 "/>
  <polygon fill="#222222" class="board-1" points="308.498,55.918 300.916,52.236 300.916,27.377 308.498,23.694 "/>
  <polygon fill="#222222" class="board-1" points="274.952,4.049 275.554,12.456 254.026,24.886 247.046,20.161 "/>
  <polygon fill="#222222" class="board-1" points="278.796,75.154 278.194,66.746 299.722,54.317 306.703,59.042 "/>
  <polygon fill="#222222" class="board-1" points="306.821,20.279 299.841,25.004 278.313,12.575 278.915,4.167 "/>
  <polygon fill="#222222" class="board-1" points="247.164,59.16 254.145,54.435 275.673,66.864 275.071,75.272 "/>
  <polygon fill="#000000" class="main" points="276.748,15.268 287.411,21.402 298.073,27.537 298.073,39.806 298.073,52.075 287.411,58.21 276.748,64.345 266.086,58.21 255.423,52.075 255.423,39.806 255.423,27.537 266.086,21.402 "/>
  
  <polygon fill="#000000" class="base" points="345.935,0 363.232,9.952 380.529,19.903 380.529,39.806 380.529,59.709 363.232,69.661 345.935,79.613 328.638,69.661 311.342,59.709 311.342,39.806 311.342,19.903 328.638,9.952 "/>
  <polygon fill="#222222" class="board-1" points="314.185,23.694 321.767,27.377 321.767,52.236 314.185,55.918 "/>
  <polygon fill="#222222" class="board-1" points="377.685,55.918 370.103,52.236 370.103,27.377 377.685,23.694 "/>
  <polygon fill="#222222" class="board-1" points="344.139,4.049 344.741,12.456 323.213,24.886 316.233,20.161 "/>
  <polygon fill="#222222" class="board-1" points="347.983,75.154 347.381,66.746 368.909,54.317 375.89,59.042 "/>
  <polygon fill="#222222" class="board-1" points="376.008,20.279 369.028,25.004 347.5,12.575 348.102,4.167 "/>
  <polygon fill="#222222" class="board-1" points="316.351,59.16 323.332,54.435 344.86,66.864 344.258,75.272 "/>
  <polygon fill="#000000" class="main" points="345.935,15.268 356.598,21.402 367.26,27.537 367.26,39.806 367.26,52.075 356.598,58.21 345.935,64.345 335.273,58.21 324.61,52.075 324.61,39.806 324.61,27.537 335.273,21.402 "/>
  
  <polygon fill="#000000" class="base" points="103.781,59.709 121.077,69.661 138.374,79.613 138.374,99.516 138.374,119.419 121.077,129.37 103.781,139.322 86.484,129.37 69.187,119.419 69.187,99.516 69.187,79.613 86.484,69.661 "/>
  <polygon fill="#222222" class="board-1" points="72.03,83.404 79.612,87.086 79.612,111.945 72.03,115.628 "/>
  <polygon fill="#222222" class="board-1" points="135.531,115.628 127.949,111.945 127.949,87.086 135.531,83.404 "/>
  <polygon fill="#222222" class="board-1" points="101.985,63.758 102.586,72.166 81.058,84.595 74.078,79.87 "/>
  <polygon fill="#222222" class="board-1" points="105.828,134.863 105.226,126.455 126.754,114.026 133.735,118.751 "/>
  <polygon fill="#222222" class="board-1" points="133.854,79.989 126.873,84.714 105.345,72.284 105.947,63.877 "/>
  <polygon fill="#222222" class="board-1" points="74.197,118.869 81.177,114.145 102.705,126.574 102.104,134.981 "/>
  <polygon fill="#000000" class="main" points="103.781,74.977 114.443,81.112 125.106,87.247 125.106,99.516 125.106,111.785 114.443,117.92 103.781,124.054 93.118,117.92 82.456,111.785 82.456,99.516 82.456,87.247 93.118,81.112 "/>
  
  <polygon fill="#000000" class="base" points="172.968,59.709 190.264,69.661 207.561,79.613 207.561,99.516 207.561,119.419 190.264,129.37 172.968,139.322 155.671,129.37 138.374,119.419 138.374,99.516 138.374,79.613 155.671,69.661 "/>
  <polygon fill="#222222" class="board-1" points="141.217,83.404 148.799,87.086 148.799,111.945 141.217,115.628 "/>
  <polygon fill="#222222" class="board-1" points="204.718,115.628 197.136,111.945 197.136,87.086 204.718,83.404 "/>
  <polygon fill="#222222" class="board-1" points="171.172,63.758 171.773,72.166 150.245,84.595 143.265,79.87 "/>
  <polygon fill="#222222" class="board-1" points="175.015,134.863 174.414,126.455 195.941,114.026 202.922,118.751 "/>
  <polygon fill="#222222" class="board-1" points="203.041,79.989 196.06,84.714 174.532,72.284 175.134,63.877 "/>
  <polygon fill="#222222" class="board-1" points="143.384,118.869 150.364,114.145 171.892,126.574 171.291,134.981 "/>
  <polygon fill="#000000" class="main" points="172.968,74.977 183.63,81.112 194.293,87.247 194.293,99.516 194.293,111.785 183.63,117.92 172.968,124.054 162.305,117.92 151.643,111.785 151.643,99.516 151.643,87.247 162.305,81.112 "/>
  
  <polygon fill="#000000" class="base" points="242.155,59.709 259.451,69.661 276.748,79.613 276.748,99.516 276.748,119.419 259.451,129.37 242.155,139.322 224.858,129.37 207.561,119.419 207.561,99.516 207.561,79.613 224.858,69.661 "/>
  <polygon fill="#222222" class="board-1" points="210.404,83.404 217.986,87.086 217.986,111.945 210.404,115.628 "/>
  <polygon fill="#222222" class="board-1" points="273.905,115.628 266.323,111.945 266.323,87.086 273.905,83.404 "/>
  <polygon fill="#222222" class="board-1" points="240.359,63.758 240.96,72.166 219.432,84.595 212.452,79.87 "/>
  <polygon fill="#222222" class="board-1" points="244.202,134.863 243.601,126.455 265.128,114.026 272.109,118.751 "/>
  <polygon fill="#222222" class="board-1" points="272.228,79.989 265.247,84.714 243.719,72.284 244.321,63.877 "/>
  <polygon fill="#222222" class="board-1" points="212.571,118.869 219.551,114.145 241.079,126.574 240.478,134.981 "/>
  <polygon fill="#000000" class="main" points="242.155,74.977 252.817,81.112 263.48,87.247 263.48,99.516 263.48,111.785 252.817,117.92 242.155,124.054 231.492,117.92 220.83,111.785 220.83,99.516 220.83,87.247 231.492,81.112 "/>
  
  <polygon fill="#000000" class="base" points="311.342,59.709 328.638,69.661 345.935,79.613 345.935,99.516 345.935,119.419 328.638,129.37 311.342,139.322 294.045,129.37 276.748,119.419 276.748,99.516 276.748,79.613 294.045,69.661 "/>
  <polygon fill="#222222" class="board-1" points="279.591,83.404 287.173,87.086 287.173,111.945 279.591,115.628 "/>
  <polygon fill="#222222" class="board-1" points="343.092,115.628 335.51,111.945 335.51,87.086 343.092,83.404 "/>
  <polygon fill="#222222" class="board-1" points="309.546,63.758 310.148,72.166 288.619,84.595 281.639,79.87 "/>
  <polygon fill="#222222" class="board-1" points="313.389,134.863 312.788,126.455 334.315,114.026 341.296,118.751 "/>
  <polygon fill="#222222" class="board-1" points="341.415,79.989 334.435,84.714 312.906,72.284 313.508,63.877 "/>
  <polygon fill="#222222" class="board-1" points="281.758,118.869 288.738,114.145 310.266,126.574 309.665,134.981 "/>
  <polygon fill="#000000" class="main" points="311.342,74.977 322.004,81.112 332.667,87.247 332.667,99.516 332.667,111.785 322.004,117.92 311.342,124.054 300.679,117.92 290.017,111.785 290.017,99.516 290.017,87.247 300.679,81.112 "/>
  
  <polygon fill="#000000" class="base" points="380.529,59.709 397.826,69.661 415.122,79.613 415.122,99.516 415.122,119.419 397.826,129.37 380.529,139.322 363.232,129.37 345.935,119.419 345.935,99.516 345.935,79.613 363.232,69.661 "/>
  <polygon fill="#222222" class="board-1" points="348.778,83.404 356.361,87.086 356.361,111.945 348.778,115.628 "/>
  <polygon fill="#222222" class="board-1" points="412.279,115.628 404.697,111.945 404.697,87.086 412.279,83.404 "/>
  <polygon fill="#222222" class="board-1" points="378.733,63.758 379.335,72.166 357.806,84.595 350.826,79.87 "/>
  <polygon fill="#222222" class="board-1" points="382.576,134.863 381.975,126.455 403.503,114.026 410.483,118.751 "/>
  <polygon fill="#222222" class="board-1" points="410.602,79.989 403.622,84.714 382.093,72.284 382.695,63.877 "/>
  <polygon fill="#222222" class="board-1" points="350.945,118.869 357.925,114.145 379.453,126.574 378.852,134.981 "/>
  <polygon fill="#000000" class="main" points="380.529,74.977 391.191,81.112 401.854,87.247 401.854,99.516 401.854,111.785 391.191,117.92 380.529,124.054 369.866,117.92 359.204,111.785 359.204,99.516 359.204,87.247 369.866,81.112 "/>
  
  <polygon fill="#000000" class="base" points="69.187,119.419 86.484,129.37 103.781,139.322 103.781,159.225 103.781,179.128 86.484,189.08 69.187,199.031 51.89,189.08 34.594,179.128 34.594,159.225 34.594,139.322 51.89,129.37 "/>
  <polygon fill="#222222" class="board-1" points="37.437,143.113 45.019,146.796 45.019,171.654 37.437,175.337 "/>
  <polygon fill="#222222" class="board-1" points="100.937,175.337 93.355,171.654 93.355,146.796 100.937,143.113 "/>
  <polygon fill="#222222" class="board-1" points="67.391,123.467 67.993,131.875 46.465,144.304 39.484,139.579 "/>
  <polygon fill="#222222" class="board-1" points="71.234,194.572 70.633,186.165 92.161,173.735 99.141,178.46 "/>
  <polygon fill="#222222" class="board-1" points="99.26,139.698 92.28,144.423 70.752,131.993 71.354,123.586 "/>
  <polygon fill="#222222" class="board-1" points="39.603,178.579 46.583,173.854 68.112,186.283 67.51,194.691 "/>
  <polygon fill="#000000" class="main" points="69.187,134.686 79.85,140.821 90.512,146.956 90.512,159.225 90.512,171.494 79.85,177.629 69.187,183.763 58.525,177.629 47.862,171.494 47.862,159.225 47.862,146.956 58.525,140.821 "/>
  
  <polygon fill="#000000" class="base" points="138.374,119.419 155.671,129.37 172.968,139.322 172.968,159.225 172.968,179.128 155.671,189.08 138.374,199.031 121.077,189.08 103.781,179.128 103.781,159.225 103.781,139.322 121.077,129.37 "/>
  <polygon fill="#222222" class="board-1" points="106.624,143.113 114.206,146.796 114.206,171.654 106.624,175.337 "/>
  <polygon fill="#222222" class="board-1" points="170.124,175.337 162.542,171.654 162.542,146.796 170.124,143.113 "/>
  <polygon fill="#222222" class="board-1" points="136.578,123.467 137.18,131.875 115.652,144.304 108.671,139.579 "/>
  <polygon fill="#222222" class="board-1" points="140.422,194.572 139.82,186.165 161.348,173.735 168.328,178.46 "/>
  <polygon fill="#222222" class="board-1" points="168.447,139.698 161.467,144.423 139.939,131.993 140.541,123.586 "/>
  <polygon fill="#222222" class="board-1" points="108.79,178.579 115.771,173.854 137.299,186.283 136.697,194.691 "/>
  <polygon fill="#000000" class="main" points="138.374,134.686 149.037,140.821 159.699,146.956 159.699,159.225 159.699,171.494 149.037,177.629 138.374,183.763 127.712,177.629 117.049,171.494 117.049,159.225 117.049,146.956 127.712,140.821 "/>
  
  <polygon fill="#000000" class="base" points="207.561,119.419 224.858,129.37 242.155,139.322 242.155,159.225 242.155,179.128 224.858,189.08 207.561,199.031 190.264,189.08 172.968,179.128 172.968,159.225 172.968,139.322 190.264,129.37 "/>
  <polygon fill="#222222" class="board-1" points="175.811,143.113 183.393,146.796 183.393,171.654 175.811,175.337 "/>
  <polygon fill="#222222" class="board-1" points="239.311,175.337 231.729,171.654 231.729,146.796 239.311,143.113 "/>
  <polygon fill="#222222" class="board-1" points="205.765,123.467 206.367,131.875 184.839,144.304 177.859,139.579 "/>
  <polygon fill="#222222" class="board-1" points="209.609,194.572 209.007,186.165 230.535,173.735 237.515,178.46 "/>
  <polygon fill="#222222" class="board-1" points="237.634,139.698 230.654,144.423 209.126,131.993 209.728,123.586 "/>
  <polygon fill="#222222" class="board-1" points="177.977,178.579 184.958,173.854 206.486,186.283 205.884,194.691 "/>
  <polygon fill="#000000" class="main" points="207.561,134.686 218.224,140.821 228.886,146.956 228.886,159.225 228.886,171.494 218.224,177.629 207.561,183.763 196.899,177.629 186.236,171.494 186.236,159.225 186.236,146.956 196.899,140.821 "/>
  
  <polygon fill="#000000" class="base" points="276.748,119.419 294.045,129.37 311.342,139.322 311.342,159.225 311.342,179.128 294.045,189.08 276.748,199.031 259.451,189.08 242.155,179.128 242.155,159.225 242.155,139.322 259.451,129.37 "/>
  <polygon fill="#222222" class="board-1" points="244.998,143.113 252.58,146.796 252.58,171.654 244.998,175.337 "/>
  <polygon fill="#222222" class="board-1" points="308.498,175.337 300.916,171.654 300.916,146.796 308.498,143.113 "/>
  <polygon fill="#222222" class="board-1" points="274.952,123.467 275.554,131.875 254.026,144.304 247.046,139.579 "/>
  <polygon fill="#222222" class="board-1" points="278.796,194.572 278.194,186.165 299.722,173.735 306.703,178.46 "/>
  <polygon fill="#222222" class="board-1" points="306.821,139.698 299.841,144.423 278.313,131.993 278.915,123.586 "/>
  <polygon fill="#222222" class="board-1" points="247.164,178.579 254.145,173.854 275.673,186.283 275.071,194.691 "/>
  <polygon fill="#000000" class="main" points="276.748,134.686 287.411,140.821 298.073,146.956 298.073,159.225 298.073,171.494 287.411,177.629 276.748,183.763 266.086,177.629 255.423,171.494 255.423,159.225 255.423,146.956 266.086,140.821 "/>
  
  <polygon fill="#000000" class="base" points="345.935,119.419 363.232,129.37 380.529,139.322 380.529,159.225 380.529,179.128 363.232,189.08 345.935,199.031 328.638,189.08 311.342,179.128 311.342,159.225 311.342,139.322 328.638,129.37 "/>
  <polygon fill="#222222" class="board-1" points="314.185,143.113 321.767,146.796 321.767,171.654 314.185,175.337 "/>
  <polygon fill="#222222" class="board-1" points="377.685,175.337 370.103,171.654 370.103,146.796 377.685,143.113 "/>
  <polygon fill="#222222" class="board-1" points="344.139,123.467 344.741,131.875 323.213,144.304 316.233,139.579 "/>
  <polygon fill="#222222" class="board-1" points="347.983,194.572 347.381,186.165 368.909,173.735 375.89,178.46 "/>
  <polygon fill="#222222" class="board-1" points="376.008,139.698 369.028,144.423 347.5,131.993 348.102,123.586 "/>
  <polygon fill="#222222" class="board-1" points="316.351,178.579 323.332,173.854 344.86,186.283 344.258,194.691 "/>
  <polygon fill="#000000" class="main" points="345.935,134.686 356.598,140.821 367.26,146.956 367.26,159.225 367.26,171.494 356.598,177.629 345.935,183.763 335.273,177.629 324.61,171.494 324.61,159.225 324.61,146.956 335.273,140.821 "/>
  
  <polygon fill="#000000" class="base" points="415.122,119.419 432.419,129.37 449.716,139.322 449.716,159.225 449.716,179.128 432.419,189.08 415.122,199.031 397.826,189.08 380.529,179.128 380.529,159.225 380.529,139.322 397.826,129.37 "/>
  <polygon fill="#222222" class="board-1" points="383.372,143.113 390.954,146.796 390.954,171.654 383.372,175.337 "/>
  <polygon fill="#222222" class="board-1" points="446.872,175.337 439.29,171.654 439.29,146.796 446.872,143.113 "/>
  <polygon fill="#222222" class="board-1" points="413.326,123.467 413.928,131.875 392.4,144.304 385.42,139.579 "/>
  <polygon fill="#222222" class="board-1" points="417.17,194.572 416.568,186.165 438.096,173.735 445.077,178.46 "/>
  <polygon fill="#222222" class="board-1" points="445.195,139.698 438.215,144.423 416.687,131.993 417.289,123.586 "/>
  <polygon fill="#222222" class="board-1" points="385.538,178.579 392.519,173.854 414.047,186.283 413.445,194.691 "/>
  <polygon fill="#000000" class="main" points="415.122,134.686 425.785,140.821 436.447,146.956 436.447,159.225 436.447,171.494 425.785,177.629 415.122,183.763 404.46,177.629 393.797,171.494 393.797,159.225 393.797,146.956 404.46,140.821 "/>
  
  <polygon fill="#000000" class="base" points="34.594,179.128 51.89,189.08 69.187,199.031 69.187,218.934 69.187,238.837 51.89,248.789 34.594,258.741 17.297,248.789 0,238.837 0,218.934 0,199.031 17.297,189.08 "/>
  <polygon fill="#222222" class="board-1" points="2.843,202.822 10.425,206.505 10.425,231.363 2.843,235.046 "/>
  <polygon fill="#222222" class="board-1" points="66.344,235.046 58.761,231.363 58.761,206.505 66.344,202.822 "/>
  <polygon fill="#222222" class="board-1" points="32.798,183.177 33.399,191.584 11.871,204.014 4.891,199.289 "/>
  <polygon fill="#222222" class="board-1" points="36.641,254.282 36.039,245.874 57.567,233.445 64.548,238.17 "/>
  <polygon fill="#222222" class="board-1" points="64.667,199.407 57.686,204.132 36.158,191.703 36.76,183.295 "/>
  <polygon fill="#222222" class="board-1" points="5.01,238.288 11.99,233.563 33.518,245.992 32.917,254.4 "/>
  <polygon fill="#000000" class="main" points="34.594,194.396 45.256,200.53 55.919,206.665 55.919,218.934 55.919,231.203 45.256,237.338 34.594,243.473 23.931,237.338 13.268,231.203 13.268,218.934 13.268,206.665 23.931,200.53 "/>
  
  <polygon fill="#000000" class="base" points="103.781,179.128 121.077,189.08 138.374,199.031 138.374,218.934 138.374,238.837 121.077,248.789 103.781,258.741 86.484,248.789 69.187,238.837 69.187,218.934 69.187,199.031 86.484,189.08 "/>
  <polygon fill="#222222" class="board-1" points="72.03,202.822 79.612,206.505 79.612,231.363 72.03,235.046 "/>
  <polygon fill="#222222" class="board-1" points="135.531,235.046 127.949,231.363 127.949,206.505 135.531,202.822 "/>
  <polygon fill="#222222" class="board-1" points="101.985,183.177 102.586,191.584 81.058,204.014 74.078,199.289 "/>
  <polygon fill="#222222" class="board-1" points="105.828,254.282 105.226,245.874 126.754,233.445 133.735,238.17 "/>
  <polygon fill="#222222" class="board-1" points="133.854,199.407 126.873,204.132 105.345,191.703 105.947,183.295 "/>
  <polygon fill="#222222" class="board-1" points="74.197,238.288 81.177,233.563 102.705,245.992 102.104,254.4 "/>
  <polygon fill="#000000" class="main" points="103.781,194.396 114.443,200.53 125.106,206.665 125.106,218.934 125.106,231.203 114.443,237.338 103.781,243.473 93.118,237.338 82.456,231.203 82.456,218.934 82.456,206.665 93.118,200.53 "/>
  
  <polygon fill="#000000" class="base" points="172.968,179.128 190.264,189.08 207.561,199.031 207.561,218.934 207.561,238.837 190.264,248.789 172.968,258.741 155.671,248.789 138.374,238.837 138.374,218.934 138.374,199.031 155.671,189.08 "/>
  <polygon fill="#222222" class="board-1" points="141.217,202.822 148.799,206.505 148.799,231.363 141.217,235.046 "/>
  <polygon fill="#222222" class="board-1" points="204.718,235.046 197.136,231.363 197.136,206.505 204.718,202.822 "/>
  <polygon fill="#222222" class="board-1" points="171.172,183.177 171.773,191.584 150.245,204.014 143.265,199.289 "/>
  <polygon fill="#222222" class="board-1" points="175.015,254.282 174.414,245.874 195.941,233.445 202.922,238.17 "/>
  <polygon fill="#222222" class="board-1" points="203.041,199.407 196.06,204.132 174.532,191.703 175.134,183.295 "/>
  <polygon fill="#222222" class="board-1" points="143.384,238.288 150.364,233.563 171.892,245.992 171.291,254.4 "/>
  <polygon fill="#000000" class="main" points="172.968,194.396 183.63,200.53 194.293,206.665 194.293,218.934 194.293,231.203 183.63,237.338 172.968,243.473 162.305,237.338 151.643,231.203 151.643,218.934 151.643,206.665 162.305,200.53 "/>
  
  <polygon fill="#000000" class="base" points="242.155,179.128 259.451,189.08 276.748,199.031 276.748,218.934 276.748,238.837 259.451,248.789 242.155,258.741 224.858,248.789 207.561,238.837 207.561,218.934 207.561,199.031 224.858,189.08 "/>
  <polygon fill="#222222" class="board-1" points="210.404,202.822 217.986,206.505 217.986,231.363 210.404,235.046 "/>
  <polygon fill="#222222" class="board-1" points="273.905,235.046 266.323,231.363 266.323,206.505 273.905,202.822 "/>
  <polygon fill="#222222" class="board-1" points="240.359,183.177 240.96,191.584 219.432,204.014 212.452,199.289 "/>
  <polygon fill="#222222" class="board-1" points="244.202,254.282 243.601,245.874 265.128,233.445 272.109,238.17 "/>
  <polygon fill="#222222" class="board-1" points="272.228,199.407 265.247,204.132 243.719,191.703 244.321,183.295 "/>
  <polygon fill="#222222" class="board-1" points="212.571,238.288 219.551,233.563 241.079,245.992 240.478,254.4 "/>
  <polygon fill="#000000" class="main" points="242.155,194.396 252.817,200.53 263.48,206.665 263.48,218.934 263.48,231.203 252.817,237.338 242.155,243.473 231.492,237.338 220.83,231.203 220.83,218.934 220.83,206.665 231.492,200.53 "/>
  
  <polygon fill="#000000" class="base" points="311.342,179.128 328.638,189.08 345.935,199.031 345.935,218.934 345.935,238.837 328.638,248.789 311.342,258.741 294.045,248.789 276.748,238.837 276.748,218.934 276.748,199.031 294.045,189.08 "/>
  <polygon fill="#222222" class="board-1" points="279.591,202.822 287.173,206.505 287.173,231.363 279.591,235.046 "/>
  <polygon fill="#222222" class="board-1" points="343.092,235.046 335.51,231.363 335.51,206.505 343.092,202.822 "/>
  <polygon fill="#222222" class="board-1" points="309.546,183.177 310.148,191.584 288.619,204.014 281.639,199.289 "/>
  <polygon fill="#222222" class="board-1" points="313.389,254.282 312.788,245.874 334.315,233.445 341.296,238.17 "/>
  <polygon fill="#222222" class="board-1" points="341.415,199.407 334.435,204.132 312.906,191.703 313.508,183.295 "/>
  <polygon fill="#222222" class="board-1" points="281.758,238.288 288.738,233.563 310.266,245.992 309.665,254.4 "/>
  <polygon fill="#000000" class="main" points="311.342,194.396 322.004,200.53 332.667,206.665 332.667,218.934 332.667,231.203 322.004,237.338 311.342,243.473 300.679,237.338 290.017,231.203 290.017,218.934 290.017,206.665 300.679,200.53 "/>
  
  <polygon fill="#000000" class="base" points="380.529,179.128 397.826,189.08 415.122,199.031 415.122,218.934 415.122,238.837 397.826,248.789 380.529,258.741 363.232,248.789 345.935,238.837 345.935,218.934 345.935,199.031 363.232,189.08 "/>
  <polygon fill="#222222" class="board-1" points="348.778,202.822 356.361,206.505 356.361,231.363 348.778,235.046 "/>
  <polygon fill="#222222" class="board-1" points="412.279,235.046 404.697,231.363 404.697,206.505 412.279,202.822 "/>
  <polygon fill="#222222" class="board-1" points="378.733,183.177 379.335,191.584 357.806,204.014 350.826,199.289 "/>
  <polygon fill="#222222" class="board-1" points="382.576,254.282 381.975,245.874 403.503,233.445 410.483,238.17 "/>
  <polygon fill="#222222" class="board-1" points="410.602,199.407 403.622,204.132 382.093,191.703 382.695,183.295 "/>
  <polygon fill="#222222" class="board-1" points="350.945,238.288 357.925,233.563 379.453,245.992 378.852,254.4 "/>
  <polygon fill="#000000" class="main" points="380.529,194.396 391.191,200.53 401.854,206.665 401.854,218.934 401.854,231.203 391.191,237.338 380.529,243.473 369.866,237.338 359.204,231.203 359.204,218.934 359.204,206.665 369.866,200.53 "/>
  
  <polygon fill="#000000" class="base" points="449.716,179.128 467.013,189.08 484.309,199.031 484.309,218.934 484.309,238.837 467.013,248.789 449.716,258.741 432.419,248.789 415.122,238.837 415.122,218.934 415.122,199.031 432.419,189.08 "/>
  <polygon fill="#222222" class="board-1" points="417.965,202.822 425.548,206.505 425.548,231.363 417.965,235.046 "/>
  <polygon fill="#222222" class="board-1" points="481.466,235.046 473.884,231.363 473.884,206.505 481.466,202.822 "/>
  <polygon fill="#222222" class="board-1" points="447.92,183.177 448.522,191.584 426.993,204.014 420.013,199.289 "/>
  <polygon fill="#222222" class="board-1" points="451.763,254.282 451.162,245.874 472.69,233.445 479.67,238.17 "/>
  <polygon fill="#222222" class="board-1" points="479.789,199.407 472.809,204.132 451.28,191.703 451.882,183.295 "/>
  <polygon fill="#222222" class="board-1" points="420.132,238.288 427.112,233.563 448.64,245.992 448.039,254.4 "/>
  <polygon fill="#000000" class="main" points="449.716,194.396 460.378,200.53 471.041,206.665 471.041,218.934 471.041,231.203 460.378,237.338 449.716,243.473 439.053,237.338 428.391,231.203 428.391,218.934 428.391,206.665 439.053,200.53 "/>
  
  <polygon fill="#000000" class="base" points="69.187,238.837 86.484,248.789 103.781,258.741 103.781,278.644 103.781,298.547 86.484,308.498 69.187,318.45 51.89,308.498 34.594,298.547 34.594,278.644 34.594,258.741 51.89,248.789 "/>
  <polygon fill="#222222" class="board-1" points="37.437,262.532 45.019,266.214 45.019,291.073 37.437,294.756 "/>
  <polygon fill="#222222" class="board-1" points="100.937,294.756 93.355,291.073 93.355,266.214 100.937,262.532 "/>
  <polygon fill="#222222" class="board-1" points="67.391,242.886 67.993,251.294 46.465,263.723 39.484,258.998 "/>
  <polygon fill="#222222" class="board-1" points="71.234,313.991 70.633,305.583 92.161,293.154 99.141,297.879 "/>
  <polygon fill="#222222" class="board-1" points="99.26,259.117 92.28,263.842 70.752,251.412 71.354,243.005 "/>
  <polygon fill="#222222" class="board-1" points="39.603,297.997 46.583,293.273 68.112,305.702 67.51,314.109 "/>
  <polygon fill="#000000" class="main" points="69.187,254.105 79.85,260.24 90.512,266.374 90.512,278.644 90.512,290.913 79.85,297.047 69.187,303.182 58.525,297.047 47.862,290.913 47.862,278.644 47.862,266.374 58.525,260.24 "/>
  
  <polygon fill="#000000" class="base" points="138.374,238.837 155.671,248.789 172.968,258.741 172.968,278.644 172.968,298.547 155.671,308.498 138.374,318.45 121.077,308.498 103.781,298.547 103.781,278.644 103.781,258.741 121.077,248.789 "/>
  <polygon fill="#222222" class="board-1" points="106.624,262.532 114.206,266.214 114.206,291.073 106.624,294.756 "/>
  <polygon fill="#222222" class="board-1" points="170.124,294.756 162.542,291.073 162.542,266.214 170.124,262.532 "/>
  <polygon fill="#222222" class="board-1" points="136.578,242.886 137.18,251.294 115.652,263.723 108.671,258.998 "/>
  <polygon fill="#222222" class="board-1" points="140.422,313.991 139.82,305.583 161.348,293.154 168.328,297.879 "/>
  <polygon fill="#222222" class="board-1" points="168.447,259.117 161.467,263.842 139.939,251.412 140.541,243.005 "/>
  <polygon fill="#222222" class="board-1" points="108.79,297.997 115.771,293.273 137.299,305.702 136.697,314.109 "/>
  <polygon fill="#000000" class="main" points="138.374,254.105 149.037,260.24 159.699,266.374 159.699,278.644 159.699,290.913 149.037,297.047 138.374,303.182 127.712,297.047 117.049,290.913 117.049,278.644 117.049,266.374 127.712,260.24 "/>
  
  <polygon fill="#000000" class="base" points="207.561,238.837 224.858,248.789 242.155,258.741 242.155,278.644 242.155,298.547 224.858,308.498 207.561,318.45 190.264,308.498 172.968,298.547 172.968,278.644 172.968,258.741 190.264,248.789 "/>
  <polygon fill="#222222" class="board-1" points="175.811,262.532 183.393,266.214 183.393,291.073 175.811,294.756 "/>
  <polygon fill="#222222" class="board-1" points="239.311,294.756 231.729,291.073 231.729,266.214 239.311,262.532 "/>
  <polygon fill="#222222" class="board-1" points="205.765,242.886 206.367,251.294 184.839,263.723 177.859,258.998 "/>
  <polygon fill="#222222" class="board-1" points="209.609,313.991 209.007,305.583 230.535,293.154 237.515,297.879 "/>
  <polygon fill="#222222" class="board-1" points="237.634,259.117 230.654,263.842 209.126,251.412 209.728,243.005 "/>
  <polygon fill="#222222" class="board-1" points="177.977,297.997 184.958,293.273 206.486,305.702 205.884,314.109 "/>
  <polygon fill="#000000" class="main" points="207.561,254.105 218.224,260.24 228.886,266.374 228.886,278.644 228.886,290.913 218.224,297.047 207.561,303.182 196.899,297.047 186.236,290.913 186.236,278.644 186.236,266.374 196.899,260.24 "/>
  
  <polygon fill="#000000" class="base" points="276.748,238.837 294.045,248.789 311.342,258.741 311.342,278.644 311.342,298.547 294.045,308.498 276.748,318.45 259.451,308.498 242.155,298.547 242.155,278.644 242.155,258.741 259.451,248.789 "/>
  <polygon fill="#222222" class="board-1" points="244.998,262.532 252.58,266.214 252.58,291.073 244.998,294.756 "/>
  <polygon fill="#222222" class="board-1" points="308.498,294.756 300.916,291.073 300.916,266.214 308.498,262.532 "/>
  <polygon fill="#222222" class="board-1" points="274.952,242.886 275.554,251.294 254.026,263.723 247.046,258.998 "/>
  <polygon fill="#222222" class="board-1" points="278.796,313.991 278.194,305.583 299.722,293.154 306.703,297.879 "/>
  <polygon fill="#222222" class="board-1" points="306.821,259.117 299.841,263.842 278.313,251.412 278.915,243.005 "/>
  <polygon fill="#222222" class="board-1" points="247.164,297.997 254.145,293.273 275.673,305.702 275.071,314.109 "/>
  <polygon fill="#000000" class="main" points="276.748,254.105 287.411,260.24 298.073,266.374 298.073,278.644 298.073,290.913 287.411,297.047 276.748,303.182 266.086,297.047 255.423,290.913 255.423,278.644 255.423,266.374 266.086,260.24 "/>
  
  <polygon fill="#000000" class="base" points="345.935,238.837 363.232,248.789 380.529,258.741 380.529,278.644 380.529,298.547 363.232,308.498 345.935,318.45 328.638,308.498 311.342,298.547 311.342,278.644 311.342,258.741 328.638,248.789 "/>
  <polygon fill="#222222" class="board-1" points="314.185,262.532 321.767,266.214 321.767,291.073 314.185,294.756 "/>
  <polygon fill="#222222" class="board-1" points="377.685,294.756 370.103,291.073 370.103,266.214 377.685,262.532 "/>
  <polygon fill="#222222" class="board-1" points="344.139,242.886 344.741,251.294 323.213,263.723 316.233,258.998 "/>
  <polygon fill="#222222" class="board-1" points="347.983,313.991 347.381,305.583 368.909,293.154 375.89,297.879 "/>
  <polygon fill="#222222" class="board-1" points="376.008,259.117 369.028,263.842 347.5,251.412 348.102,243.005 "/>
  <polygon fill="#222222" class="board-1" points="316.351,297.997 323.332,293.273 344.86,305.702 344.258,314.109 "/>
  <polygon fill="#000000" class="main" points="345.935,254.105 356.598,260.24 367.26,266.374 367.26,278.644 367.26,290.913 356.598,297.047 345.935,303.182 335.273,297.047 324.61,290.913 324.61,278.644 324.61,266.374 335.273,260.24 "/>
  
  <polygon fill="#000000" class="base" points="415.122,238.837 432.419,248.789 449.716,258.741 449.716,278.644 449.716,298.547 432.419,308.498 415.122,318.45 397.826,308.498 380.529,298.547 380.529,278.644 380.529,258.741 397.826,248.789 "/>
  <polygon fill="#222222" class="board-1" points="383.372,262.532 390.954,266.214 390.954,291.073 383.372,294.756 "/>
  <polygon fill="#222222" class="board-1" points="446.872,294.756 439.29,291.073 439.29,266.214 446.872,262.532 "/>
  <polygon fill="#222222" class="board-1" points="413.326,242.886 413.928,251.294 392.4,263.723 385.42,258.998 "/>
  <polygon fill="#222222" class="board-1" points="417.17,313.991 416.568,305.583 438.096,293.154 445.077,297.879 "/>
  <polygon fill="#222222" class="board-1" points="445.195,259.117 438.215,263.842 416.687,251.412 417.289,243.005 "/>
  <polygon fill="#222222" class="board-1" points="385.538,297.997 392.519,293.273 414.047,305.702 413.445,314.109 "/>
  <polygon fill="#000000" class="main" points="415.122,254.105 425.785,260.24 436.447,266.374 436.447,278.644 436.447,290.913 425.785,297.047 415.122,303.182 404.46,297.047 393.797,290.913 393.797,278.644 393.797,266.374 404.46,260.24 "/>
  
  <polygon fill="#000000" class="base" points="103.781,298.547 121.077,308.498 138.374,318.45 138.374,338.353 138.374,358.256 121.077,368.208 103.781,378.159 86.484,368.208 69.187,358.256 69.187,338.353 69.187,318.45 86.484,308.498 "/>
  <polygon fill="#222222" class="board-1" points="72.03,322.241 79.612,325.924 79.612,350.782 72.03,354.465 "/>
  <polygon fill="#222222" class="board-1" points="135.531,354.465 127.949,350.782 127.949,325.924 135.531,322.241 "/>
  <polygon fill="#222222" class="board-1" points="101.985,302.595 102.586,311.003 81.058,323.432 74.078,318.707 "/>
  <polygon fill="#222222" class="board-1" points="105.828,373.7 105.226,365.293 126.754,352.863 133.735,357.588 "/>
  <polygon fill="#222222" class="board-1" points="133.854,318.826 126.873,323.551 105.345,311.121 105.947,302.714 "/>
  <polygon fill="#222222" class="board-1" points="74.197,357.707 81.177,352.982 102.705,365.411 102.104,373.819 "/>
  <polygon fill="#000000" class="main" points="103.781,313.814 114.443,319.949 125.106,326.084 125.106,338.353 125.106,350.622 114.443,356.757 103.781,362.891 93.118,356.757 82.456,350.622 82.456,338.353 82.456,326.084 93.118,319.949 "/>
  
  <polygon fill="#000000" class="base" points="172.968,298.547 190.264,308.498 207.561,318.45 207.561,338.353 207.561,358.256 190.264,368.208 172.968,378.159 155.671,368.208 138.374,358.256 138.374,338.353 138.374,318.45 155.671,308.498 "/>
  <polygon fill="#222222" class="board-1" points="141.217,322.241 148.799,325.924 148.799,350.782 141.217,354.465 "/>
  <polygon fill="#222222" class="board-1" points="204.718,354.465 197.136,350.782 197.136,325.924 204.718,322.241 "/>
  <polygon fill="#222222" class="board-1" points="171.172,302.595 171.773,311.003 150.245,323.432 143.265,318.707 "/>
  <polygon fill="#222222" class="board-1" points="175.015,373.7 174.414,365.293 195.941,352.863 202.922,357.588 "/>
  <polygon fill="#222222" class="board-1" points="203.041,318.826 196.06,323.551 174.532,311.121 175.134,302.714 "/>
  <polygon fill="#222222" class="board-1" points="143.384,357.707 150.364,352.982 171.892,365.411 171.291,373.819 "/>
  <polygon fill="#000000" class="main" points="172.968,313.814 183.63,319.949 194.293,326.084 194.293,338.353 194.293,350.622 183.63,356.757 172.968,362.891 162.305,356.757 151.643,350.622 151.643,338.353 151.643,326.084 162.305,319.949 "/>
  
  <polygon fill="#000000" class="base" points="242.155,298.547 259.451,308.498 276.748,318.45 276.748,338.353 276.748,358.256 259.451,368.208 242.155,378.159 224.858,368.208 207.561,358.256 207.561,338.353 207.561,318.45 224.858,308.498 "/>
  <polygon fill="#222222" class="board-1" points="210.404,322.241 217.986,325.924 217.986,350.782 210.404,354.465 "/>
  <polygon fill="#222222" class="board-1" points="273.905,354.465 266.323,350.782 266.323,325.924 273.905,322.241 "/>
  <polygon fill="#222222" class="board-1" points="240.359,302.595 240.96,311.003 219.432,323.432 212.452,318.707 "/>
  <polygon fill="#222222" class="board-1" points="244.202,373.7 243.601,365.293 265.128,352.863 272.109,357.588 "/>
  <polygon fill="#222222" class="board-1" points="272.228,318.826 265.247,323.551 243.719,311.121 244.321,302.714 "/>
  <polygon fill="#222222" class="board-1" points="212.571,357.707 219.551,352.982 241.079,365.411 240.478,373.819 "/>
  <polygon fill="#000000" class="main" points="242.155,313.814 252.817,319.949 263.48,326.084 263.48,338.353 263.48,350.622 252.817,356.757 242.155,362.891 231.492,356.757 220.83,350.622 220.83,338.353 220.83,326.084 231.492,319.949 "/>
  
  <polygon fill="#000000" class="base" points="311.342,298.547 328.638,308.498 345.935,318.45 345.935,338.353 345.935,358.256 328.638,368.208 311.342,378.159 294.045,368.208 276.748,358.256 276.748,338.353 276.748,318.45 294.045,308.498 "/>
  <polygon fill="#222222" class="board-1" points="279.591,322.241 287.173,325.924 287.173,350.782 279.591,354.465 "/>
  <polygon fill="#222222" class="board-1" points="343.092,354.465 335.51,350.782 335.51,325.924 343.092,322.241 "/>
  <polygon fill="#222222" class="board-1" points="309.546,302.595 310.148,311.003 288.619,323.432 281.639,318.707 "/>
  <polygon fill="#222222" class="board-1" points="313.389,373.7 312.788,365.293 334.315,352.863 341.296,357.588 "/>
  <polygon fill="#222222" class="board-1" points="341.415,318.826 334.435,323.551 312.906,311.121 313.508,302.714 "/>
  <polygon fill="#222222" class="board-1" points="281.758,357.707 288.738,352.982 310.266,365.411 309.665,373.819 "/>
  <polygon fill="#000000" class="main" points="311.342,313.814 322.004,319.949 332.667,326.084 332.667,338.353 332.667,350.622 322.004,356.757 311.342,362.891 300.679,356.757 290.017,350.622 290.017,338.353 290.017,326.084 300.679,319.949 "/>
  
  <polygon fill="#000000" class="base" points="380.529,298.547 397.826,308.498 415.122,318.45 415.122,338.353 415.122,358.256 397.826,368.208 380.529,378.159 363.232,368.208 345.935,358.256 345.935,338.353 345.935,318.45 363.232,308.498 "/>
  <polygon fill="#222222" class="board-1" points="348.778,322.241 356.361,325.924 356.361,350.782 348.778,354.465 "/>
  <polygon fill="#222222" class="board-1" points="412.279,354.465 404.697,350.782 404.697,325.924 412.279,322.241 "/>
  <polygon fill="#222222" class="board-1" points="378.733,302.595 379.335,311.003 357.806,323.432 350.826,318.707 "/>
  <polygon fill="#222222" class="board-1" points="382.576,373.7 381.975,365.293 403.503,352.863 410.483,357.588 "/>
  <polygon fill="#222222" class="board-1" points="410.602,318.826 403.622,323.551 382.093,311.121 382.695,302.714 "/>
  <polygon fill="#222222" class="board-1" points="350.945,357.707 357.925,352.982 379.453,365.411 378.852,373.819 "/>
  <polygon fill="#000000" class="main" points="380.529,313.814 391.191,319.949 401.854,326.084 401.854,338.353 401.854,350.622 391.191,356.757 380.529,362.891 369.866,356.757 359.204,350.622 359.204,338.353 359.204,326.084 369.866,319.949 "/>
  
  <polygon fill="#000000" class="base" points="138.374,358.256 155.671,368.208 172.968,378.159 172.968,398.062 172.968,417.965 155.671,427.917 138.374,437.869 121.077,427.917 103.781,417.965 103.781,398.062 103.781,378.159 121.077,368.208 "/>
  <polygon fill="#222222" class="board-1" points="106.624,381.95 114.206,385.633 114.206,410.491 106.624,414.174 "/>
  <polygon fill="#222222" class="board-1" points="170.124,414.174 162.542,410.491 162.542,385.633 170.124,381.95 "/>
  <polygon fill="#222222" class="board-1" points="136.578,362.305 137.18,370.712 115.652,383.141 108.671,378.417 "/>
  <polygon fill="#222222" class="board-1" points="140.422,433.41 139.82,425.002 161.348,412.573 168.328,417.298 "/>
  <polygon fill="#222222" class="board-1" points="168.447,378.535 161.467,383.26 139.939,370.831 140.541,362.423 "/>
  <polygon fill="#222222" class="board-1" points="108.79,417.416 115.771,412.691 137.299,425.12 136.697,433.528 "/>
  <polygon fill="#000000" class="main" points="138.374,373.524 149.037,379.658 159.699,385.793 159.699,398.062 159.699,410.331 149.037,416.466 138.374,422.601 127.712,416.466 117.049,410.331 117.049,398.062 117.049,385.793 127.712,379.658 "/>
  
  <polygon fill="#000000" class="base" points="207.561,358.256 224.858,368.208 242.155,378.159 242.155,398.062 242.155,417.965 224.858,427.917 207.561,437.869 190.264,427.917 172.968,417.965 172.968,398.062 172.968,378.159 190.264,368.208 "/>
  <polygon fill="#222222" class="board-1" points="175.811,381.95 183.393,385.633 183.393,410.491 175.811,414.174 "/>
  <polygon fill="#222222" class="board-1" points="239.311,414.174 231.729,410.491 231.729,385.633 239.311,381.95 "/>
  <polygon fill="#222222" class="board-1" points="205.765,362.305 206.367,370.712 184.839,383.141 177.859,378.417 "/>
  <polygon fill="#222222" class="board-1" points="209.609,433.41 209.007,425.002 230.535,412.573 237.515,417.298 "/>
  <polygon fill="#222222" class="board-1" points="237.634,378.535 230.654,383.26 209.126,370.831 209.728,362.423 "/>
  <polygon fill="#222222" class="board-1" points="177.977,417.416 184.958,412.691 206.486,425.12 205.884,433.528 "/>
  <polygon fill="#000000" class="main" points="207.561,373.524 218.224,379.658 228.886,385.793 228.886,398.062 228.886,410.331 218.224,416.466 207.561,422.601 196.899,416.466 186.236,410.331 186.236,398.062 186.236,385.793 196.899,379.658 "/>
  
  <polygon fill="#000000" class="base" points="276.748,358.256 294.045,368.208 311.342,378.159 311.342,398.062 311.342,417.965 294.045,427.917 276.748,437.869 259.451,427.917 242.155,417.965 242.155,398.062 242.155,378.159 259.451,368.208 "/>
  <polygon fill="#222222" class="board-1" points="244.998,381.95 252.58,385.633 252.58,410.491 244.998,414.174 "/>
  <polygon fill="#222222" class="board-1" points="308.498,414.174 300.916,410.491 300.916,385.633 308.498,381.95 "/>
  <polygon fill="#222222" class="board-1" points="274.952,362.305 275.554,370.712 254.026,383.141 247.046,378.417 "/>
  <polygon fill="#222222" class="board-1" points="278.796,433.41 278.194,425.002 299.722,412.573 306.703,417.298 "/>
  <polygon fill="#222222" class="board-1" points="306.821,378.535 299.841,383.26 278.313,370.831 278.915,362.423 "/>
  <polygon fill="#222222" class="board-1" points="247.164,417.416 254.145,412.691 275.673,425.12 275.071,433.528 "/>
  <polygon fill="#000000" class="main" points="276.748,373.524 287.411,379.658 298.073,385.793 298.073,398.062 298.073,410.331 287.411,416.466 276.748,422.601 266.086,416.466 255.423,410.331 255.423,398.062 255.423,385.793 266.086,379.658 "/>
  
  <polygon fill="#000000" class="base" points="345.935,358.256 363.232,368.208 380.529,378.159 380.529,398.062 380.529,417.965 363.232,427.917 345.935,437.869 328.638,427.917 311.342,417.965 311.342,398.062 311.342,378.159 328.638,368.208 "/>
  <polygon fill="#222222" class="board-1" points="314.185,381.95 321.767,385.633 321.767,410.491 314.185,414.174 "/>
  <polygon fill="#222222" class="board-1" points="377.685,414.174 370.103,410.491 370.103,385.633 377.685,381.95 "/>
  <polygon fill="#222222" class="board-1" points="344.139,362.305 344.741,370.712 323.213,383.141 316.233,378.417 "/>
  <polygon fill="#222222" class="board-1" points="347.983,433.41 347.381,425.002 368.909,412.573 375.89,417.298 "/>
  <polygon fill="#222222" class="board-1" points="376.008,378.535 369.028,383.26 347.5,370.831 348.102,362.423 "/>
  <polygon fill="#222222" class="board-1" points="316.351,417.416 323.332,412.691 344.86,425.12 344.258,433.528 "/>
  <polygon fill="#000000" class="main" points="345.935,373.524 356.598,379.658 367.26,385.793 367.26,398.062 367.26,410.331 356.598,416.466 345.935,422.601 335.273,416.466 324.61,410.331 324.61,398.062 324.61,385.793 335.273,379.658 "/>
 </g>
</svg>