<?xml version="1.0" encoding="UTF-8"?>
<!DOCTYPE svg PUBLIC "-//W3C//DTD SVG 1.1//EN" "http://www.w3.org/Graphics/SVG/1.1/DTD/svg11.dtd">
<!-- Creator: CorelDRAW 2018 (64-Bit) -->
<svg xmlns="http://www.w3.org/2000/svg" xml:space="preserve" width="1920px" height="1920px" version="1.1" style="shape-rendering:geometricPrecision; text-rendering:geometricPrecision; image-rendering:optimizeQuality; fill-rule:evenodd; clip-rule:evenodd"
viewBox="0 0 1920 1920"
 xmlns:xlink="http://www.w3.org/1999/xlink">
 <defs>
  <style type="text/css">
   <![CDATA[
    .fil0 {fill:#D8D8D8}
   ]]>
  </style>
 </defs>
 <g id="Слой_x0020_1">
  <metadata id="CorelCorpID_0Corel-Layer"/>
  <path class="fil0" d="M472 0l1448 0 0 440 -1448 0c-6.6,0 -12,-5.4 -12,-12l0 -416c0,-6.6 5.4,-12 12,-12z"/>
 </g>
 <g id="Слой_x0020_1_0">
  <metadata id="CorelCorpID_1Corel-Layer"/>
  <path class="fil0" d="M0 300l348 0c6.6,0 12,5.4 12,12l0 1596c0,6.6 -5.4,12 -12,12l-348 0 0 -1620z"/>
  <path class="fil0" d="M722 862.22l1198 0 0 920.01 -1198 0c-6.6,0 -12,-4.69 -12,-10.42l0 -899.17c0,-5.73 5.4,-10.42 12,-10.42l0 0z"/>
 </g>
</svg>
