<?xml version="1.0" encoding="UTF-8"?>
<!DOCTYPE svg PUBLIC "-//W3C//DTD SVG 1.1//EN" "http://www.w3.org/Graphics/SVG/1.1/DTD/svg11.dtd">
<!-- Creator: CorelDRAW 2019 (64-Bit) -->
<svg xmlns="http://www.w3.org/2000/svg" xml:space="preserve" width="750px" height="200px" version="1.1" style="shape-rendering:geometricPrecision; text-rendering:geometricPrecision; image-rendering:optimizeQuality; fill-rule:evenodd; clip-rule:evenodd"
viewBox="0 0 353.551 94.28"
 xmlns:xlink="http://www.w3.org/1999/xlink"
 xmlns:xodm="http://www.corel.com/coreldraw/odm/2003">
 <defs>
  <style type="text/css">
   <![CDATA[
    .str0 {stroke:black;stroke-width:0.267;stroke-miterlimit:22.9256}
    .fil0 {fill:none}
    .fil3 {fill:#4D4D4D}
    .fil1 {fill:#663333}
    .fil2 {fill:#B3B3B3}
   ]]>
  </style>
 </defs>
 <g id="Слой_x0020_1">
  <metadata id="CorelCorpID_0Corel-Layer"/>
  <rect class="fil0" width="353.551" height="94.28"/>
  <rect class="fil0 str0" x="47.139" y="18.688" width="259.273" height="56.903"/>
  <rect class="fil1 str0" x="47.139" y="75.592" width="23.57" height="9.428"/>
  <rect class="fil2 str0" x="70.71" y="75.592" width="23.57" height="9.428"/>
  <rect class="fil1 str0" x="94.28" y="75.592" width="23.57" height="9.428"/>
  <rect class="fil2 str0" x="117.85" y="75.592" width="23.57" height="9.428"/>
  <rect class="fil1 str0" x="141.42" y="75.592" width="23.57" height="9.428"/>
  <rect class="fil2 str0" x="164.99" y="75.592" width="23.57" height="9.428"/>
  <rect class="fil1 str0" x="188.561" y="75.592" width="23.57" height="9.428"/>
  <rect class="fil2 str0" x="212.131" y="75.592" width="23.57" height="9.428"/>
  <rect class="fil1 str0" x="235.701" y="75.592" width="23.57" height="9.428"/>
  <rect class="fil2 str0" x="259.271" y="75.592" width="23.57" height="9.428"/>
  <rect class="fil1 str0" x="282.842" y="75.592" width="23.57" height="9.428"/>
  <rect class="fil2 str0" transform="matrix(-0.234898 0.940317 -0.497536 -0.124288 24.4001 24.2728)" width="24.319" height="18.385"/>
  <rect class="fil2 str0" x="282.93" y="9.261" width="23.57" height="9.428"/>
  <rect class="fil1 str0" x="259.359" y="9.261" width="23.57" height="9.428"/>
  <rect class="fil2 str0" x="235.789" y="9.261" width="23.57" height="9.428"/>
  <rect class="fil1 str0" x="212.219" y="9.261" width="23.57" height="9.428"/>
  <rect class="fil2 str0" x="188.649" y="9.261" width="23.57" height="9.428"/>
  <rect class="fil1 str0" x="165.079" y="9.261" width="23.57" height="9.428"/>
  <rect class="fil2 str0" x="141.508" y="9.261" width="23.57" height="9.428"/>
  <rect class="fil1 str0" x="117.938" y="9.261" width="23.57" height="9.428"/>
  <rect class="fil2 str0" x="94.368" y="9.261" width="23.57" height="9.428"/>
  <rect class="fil1 str0" x="70.798" y="9.261" width="23.57" height="9.428"/>
  <rect class="fil2 str0" x="47.227" y="9.261" width="23.57" height="9.428"/>
  <rect class="fil1 str0" transform="matrix(-0.937478 0.245985 -0.130154 -0.496034 47.2215 18.6439)" width="24.319" height="18.385"/>
  <rect class="fil1 str0" transform="matrix(-0.234898 -0.940317 -0.497536 0.124288 24.4001 70.0076)" width="24.319" height="18.385"/>
  <rect class="fil2 str0" transform="matrix(-0.937478 -0.245985 -0.130154 0.496034 47.2215 75.6365)" width="24.319" height="18.385"/>
  <rect class="fil2 str0" transform="matrix(0.234898 0.940317 0.497536 -0.124288 329.233 24.3174)" width="24.319" height="18.385"/>
  <rect class="fil1 str0" transform="matrix(0.937478 0.245985 0.130154 -0.496034 306.412 18.6886)" width="24.319" height="18.385"/>
  <rect class="fil1 str0" transform="matrix(0.234898 -0.940317 0.497536 0.124288 329.233 70.0522)" width="24.319" height="18.385"/>
  <rect class="fil2 str0" transform="matrix(0.937478 -0.245985 0.130154 0.496034 306.412 75.6811)" width="24.319" height="18.385"/>
  <path class="fil3 str0" d="M36.251 20.854c14.518,-6.013 31.161,0.881 37.174,15.398 6.013,14.517 -0.88,31.161 -15.398,37.174 -14.517,6.013 -31.16,-0.881 -37.174,-15.398 -6.013,-14.517 0.881,-31.161 15.398,-37.174zm31.259 23.373c0.017,0.115 0.032,0.23 0.046,0.345l0.011 0.084c0.014,0.114 0.027,0.228 0.039,0.342l0.008 0.083c0.012,0.115 0.022,0.23 0.032,0.346l0.007 0.081c0.009,0.112 0.017,0.224 0.024,0.336l0.006 0.092c0.006,0.114 0.012,0.228 0.017,0.341l0.003 0.081c0.004,0.112 0.007,0.222 0.01,0.333l0.002 0.099c0.002,0.108 0.002,0.217 0.002,0.325l0 0.097c0,0.113 -0.002,0.226 -0.004,0.339l-0.001 0.079c-0.003,0.112 -0.007,0.225 -0.012,0.337l-0.003 0.091c-0.005,0.105 -0.011,0.21 -0.017,0.315l-0.007 0.115c-0.007,0.103 -0.015,0.206 -0.024,0.309l-0.008 0.106c-0.009,0.103 -0.019,0.206 -0.03,0.309l-0.012 0.117c-0.01,0.096 -0.021,0.191 -0.033,0.287l-0.016 0.134c-0.013,0.097 -0.026,0.193 -0.04,0.289l-0.018 0.122c-0.014,0.096 -0.029,0.191 -0.045,0.286l-0.022 0.135c-0.016,0.093 -0.033,0.187 -0.05,0.28l-0.024 0.13c-0.018,0.093 -0.037,0.185 -0.056,0.278l-0.028 0.135c-0.019,0.091 -0.039,0.181 -0.06,0.272l-0.031 0.137c-0.021,0.087 -0.042,0.174 -0.063,0.26l-0.039 0.154c-0.02,0.081 -0.042,0.162 -0.064,0.243l-0.044 0.163c-0.022,0.077 -0.044,0.154 -0.066,0.231l-0.051 0.173c-0.023,0.076 -0.046,0.152 -0.07,0.228l-0.054 0.172c-0.024,0.074 -0.049,0.148 -0.073,0.222 -0.02,0.059 -0.04,0.118 -0.06,0.177 -0.023,0.068 -0.048,0.136 -0.072,0.204 -0.023,0.066 -0.047,0.131 -0.071,0.197 -0.023,0.062 -0.046,0.124 -0.07,0.186 -0.026,0.068 -0.052,0.137 -0.078,0.205 -0.025,0.063 -0.05,0.125 -0.075,0.188 -0.027,0.065 -0.053,0.131 -0.08,0.196 -0.027,0.065 -0.055,0.13 -0.082,0.195 -0.027,0.062 -0.053,0.124 -0.08,0.186 -0.029,0.067 -0.06,0.134 -0.09,0.201 -0.027,0.06 -0.054,0.12 -0.082,0.18 -0.029,0.064 -0.059,0.127 -0.089,0.19 -0.031,0.065 -0.062,0.13 -0.093,0.195 -0.028,0.056 -0.055,0.112 -0.083,0.167 -0.035,0.07 -0.07,0.14 -0.105,0.209 -0.028,0.054 -0.056,0.107 -0.084,0.16 -0.036,0.07 -0.073,0.14 -0.111,0.21 -0.028,0.053 -0.057,0.106 -0.087,0.159 -0.038,0.07 -0.077,0.14 -0.116,0.21 -0.028,0.049 -0.056,0.098 -0.085,0.147 -0.041,0.072 -0.083,0.145 -0.126,0.217l-0.081 0.136c-0.046,0.076 -0.093,0.152 -0.139,0.228l-0.076 0.119c-0.049,0.079 -0.099,0.157 -0.149,0.235l-0.076 0.115c-0.052,0.079 -0.104,0.158 -0.158,0.236l-0.074 0.109c-0.054,0.078 -0.108,0.156 -0.163,0.234l-0.079 0.11c-0.057,0.079 -0.113,0.157 -0.171,0.234l-0.073 0.099c-0.059,0.078 -0.117,0.155 -0.177,0.232l-0.083 0.107c-0.06,0.076 -0.119,0.152 -0.18,0.227l-0.074 0.091c-0.065,0.081 -0.131,0.16 -0.197,0.24l-0.069 0.08c-0.067,0.079 -0.134,0.158 -0.203,0.236l-0.076 0.086c-0.069,0.078 -0.139,0.157 -0.21,0.234l-0.062 0.067c-0.076,0.083 -0.153,0.165 -0.23,0.246l-0.055 0.057c-0.078,0.082 -0.157,0.163 -0.237,0.243l-0.068 0.069c-0.077,0.076 -0.154,0.152 -0.232,0.228l-0.072 0.068c-0.08,0.077 -0.16,0.153 -0.242,0.228l-0.059 0.055c-0.084,0.077 -0.169,0.154 -0.254,0.23l-0.069 0.061c-0.084,0.074 -0.169,0.148 -0.254,0.22l-0.063 0.053c-0.088,0.075 -0.177,0.149 -0.267,0.222l-0.065 0.053c-0.088,0.072 -0.178,0.143 -0.268,0.214l-0.068 0.052c-0.091,0.071 -0.183,0.142 -0.276,0.211l-0.02 0.015 -5.688 -13.73 13.73 -5.687 0.004 0.025zm-17.433 23.28l-0.025 0.004c-0.114,0.016 -0.229,0.031 -0.344,0.046l-0.085 0.011c-0.114,0.014 -0.228,0.026 -0.342,0.038l-0.082 0.009c-0.116,0.012 -0.231,0.022 -0.346,0.032l-0.082 0.007c-0.112,0.009 -0.223,0.016 -0.335,0.024l-0.093 0.006c-0.114,0.006 -0.227,0.012 -0.341,0.016l-0.081 0.004c-0.111,0.004 -0.222,0.007 -0.333,0.009l-0.099 0.003c-0.108,0.001 -0.217,0.002 -0.325,0.002l-0.097 0c-0.113,0 -0.226,-0.002 -0.339,-0.004l-0.079 -0.002c-0.112,-0.002 -0.224,-0.006 -0.337,-0.011l-0.091 -0.004c-0.105,-0.004 -0.21,-0.01 -0.314,-0.017l-0.115 -0.006c-0.104,-0.007 -0.207,-0.015 -0.31,-0.024l-0.106 -0.008c-0.103,-0.009 -0.205,-0.019 -0.308,-0.03l-0.117 -0.012c-0.096,-0.01 -0.192,-0.021 -0.288,-0.033l-0.134 -0.017c-0.097,-0.012 -0.193,-0.025 -0.289,-0.039l-0.122 -0.018c-0.095,-0.014 -0.191,-0.029 -0.286,-0.045l-0.135 -0.022c-0.093,-0.016 -0.187,-0.033 -0.28,-0.05l-0.129 -0.024c-0.093,-0.018 -0.186,-0.037 -0.278,-0.056l-0.136 -0.028c-0.091,-0.019 -0.181,-0.039 -0.271,-0.06l-0.138 -0.031c-0.087,-0.021 -0.173,-0.042 -0.26,-0.063l-0.153 -0.039c-0.082,-0.02 -0.162,-0.042 -0.243,-0.064l-0.164 -0.044c-0.077,-0.022 -0.154,-0.044 -0.231,-0.066l-0.173 -0.051c-0.076,-0.023 -0.152,-0.046 -0.228,-0.07l-0.171 -0.054c-0.075,-0.024 -0.148,-0.049 -0.222,-0.073 -0.059,-0.02 -0.118,-0.04 -0.177,-0.06 -0.069,-0.024 -0.136,-0.048 -0.204,-0.072 -0.066,-0.024 -0.132,-0.047 -0.198,-0.071 -0.062,-0.023 -0.124,-0.046 -0.185,-0.07 -0.069,-0.026 -0.137,-0.052 -0.206,-0.078 -0.063,-0.025 -0.125,-0.05 -0.188,-0.076 -0.065,-0.026 -0.131,-0.052 -0.196,-0.079 -0.065,-0.027 -0.13,-0.055 -0.195,-0.082 -0.062,-0.027 -0.124,-0.053 -0.185,-0.08 -0.068,-0.03 -0.134,-0.06 -0.201,-0.09 -0.061,-0.027 -0.121,-0.054 -0.181,-0.082 -0.063,-0.029 -0.126,-0.059 -0.19,-0.089 -0.065,-0.031 -0.13,-0.062 -0.195,-0.093 -0.056,-0.028 -0.111,-0.056 -0.167,-0.083 -0.07,-0.035 -0.14,-0.07 -0.209,-0.106 -0.053,-0.027 -0.107,-0.055 -0.16,-0.083 -0.07,-0.037 -0.14,-0.074 -0.21,-0.111 -0.053,-0.029 -0.106,-0.058 -0.159,-0.087 -0.07,-0.038 -0.14,-0.077 -0.209,-0.116 -0.049,-0.028 -0.098,-0.057 -0.147,-0.085 -0.073,-0.042 -0.145,-0.083 -0.218,-0.126l-0.135 -0.082c-0.077,-0.046 -0.153,-0.092 -0.228,-0.139l-0.12 -0.075c-0.078,-0.049 -0.157,-0.099 -0.235,-0.149l-0.115 -0.076c-0.079,-0.052 -0.158,-0.105 -0.236,-0.158l-0.108 -0.074c-0.079,-0.054 -0.157,-0.108 -0.234,-0.163l-0.111 -0.08c-0.078,-0.056 -0.157,-0.112 -0.234,-0.17l-0.099 -0.074c-0.078,-0.058 -0.155,-0.116 -0.232,-0.176l-0.107 -0.083c-0.076,-0.06 -0.152,-0.12 -0.227,-0.18l-0.091 -0.074c-0.08,-0.066 -0.16,-0.131 -0.239,-0.198l-0.081 -0.068c-0.079,-0.067 -0.157,-0.135 -0.235,-0.203l-0.086 -0.076c-0.079,-0.07 -0.157,-0.14 -0.235,-0.21l-0.067 -0.062c-0.083,-0.076 -0.165,-0.153 -0.246,-0.231l-0.057 -0.054c-0.081,-0.079 -0.162,-0.157 -0.243,-0.237l-0.068 -0.069c-0.077,-0.076 -0.153,-0.153 -0.228,-0.231l-0.069 -0.072c-0.076,-0.08 -0.153,-0.16 -0.228,-0.242l-0.055 -0.06c-0.077,-0.083 -0.154,-0.168 -0.23,-0.253l-0.061 -0.069c-0.074,-0.084 -0.147,-0.169 -0.22,-0.254l-0.053 -0.063c-0.074,-0.088 -0.149,-0.177 -0.222,-0.267l-0.052 -0.065c-0.072,-0.089 -0.144,-0.178 -0.215,-0.269l-0.052 -0.067c-0.071,-0.092 -0.141,-0.184 -0.211,-0.277l-0.015 -0.02 13.73 -5.687 5.687 13.73zm-23.308 -17.454c-0.017,-0.115 -0.032,-0.229 -0.047,-0.345l-0.011 -0.084c-0.014,-0.114 -0.026,-0.228 -0.038,-0.342l-0.009 -0.083c-0.011,-0.115 -0.022,-0.23 -0.032,-0.345l-0.006 -0.082c-0.009,-0.112 -0.017,-0.224 -0.024,-0.336l-0.006 -0.092c-0.007,-0.114 -0.012,-0.228 -0.017,-0.341l-0.004 -0.081c-0.004,-0.111 -0.007,-0.222 -0.009,-0.333l-0.002 -0.099c-0.002,-0.108 -0.003,-0.217 -0.003,-0.325l0 -0.097c0,-0.113 0.002,-0.226 0.004,-0.339l0.002 -0.079c0.003,-0.112 0.007,-0.225 0.011,-0.337l0.004 -0.091c0.005,-0.105 0.01,-0.21 0.017,-0.315l0.007 -0.114c0.007,-0.104 0.015,-0.207 0.023,-0.31l0.009 -0.106c0.009,-0.103 0.019,-0.206 0.029,-0.308l0.012 -0.117c0.01,-0.096 0.022,-0.192 0.033,-0.288l0.017 -0.134c0.012,-0.097 0.026,-0.193 0.04,-0.289l0.017 -0.122c0.014,-0.096 0.03,-0.191 0.045,-0.286l0.022 -0.135c0.016,-0.093 0.033,-0.187 0.051,-0.28l0.024 -0.13c0.017,-0.092 0.036,-0.185 0.055,-0.278l0.028 -0.135c0.02,-0.091 0.04,-0.181 0.06,-0.272l0.032 -0.137c0.02,-0.087 0.041,-0.174 0.063,-0.26l0.038 -0.154c0.021,-0.081 0.042,-0.162 0.064,-0.243l0.045 -0.163c0.021,-0.077 0.043,-0.154 0.066,-0.231l0.05 -0.173c0.023,-0.076 0.047,-0.152 0.07,-0.228l0.054 -0.172c0.024,-0.074 0.049,-0.148 0.074,-0.222 0.019,-0.059 0.039,-0.118 0.059,-0.177 0.024,-0.068 0.048,-0.136 0.072,-0.204 0.024,-0.065 0.047,-0.131 0.071,-0.197 0.023,-0.062 0.047,-0.124 0.07,-0.185 0.026,-0.069 0.052,-0.138 0.079,-0.206 0.024,-0.063 0.05,-0.125 0.075,-0.188 0.026,-0.065 0.052,-0.131 0.079,-0.196 0.027,-0.065 0.055,-0.13 0.083,-0.195 0.026,-0.062 0.052,-0.124 0.08,-0.186 0.029,-0.067 0.059,-0.134 0.089,-0.2 0.027,-0.061 0.054,-0.121 0.082,-0.181 0.03,-0.064 0.059,-0.127 0.089,-0.19 0.031,-0.065 0.062,-0.13 0.094,-0.195 0.027,-0.056 0.055,-0.112 0.083,-0.167 0.035,-0.07 0.069,-0.14 0.105,-0.209 0.027,-0.054 0.055,-0.107 0.083,-0.16 0.037,-0.07 0.074,-0.14 0.111,-0.21 0.029,-0.053 0.058,-0.106 0.087,-0.159 0.039,-0.07 0.077,-0.14 0.117,-0.209 0.027,-0.05 0.056,-0.099 0.084,-0.148 0.042,-0.072 0.084,-0.145 0.126,-0.217l0.082 -0.136c0.046,-0.076 0.092,-0.152 0.139,-0.228l0.075 -0.119c0.05,-0.079 0.099,-0.157 0.15,-0.235l0.076 -0.115c0.052,-0.079 0.104,-0.158 0.157,-0.236l0.074 -0.109c0.054,-0.078 0.108,-0.156 0.163,-0.233l0.08 -0.111c0.056,-0.079 0.113,-0.157 0.17,-0.234l0.074 -0.099c0.058,-0.078 0.117,-0.155 0.176,-0.232l0.084 -0.107c0.059,-0.076 0.119,-0.152 0.179,-0.227l0.075 -0.091c0.065,-0.08 0.13,-0.16 0.197,-0.239l0.069 -0.081c0.067,-0.079 0.134,-0.158 0.202,-0.235l0.076 -0.087c0.07,-0.078 0.14,-0.156 0.211,-0.234l0.062 -0.067c0.076,-0.083 0.152,-0.165 0.23,-0.246l0.055 -0.057c0.078,-0.082 0.157,-0.163 0.236,-0.243l0.069 -0.068c0.077,-0.077 0.154,-0.153 0.232,-0.229l0.071 -0.068c0.08,-0.077 0.161,-0.153 0.242,-0.228l0.06 -0.055c0.084,-0.077 0.168,-0.154 0.253,-0.23l0.07 -0.061c0.084,-0.074 0.168,-0.147 0.254,-0.22l0.062 -0.053c0.089,-0.075 0.178,-0.149 0.267,-0.222l0.065 -0.053c0.089,-0.072 0.179,-0.143 0.269,-0.214l0.067 -0.052c0.092,-0.071 0.184,-0.142 0.277,-0.211l0.02 -0.015 5.687 13.73 -13.73 5.687 -0.003 -0.025zm17.432 -23.28l0.025 -0.004c0.115,-0.016 0.23,-0.031 0.345,-0.046l0.085 -0.011c0.113,-0.014 0.227,-0.026 0.341,-0.038l0.083 -0.009c0.115,-0.012 0.231,-0.022 0.346,-0.032l0.081 -0.007c0.112,-0.009 0.224,-0.016 0.336,-0.024l0.092 -0.005c0.114,-0.007 0.228,-0.012 0.342,-0.017l0.081 -0.004c0.111,-0.004 0.222,-0.007 0.332,-0.009l0.099 -0.002c0.109,-0.002 0.217,-0.003 0.325,-0.003l0.097 0c0.113,0 0.227,0.002 0.339,0.004l0.079 0.002c0.113,0.002 0.225,0.006 0.337,0.011l0.092 0.004c0.104,0.004 0.209,0.01 0.314,0.017l0.115 0.007c0.103,0.006 0.206,0.014 0.309,0.023l0.106 0.008c0.103,0.009 0.206,0.019 0.309,0.03l0.117 0.012c0.096,0.01 0.191,0.022 0.287,0.033l0.135 0.017c0.096,0.012 0.192,0.026 0.289,0.039l0.122 0.018c0.095,0.014 0.19,0.029 0.285,0.045l0.135 0.022c0.094,0.016 0.187,0.033 0.281,0.05l0.129 0.025c0.093,0.017 0.185,0.036 0.278,0.055l0.135 0.028c0.091,0.019 0.182,0.04 0.272,0.06l0.138 0.031c0.086,0.021 0.173,0.042 0.259,0.063l0.154 0.039c0.081,0.021 0.162,0.042 0.243,0.064l0.164 0.044c0.077,0.022 0.153,0.044 0.23,0.066l0.174 0.051c0.076,0.023 0.151,0.046 0.227,0.07l0.172 0.054c0.074,0.024 0.148,0.049 0.222,0.074 0.059,0.019 0.118,0.039 0.177,0.059 0.068,0.024 0.136,0.048 0.204,0.072 0.066,0.024 0.131,0.047 0.197,0.071 0.062,0.023 0.124,0.046 0.186,0.07 0.068,0.026 0.137,0.052 0.205,0.079 0.063,0.024 0.126,0.049 0.188,0.075 0.066,0.026 0.131,0.052 0.196,0.079 0.065,0.027 0.13,0.055 0.195,0.082 0.062,0.027 0.124,0.053 0.186,0.08 0.067,0.03 0.134,0.06 0.201,0.09 0.06,0.027 0.121,0.054 0.181,0.082 0.063,0.029 0.126,0.059 0.189,0.089 0.065,0.031 0.13,0.062 0.195,0.094 0.056,0.027 0.112,0.055 0.168,0.083 0.069,0.034 0.139,0.069 0.208,0.105 0.054,0.027 0.107,0.055 0.16,0.083 0.071,0.037 0.141,0.074 0.211,0.111 0.053,0.029 0.105,0.058 0.158,0.087 0.07,0.038 0.14,0.077 0.21,0.116 0.049,0.028 0.098,0.057 0.147,0.085 0.073,0.042 0.145,0.084 0.217,0.126l0.136 0.082c0.076,0.046 0.152,0.092 0.228,0.139l0.12 0.075c0.078,0.049 0.156,0.099 0.234,0.15l0.116 0.076c0.078,0.052 0.157,0.104 0.236,0.157l0.108 0.074c0.078,0.054 0.156,0.108 0.234,0.163l0.111 0.08c0.078,0.056 0.156,0.113 0.234,0.17l0.098 0.074c0.078,0.058 0.156,0.117 0.233,0.176l0.106 0.083c0.076,0.06 0.152,0.12 0.227,0.18l0.092 0.074c0.08,0.066 0.159,0.131 0.239,0.198l0.08 0.068c0.079,0.067 0.158,0.135 0.236,0.203l0.086 0.076c0.079,0.07 0.157,0.14 0.234,0.21l0.067 0.062c0.083,0.077 0.165,0.153 0.247,0.231l0.056 0.054c0.082,0.079 0.163,0.157 0.243,0.237l0.069 0.069c0.076,0.076 0.153,0.153 0.228,0.232l0.068 0.071c0.077,0.08 0.153,0.16 0.229,0.242l0.055 0.06c0.077,0.083 0.153,0.168 0.229,0.253l0.061 0.07c0.074,0.084 0.148,0.168 0.221,0.254l0.052 0.062c0.075,0.088 0.149,0.177 0.222,0.267l0.053 0.065c0.072,0.089 0.143,0.178 0.214,0.269l0.053 0.067c0.071,0.092 0.141,0.184 0.211,0.277l0.014 0.02 -13.73 5.687 -5.687 -13.73z"/>
  <path class="fil3 str0" d="M295.524 20.854c14.517,-6.013 31.16,0.881 37.174,15.398 6.013,14.517 -0.881,31.161 -15.398,37.174 -14.517,6.013 -31.161,-0.881 -37.174,-15.398 -6.013,-14.517 0.881,-31.161 15.398,-37.174zm31.259 23.373c0.016,0.115 0.031,0.23 0.046,0.345l0.011 0.084c0.014,0.114 0.026,0.228 0.038,0.342l0.009 0.083c0.012,0.115 0.022,0.23 0.032,0.346l0.006 0.081c0.009,0.112 0.017,0.224 0.024,0.336l0.006 0.092c0.007,0.114 0.012,0.228 0.017,0.341l0.004 0.081c0.004,0.112 0.007,0.222 0.009,0.333l0.002 0.099c0.002,0.108 0.003,0.217 0.003,0.325l0 0.097c0,0.113 -0.002,0.226 -0.004,0.339l-0.002 0.079c-0.003,0.112 -0.007,0.225 -0.011,0.337l-0.004 0.091c-0.004,0.105 -0.01,0.21 -0.017,0.315l-0.007 0.115c-0.007,0.103 -0.015,0.206 -0.023,0.309l-0.009 0.106c-0.008,0.103 -0.019,0.206 -0.029,0.309l-0.012 0.117c-0.01,0.096 -0.022,0.191 -0.033,0.287l-0.017 0.134c-0.012,0.097 -0.026,0.193 -0.04,0.289l-0.017 0.122c-0.014,0.096 -0.03,0.191 -0.045,0.286l-0.022 0.135c-0.016,0.093 -0.033,0.187 -0.051,0.28l-0.024 0.13c-0.017,0.093 -0.036,0.185 -0.055,0.278l-0.028 0.135c-0.02,0.091 -0.04,0.181 -0.06,0.272l-0.032 0.137c-0.02,0.087 -0.041,0.174 -0.063,0.26l-0.038 0.154c-0.021,0.081 -0.042,0.162 -0.064,0.243l-0.045 0.163c-0.021,0.077 -0.043,0.154 -0.065,0.231l-0.051 0.173c-0.023,0.076 -0.047,0.152 -0.07,0.228l-0.054 0.172c-0.024,0.074 -0.049,0.148 -0.074,0.222 -0.019,0.059 -0.039,0.118 -0.059,0.177 -0.024,0.068 -0.048,0.136 -0.072,0.204 -0.024,0.066 -0.047,0.131 -0.071,0.197 -0.023,0.062 -0.046,0.124 -0.07,0.186 -0.026,0.068 -0.052,0.137 -0.079,0.205 -0.024,0.063 -0.05,0.125 -0.075,0.188 -0.026,0.065 -0.052,0.131 -0.079,0.196 -0.027,0.065 -0.055,0.13 -0.083,0.195 -0.026,0.062 -0.052,0.124 -0.079,0.186 -0.03,0.067 -0.06,0.134 -0.09,0.201 -0.027,0.06 -0.054,0.12 -0.082,0.18 -0.029,0.064 -0.059,0.127 -0.089,0.19 -0.031,0.065 -0.062,0.13 -0.094,0.195 -0.027,0.056 -0.055,0.112 -0.083,0.167 -0.034,0.07 -0.069,0.14 -0.105,0.209 -0.027,0.054 -0.055,0.107 -0.083,0.16 -0.037,0.07 -0.074,0.14 -0.111,0.21 -0.029,0.053 -0.058,0.106 -0.087,0.159 -0.039,0.07 -0.077,0.14 -0.117,0.21 -0.027,0.049 -0.056,0.098 -0.084,0.147 -0.042,0.072 -0.084,0.145 -0.126,0.217l-0.082 0.136c-0.046,0.076 -0.092,0.152 -0.139,0.228l-0.075 0.119c-0.049,0.079 -0.099,0.157 -0.15,0.235l-0.076 0.115c-0.052,0.079 -0.104,0.158 -0.157,0.236l-0.074 0.109c-0.054,0.078 -0.108,0.156 -0.163,0.234l-0.08 0.11c-0.056,0.079 -0.113,0.157 -0.17,0.234l-0.074 0.099c-0.058,0.078 -0.117,0.155 -0.176,0.232l-0.084 0.107c-0.059,0.076 -0.119,0.152 -0.179,0.227l-0.074 0.091c-0.066,0.081 -0.131,0.16 -0.198,0.24l-0.068 0.08c-0.068,0.079 -0.135,0.158 -0.203,0.236l-0.076 0.086c-0.07,0.078 -0.14,0.157 -0.211,0.234l-0.062 0.067c-0.076,0.083 -0.152,0.165 -0.23,0.246l-0.055 0.057c-0.078,0.082 -0.157,0.163 -0.236,0.243l-0.069 0.069c-0.076,0.076 -0.153,0.152 -0.232,0.228l-0.071 0.068c-0.08,0.077 -0.161,0.153 -0.242,0.228l-0.06 0.055c-0.083,0.077 -0.168,0.154 -0.253,0.23l-0.07 0.061c-0.084,0.074 -0.168,0.148 -0.254,0.22l-0.062 0.053c-0.088,0.075 -0.178,0.149 -0.267,0.222l-0.065 0.053c-0.089,0.072 -0.178,0.143 -0.269,0.214l-0.067 0.052c-0.092,0.071 -0.184,0.142 -0.277,0.211l-0.02 0.015 -5.687 -13.73 13.73 -5.687 0.004 0.025zm-17.433 23.28l-0.025 0.004c-0.115,0.016 -0.23,0.031 -0.345,0.046l-0.084 0.011c-0.114,0.014 -0.228,0.026 -0.342,0.038l-0.083 0.009c-0.115,0.012 -0.231,0.022 -0.346,0.032l-0.081 0.007c-0.112,0.009 -0.224,0.016 -0.336,0.024l-0.092 0.006c-0.114,0.006 -0.228,0.012 -0.341,0.016l-0.081 0.004c-0.112,0.004 -0.222,0.007 -0.333,0.009l-0.099 0.003c-0.109,0.001 -0.217,0.002 -0.325,0.002l-0.097 0c-0.113,0 -0.227,-0.002 -0.339,-0.004l-0.079 -0.002c-0.113,-0.002 -0.225,-0.006 -0.337,-0.011l-0.091 -0.004c-0.105,-0.004 -0.21,-0.01 -0.315,-0.017l-0.115 -0.006c-0.103,-0.007 -0.206,-0.015 -0.309,-0.024l-0.106 -0.008c-0.103,-0.009 -0.206,-0.019 -0.309,-0.03l-0.117 -0.012c-0.096,-0.01 -0.191,-0.021 -0.287,-0.033l-0.135 -0.017c-0.096,-0.012 -0.192,-0.025 -0.288,-0.039l-0.122 -0.018c-0.096,-0.014 -0.191,-0.029 -0.286,-0.045l-0.135 -0.022c-0.094,-0.016 -0.187,-0.033 -0.28,-0.05l-0.13 -0.024c-0.093,-0.018 -0.185,-0.037 -0.278,-0.056l-0.135 -0.028c-0.091,-0.019 -0.182,-0.039 -0.272,-0.06l-0.138 -0.031c-0.086,-0.021 -0.173,-0.042 -0.259,-0.063l-0.154 -0.039c-0.081,-0.02 -0.162,-0.042 -0.243,-0.064l-0.163 -0.044c-0.078,-0.022 -0.154,-0.044 -0.231,-0.066l-0.174 -0.051c-0.075,-0.023 -0.151,-0.046 -0.227,-0.07l-0.172 -0.054c-0.074,-0.024 -0.148,-0.049 -0.222,-0.073 -0.059,-0.02 -0.118,-0.04 -0.177,-0.06 -0.068,-0.024 -0.136,-0.048 -0.204,-0.072 -0.066,-0.024 -0.131,-0.047 -0.197,-0.071 -0.062,-0.023 -0.124,-0.046 -0.186,-0.07 -0.068,-0.026 -0.137,-0.052 -0.205,-0.078 -0.063,-0.025 -0.125,-0.05 -0.188,-0.076 -0.066,-0.026 -0.131,-0.052 -0.196,-0.079 -0.065,-0.027 -0.13,-0.055 -0.195,-0.082 -0.062,-0.027 -0.124,-0.053 -0.186,-0.08 -0.067,-0.03 -0.134,-0.06 -0.201,-0.09 -0.06,-0.027 -0.12,-0.054 -0.18,-0.082 -0.064,-0.029 -0.127,-0.059 -0.19,-0.089 -0.065,-0.031 -0.13,-0.062 -0.195,-0.093 -0.056,-0.028 -0.112,-0.056 -0.167,-0.083 -0.07,-0.035 -0.14,-0.07 -0.209,-0.106 -0.054,-0.027 -0.107,-0.055 -0.16,-0.083 -0.07,-0.037 -0.141,-0.074 -0.21,-0.111 -0.054,-0.029 -0.106,-0.058 -0.159,-0.087 -0.07,-0.038 -0.14,-0.077 -0.21,-0.116 -0.049,-0.028 -0.098,-0.057 -0.147,-0.085 -0.072,-0.042 -0.145,-0.083 -0.217,-0.126l-0.136 -0.082c-0.076,-0.046 -0.152,-0.092 -0.228,-0.139l-0.119 -0.075c-0.079,-0.049 -0.157,-0.099 -0.235,-0.149l-0.116 -0.076c-0.078,-0.052 -0.157,-0.105 -0.235,-0.158l-0.109 -0.074c-0.078,-0.054 -0.156,-0.108 -0.234,-0.163l-0.111 -0.08c-0.078,-0.056 -0.156,-0.112 -0.234,-0.17l-0.098 -0.074c-0.078,-0.058 -0.156,-0.116 -0.233,-0.176l-0.106 -0.083c-0.076,-0.06 -0.152,-0.12 -0.227,-0.18l-0.091 -0.074c-0.081,-0.066 -0.16,-0.131 -0.24,-0.198l-0.08 -0.068c-0.079,-0.067 -0.158,-0.135 -0.236,-0.203l-0.086 -0.076c-0.078,-0.07 -0.157,-0.14 -0.234,-0.21l-0.067 -0.062c-0.083,-0.076 -0.165,-0.153 -0.247,-0.231l-0.056 -0.054c-0.082,-0.079 -0.163,-0.157 -0.243,-0.237l-0.069 -0.069c-0.076,-0.076 -0.152,-0.153 -0.228,-0.231l-0.068 -0.072c-0.077,-0.08 -0.153,-0.16 -0.229,-0.242l-0.055 -0.06c-0.076,-0.083 -0.153,-0.168 -0.229,-0.253l-0.061 -0.069c-0.074,-0.084 -0.148,-0.169 -0.221,-0.254l-0.052 -0.063c-0.075,-0.088 -0.149,-0.177 -0.222,-0.267l-0.053 -0.065c-0.072,-0.089 -0.143,-0.178 -0.214,-0.269l-0.052 -0.067c-0.071,-0.092 -0.142,-0.184 -0.211,-0.277l-0.015 -0.02 13.73 -5.687 5.687 13.73zm-23.309 -17.454c-0.016,-0.115 -0.032,-0.229 -0.046,-0.345l-0.011 -0.084c-0.014,-0.114 -0.027,-0.228 -0.039,-0.342l-0.008 -0.083c-0.012,-0.115 -0.022,-0.23 -0.032,-0.345l-0.007 -0.082c-0.009,-0.112 -0.017,-0.224 -0.024,-0.336l-0.006 -0.092c-0.006,-0.114 -0.012,-0.228 -0.016,-0.341l-0.004 -0.081c-0.004,-0.111 -0.007,-0.222 -0.009,-0.333l-0.003 -0.099c-0.002,-0.108 -0.002,-0.217 -0.002,-0.325l0 -0.097c0,-0.113 0.002,-0.226 0.004,-0.339l0.001 -0.079c0.003,-0.112 0.007,-0.225 0.012,-0.337l0.003 -0.091c0.005,-0.105 0.011,-0.21 0.017,-0.315l0.007 -0.114c0.007,-0.104 0.015,-0.207 0.024,-0.31l0.008 -0.106c0.009,-0.103 0.019,-0.206 0.03,-0.308l0.012 -0.117c0.01,-0.096 0.021,-0.192 0.033,-0.288l0.017 -0.134c0.012,-0.097 0.025,-0.193 0.039,-0.289l0.018 -0.122c0.014,-0.096 0.029,-0.191 0.045,-0.286l0.022 -0.135c0.016,-0.093 0.033,-0.187 0.05,-0.28l0.024 -0.13c0.018,-0.092 0.037,-0.185 0.056,-0.278l0.028 -0.135c0.019,-0.091 0.039,-0.181 0.06,-0.272l0.031 -0.137c0.021,-0.087 0.042,-0.174 0.063,-0.26l0.039 -0.154c0.02,-0.081 0.042,-0.162 0.064,-0.243l0.044 -0.163c0.022,-0.077 0.044,-0.154 0.066,-0.231l0.051 -0.173c0.023,-0.076 0.046,-0.152 0.07,-0.228l0.054 -0.172c0.024,-0.074 0.049,-0.148 0.073,-0.222 0.02,-0.059 0.04,-0.118 0.06,-0.177 0.024,-0.068 0.048,-0.136 0.072,-0.204 0.023,-0.065 0.047,-0.131 0.071,-0.197 0.023,-0.062 0.046,-0.124 0.07,-0.185 0.026,-0.069 0.052,-0.138 0.078,-0.206 0.025,-0.063 0.05,-0.125 0.075,-0.188 0.027,-0.065 0.053,-0.131 0.08,-0.196 0.027,-0.065 0.055,-0.13 0.082,-0.195 0.027,-0.062 0.053,-0.124 0.08,-0.186 0.03,-0.067 0.06,-0.134 0.09,-0.2 0.027,-0.061 0.054,-0.121 0.082,-0.181 0.029,-0.064 0.059,-0.127 0.089,-0.19 0.031,-0.065 0.062,-0.13 0.093,-0.195 0.028,-0.056 0.056,-0.112 0.083,-0.167 0.035,-0.07 0.07,-0.14 0.106,-0.209 0.027,-0.054 0.055,-0.107 0.083,-0.16 0.037,-0.07 0.073,-0.14 0.111,-0.21 0.029,-0.053 0.058,-0.106 0.087,-0.159 0.038,-0.07 0.077,-0.14 0.116,-0.209 0.028,-0.05 0.056,-0.099 0.085,-0.148 0.041,-0.072 0.083,-0.145 0.126,-0.217l0.081 -0.136c0.046,-0.076 0.093,-0.152 0.14,-0.228l0.075 -0.119c0.049,-0.079 0.099,-0.157 0.149,-0.235l0.076 -0.115c0.052,-0.079 0.105,-0.158 0.158,-0.236l0.074 -0.109c0.054,-0.078 0.108,-0.156 0.163,-0.233l0.079 -0.111c0.057,-0.079 0.113,-0.157 0.171,-0.234l0.074 -0.099c0.058,-0.078 0.116,-0.155 0.176,-0.232l0.083 -0.107c0.06,-0.076 0.119,-0.152 0.18,-0.227l0.074 -0.091c0.065,-0.08 0.131,-0.16 0.198,-0.239l0.068 -0.081c0.067,-0.079 0.134,-0.158 0.203,-0.235l0.076 -0.087c0.069,-0.078 0.14,-0.156 0.21,-0.234l0.062 -0.067c0.076,-0.083 0.153,-0.165 0.231,-0.246l0.054 -0.057c0.078,-0.082 0.157,-0.163 0.237,-0.243l0.068 -0.068c0.077,-0.077 0.154,-0.153 0.232,-0.229l0.072 -0.068c0.08,-0.077 0.16,-0.153 0.242,-0.228l0.059 -0.055c0.084,-0.077 0.169,-0.154 0.254,-0.23l0.069 -0.061c0.084,-0.074 0.169,-0.147 0.254,-0.22l0.063 -0.053c0.088,-0.075 0.177,-0.149 0.267,-0.222l0.065 -0.053c0.089,-0.072 0.178,-0.143 0.268,-0.214l0.068 -0.052c0.091,-0.071 0.183,-0.142 0.276,-0.211l0.021 -0.015 5.687 13.73 -13.73 5.687 -0.004 -0.025zm17.433 -23.28l0.025 -0.004c0.115,-0.016 0.229,-0.031 0.344,-0.046l0.085 -0.011c0.114,-0.014 0.228,-0.026 0.342,-0.038l0.083 -0.009c0.115,-0.012 0.23,-0.022 0.345,-0.032l0.082 -0.007c0.112,-0.009 0.224,-0.016 0.335,-0.024l0.093 -0.005c0.114,-0.007 0.227,-0.012 0.341,-0.017l0.081 -0.004c0.111,-0.004 0.222,-0.007 0.333,-0.009l0.099 -0.002c0.108,-0.002 0.217,-0.003 0.325,-0.003l0.097 0c0.113,0 0.226,0.002 0.339,0.004l0.079 0.002c0.112,0.002 0.224,0.006 0.337,0.011l0.091 0.004c0.105,0.004 0.21,0.01 0.315,0.017l0.114 0.007c0.104,0.006 0.207,0.014 0.31,0.023l0.106 0.008c0.103,0.009 0.205,0.019 0.308,0.03l0.117 0.012c0.096,0.01 0.192,0.022 0.288,0.033l0.134 0.017c0.097,0.012 0.193,0.026 0.289,0.039l0.122 0.018c0.095,0.014 0.191,0.029 0.286,0.045l0.135 0.022c0.093,0.016 0.187,0.033 0.28,0.05l0.129 0.025c0.093,0.017 0.186,0.036 0.278,0.055l0.136 0.028c0.091,0.019 0.181,0.04 0.272,0.06l0.137 0.031c0.087,0.021 0.173,0.042 0.26,0.063l0.153 0.039c0.082,0.021 0.162,0.042 0.243,0.064l0.164 0.044c0.077,0.022 0.154,0.044 0.231,0.066l0.173 0.051c0.076,0.023 0.152,0.046 0.228,0.07l0.171 0.054c0.075,0.024 0.149,0.049 0.222,0.074 0.059,0.019 0.119,0.039 0.177,0.059 0.069,0.024 0.136,0.048 0.205,0.072 0.065,0.024 0.131,0.047 0.197,0.071 0.062,0.023 0.124,0.046 0.185,0.07 0.069,0.026 0.137,0.052 0.206,0.079 0.063,0.024 0.125,0.049 0.188,0.075 0.065,0.026 0.131,0.052 0.196,0.079 0.065,0.027 0.13,0.055 0.195,0.082 0.062,0.027 0.124,0.053 0.185,0.08 0.068,0.03 0.134,0.06 0.201,0.09 0.061,0.027 0.121,0.054 0.181,0.082 0.063,0.029 0.126,0.059 0.19,0.089 0.065,0.031 0.13,0.062 0.195,0.094 0.056,0.027 0.111,0.055 0.167,0.083 0.07,0.034 0.14,0.069 0.209,0.105 0.053,0.027 0.107,0.055 0.16,0.083 0.07,0.037 0.14,0.074 0.21,0.111 0.053,0.029 0.106,0.058 0.159,0.087 0.07,0.038 0.14,0.077 0.209,0.116 0.05,0.028 0.098,0.057 0.148,0.085 0.072,0.042 0.144,0.084 0.217,0.126l0.135 0.082c0.077,0.046 0.153,0.092 0.229,0.139l0.119 0.075c0.079,0.049 0.157,0.099 0.235,0.15l0.115 0.076c0.079,0.052 0.158,0.104 0.236,0.157l0.109 0.074c0.078,0.054 0.156,0.108 0.233,0.163l0.111 0.08c0.078,0.056 0.157,0.113 0.234,0.17l0.099 0.074c0.078,0.058 0.155,0.117 0.232,0.176l0.107 0.083c0.076,0.06 0.152,0.12 0.227,0.18l0.091 0.074c0.08,0.066 0.16,0.131 0.239,0.198l0.081 0.068c0.079,0.067 0.158,0.135 0.235,0.203l0.086 0.076c0.079,0.07 0.157,0.14 0.235,0.21l0.067 0.062c0.083,0.077 0.165,0.153 0.246,0.231l0.057 0.054c0.081,0.079 0.162,0.157 0.243,0.237l0.068 0.069c0.077,0.076 0.153,0.153 0.228,0.232l0.069 0.071c0.076,0.08 0.153,0.16 0.228,0.242l0.055 0.06c0.077,0.083 0.154,0.168 0.23,0.253l0.061 0.07c0.074,0.084 0.147,0.168 0.22,0.254l0.053 0.062c0.074,0.088 0.149,0.177 0.222,0.267l0.052 0.065c0.072,0.089 0.144,0.178 0.215,0.269l0.052 0.067c0.071,0.092 0.141,0.184 0.211,0.277l0.015 0.02 -13.73 5.687 -5.687 -13.73z"/>
 </g>
</svg>
