<?xml version="1.0" encoding="UTF-8"?>
<!DOCTYPE svg PUBLIC "-//W3C//DTD SVG 1.1//EN" "http://www.w3.org/Graphics/SVG/1.1/DTD/svg11.dtd">
<!-- Creator: CorelDRAW 2019 (64-Bit) -->
<svg xmlns="http://www.w3.org/2000/svg" xml:space="preserve" width="750px" height="200px" version="1.1" style="shape-rendering:geometricPrecision; text-rendering:geometricPrecision; image-rendering:optimizeQuality; fill-rule:evenodd; clip-rule:evenodd"
viewBox="0 0 353.551 94.28"
 xmlns:xlink="http://www.w3.org/1999/xlink"
 xmlns:xodm="http://www.corel.com/coreldraw/odm/2003">
 <defs>
  <style type="text/css">
   <![CDATA[
    .str0 {stroke:black;stroke-width:0.267;stroke-miterlimit:22.9256}
    .fil0 {fill:none}
    .fil3 {fill:#4D4D4D}
    .fil1 {fill:#663333}
    .fil2 {fill:#B3B3B3}
   ]]>
  </style>
 </defs>
 <g id="Слой_x0020_1">
  <metadata id="CorelCorpID_0Corel-Layer"/>
  <rect class="fil0" width="353.551" height="94.28"/>
  <rect class="fil0 str0" x="47.139" y="18.688" width="259.273" height="56.903"/>
  <rect class="fil1 str0" x="53.032" y="75.592" width="23.57" height="9.428"/>
  <rect class="fil2 str0" x="76.602" y="75.592" width="23.57" height="9.428"/>
  <rect class="fil1 str0" x="100.172" y="75.592" width="23.57" height="9.428"/>
  <rect class="fil2 str0" x="123.743" y="75.592" width="23.57" height="9.428"/>
  <rect class="fil1 str0" x="147.313" y="75.592" width="23.57" height="9.428"/>
  <rect class="fil2 str0" x="170.883" y="75.592" width="23.57" height="9.428"/>
  <rect class="fil1 str0" x="194.453" y="75.592" width="23.57" height="9.428"/>
  <rect class="fil2 str0" x="218.024" y="75.592" width="23.57" height="9.428"/>
  <rect class="fil1 str0" x="241.594" y="75.592" width="23.57" height="9.428"/>
  <rect class="fil2 str0" x="265.164" y="75.592" width="23.57" height="9.428"/>
  <rect class="fil1 str0" x="288.734" y="75.592" width="23.57" height="9.428"/>
  <rect class="fil2 str0" x="276.949" y="9.261" width="23.57" height="9.428"/>
  <rect class="fil1 str0" x="253.379" y="9.261" width="23.57" height="9.428"/>
  <rect class="fil2 str0" x="229.809" y="9.261" width="23.57" height="9.428"/>
  <rect class="fil1 str0" x="206.238" y="9.261" width="23.57" height="9.428"/>
  <rect class="fil2 str0" x="182.668" y="9.261" width="23.57" height="9.428"/>
  <rect class="fil1 str0" x="159.098" y="9.261" width="23.57" height="9.428"/>
  <rect class="fil2 str0" x="135.528" y="9.261" width="23.57" height="9.428"/>
  <rect class="fil1 str0" x="111.957" y="9.261" width="23.57" height="9.428"/>
  <rect class="fil2 str0" x="88.387" y="9.261" width="23.57" height="9.428"/>
  <rect class="fil1 str0" x="64.817" y="9.261" width="23.57" height="9.428"/>
  <rect class="fil2 str0" x="41.247" y="9.261" width="23.57" height="9.428"/>
  <rect class="fil1 str0" transform="matrix(-0.856595 0.453452 -0.239928 -0.453237 41.232 18.6509)" width="24.319" height="18.385"/>
  <rect class="fil2 str0" transform="matrix(-0.0617799 0.967242 -0.511782 -0.0326887 20.4006 29.6783)" width="24.319" height="18.385"/>
  <rect class="fil1 str0" transform="matrix(0.441685 0.862722 -0.456479 0.233702 18.891 53.2039)" width="24.319" height="18.385"/>
  <rect class="fil2 str0" transform="matrix(0.967862 0.0511517 -0.0270651 0.51211 29.4946 74.3479)" width="24.319" height="18.385"/>
  <rect class="fil2 str0" transform="matrix(0.856595 -0.453452 0.239928 0.453237 312.319 75.6295)" width="24.319" height="18.385"/>
  <rect class="fil1 str0" transform="matrix(0.0617799 -0.967242 0.511782 0.0326887 333.15 64.6021)" width="24.319" height="18.385"/>
  <rect class="fil2 str0" transform="matrix(-0.441685 -0.862722 0.456479 -0.233702 334.66 41.0765)" width="24.319" height="18.385"/>
  <rect class="fil1 str0" transform="matrix(-0.967862 -0.0511517 0.0270651 -0.51211 324.056 19.9325)" width="24.319" height="18.385"/>
  <path class="fil3 str0" d="M31.332 23.483c13.066,-8.73 30.734,-5.215 39.464,7.85 8.73,13.065 5.215,30.734 -7.85,39.464 -13.065,8.73 -30.734,5.215 -39.463,-7.85 -8.73,-13.065 -5.216,-30.734 7.849,-39.464zm35.218 16.826c0.039,0.109 0.076,0.219 0.113,0.329l0.027 0.081c0.036,0.109 0.07,0.218 0.105,0.327l0.024 0.08c0.034,0.111 0.067,0.222 0.099,0.333l0.022 0.078c0.031,0.109 0.06,0.216 0.089,0.325l0.024 0.089c0.029,0.111 0.056,0.221 0.083,0.332l0.019 0.079c0.026,0.108 0.051,0.216 0.075,0.324l0.021 0.097c0.023,0.106 0.045,0.212 0.066,0.318l0.019 0.095c0.022,0.111 0.042,0.222 0.062,0.333l0.014 0.078c0.019,0.111 0.037,0.222 0.055,0.333l0.014 0.09c0.016,0.104 0.03,0.208 0.044,0.312l0.016 0.114c0.014,0.102 0.026,0.205 0.038,0.308l0.012 0.105c0.011,0.103 0.021,0.206 0.031,0.309l0.011 0.117c0.009,0.096 0.016,0.192 0.024,0.288l0.01 0.136c0.006,0.096 0.012,0.193 0.017,0.291l0.007 0.123c0.004,0.096 0.008,0.192 0.011,0.289l0.005 0.136c0.002,0.095 0.004,0.19 0.005,0.285l0.002 0.132c0.001,0.094 0,0.189 0,0.283l-0.001 0.138c-0.002,0.093 -0.004,0.186 -0.006,0.279l-0.004 0.141c-0.003,0.089 -0.007,0.178 -0.011,0.267l-0.008 0.158c-0.004,0.083 -0.01,0.167 -0.016,0.251l-0.011 0.169c-0.006,0.08 -0.013,0.159 -0.02,0.239l-0.016 0.18c-0.007,0.079 -0.016,0.158 -0.024,0.237l-0.02 0.179c-0.009,0.077 -0.019,0.154 -0.028,0.232 -0.008,0.062 -0.016,0.123 -0.024,0.185 -0.01,0.071 -0.021,0.143 -0.031,0.214 -0.01,0.069 -0.02,0.138 -0.031,0.207 -0.01,0.066 -0.021,0.131 -0.032,0.196 -0.012,0.072 -0.025,0.145 -0.037,0.217 -0.012,0.066 -0.025,0.133 -0.037,0.199 -0.013,0.069 -0.026,0.139 -0.04,0.208 -0.014,0.069 -0.028,0.138 -0.043,0.207 -0.014,0.066 -0.027,0.132 -0.042,0.198 -0.016,0.071 -0.032,0.143 -0.049,0.214 -0.015,0.065 -0.029,0.129 -0.045,0.193 -0.016,0.068 -0.033,0.136 -0.05,0.204 -0.018,0.07 -0.035,0.14 -0.054,0.21 -0.016,0.06 -0.032,0.12 -0.049,0.18 -0.02,0.075 -0.041,0.15 -0.062,0.225 -0.016,0.058 -0.033,0.115 -0.05,0.173 -0.023,0.076 -0.045,0.152 -0.069,0.228 -0.017,0.058 -0.035,0.115 -0.054,0.172 -0.024,0.077 -0.048,0.153 -0.073,0.229 -0.018,0.053 -0.036,0.107 -0.054,0.161 -0.027,0.079 -0.054,0.158 -0.082,0.237l-0.053 0.149c-0.03,0.084 -0.061,0.168 -0.092,0.251l-0.05 0.132c-0.033,0.087 -0.067,0.173 -0.101,0.259l-0.052 0.129c-0.036,0.087 -0.072,0.175 -0.109,0.261l-0.051 0.121c-0.038,0.088 -0.076,0.175 -0.115,0.261l-0.056 0.125c-0.04,0.088 -0.08,0.175 -0.121,0.262l-0.053 0.112c-0.042,0.087 -0.085,0.175 -0.128,0.262l-0.061 0.121c-0.043,0.086 -0.087,0.172 -0.132,0.257l-0.055 0.104c-0.048,0.092 -0.097,0.183 -0.147,0.274l-0.051 0.092c-0.051,0.091 -0.101,0.181 -0.153,0.271l-0.058 0.099c-0.053,0.09 -0.106,0.181 -0.161,0.271l-0.047 0.078c-0.059,0.095 -0.118,0.191 -0.178,0.286l-0.043 0.066c-0.061,0.096 -0.122,0.19 -0.184,0.285l-0.054 0.08c-0.061,0.09 -0.121,0.18 -0.183,0.269l-0.057 0.081c-0.064,0.091 -0.128,0.182 -0.193,0.272l-0.048 0.065c-0.067,0.092 -0.135,0.184 -0.203,0.274l-0.057 0.074c-0.068,0.089 -0.136,0.178 -0.206,0.266l-0.051 0.064c-0.072,0.09 -0.145,0.18 -0.218,0.27l-0.054 0.064c-0.073,0.088 -0.147,0.175 -0.222,0.262l-0.056 0.065c-0.075,0.087 -0.152,0.174 -0.23,0.261l-0.016 0.018 -8.257 -12.356 12.357 -8.257 0.008 0.024zm-12.556 26.234l-0.023 0.008c-0.11,0.039 -0.22,0.076 -0.329,0.113l-0.081 0.027c-0.109,0.036 -0.219,0.07 -0.328,0.104l-0.08 0.025c-0.11,0.034 -0.221,0.067 -0.333,0.099l-0.078 0.022c-0.108,0.031 -0.216,0.06 -0.325,0.089l-0.089 0.024c-0.11,0.029 -0.221,0.056 -0.332,0.083l-0.078 0.019c-0.108,0.026 -0.217,0.05 -0.325,0.075l-0.096 0.021c-0.106,0.023 -0.213,0.045 -0.319,0.066l-0.095 0.019c-0.111,0.022 -0.222,0.042 -0.333,0.062l-0.078 0.014c-0.111,0.019 -0.221,0.037 -0.333,0.054l-0.09 0.015c-0.104,0.016 -0.208,0.03 -0.311,0.044l-0.114 0.016c-0.103,0.013 -0.206,0.026 -0.309,0.037l-0.105 0.013c-0.103,0.011 -0.206,0.021 -0.308,0.031l-0.118 0.011c-0.096,0.009 -0.192,0.016 -0.288,0.023l-0.135 0.01c-0.097,0.007 -0.194,0.013 -0.291,0.018l-0.123 0.006c-0.097,0.005 -0.193,0.009 -0.289,0.012l-0.137 0.005c-0.095,0.002 -0.19,0.004 -0.285,0.005l-0.131 0.002c-0.095,0 -0.189,0 -0.284,-0.001l-0.138 -0.001c-0.093,-0.001 -0.186,-0.003 -0.278,-0.006l-0.141 -0.003c-0.089,-0.003 -0.178,-0.007 -0.267,-0.012l-0.158 -0.007c-0.084,-0.005 -0.168,-0.01 -0.251,-0.016l-0.17 -0.011c-0.079,-0.006 -0.159,-0.013 -0.239,-0.02l-0.179 -0.016c-0.079,-0.007 -0.158,-0.016 -0.237,-0.024l-0.179 -0.02c-0.078,-0.009 -0.155,-0.019 -0.232,-0.028 -0.062,-0.008 -0.124,-0.016 -0.186,-0.024 -0.071,-0.01 -0.142,-0.021 -0.214,-0.031 -0.069,-0.01 -0.138,-0.02 -0.207,-0.031 -0.065,-0.011 -0.131,-0.022 -0.196,-0.032 -0.072,-0.013 -0.144,-0.025 -0.217,-0.038 -0.066,-0.012 -0.132,-0.024 -0.199,-0.037 -0.069,-0.012 -0.138,-0.026 -0.207,-0.039 -0.069,-0.014 -0.138,-0.029 -0.207,-0.043 -0.066,-0.014 -0.132,-0.028 -0.198,-0.042 -0.072,-0.016 -0.143,-0.032 -0.215,-0.049 -0.064,-0.015 -0.129,-0.029 -0.193,-0.045 -0.068,-0.016 -0.136,-0.034 -0.203,-0.05 -0.07,-0.018 -0.14,-0.036 -0.21,-0.054 -0.06,-0.016 -0.12,-0.032 -0.18,-0.049 -0.076,-0.02 -0.151,-0.041 -0.226,-0.062 -0.057,-0.017 -0.115,-0.034 -0.173,-0.051 -0.076,-0.022 -0.152,-0.045 -0.228,-0.068 -0.057,-0.017 -0.115,-0.036 -0.172,-0.054 -0.076,-0.024 -0.152,-0.048 -0.228,-0.073 -0.054,-0.018 -0.108,-0.036 -0.161,-0.054 -0.08,-0.027 -0.159,-0.054 -0.238,-0.082l-0.149 -0.053c-0.084,-0.03 -0.168,-0.061 -0.251,-0.092l-0.132 -0.051c-0.086,-0.033 -0.173,-0.066 -0.259,-0.101l-0.128 -0.052c-0.088,-0.035 -0.175,-0.071 -0.262,-0.108l-0.121 -0.052c-0.087,-0.037 -0.174,-0.075 -0.261,-0.114l-0.125 -0.056c-0.087,-0.04 -0.175,-0.08 -0.262,-0.121l-0.111 -0.054c-0.088,-0.041 -0.175,-0.084 -0.263,-0.127l-0.121 -0.061c-0.086,-0.044 -0.172,-0.088 -0.257,-0.132l-0.104 -0.055c-0.092,-0.048 -0.183,-0.097 -0.273,-0.147l-0.093 -0.052c-0.09,-0.05 -0.18,-0.101 -0.27,-0.152l-0.099 -0.058c-0.091,-0.053 -0.182,-0.107 -0.271,-0.161l-0.078 -0.048c-0.096,-0.058 -0.192,-0.117 -0.287,-0.177l-0.066 -0.043c-0.095,-0.061 -0.19,-0.122 -0.284,-0.185l-0.081 -0.054c-0.09,-0.06 -0.18,-0.121 -0.269,-0.182l-0.081 -0.057c-0.091,-0.064 -0.181,-0.128 -0.271,-0.193l-0.066 -0.048c-0.092,-0.067 -0.183,-0.135 -0.274,-0.204l-0.074 -0.056c-0.089,-0.068 -0.177,-0.137 -0.265,-0.206l-0.064 -0.051c-0.091,-0.072 -0.181,-0.145 -0.27,-0.219l-0.064 -0.053c-0.088,-0.073 -0.176,-0.147 -0.263,-0.222l-0.064 -0.056c-0.088,-0.076 -0.175,-0.152 -0.261,-0.23l-0.019 -0.017 12.357 -8.256 8.256 12.357zm-26.266 -12.572c-0.038,-0.109 -0.076,-0.219 -0.112,-0.329l-0.028 -0.081c-0.035,-0.109 -0.07,-0.218 -0.104,-0.327l-0.025 -0.08c-0.034,-0.11 -0.066,-0.222 -0.098,-0.333l-0.023 -0.078c-0.03,-0.108 -0.06,-0.216 -0.089,-0.325l-0.024 -0.089c-0.028,-0.111 -0.056,-0.221 -0.083,-0.332l-0.019 -0.078c-0.026,-0.109 -0.05,-0.217 -0.074,-0.325l-0.022 -0.097c-0.023,-0.106 -0.045,-0.212 -0.066,-0.318l-0.019 -0.095c-0.021,-0.111 -0.042,-0.222 -0.061,-0.333l-0.014 -0.078c-0.02,-0.111 -0.038,-0.222 -0.055,-0.333l-0.014 -0.09c-0.016,-0.104 -0.031,-0.208 -0.045,-0.312l-0.016 -0.114c-0.013,-0.102 -0.025,-0.205 -0.037,-0.308l-0.012 -0.105c-0.012,-0.103 -0.022,-0.206 -0.032,-0.309l-0.011 -0.117c-0.008,-0.096 -0.016,-0.192 -0.023,-0.288l-0.01 -0.135c-0.007,-0.097 -0.012,-0.194 -0.018,-0.291l-0.006 -0.124c-0.005,-0.096 -0.008,-0.192 -0.012,-0.289l-0.004 -0.136c-0.003,-0.095 -0.004,-0.19 -0.006,-0.285l-0.001 -0.132c-0.001,-0.094 -0.001,-0.188 0,-0.283l0.001 -0.138c0.001,-0.093 0.003,-0.186 0.006,-0.278l0.004 -0.142c0.003,-0.089 0.007,-0.178 0.011,-0.267l0.007 -0.158c0.005,-0.083 0.01,-0.167 0.016,-0.25l0.012 -0.17c0.006,-0.08 0.012,-0.159 0.019,-0.239l0.016 -0.18c0.008,-0.079 0.016,-0.157 0.025,-0.236l0.019 -0.179c0.009,-0.078 0.019,-0.155 0.029,-0.233 0.008,-0.061 0.015,-0.123 0.024,-0.185 0.009,-0.071 0.02,-0.143 0.031,-0.214 0.01,-0.069 0.02,-0.138 0.031,-0.207 0.01,-0.065 0.021,-0.131 0.032,-0.196 0.012,-0.072 0.024,-0.145 0.037,-0.217 0.012,-0.066 0.024,-0.132 0.037,-0.199 0.013,-0.069 0.026,-0.138 0.04,-0.208 0.013,-0.069 0.028,-0.138 0.042,-0.207 0.014,-0.066 0.028,-0.132 0.042,-0.198 0.016,-0.071 0.033,-0.143 0.049,-0.214 0.015,-0.065 0.03,-0.129 0.045,-0.193 0.017,-0.068 0.034,-0.136 0.051,-0.204 0.018,-0.07 0.035,-0.14 0.053,-0.209 0.016,-0.061 0.033,-0.121 0.049,-0.181 0.021,-0.075 0.041,-0.15 0.062,-0.225 0.017,-0.058 0.034,-0.115 0.051,-0.173 0.022,-0.076 0.045,-0.152 0.068,-0.228 0.018,-0.058 0.036,-0.115 0.054,-0.172 0.024,-0.077 0.049,-0.153 0.074,-0.229 0.017,-0.053 0.036,-0.107 0.054,-0.16 0.026,-0.08 0.053,-0.159 0.081,-0.238l0.054 -0.149c0.03,-0.084 0.06,-0.168 0.091,-0.251l0.051 -0.132c0.033,-0.086 0.067,-0.173 0.101,-0.259l0.052 -0.128c0.036,-0.088 0.071,-0.175 0.108,-0.262l0.052 -0.121c0.037,-0.088 0.075,-0.175 0.114,-0.261l0.056 -0.125c0.04,-0.087 0.081,-0.175 0.122,-0.262l0.053 -0.112c0.042,-0.087 0.084,-0.175 0.128,-0.262l0.06 -0.121c0.044,-0.086 0.088,-0.172 0.132,-0.257l0.055 -0.104c0.049,-0.092 0.098,-0.183 0.147,-0.273l0.052 -0.093c0.05,-0.09 0.101,-0.181 0.153,-0.27l0.058 -0.1c0.053,-0.09 0.106,-0.181 0.16,-0.271l0.048 -0.078c0.058,-0.095 0.118,-0.191 0.178,-0.286l0.042 -0.066c0.061,-0.095 0.123,-0.19 0.185,-0.285l0.054 -0.08c0.06,-0.09 0.121,-0.18 0.183,-0.269l0.057 -0.081c0.063,-0.091 0.127,-0.181 0.192,-0.271l0.048 -0.066c0.067,-0.092 0.135,-0.183 0.204,-0.274l0.056 -0.074c0.068,-0.089 0.137,-0.178 0.206,-0.266l0.051 -0.064c0.072,-0.09 0.145,-0.18 0.219,-0.27l0.053 -0.064c0.073,-0.088 0.147,-0.175 0.222,-0.262l0.056 -0.065c0.076,-0.087 0.153,-0.174 0.23,-0.261l0.017 -0.018 8.256 12.356 -12.356 8.257 -0.009 -0.024zm12.556 -26.234l0.024 -0.008c0.109,-0.039 0.219,-0.076 0.329,-0.113l0.081 -0.027c0.109,-0.036 0.218,-0.07 0.328,-0.104l0.079 -0.025c0.111,-0.034 0.222,-0.066 0.333,-0.099l0.079 -0.022c0.108,-0.031 0.216,-0.06 0.324,-0.089l0.09 -0.024c0.11,-0.028 0.22,-0.056 0.331,-0.083l0.079 -0.019c0.108,-0.026 0.216,-0.05 0.324,-0.074l0.097 -0.022c0.106,-0.023 0.212,-0.045 0.318,-0.066l0.095 -0.019c0.111,-0.021 0.223,-0.042 0.334,-0.062l0.077 -0.014c0.111,-0.019 0.222,-0.037 0.333,-0.054l0.09 -0.015c0.104,-0.015 0.208,-0.03 0.312,-0.044l0.114 -0.016c0.103,-0.013 0.205,-0.025 0.308,-0.037l0.105 -0.013c0.103,-0.011 0.206,-0.021 0.309,-0.031l0.117 -0.011c0.096,-0.009 0.192,-0.016 0.289,-0.023l0.135 -0.01c0.097,-0.007 0.194,-0.013 0.291,-0.018l0.123 -0.006c0.096,-0.005 0.192,-0.009 0.289,-0.012l0.136 -0.004c0.095,-0.003 0.19,-0.005 0.285,-0.006l0.132 -0.002c0.094,0 0.189,0 0.283,0.001l0.139 0.001c0.092,0.001 0.185,0.003 0.278,0.006l0.141 0.004c0.089,0.003 0.178,0.006 0.267,0.011l0.158 0.007c0.084,0.005 0.167,0.01 0.251,0.016l0.169 0.012c0.08,0.006 0.159,0.012 0.239,0.019l0.18 0.016c0.079,0.008 0.158,0.016 0.237,0.024l0.179 0.02c0.077,0.009 0.155,0.019 0.232,0.029 0.062,0.007 0.123,0.015 0.185,0.024 0.072,0.009 0.143,0.02 0.214,0.03 0.069,0.011 0.138,0.021 0.207,0.031 0.066,0.011 0.131,0.022 0.196,0.033 0.073,0.012 0.145,0.024 0.217,0.037 0.066,0.012 0.133,0.024 0.199,0.037 0.069,0.013 0.139,0.026 0.208,0.039 0.069,0.014 0.138,0.029 0.207,0.043 0.066,0.014 0.132,0.028 0.198,0.042 0.072,0.016 0.143,0.032 0.214,0.049 0.065,0.015 0.129,0.03 0.194,0.045 0.068,0.017 0.135,0.034 0.203,0.051 0.07,0.017 0.14,0.035 0.21,0.053 0.06,0.016 0.12,0.033 0.18,0.049 0.075,0.02 0.15,0.041 0.225,0.062 0.058,0.017 0.116,0.034 0.173,0.051 0.076,0.022 0.152,0.045 0.228,0.068 0.058,0.017 0.115,0.036 0.173,0.054 0.076,0.024 0.152,0.048 0.228,0.073 0.054,0.018 0.107,0.036 0.161,0.054 0.079,0.027 0.158,0.054 0.238,0.082l0.148 0.053c0.084,0.031 0.168,0.061 0.251,0.092l0.132 0.051c0.087,0.033 0.173,0.066 0.259,0.101l0.129 0.052c0.087,0.035 0.175,0.071 0.262,0.108l0.121 0.052c0.087,0.037 0.174,0.075 0.261,0.114l0.124 0.056c0.088,0.04 0.175,0.08 0.263,0.122l0.111 0.053c0.087,0.042 0.175,0.084 0.262,0.127l0.121 0.061c0.086,0.044 0.172,0.088 0.258,0.132l0.104 0.055c0.091,0.049 0.182,0.097 0.273,0.147l0.092 0.052c0.091,0.05 0.181,0.101 0.271,0.153l0.099 0.058c0.091,0.052 0.181,0.106 0.271,0.16l0.078 0.048c0.096,0.058 0.191,0.117 0.286,0.178l0.067 0.042c0.095,0.061 0.19,0.122 0.284,0.185l0.08 0.054c0.091,0.06 0.18,0.121 0.27,0.183l0.08 0.056c0.091,0.064 0.182,0.128 0.272,0.193l0.065 0.048c0.092,0.067 0.184,0.135 0.275,0.204l0.073 0.056c0.089,0.068 0.178,0.137 0.266,0.206l0.064 0.051c0.09,0.072 0.18,0.145 0.27,0.219l0.064 0.053c0.088,0.073 0.176,0.147 0.263,0.222l0.064 0.056c0.087,0.076 0.174,0.152 0.261,0.23l0.018 0.017 -12.356 8.256 -8.257 -12.357z"/>
  <path class="fil3 str0" d="M290.605 23.483c13.065,-8.73 30.734,-5.215 39.464,7.85 8.73,13.065 5.215,30.734 -7.85,39.464 -13.065,8.73 -30.734,5.215 -39.464,-7.85 -8.73,-13.065 -5.215,-30.734 7.85,-39.464zm35.218 16.826c0.038,0.109 0.076,0.219 0.112,0.329l0.028 0.081c0.035,0.109 0.07,0.218 0.104,0.327l0.025 0.08c0.034,0.111 0.066,0.222 0.098,0.333l0.023 0.078c0.03,0.109 0.06,0.216 0.089,0.325l0.024 0.089c0.028,0.111 0.056,0.221 0.083,0.332l0.019 0.079c0.026,0.108 0.05,0.216 0.074,0.324l0.022 0.097c0.023,0.106 0.045,0.212 0.066,0.318l0.019 0.095c0.021,0.111 0.042,0.222 0.062,0.333l0.013 0.078c0.02,0.111 0.038,0.222 0.055,0.333l0.014 0.09c0.016,0.104 0.031,0.208 0.045,0.312l0.016 0.114c0.013,0.102 0.025,0.205 0.037,0.308l0.012 0.105c0.012,0.103 0.022,0.206 0.032,0.309l0.011 0.117c0.008,0.096 0.016,0.192 0.023,0.288l0.01 0.136c0.007,0.096 0.012,0.193 0.018,0.291l0.006 0.123c0.005,0.096 0.008,0.192 0.012,0.289l0.004 0.136c0.003,0.095 0.004,0.19 0.006,0.285l0.001 0.132c0.001,0.094 0.001,0.189 0,0.283l-0.001 0.138c-0.001,0.093 -0.003,0.186 -0.006,0.279l-0.004 0.141c-0.003,0.089 -0.007,0.178 -0.011,0.267l-0.007 0.158c-0.005,0.083 -0.01,0.167 -0.016,0.251l-0.012 0.169c-0.006,0.08 -0.012,0.159 -0.019,0.239l-0.016 0.18c-0.008,0.079 -0.016,0.158 -0.024,0.237l-0.02 0.179c-0.009,0.077 -0.019,0.154 -0.029,0.232 -0.008,0.062 -0.015,0.123 -0.024,0.185 -0.009,0.071 -0.02,0.143 -0.031,0.214 -0.01,0.069 -0.02,0.138 -0.031,0.207 -0.01,0.066 -0.021,0.131 -0.032,0.196 -0.012,0.072 -0.024,0.145 -0.037,0.217 -0.012,0.066 -0.024,0.133 -0.037,0.199 -0.013,0.069 -0.026,0.139 -0.04,0.208 -0.013,0.069 -0.028,0.138 -0.042,0.207 -0.014,0.066 -0.028,0.132 -0.042,0.198 -0.016,0.071 -0.032,0.143 -0.049,0.214 -0.015,0.065 -0.03,0.129 -0.045,0.193 -0.017,0.068 -0.034,0.136 -0.051,0.204 -0.018,0.07 -0.035,0.14 -0.053,0.21 -0.016,0.06 -0.033,0.12 -0.049,0.18 -0.021,0.075 -0.041,0.15 -0.062,0.225 -0.017,0.058 -0.034,0.115 -0.051,0.173 -0.022,0.076 -0.045,0.152 -0.068,0.228 -0.018,0.058 -0.036,0.115 -0.054,0.172 -0.024,0.077 -0.049,0.153 -0.074,0.229 -0.017,0.053 -0.035,0.107 -0.053,0.161 -0.027,0.079 -0.054,0.158 -0.082,0.237l-0.054 0.149c-0.03,0.084 -0.06,0.168 -0.091,0.251l-0.051 0.132c-0.033,0.087 -0.066,0.173 -0.101,0.259l-0.052 0.129c-0.035,0.087 -0.071,0.175 -0.108,0.261l-0.052 0.121c-0.037,0.088 -0.075,0.175 -0.114,0.261l-0.056 0.125c-0.04,0.088 -0.081,0.175 -0.122,0.262l-0.053 0.112c-0.042,0.087 -0.084,0.175 -0.127,0.262l-0.061 0.121c-0.044,0.086 -0.088,0.172 -0.132,0.257l-0.055 0.104c-0.049,0.092 -0.098,0.183 -0.147,0.274l-0.052 0.092c-0.05,0.091 -0.101,0.181 -0.153,0.271l-0.058 0.099c-0.053,0.09 -0.106,0.181 -0.16,0.271l-0.048 0.078c-0.058,0.095 -0.118,0.191 -0.178,0.286l-0.042 0.066c-0.061,0.096 -0.122,0.19 -0.185,0.285l-0.054 0.08c-0.06,0.09 -0.121,0.18 -0.183,0.269l-0.056 0.081c-0.064,0.091 -0.128,0.182 -0.193,0.272l-0.048 0.065c-0.067,0.092 -0.135,0.184 -0.204,0.274l-0.056 0.074c-0.068,0.089 -0.137,0.178 -0.206,0.266l-0.051 0.064c-0.072,0.09 -0.145,0.18 -0.219,0.27l-0.053 0.064c-0.073,0.088 -0.147,0.175 -0.222,0.262l-0.056 0.065c-0.076,0.087 -0.152,0.174 -0.23,0.261l-0.017 0.018 -8.256 -12.356 12.356 -8.257 0.009 0.024zm-12.556 26.234l-0.024 0.008c-0.109,0.039 -0.219,0.076 -0.329,0.113l-0.081 0.027c-0.109,0.036 -0.218,0.07 -0.327,0.104l-0.08 0.025c-0.111,0.034 -0.222,0.067 -0.333,0.099l-0.079 0.022c-0.108,0.031 -0.216,0.06 -0.324,0.089l-0.09 0.024c-0.11,0.029 -0.22,0.056 -0.331,0.083l-0.079 0.019c-0.108,0.026 -0.216,0.05 -0.324,0.075l-0.097 0.021c-0.106,0.023 -0.212,0.045 -0.318,0.066l-0.095 0.019c-0.111,0.022 -0.223,0.042 -0.334,0.062l-0.077 0.014c-0.111,0.019 -0.222,0.037 -0.333,0.054l-0.09 0.015c-0.104,0.016 -0.208,0.03 -0.312,0.044l-0.114 0.016c-0.103,0.013 -0.205,0.026 -0.308,0.037l-0.105 0.013c-0.103,0.011 -0.206,0.021 -0.309,0.031l-0.117 0.011c-0.096,0.009 -0.192,0.016 -0.288,0.023l-0.136 0.01c-0.097,0.007 -0.194,0.013 -0.291,0.018l-0.123 0.006c-0.096,0.005 -0.192,0.009 -0.289,0.012l-0.136 0.005c-0.095,0.002 -0.19,0.004 -0.285,0.005l-0.132 0.002c-0.094,0 -0.189,0 -0.283,-0.001l-0.139 -0.001c-0.092,-0.001 -0.185,-0.003 -0.278,-0.006l-0.141 -0.003c-0.089,-0.003 -0.178,-0.007 -0.267,-0.012l-0.158 -0.007c-0.084,-0.005 -0.167,-0.01 -0.251,-0.016l-0.169 -0.011c-0.08,-0.006 -0.159,-0.013 -0.239,-0.02l-0.18 -0.016c-0.079,-0.007 -0.158,-0.016 -0.237,-0.024l-0.179 -0.02c-0.077,-0.009 -0.155,-0.019 -0.232,-0.028 -0.062,-0.008 -0.123,-0.016 -0.185,-0.024 -0.072,-0.01 -0.143,-0.021 -0.214,-0.031 -0.069,-0.01 -0.138,-0.02 -0.207,-0.031 -0.066,-0.011 -0.131,-0.022 -0.196,-0.032 -0.073,-0.013 -0.145,-0.025 -0.217,-0.038 -0.066,-0.012 -0.133,-0.024 -0.199,-0.037 -0.069,-0.012 -0.139,-0.026 -0.208,-0.039 -0.069,-0.014 -0.138,-0.029 -0.207,-0.043 -0.066,-0.014 -0.132,-0.028 -0.198,-0.042 -0.072,-0.016 -0.143,-0.032 -0.214,-0.049 -0.065,-0.015 -0.129,-0.029 -0.194,-0.045 -0.067,-0.016 -0.135,-0.034 -0.203,-0.05 -0.07,-0.018 -0.14,-0.036 -0.21,-0.054 -0.06,-0.016 -0.12,-0.032 -0.18,-0.049 -0.075,-0.02 -0.15,-0.041 -0.225,-0.062 -0.058,-0.017 -0.116,-0.034 -0.173,-0.051 -0.076,-0.022 -0.152,-0.045 -0.228,-0.068 -0.058,-0.017 -0.115,-0.036 -0.172,-0.054 -0.077,-0.024 -0.153,-0.048 -0.229,-0.073 -0.054,-0.018 -0.107,-0.036 -0.161,-0.054 -0.079,-0.027 -0.158,-0.054 -0.237,-0.082l-0.149 -0.053c-0.084,-0.03 -0.168,-0.061 -0.251,-0.092l-0.132 -0.051c-0.087,-0.033 -0.173,-0.066 -0.259,-0.101l-0.129 -0.052c-0.087,-0.035 -0.175,-0.071 -0.262,-0.108l-0.121 -0.052c-0.087,-0.037 -0.174,-0.075 -0.261,-0.114l-0.124 -0.056c-0.088,-0.04 -0.175,-0.08 -0.263,-0.121l-0.111 -0.054c-0.087,-0.041 -0.175,-0.084 -0.262,-0.127l-0.121 -0.061c-0.086,-0.044 -0.172,-0.088 -0.257,-0.132l-0.105 -0.055c-0.091,-0.048 -0.182,-0.097 -0.273,-0.147l-0.092 -0.052c-0.091,-0.05 -0.181,-0.101 -0.271,-0.152l-0.099 -0.058c-0.091,-0.053 -0.181,-0.107 -0.271,-0.161l-0.078 -0.048c-0.096,-0.058 -0.191,-0.117 -0.286,-0.177l-0.067 -0.043c-0.095,-0.061 -0.19,-0.122 -0.284,-0.185l-0.08 -0.054c-0.091,-0.06 -0.18,-0.121 -0.269,-0.182l-0.081 -0.057c-0.091,-0.064 -0.182,-0.128 -0.272,-0.193l-0.065 -0.048c-0.092,-0.067 -0.184,-0.135 -0.275,-0.204l-0.073 -0.056c-0.089,-0.068 -0.178,-0.137 -0.266,-0.206l-0.064 -0.051c-0.09,-0.072 -0.18,-0.145 -0.27,-0.219l-0.064 -0.053c-0.088,-0.073 -0.175,-0.147 -0.262,-0.222l-0.065 -0.056c-0.087,-0.076 -0.174,-0.152 -0.261,-0.23l-0.018 -0.017 12.356 -8.256 8.257 12.357zm-26.266 -12.572c-0.039,-0.109 -0.076,-0.219 -0.113,-0.329l-0.027 -0.081c-0.036,-0.109 -0.07,-0.218 -0.104,-0.327l-0.025 -0.08c-0.034,-0.11 -0.067,-0.222 -0.099,-0.333l-0.022 -0.078c-0.031,-0.108 -0.06,-0.216 -0.089,-0.325l-0.024 -0.089c-0.029,-0.111 -0.056,-0.221 -0.083,-0.332l-0.019 -0.078c-0.026,-0.109 -0.051,-0.217 -0.075,-0.325l-0.021 -0.097c-0.023,-0.106 -0.045,-0.212 -0.066,-0.318l-0.019 -0.095c-0.022,-0.111 -0.042,-0.222 -0.062,-0.333l-0.014 -0.078c-0.019,-0.111 -0.037,-0.222 -0.055,-0.333l-0.014 -0.09c-0.016,-0.104 -0.03,-0.208 -0.044,-0.312l-0.016 -0.114c-0.014,-0.102 -0.026,-0.205 -0.038,-0.308l-0.012 -0.105c-0.011,-0.103 -0.021,-0.206 -0.031,-0.309l-0.011 -0.117c-0.009,-0.096 -0.016,-0.192 -0.023,-0.288l-0.01 -0.135c-0.007,-0.097 -0.013,-0.194 -0.018,-0.291l-0.007 -0.124c-0.004,-0.096 -0.008,-0.192 -0.011,-0.289l-0.005 -0.136c-0.002,-0.095 -0.004,-0.19 -0.005,-0.285l-0.002 -0.132c0,-0.094 0,-0.188 0,-0.283l0.002 -0.138c0.001,-0.093 0.003,-0.186 0.005,-0.278l0.004 -0.142c0.003,-0.089 0.007,-0.178 0.011,-0.267l0.008 -0.158c0.005,-0.083 0.01,-0.167 0.016,-0.25l0.011 -0.17c0.006,-0.08 0.013,-0.159 0.02,-0.239l0.016 -0.18c0.007,-0.079 0.016,-0.157 0.024,-0.236l0.02 -0.179c0.009,-0.078 0.019,-0.155 0.028,-0.233 0.008,-0.061 0.016,-0.123 0.024,-0.185 0.01,-0.071 0.021,-0.143 0.031,-0.214 0.01,-0.069 0.02,-0.138 0.031,-0.207 0.01,-0.065 0.021,-0.131 0.032,-0.196 0.013,-0.072 0.025,-0.145 0.038,-0.217 0.011,-0.066 0.024,-0.132 0.036,-0.199 0.013,-0.069 0.026,-0.138 0.04,-0.208 0.014,-0.069 0.029,-0.138 0.043,-0.207 0.014,-0.066 0.027,-0.132 0.042,-0.198 0.016,-0.071 0.032,-0.143 0.049,-0.214 0.015,-0.065 0.029,-0.129 0.045,-0.193 0.016,-0.068 0.033,-0.136 0.05,-0.204 0.018,-0.07 0.036,-0.14 0.054,-0.209 0.016,-0.061 0.032,-0.121 0.049,-0.181 0.02,-0.075 0.041,-0.15 0.062,-0.225 0.016,-0.058 0.034,-0.115 0.051,-0.173 0.022,-0.076 0.044,-0.152 0.068,-0.228 0.017,-0.058 0.035,-0.115 0.054,-0.172 0.024,-0.077 0.048,-0.153 0.073,-0.229 0.018,-0.053 0.036,-0.107 0.054,-0.16 0.027,-0.08 0.054,-0.159 0.082,-0.238l0.053 -0.149c0.03,-0.084 0.061,-0.168 0.092,-0.251l0.051 -0.132c0.033,-0.086 0.066,-0.173 0.1,-0.259l0.053 -0.128c0.035,-0.088 0.071,-0.175 0.108,-0.262l0.051 -0.121c0.038,-0.088 0.076,-0.175 0.115,-0.261l0.056 -0.125c0.04,-0.087 0.08,-0.175 0.121,-0.262l0.054 -0.112c0.041,-0.087 0.084,-0.175 0.127,-0.262l0.061 -0.121c0.043,-0.086 0.087,-0.172 0.132,-0.257l0.055 -0.104c0.048,-0.092 0.097,-0.183 0.147,-0.273l0.052 -0.093c0.05,-0.09 0.1,-0.181 0.152,-0.27l0.058 -0.1c0.053,-0.09 0.107,-0.181 0.161,-0.271l0.047 -0.078c0.059,-0.095 0.118,-0.191 0.178,-0.286l0.043 -0.066c0.061,-0.095 0.122,-0.19 0.184,-0.285l0.054 -0.08c0.061,-0.09 0.121,-0.18 0.183,-0.269l0.057 -0.081c0.064,-0.091 0.128,-0.181 0.193,-0.271l0.048 -0.066c0.067,-0.092 0.135,-0.183 0.204,-0.274l0.056 -0.074c0.068,-0.089 0.136,-0.178 0.206,-0.266l0.051 -0.064c0.072,-0.09 0.145,-0.18 0.218,-0.27l0.054 -0.064c0.073,-0.088 0.147,-0.175 0.222,-0.262l0.056 -0.065c0.075,-0.087 0.152,-0.174 0.23,-0.261l0.016 -0.018 8.257 12.356 -12.357 8.257 -0.008 -0.024zm12.556 -26.234l0.023 -0.008c0.11,-0.039 0.22,-0.076 0.329,-0.113l0.082 -0.027c0.108,-0.036 0.218,-0.07 0.327,-0.104l0.08 -0.025c0.11,-0.034 0.221,-0.066 0.333,-0.099l0.078 -0.022c0.108,-0.031 0.216,-0.06 0.325,-0.089l0.089 -0.024c0.111,-0.028 0.221,-0.056 0.332,-0.083l0.078 -0.019c0.108,-0.026 0.217,-0.05 0.325,-0.074l0.096 -0.022c0.106,-0.023 0.213,-0.045 0.319,-0.066l0.095 -0.019c0.111,-0.021 0.222,-0.042 0.333,-0.062l0.078 -0.014c0.111,-0.019 0.222,-0.037 0.333,-0.054l0.09 -0.015c0.104,-0.015 0.208,-0.03 0.312,-0.044l0.114 -0.016c0.102,-0.013 0.205,-0.025 0.308,-0.037l0.105 -0.013c0.103,-0.011 0.206,-0.021 0.309,-0.031l0.117 -0.011c0.096,-0.009 0.192,-0.016 0.288,-0.023l0.135 -0.01c0.097,-0.007 0.194,-0.013 0.291,-0.018l0.123 -0.006c0.097,-0.005 0.193,-0.009 0.289,-0.012l0.137 -0.004c0.095,-0.003 0.19,-0.005 0.285,-0.006l0.131 -0.002c0.095,0 0.189,0 0.284,0.001l0.138 0.001c0.093,0.001 0.186,0.003 0.278,0.006l0.141 0.004c0.089,0.003 0.179,0.006 0.267,0.011l0.158 0.007c0.084,0.005 0.168,0.01 0.251,0.016l0.17 0.012c0.079,0.006 0.159,0.012 0.239,0.019l0.18 0.016c0.078,0.008 0.157,0.016 0.236,0.024l0.179 0.02c0.078,0.009 0.155,0.019 0.232,0.029 0.062,0.007 0.124,0.015 0.186,0.024 0.071,0.009 0.143,0.02 0.214,0.03 0.069,0.011 0.138,0.021 0.207,0.031 0.065,0.011 0.131,0.022 0.196,0.033 0.072,0.012 0.144,0.024 0.217,0.037 0.066,0.012 0.132,0.024 0.199,0.037 0.069,0.013 0.138,0.026 0.207,0.039 0.069,0.014 0.139,0.029 0.208,0.043 0.066,0.014 0.132,0.028 0.198,0.042 0.071,0.016 0.143,0.032 0.214,0.049 0.064,0.015 0.129,0.03 0.193,0.045 0.068,0.017 0.136,0.034 0.203,0.051 0.071,0.017 0.14,0.035 0.21,0.053 0.061,0.016 0.12,0.033 0.181,0.049 0.075,0.02 0.15,0.041 0.225,0.062 0.058,0.017 0.115,0.034 0.173,0.051 0.076,0.022 0.152,0.045 0.228,0.068 0.057,0.017 0.115,0.036 0.172,0.054 0.076,0.024 0.153,0.048 0.228,0.073 0.054,0.018 0.108,0.036 0.161,0.054 0.08,0.027 0.159,0.054 0.238,0.082l0.149 0.053c0.084,0.031 0.168,0.061 0.251,0.092l0.132 0.051c0.086,0.033 0.173,0.066 0.259,0.101l0.128 0.052c0.088,0.035 0.175,0.071 0.262,0.108l0.121 0.052c0.087,0.037 0.174,0.075 0.261,0.114l0.125 0.056c0.087,0.04 0.175,0.08 0.262,0.122l0.111 0.053c0.088,0.042 0.176,0.084 0.263,0.127l0.121 0.061c0.086,0.044 0.172,0.088 0.257,0.132l0.104 0.055c0.092,0.049 0.183,0.097 0.273,0.147l0.093 0.052c0.09,0.05 0.18,0.101 0.27,0.153l0.1 0.058c0.09,0.052 0.181,0.106 0.27,0.16l0.078 0.048c0.096,0.058 0.192,0.117 0.287,0.178l0.066 0.042c0.095,0.061 0.19,0.122 0.284,0.185l0.081 0.054c0.09,0.06 0.18,0.121 0.269,0.183l0.081 0.056c0.091,0.064 0.181,0.128 0.271,0.193l0.066 0.048c0.092,0.067 0.183,0.135 0.274,0.204l0.074 0.056c0.089,0.068 0.177,0.137 0.265,0.206l0.064 0.051c0.091,0.072 0.181,0.145 0.27,0.219l0.064 0.053c0.088,0.073 0.176,0.147 0.263,0.222l0.065 0.056c0.087,0.076 0.174,0.152 0.26,0.23l0.019 0.017 -12.357 8.256 -8.256 -12.357z"/>
 </g>
</svg>
