<?xml version="1.0" encoding="UTF-8"?>
<!DOCTYPE svg PUBLIC "-//W3C//DTD SVG 1.1//EN" "http://www.w3.org/Graphics/SVG/1.1/DTD/svg11.dtd">
<!-- Creator: CorelDRAW 2019 (64-Bit) -->
<svg xmlns="http://www.w3.org/2000/svg" xml:space="preserve" width="750px" height="200px" version="1.1" style="shape-rendering:geometricPrecision; text-rendering:geometricPrecision; image-rendering:optimizeQuality; fill-rule:evenodd; clip-rule:evenodd"
viewBox="0 0 353.551 94.28"
 xmlns:xlink="http://www.w3.org/1999/xlink"
 xmlns:xodm="http://www.corel.com/coreldraw/odm/2003">
 <defs>
  <style type="text/css">
   <![CDATA[
    .str0 {stroke:black;stroke-width:0.267;stroke-miterlimit:22.9256}
    .fil0 {fill:none}
    .fil3 {fill:#4D4D4D}
    .fil2 {fill:#663333}
    .fil1 {fill:#999999}
   ]]>
  </style>
 </defs>
 <g id="Слой_x0020_1">
  <metadata id="CorelCorpID_0Corel-Layer"/>
  <rect class="fil0" width="353.551" height="94.28"/>
  <rect class="fil1 str0" transform="matrix(2.56692E-14 -0.969213 0.512825 1.35819E-14 334.863 58.9254)" width="24.319" height="18.385"/>
  <rect class="fil2 str0" transform="matrix(0.685337 -0.685337 0.362622 0.362622 318.197 75.592)" width="24.319" height="18.385"/>
  <rect class="fil2 str0" transform="matrix(-0.685337 -0.685337 0.362622 -0.362622 334.863 35.3552)" width="24.319" height="18.385"/>
  <rect class="fil2 str0" x="35.354" y="75.592" width="23.57" height="9.428"/>
  <rect class="fil1 str0" x="58.924" y="75.592" width="23.57" height="9.428"/>
  <rect class="fil2 str0" x="82.495" y="75.592" width="23.57" height="9.428"/>
  <rect class="fil1 str0" x="106.065" y="75.592" width="23.57" height="9.428"/>
  <rect class="fil2 str0" x="129.635" y="75.592" width="23.57" height="9.428"/>
  <rect class="fil1 str0" x="153.205" y="75.592" width="23.57" height="9.428"/>
  <rect class="fil2 str0" x="176.776" y="75.592" width="23.57" height="9.428"/>
  <rect class="fil1 str0" x="200.346" y="75.592" width="23.57" height="9.428"/>
  <rect class="fil2 str0" x="223.916" y="75.592" width="23.57" height="9.428"/>
  <rect class="fil1 str0" x="247.486" y="75.592" width="23.57" height="9.428"/>
  <rect class="fil2 str0" x="271.057" y="75.592" width="23.57" height="9.428"/>
  <rect class="fil1 str0" x="294.627" y="75.592" width="23.57" height="9.428"/>
  <rect class="fil2 str0" transform="matrix(-7.70075E-14 0.969213 -0.512825 -4.07458E-14 18.6877 35.3553)" width="24.319" height="18.385"/>
  <rect class="fil1 str0" transform="matrix(-0.685337 0.685337 -0.362622 -0.362622 35.3542 18.6887)" width="24.319" height="18.385"/>
  <rect class="fil1 str0" transform="matrix(0.685337 0.685337 -0.362622 0.362622 18.6876 58.9254)" width="24.319" height="18.385"/>
  <rect class="fil1 str0" x="294.627" y="9.261" width="23.57" height="9.428"/>
  <rect class="fil2 str0" x="271.057" y="9.261" width="23.57" height="9.428"/>
  <rect class="fil1 str0" x="247.486" y="9.261" width="23.57" height="9.428"/>
  <rect class="fil2 str0" x="223.916" y="9.261" width="23.57" height="9.428"/>
  <rect class="fil1 str0" x="200.346" y="9.261" width="23.57" height="9.428"/>
  <rect class="fil2 str0" x="176.776" y="9.261" width="23.57" height="9.428"/>
  <rect class="fil1 str0" x="153.205" y="9.261" width="23.57" height="9.428"/>
  <rect class="fil2 str0" x="129.635" y="9.261" width="23.57" height="9.428"/>
  <rect class="fil1 str0" x="106.065" y="9.261" width="23.57" height="9.428"/>
  <rect class="fil2 str0" x="82.495" y="9.261" width="23.57" height="9.428"/>
  <rect class="fil1 str0" x="58.924" y="9.261" width="23.57" height="9.428"/>
  <rect class="fil2 str0" x="35.354" y="9.261" width="23.57" height="9.428"/>
  <path class="fil3 str0" d="M306.412 18.688c15.713,0 28.452,12.739 28.452,28.452 0,15.714 -12.739,28.452 -28.452,28.452 -15.714,0 -28.452,-12.738 -28.452,-28.452 0,-15.713 12.738,-28.452 28.452,-28.452zm19.935 33.556c-0.029,0.113 -0.059,0.225 -0.089,0.336l-0.023 0.083c-0.031,0.11 -0.062,0.22 -0.095,0.33l-0.024 0.08c-0.033,0.111 -0.067,0.222 -0.103,0.332l-0.024 0.078c-0.035,0.107 -0.071,0.213 -0.107,0.319l-0.03 0.087c-0.037,0.108 -0.076,0.215 -0.115,0.322l-0.028 0.076c-0.038,0.105 -0.078,0.208 -0.118,0.312l-0.036 0.092c-0.04,0.101 -0.081,0.201 -0.122,0.301l-0.037 0.09c-0.044,0.104 -0.088,0.208 -0.134,0.311l-0.031 0.072c-0.046,0.103 -0.092,0.206 -0.14,0.308l-0.038 0.083c-0.045,0.095 -0.09,0.189 -0.136,0.283l-0.05 0.104c-0.046,0.093 -0.093,0.185 -0.14,0.277l-0.049 0.094c-0.047,0.092 -0.096,0.183 -0.145,0.274l-0.056 0.104c-0.046,0.085 -0.093,0.169 -0.141,0.253l-0.067 0.118c-0.048,0.084 -0.097,0.168 -0.147,0.251l-0.063 0.106c-0.049,0.083 -0.1,0.165 -0.151,0.247l-0.072 0.116c-0.05,0.08 -0.102,0.16 -0.153,0.24l-0.072 0.11c-0.052,0.079 -0.105,0.158 -0.158,0.236l-0.078 0.114c-0.052,0.077 -0.105,0.153 -0.159,0.228l-0.082 0.115c-0.052,0.073 -0.104,0.145 -0.157,0.216l-0.094 0.127c-0.051,0.068 -0.102,0.134 -0.153,0.2l-0.103 0.135c-0.05,0.063 -0.1,0.125 -0.15,0.188l-0.113 0.14c-0.05,0.062 -0.101,0.123 -0.151,0.184l-0.116 0.138c-0.051,0.059 -0.102,0.118 -0.153,0.177 -0.041,0.047 -0.081,0.094 -0.123,0.14 -0.048,0.054 -0.096,0.108 -0.144,0.161 -0.047,0.052 -0.094,0.104 -0.141,0.155 -0.045,0.049 -0.09,0.097 -0.136,0.145 -0.05,0.054 -0.1,0.107 -0.151,0.16 -0.047,0.049 -0.094,0.097 -0.141,0.145 -0.05,0.05 -0.099,0.101 -0.149,0.15 -0.05,0.05 -0.1,0.1 -0.15,0.149 -0.049,0.047 -0.097,0.094 -0.145,0.141 -0.053,0.051 -0.107,0.101 -0.16,0.151 -0.048,0.046 -0.097,0.091 -0.145,0.136 -0.051,0.047 -0.103,0.094 -0.155,0.141 -0.054,0.048 -0.107,0.097 -0.161,0.145 -0.047,0.041 -0.094,0.082 -0.141,0.122 -0.059,0.052 -0.117,0.103 -0.177,0.153 -0.045,0.039 -0.092,0.077 -0.138,0.116 -0.061,0.051 -0.122,0.101 -0.183,0.152 -0.047,0.038 -0.094,0.075 -0.141,0.113 -0.062,0.05 -0.125,0.1 -0.188,0.149 -0.044,0.035 -0.089,0.069 -0.134,0.104 -0.066,0.051 -0.133,0.102 -0.2,0.152l-0.127 0.094c-0.072,0.053 -0.144,0.106 -0.216,0.158l-0.115 0.081c-0.076,0.054 -0.152,0.107 -0.228,0.16l-0.115 0.078c-0.078,0.053 -0.156,0.105 -0.235,0.157l-0.11 0.072c-0.08,0.052 -0.16,0.103 -0.24,0.154l-0.116 0.072c-0.082,0.051 -0.164,0.101 -0.247,0.151l-0.106 0.063c-0.084,0.049 -0.168,0.098 -0.252,0.147l-0.118 0.067c-0.084,0.047 -0.168,0.094 -0.252,0.14l-0.104 0.056c-0.091,0.049 -0.182,0.098 -0.274,0.146l-0.094 0.048c-0.092,0.047 -0.185,0.094 -0.277,0.14l-0.104 0.05c-0.094,0.046 -0.189,0.092 -0.284,0.136l-0.083 0.039c-0.102,0.047 -0.204,0.094 -0.307,0.139l-0.072 0.032c-0.103,0.045 -0.207,0.09 -0.312,0.133l-0.089 0.037c-0.1,0.042 -0.201,0.083 -0.302,0.123l-0.092 0.035c-0.103,0.04 -0.207,0.08 -0.311,0.119l-0.076 0.028c-0.107,0.039 -0.214,0.077 -0.322,0.115l-0.088 0.03c-0.106,0.036 -0.212,0.071 -0.319,0.106l-0.078 0.025c-0.11,0.035 -0.22,0.069 -0.331,0.103l-0.08 0.023c-0.11,0.033 -0.22,0.065 -0.33,0.096l-0.083 0.022c-0.112,0.031 -0.224,0.06 -0.336,0.089l-0.024 0.006 0 -14.861 14.861 0 -0.006 0.024zm-25.015 14.837l-0.024 -0.006c-0.113,-0.029 -0.225,-0.059 -0.336,-0.089l-0.083 -0.022c-0.11,-0.031 -0.22,-0.063 -0.33,-0.096l-0.08 -0.023c-0.111,-0.034 -0.222,-0.068 -0.332,-0.103l-0.078 -0.025c-0.106,-0.035 -0.213,-0.07 -0.319,-0.106l-0.087 -0.03c-0.108,-0.038 -0.215,-0.076 -0.322,-0.115l-0.076 -0.028c-0.105,-0.039 -0.208,-0.079 -0.312,-0.119l-0.092 -0.035c-0.101,-0.04 -0.201,-0.081 -0.301,-0.123l-0.09 -0.037c-0.104,-0.043 -0.208,-0.088 -0.311,-0.133l-0.072 -0.032c-0.103,-0.045 -0.206,-0.092 -0.308,-0.139l-0.083 -0.039c-0.095,-0.044 -0.189,-0.09 -0.283,-0.136l-0.104 -0.05c-0.093,-0.046 -0.185,-0.093 -0.277,-0.14l-0.094 -0.048c-0.092,-0.048 -0.183,-0.097 -0.274,-0.146l-0.104 -0.056c-0.085,-0.046 -0.169,-0.093 -0.253,-0.14l-0.118 -0.067c-0.084,-0.049 -0.168,-0.098 -0.251,-0.147l-0.106 -0.063c-0.083,-0.05 -0.165,-0.1 -0.247,-0.151l-0.116 -0.072c-0.08,-0.051 -0.16,-0.102 -0.24,-0.154l-0.11 -0.072c-0.079,-0.052 -0.158,-0.104 -0.236,-0.157l-0.114 -0.078c-0.077,-0.053 -0.153,-0.106 -0.228,-0.16l-0.115 -0.081c-0.073,-0.052 -0.145,-0.105 -0.216,-0.158l-0.127 -0.094c-0.068,-0.05 -0.134,-0.101 -0.2,-0.152l-0.135 -0.104c-0.063,-0.049 -0.125,-0.099 -0.188,-0.149l-0.14 -0.113c-0.062,-0.05 -0.123,-0.101 -0.184,-0.152l-0.138 -0.116c-0.059,-0.05 -0.118,-0.102 -0.177,-0.153 -0.047,-0.04 -0.094,-0.081 -0.14,-0.122 -0.054,-0.048 -0.108,-0.097 -0.161,-0.145 -0.052,-0.047 -0.104,-0.094 -0.155,-0.141 -0.049,-0.045 -0.097,-0.09 -0.145,-0.136 -0.054,-0.05 -0.107,-0.1 -0.16,-0.151 -0.049,-0.047 -0.097,-0.094 -0.145,-0.141 -0.05,-0.049 -0.101,-0.099 -0.15,-0.149 -0.05,-0.049 -0.1,-0.1 -0.149,-0.15 -0.047,-0.048 -0.094,-0.096 -0.141,-0.145 -0.051,-0.053 -0.101,-0.106 -0.151,-0.16 -0.046,-0.048 -0.091,-0.096 -0.136,-0.145 -0.047,-0.051 -0.094,-0.103 -0.141,-0.155 -0.048,-0.053 -0.097,-0.107 -0.145,-0.161 -0.041,-0.046 -0.082,-0.093 -0.122,-0.14 -0.052,-0.059 -0.103,-0.118 -0.153,-0.177 -0.039,-0.046 -0.077,-0.092 -0.116,-0.138 -0.051,-0.061 -0.101,-0.122 -0.152,-0.184 -0.038,-0.046 -0.075,-0.093 -0.113,-0.14 -0.05,-0.063 -0.1,-0.125 -0.149,-0.188 -0.035,-0.045 -0.069,-0.09 -0.104,-0.135 -0.051,-0.066 -0.102,-0.132 -0.152,-0.2l-0.094 -0.127c-0.053,-0.071 -0.106,-0.143 -0.158,-0.216l-0.081 -0.115c-0.054,-0.075 -0.107,-0.151 -0.16,-0.228l-0.078 -0.114c-0.053,-0.078 -0.105,-0.157 -0.157,-0.236l-0.072 -0.11c-0.052,-0.08 -0.103,-0.159 -0.154,-0.24l-0.072 -0.116c-0.051,-0.082 -0.101,-0.164 -0.151,-0.247l-0.063 -0.106c-0.049,-0.083 -0.098,-0.167 -0.147,-0.251l-0.067 -0.118c-0.047,-0.084 -0.094,-0.169 -0.14,-0.253l-0.056 -0.104c-0.049,-0.091 -0.098,-0.182 -0.146,-0.274l-0.048 -0.094c-0.047,-0.092 -0.094,-0.184 -0.14,-0.277l-0.05 -0.104c-0.046,-0.094 -0.092,-0.188 -0.136,-0.283l-0.039 -0.083c-0.047,-0.102 -0.094,-0.205 -0.139,-0.308l-0.032 -0.072c-0.045,-0.103 -0.09,-0.207 -0.133,-0.311l-0.037 -0.09c-0.042,-0.1 -0.083,-0.2 -0.123,-0.301l-0.035 -0.092c-0.04,-0.104 -0.08,-0.207 -0.119,-0.312l-0.028 -0.076c-0.039,-0.107 -0.077,-0.214 -0.115,-0.322l-0.03 -0.087c-0.036,-0.106 -0.071,-0.212 -0.106,-0.319l-0.025 -0.078c-0.035,-0.11 -0.069,-0.221 -0.103,-0.332l-0.023 -0.08c-0.033,-0.109 -0.065,-0.22 -0.096,-0.33l-0.022 -0.083c-0.031,-0.111 -0.06,-0.223 -0.089,-0.336l-0.006 -0.024 14.861 0 0 14.861zm-14.855 -25.045c0.029,-0.112 0.059,-0.224 0.089,-0.336l0.022 -0.083c0.031,-0.11 0.063,-0.22 0.096,-0.33l0.023 -0.08c0.034,-0.111 0.068,-0.221 0.103,-0.331l0.025 -0.078c0.035,-0.107 0.07,-0.213 0.106,-0.319l0.03 -0.088c0.038,-0.108 0.076,-0.215 0.115,-0.322l0.028 -0.076c0.039,-0.104 0.079,-0.208 0.119,-0.311l0.035 -0.092c0.04,-0.101 0.081,-0.202 0.123,-0.302l0.037 -0.089c0.043,-0.105 0.088,-0.209 0.133,-0.312l0.032 -0.072c0.045,-0.103 0.092,-0.205 0.139,-0.307l0.039 -0.083c0.044,-0.095 0.09,-0.19 0.136,-0.284l0.05 -0.104c0.046,-0.092 0.093,-0.185 0.14,-0.277l0.048 -0.094c0.048,-0.092 0.097,-0.183 0.146,-0.274l0.056 -0.103c0.046,-0.085 0.093,-0.169 0.14,-0.253l0.067 -0.118c0.049,-0.084 0.098,-0.168 0.147,-0.252l0.063 -0.106c0.05,-0.083 0.1,-0.165 0.151,-0.247l0.072 -0.116c0.051,-0.08 0.102,-0.16 0.154,-0.24l0.072 -0.11c0.052,-0.079 0.104,-0.157 0.157,-0.235l0.078 -0.115c0.053,-0.076 0.106,-0.152 0.16,-0.228l0.081 -0.115c0.052,-0.072 0.105,-0.144 0.158,-0.216l0.094 -0.127c0.05,-0.067 0.101,-0.134 0.152,-0.2l0.104 -0.134c0.049,-0.063 0.099,-0.126 0.149,-0.188l0.113 -0.141c0.05,-0.061 0.101,-0.122 0.152,-0.183l0.116 -0.138c0.05,-0.06 0.102,-0.118 0.153,-0.177 0.04,-0.047 0.081,-0.094 0.122,-0.141 0.048,-0.054 0.097,-0.107 0.145,-0.161 0.047,-0.052 0.094,-0.104 0.141,-0.155 0.045,-0.048 0.09,-0.097 0.136,-0.145 0.05,-0.053 0.1,-0.107 0.151,-0.16 0.047,-0.048 0.094,-0.096 0.141,-0.144 0.049,-0.051 0.099,-0.101 0.149,-0.151 0.049,-0.05 0.1,-0.099 0.15,-0.149 0.048,-0.047 0.096,-0.094 0.145,-0.141 0.053,-0.051 0.106,-0.101 0.16,-0.151 0.048,-0.045 0.096,-0.091 0.145,-0.136 0.051,-0.047 0.103,-0.094 0.155,-0.141 0.053,-0.048 0.107,-0.096 0.161,-0.144 0.046,-0.042 0.093,-0.082 0.14,-0.123 0.059,-0.051 0.118,-0.102 0.177,-0.153 0.046,-0.039 0.092,-0.077 0.138,-0.116 0.061,-0.05 0.122,-0.101 0.184,-0.151 0.046,-0.038 0.093,-0.076 0.14,-0.113 0.063,-0.05 0.125,-0.1 0.188,-0.15 0.045,-0.034 0.09,-0.069 0.135,-0.103 0.066,-0.051 0.132,-0.102 0.2,-0.153l0.127 -0.094c0.071,-0.053 0.143,-0.105 0.216,-0.157l0.115 -0.082c0.075,-0.054 0.151,-0.107 0.228,-0.159l0.114 -0.078c0.078,-0.053 0.157,-0.106 0.236,-0.158l0.11 -0.072c0.08,-0.051 0.159,-0.103 0.24,-0.153l0.116 -0.072c0.082,-0.051 0.164,-0.102 0.247,-0.151l0.106 -0.063c0.083,-0.05 0.167,-0.099 0.251,-0.147l0.118 -0.067c0.084,-0.048 0.169,-0.095 0.253,-0.141l0.104 -0.056c0.091,-0.049 0.182,-0.098 0.274,-0.145l0.094 -0.049c0.092,-0.047 0.184,-0.094 0.277,-0.14l0.104 -0.05c0.094,-0.046 0.188,-0.091 0.283,-0.136l0.083 -0.038c0.102,-0.048 0.205,-0.094 0.308,-0.14l0.072 -0.031c0.103,-0.046 0.207,-0.09 0.311,-0.134l0.09 -0.037c0.1,-0.041 0.2,-0.082 0.301,-0.122l0.092 -0.036c0.104,-0.04 0.207,-0.08 0.312,-0.118l0.076 -0.028c0.107,-0.039 0.214,-0.078 0.322,-0.115l0.087 -0.03c0.106,-0.036 0.213,-0.072 0.319,-0.106l0.078 -0.025c0.11,-0.035 0.221,-0.07 0.332,-0.103l0.08 -0.024c0.109,-0.033 0.22,-0.064 0.33,-0.095l0.083 -0.023c0.111,-0.03 0.223,-0.06 0.336,-0.089l0.024 -0.006 0 14.861 -14.861 0 0.006 -0.024zm25.015 -14.837l0.024 0.006c0.112,0.029 0.224,0.059 0.336,0.089l0.083 0.023c0.11,0.031 0.22,0.062 0.33,0.095l0.08 0.024c0.111,0.033 0.221,0.068 0.331,0.103l0.078 0.025c0.107,0.034 0.213,0.07 0.319,0.106l0.088 0.03c0.108,0.037 0.215,0.076 0.322,0.115l0.076 0.028c0.104,0.038 0.208,0.078 0.311,0.118l0.092 0.036c0.101,0.04 0.202,0.081 0.302,0.122l0.089 0.037c0.105,0.044 0.209,0.088 0.312,0.134l0.072 0.031c0.103,0.046 0.205,0.092 0.307,0.14l0.083 0.038c0.095,0.045 0.19,0.09 0.284,0.136l0.104 0.05c0.092,0.046 0.185,0.093 0.277,0.14l0.094 0.049c0.092,0.047 0.183,0.096 0.274,0.145l0.104 0.056c0.084,0.046 0.168,0.093 0.252,0.141l0.118 0.067c0.084,0.048 0.168,0.097 0.252,0.147l0.106 0.063c0.083,0.049 0.165,0.1 0.247,0.151l0.116 0.072c0.08,0.05 0.16,0.102 0.24,0.153l0.11 0.072c0.079,0.052 0.157,0.105 0.235,0.158l0.115 0.078c0.076,0.052 0.152,0.105 0.228,0.159l0.115 0.082c0.072,0.052 0.144,0.104 0.216,0.157l0.127 0.094c0.067,0.051 0.134,0.102 0.2,0.153l0.134 0.103c0.063,0.05 0.126,0.1 0.188,0.15l0.141 0.113c0.061,0.05 0.122,0.101 0.183,0.151l0.138 0.116c0.06,0.051 0.118,0.102 0.177,0.153 0.047,0.041 0.094,0.081 0.141,0.123 0.054,0.048 0.107,0.096 0.161,0.144 0.052,0.047 0.104,0.094 0.155,0.141 0.048,0.045 0.097,0.091 0.145,0.136 0.053,0.05 0.107,0.1 0.16,0.151 0.048,0.047 0.096,0.094 0.145,0.141 0.05,0.05 0.1,0.099 0.15,0.149 0.05,0.05 0.099,0.1 0.149,0.151 0.047,0.048 0.094,0.096 0.141,0.144 0.051,0.053 0.101,0.107 0.151,0.16 0.045,0.048 0.091,0.097 0.136,0.145 0.047,0.051 0.094,0.103 0.141,0.155 0.048,0.054 0.096,0.107 0.144,0.161 0.042,0.047 0.082,0.094 0.123,0.141 0.051,0.059 0.102,0.117 0.153,0.177 0.039,0.046 0.077,0.092 0.116,0.138 0.05,0.061 0.101,0.122 0.151,0.183 0.038,0.047 0.076,0.094 0.113,0.141 0.05,0.062 0.1,0.125 0.15,0.188 0.034,0.044 0.069,0.089 0.103,0.134 0.051,0.066 0.102,0.133 0.153,0.2l0.094 0.127c0.053,0.072 0.105,0.144 0.157,0.216l0.082 0.115c0.054,0.076 0.107,0.152 0.159,0.228l0.078 0.115c0.053,0.078 0.106,0.156 0.158,0.235l0.072 0.11c0.051,0.08 0.103,0.16 0.153,0.24l0.072 0.116c0.051,0.082 0.102,0.164 0.151,0.247l0.063 0.106c0.05,0.084 0.099,0.168 0.147,0.252l0.067 0.118c0.048,0.084 0.095,0.168 0.141,0.253l0.056 0.103c0.049,0.091 0.098,0.182 0.145,0.274l0.049 0.094c0.047,0.092 0.094,0.185 0.14,0.277l0.05 0.104c0.046,0.094 0.091,0.189 0.136,0.284l0.038 0.083c0.048,0.102 0.094,0.204 0.14,0.307l0.031 0.072c0.046,0.104 0.09,0.207 0.134,0.312l0.037 0.089c0.041,0.1 0.082,0.201 0.122,0.302l0.036 0.092c0.04,0.103 0.08,0.207 0.118,0.311l0.028 0.076c0.039,0.107 0.078,0.214 0.115,0.322l0.03 0.088c0.036,0.106 0.072,0.212 0.107,0.319l0.024 0.078c0.036,0.11 0.07,0.22 0.103,0.331l0.024 0.08c0.033,0.11 0.064,0.22 0.095,0.33l0.023 0.083c0.03,0.112 0.06,0.224 0.089,0.336l0.006 0.024 -14.861 0 0 -14.861z"/>
  <path class="fil3 str0" d="M47.139 18.688c15.714,0 28.452,12.739 28.452,28.452 0,15.714 -12.738,28.452 -28.452,28.452 -15.713,0 -28.451,-12.738 -28.451,-28.452 0,-15.713 12.738,-28.452 28.451,-28.452zm19.935 33.556c-0.029,0.113 -0.058,0.225 -0.089,0.336l-0.022 0.083c-0.031,0.11 -0.063,0.22 -0.096,0.33l-0.023 0.08c-0.034,0.111 -0.068,0.222 -0.103,0.332l-0.025 0.078c-0.035,0.107 -0.07,0.213 -0.106,0.319l-0.03 0.087c-0.038,0.108 -0.076,0.215 -0.115,0.322l-0.028 0.076c-0.039,0.105 -0.078,0.208 -0.119,0.312l-0.035 0.092c-0.04,0.101 -0.081,0.201 -0.123,0.301l-0.037 0.09c-0.043,0.104 -0.088,0.208 -0.133,0.311l-0.032 0.072c-0.045,0.103 -0.092,0.206 -0.139,0.308l-0.039 0.083c-0.044,0.095 -0.09,0.189 -0.136,0.283l-0.05 0.104c-0.046,0.093 -0.093,0.185 -0.14,0.277l-0.048 0.094c-0.048,0.092 -0.097,0.183 -0.146,0.274l-0.056 0.104c-0.046,0.085 -0.093,0.169 -0.14,0.253l-0.067 0.118c-0.049,0.084 -0.098,0.168 -0.147,0.251l-0.063 0.106c-0.05,0.083 -0.1,0.165 -0.151,0.247l-0.072 0.116c-0.051,0.08 -0.102,0.16 -0.154,0.24l-0.072 0.11c-0.052,0.079 -0.104,0.158 -0.157,0.236l-0.078 0.114c-0.053,0.077 -0.106,0.153 -0.16,0.228l-0.081 0.115c-0.052,0.073 -0.105,0.145 -0.158,0.216l-0.094 0.127c-0.05,0.068 -0.101,0.134 -0.152,0.2l-0.104 0.135c-0.049,0.063 -0.099,0.125 -0.149,0.188l-0.113 0.14c-0.05,0.062 -0.101,0.123 -0.152,0.184l-0.116 0.138c-0.05,0.059 -0.101,0.118 -0.152,0.177 -0.041,0.047 -0.082,0.094 -0.123,0.14 -0.048,0.054 -0.097,0.108 -0.145,0.161 -0.047,0.052 -0.094,0.104 -0.141,0.155 -0.045,0.049 -0.09,0.097 -0.135,0.145 -0.051,0.054 -0.101,0.107 -0.152,0.16 -0.047,0.049 -0.094,0.097 -0.141,0.145 -0.049,0.05 -0.099,0.101 -0.148,0.15 -0.05,0.05 -0.101,0.1 -0.151,0.149 -0.048,0.047 -0.096,0.094 -0.145,0.141 -0.053,0.051 -0.106,0.101 -0.16,0.151 -0.048,0.046 -0.096,0.091 -0.145,0.136 -0.051,0.047 -0.103,0.094 -0.155,0.141 -0.053,0.048 -0.106,0.097 -0.161,0.145 -0.046,0.041 -0.093,0.082 -0.14,0.122 -0.059,0.052 -0.118,0.103 -0.177,0.153 -0.046,0.039 -0.092,0.077 -0.138,0.116 -0.061,0.051 -0.122,0.101 -0.184,0.152 -0.046,0.038 -0.093,0.075 -0.14,0.113 -0.063,0.05 -0.125,0.1 -0.188,0.149 -0.045,0.035 -0.09,0.069 -0.135,0.104 -0.066,0.051 -0.132,0.102 -0.199,0.152l-0.128 0.094c-0.071,0.053 -0.143,0.106 -0.216,0.158l-0.115 0.081c-0.075,0.054 -0.151,0.107 -0.228,0.16l-0.114 0.078c-0.078,0.053 -0.157,0.105 -0.236,0.157l-0.11 0.072c-0.08,0.052 -0.159,0.103 -0.24,0.154l-0.116 0.072c-0.082,0.051 -0.164,0.101 -0.247,0.151l-0.106 0.063c-0.083,0.049 -0.167,0.098 -0.251,0.147l-0.118 0.067c-0.084,0.047 -0.168,0.094 -0.253,0.14l-0.104 0.056c-0.091,0.049 -0.182,0.098 -0.274,0.146l-0.094 0.048c-0.092,0.047 -0.184,0.094 -0.277,0.14l-0.103 0.05c-0.095,0.046 -0.189,0.092 -0.284,0.136l-0.083 0.039c-0.102,0.047 -0.205,0.094 -0.307,0.139l-0.073 0.032c-0.103,0.045 -0.207,0.09 -0.311,0.133l-0.09 0.037c-0.1,0.042 -0.2,0.083 -0.301,0.123l-0.092 0.035c-0.104,0.04 -0.207,0.08 -0.312,0.119l-0.076 0.028c-0.106,0.039 -0.214,0.077 -0.321,0.115l-0.088 0.03c-0.106,0.036 -0.212,0.071 -0.319,0.106l-0.078 0.025c-0.11,0.035 -0.221,0.069 -0.332,0.103l-0.08 0.023c-0.109,0.033 -0.219,0.065 -0.33,0.096l-0.082 0.022c-0.112,0.031 -0.224,0.06 -0.337,0.089l-0.024 0.006 0 -14.861 14.861 0 -0.006 0.024zm-25.015 14.837l-0.024 -0.006c-0.112,-0.029 -0.224,-0.059 -0.336,-0.089l-0.082 -0.022c-0.111,-0.031 -0.221,-0.063 -0.331,-0.096l-0.08 -0.023c-0.111,-0.034 -0.221,-0.068 -0.331,-0.103l-0.078 -0.025c-0.107,-0.035 -0.213,-0.07 -0.319,-0.106l-0.088 -0.03c-0.108,-0.038 -0.215,-0.076 -0.322,-0.115l-0.076 -0.028c-0.104,-0.039 -0.208,-0.079 -0.311,-0.119l-0.092 -0.035c-0.101,-0.04 -0.202,-0.081 -0.302,-0.123l-0.089 -0.037c-0.105,-0.043 -0.209,-0.088 -0.312,-0.133l-0.072 -0.032c-0.103,-0.045 -0.205,-0.092 -0.307,-0.139l-0.083 -0.039c-0.095,-0.044 -0.19,-0.09 -0.284,-0.136l-0.103 -0.05c-0.093,-0.046 -0.186,-0.093 -0.278,-0.14l-0.094 -0.048c-0.092,-0.048 -0.183,-0.097 -0.274,-0.146l-0.103 -0.056c-0.085,-0.046 -0.169,-0.093 -0.253,-0.14l-0.118 -0.067c-0.084,-0.049 -0.168,-0.098 -0.252,-0.147l-0.106 -0.063c-0.083,-0.05 -0.165,-0.1 -0.247,-0.151l-0.116 -0.072c-0.08,-0.051 -0.16,-0.102 -0.239,-0.154l-0.111 -0.072c-0.079,-0.052 -0.157,-0.104 -0.235,-0.157l-0.115 -0.078c-0.076,-0.053 -0.152,-0.106 -0.228,-0.16l-0.115 -0.081c-0.072,-0.052 -0.144,-0.105 -0.216,-0.158l-0.127 -0.094c-0.067,-0.05 -0.133,-0.101 -0.2,-0.152l-0.134 -0.104c-0.063,-0.049 -0.126,-0.099 -0.188,-0.149l-0.141 -0.113c-0.061,-0.05 -0.122,-0.101 -0.183,-0.152l-0.138 -0.116c-0.06,-0.05 -0.118,-0.102 -0.177,-0.153 -0.047,-0.04 -0.094,-0.081 -0.141,-0.122 -0.054,-0.048 -0.107,-0.097 -0.161,-0.145 -0.052,-0.047 -0.103,-0.094 -0.155,-0.141 -0.048,-0.045 -0.097,-0.09 -0.145,-0.136 -0.053,-0.05 -0.107,-0.1 -0.159,-0.151 -0.049,-0.047 -0.097,-0.094 -0.145,-0.141 -0.051,-0.049 -0.101,-0.099 -0.151,-0.149 -0.05,-0.049 -0.099,-0.1 -0.148,-0.15 -0.048,-0.048 -0.095,-0.096 -0.142,-0.145 -0.051,-0.053 -0.101,-0.106 -0.151,-0.16 -0.045,-0.048 -0.091,-0.096 -0.136,-0.145 -0.047,-0.051 -0.094,-0.103 -0.14,-0.155 -0.049,-0.053 -0.097,-0.107 -0.145,-0.161 -0.041,-0.046 -0.082,-0.093 -0.123,-0.14 -0.051,-0.059 -0.102,-0.118 -0.153,-0.177 -0.039,-0.046 -0.077,-0.092 -0.115,-0.138 -0.051,-0.061 -0.102,-0.122 -0.152,-0.184 -0.038,-0.046 -0.076,-0.093 -0.113,-0.14 -0.05,-0.063 -0.1,-0.125 -0.15,-0.188 -0.034,-0.045 -0.069,-0.09 -0.103,-0.135 -0.051,-0.066 -0.102,-0.132 -0.153,-0.2l-0.094 -0.127c-0.053,-0.071 -0.105,-0.143 -0.157,-0.216l-0.082 -0.115c-0.054,-0.075 -0.107,-0.151 -0.159,-0.228l-0.078 -0.114c-0.053,-0.078 -0.106,-0.157 -0.158,-0.236l-0.072 -0.11c-0.051,-0.08 -0.103,-0.159 -0.153,-0.24l-0.072 -0.116c-0.051,-0.082 -0.102,-0.164 -0.151,-0.247l-0.063 -0.106c-0.05,-0.083 -0.099,-0.167 -0.147,-0.251l-0.067 -0.118c-0.048,-0.084 -0.094,-0.169 -0.141,-0.253l-0.056 -0.104c-0.049,-0.091 -0.098,-0.182 -0.145,-0.274l-0.049 -0.094c-0.047,-0.092 -0.094,-0.184 -0.14,-0.277l-0.05 -0.104c-0.046,-0.094 -0.091,-0.188 -0.136,-0.283l-0.038 -0.083c-0.047,-0.102 -0.094,-0.205 -0.14,-0.308l-0.031 -0.072c-0.045,-0.103 -0.09,-0.207 -0.134,-0.311l-0.037 -0.09c-0.041,-0.1 -0.082,-0.2 -0.122,-0.301l-0.036 -0.092c-0.04,-0.104 -0.08,-0.207 -0.118,-0.312l-0.028 -0.076c-0.039,-0.107 -0.078,-0.214 -0.115,-0.322l-0.03 -0.087c-0.036,-0.106 -0.072,-0.212 -0.106,-0.319l-0.025 -0.078c-0.035,-0.11 -0.07,-0.221 -0.103,-0.332l-0.024 -0.08c-0.032,-0.109 -0.064,-0.22 -0.095,-0.33l-0.023 -0.083c-0.03,-0.111 -0.06,-0.223 -0.089,-0.336l-0.006 -0.024 14.861 0 0 14.861zm-14.855 -25.045c0.029,-0.112 0.059,-0.224 0.089,-0.336l0.023 -0.083c0.031,-0.11 0.063,-0.22 0.095,-0.33l0.024 -0.08c0.033,-0.111 0.068,-0.221 0.103,-0.331l0.025 -0.078c0.034,-0.107 0.07,-0.213 0.106,-0.319l0.03 -0.088c0.037,-0.108 0.076,-0.215 0.115,-0.322l0.028 -0.076c0.038,-0.104 0.078,-0.208 0.118,-0.311l0.036 -0.092c0.04,-0.101 0.081,-0.202 0.122,-0.302l0.037 -0.089c0.044,-0.105 0.089,-0.209 0.134,-0.312l0.031 -0.072c0.046,-0.103 0.093,-0.205 0.14,-0.307l0.038 -0.083c0.045,-0.095 0.09,-0.19 0.136,-0.284l0.05 -0.104c0.046,-0.092 0.093,-0.185 0.14,-0.277l0.049 -0.094c0.047,-0.092 0.096,-0.183 0.145,-0.274l0.056 -0.103c0.046,-0.085 0.093,-0.169 0.141,-0.253l0.067 -0.118c0.048,-0.084 0.097,-0.168 0.147,-0.252l0.063 -0.106c0.049,-0.083 0.1,-0.165 0.151,-0.247l0.072 -0.116c0.05,-0.08 0.102,-0.16 0.153,-0.24l0.072 -0.11c0.052,-0.079 0.105,-0.157 0.158,-0.235l0.078 -0.115c0.052,-0.076 0.105,-0.152 0.159,-0.228l0.082 -0.115c0.052,-0.072 0.104,-0.144 0.157,-0.216l0.094 -0.127c0.051,-0.067 0.102,-0.134 0.153,-0.2l0.103 -0.134c0.05,-0.063 0.1,-0.126 0.15,-0.188l0.113 -0.141c0.05,-0.061 0.101,-0.122 0.152,-0.183l0.115 -0.138c0.051,-0.06 0.102,-0.118 0.153,-0.177 0.041,-0.047 0.082,-0.094 0.123,-0.141 0.048,-0.054 0.096,-0.107 0.145,-0.161 0.046,-0.052 0.093,-0.104 0.14,-0.155 0.045,-0.048 0.091,-0.097 0.136,-0.145 0.05,-0.053 0.1,-0.107 0.151,-0.16 0.047,-0.048 0.094,-0.096 0.142,-0.144 0.049,-0.051 0.098,-0.101 0.148,-0.151 0.05,-0.05 0.1,-0.099 0.151,-0.149 0.048,-0.047 0.096,-0.094 0.145,-0.141 0.052,-0.051 0.106,-0.101 0.159,-0.151 0.048,-0.045 0.097,-0.091 0.145,-0.136 0.052,-0.047 0.103,-0.094 0.155,-0.141 0.054,-0.048 0.107,-0.096 0.161,-0.144 0.047,-0.042 0.094,-0.082 0.141,-0.123 0.059,-0.051 0.117,-0.102 0.177,-0.153 0.046,-0.039 0.092,-0.077 0.138,-0.116 0.061,-0.05 0.122,-0.101 0.183,-0.151 0.047,-0.038 0.094,-0.076 0.141,-0.113 0.062,-0.05 0.125,-0.1 0.188,-0.15 0.044,-0.034 0.089,-0.069 0.134,-0.103 0.067,-0.051 0.133,-0.102 0.2,-0.153l0.127 -0.094c0.072,-0.053 0.144,-0.105 0.216,-0.157l0.115 -0.082c0.076,-0.054 0.152,-0.107 0.228,-0.159l0.115 -0.078c0.078,-0.053 0.156,-0.106 0.235,-0.158l0.111 -0.072c0.079,-0.051 0.159,-0.103 0.239,-0.153l0.116 -0.072c0.082,-0.051 0.164,-0.102 0.247,-0.151l0.106 -0.063c0.084,-0.05 0.168,-0.099 0.252,-0.147l0.118 -0.067c0.084,-0.048 0.168,-0.095 0.253,-0.141l0.103 -0.056c0.091,-0.049 0.182,-0.098 0.274,-0.145l0.094 -0.049c0.092,-0.047 0.185,-0.094 0.278,-0.14l0.103 -0.05c0.094,-0.046 0.189,-0.091 0.284,-0.136l0.083 -0.038c0.102,-0.048 0.204,-0.094 0.307,-0.14l0.072 -0.031c0.104,-0.046 0.207,-0.09 0.312,-0.134l0.089 -0.037c0.101,-0.041 0.201,-0.082 0.302,-0.122l0.092 -0.036c0.103,-0.04 0.207,-0.08 0.311,-0.118l0.076 -0.028c0.107,-0.039 0.214,-0.078 0.322,-0.115l0.088 -0.03c0.106,-0.036 0.212,-0.072 0.319,-0.106l0.078 -0.025c0.11,-0.035 0.22,-0.07 0.331,-0.103l0.08 -0.024c0.11,-0.033 0.22,-0.064 0.331,-0.095l0.082 -0.023c0.112,-0.03 0.224,-0.06 0.336,-0.089l0.024 -0.006 0 14.861 -14.861 0 0.006 -0.024zm25.015 -14.837l0.024 0.006c0.113,0.029 0.225,0.059 0.337,0.089l0.082 0.023c0.111,0.031 0.22,0.062 0.33,0.095l0.08 0.024c0.111,0.033 0.222,0.068 0.332,0.103l0.078 0.025c0.107,0.034 0.213,0.07 0.319,0.106l0.088 0.03c0.107,0.037 0.214,0.076 0.321,0.115l0.076 0.028c0.105,0.038 0.208,0.078 0.312,0.118l0.092 0.036c0.101,0.04 0.201,0.081 0.301,0.122l0.09 0.037c0.104,0.044 0.208,0.088 0.311,0.134l0.073 0.031c0.102,0.046 0.205,0.092 0.307,0.14l0.083 0.038c0.095,0.045 0.189,0.09 0.284,0.136l0.103 0.05c0.093,0.046 0.185,0.093 0.277,0.14l0.094 0.049c0.092,0.047 0.183,0.096 0.274,0.145l0.104 0.056c0.085,0.046 0.169,0.093 0.253,0.141l0.118 0.067c0.084,0.048 0.168,0.097 0.251,0.147l0.106 0.063c0.083,0.049 0.165,0.1 0.247,0.151l0.116 0.072c0.08,0.05 0.16,0.102 0.24,0.153l0.11 0.072c0.079,0.052 0.158,0.105 0.236,0.158l0.114 0.078c0.077,0.052 0.153,0.105 0.228,0.159l0.115 0.082c0.073,0.052 0.145,0.104 0.216,0.157l0.128 0.094c0.067,0.051 0.133,0.102 0.199,0.153l0.135 0.103c0.063,0.05 0.125,0.1 0.188,0.15l0.14 0.113c0.062,0.05 0.123,0.101 0.184,0.151l0.138 0.116c0.059,0.051 0.118,0.102 0.177,0.153 0.047,0.041 0.094,0.081 0.14,0.123 0.054,0.048 0.108,0.096 0.161,0.144 0.052,0.047 0.104,0.094 0.155,0.141 0.049,0.045 0.097,0.091 0.145,0.136 0.054,0.05 0.107,0.1 0.16,0.151 0.049,0.047 0.097,0.094 0.145,0.141 0.05,0.05 0.101,0.099 0.151,0.149 0.049,0.05 0.099,0.1 0.148,0.151 0.047,0.048 0.094,0.096 0.141,0.144 0.051,0.053 0.101,0.107 0.152,0.16 0.045,0.048 0.09,0.097 0.135,0.145 0.047,0.051 0.094,0.103 0.141,0.155 0.048,0.054 0.097,0.107 0.145,0.161 0.041,0.047 0.082,0.094 0.123,0.141 0.051,0.059 0.102,0.117 0.152,0.177 0.039,0.046 0.077,0.092 0.116,0.138 0.051,0.061 0.102,0.122 0.152,0.183 0.038,0.047 0.075,0.094 0.113,0.141 0.05,0.062 0.1,0.125 0.149,0.188 0.035,0.044 0.069,0.089 0.104,0.134 0.051,0.066 0.102,0.133 0.152,0.2l0.094 0.127c0.053,0.072 0.106,0.144 0.158,0.216l0.081 0.115c0.054,0.076 0.107,0.152 0.16,0.228l0.078 0.115c0.053,0.078 0.106,0.156 0.157,0.235l0.072 0.11c0.052,0.08 0.103,0.16 0.154,0.24l0.072 0.116c0.051,0.082 0.101,0.164 0.151,0.247l0.063 0.106c0.049,0.084 0.098,0.168 0.147,0.252l0.067 0.118c0.047,0.084 0.094,0.168 0.14,0.253l0.056 0.103c0.049,0.091 0.098,0.182 0.146,0.274l0.048 0.094c0.047,0.092 0.094,0.185 0.14,0.277l0.05 0.104c0.046,0.094 0.092,0.189 0.136,0.284l0.039 0.083c0.047,0.102 0.094,0.204 0.139,0.307l0.032 0.072c0.045,0.104 0.09,0.207 0.133,0.312l0.037 0.089c0.042,0.1 0.083,0.201 0.123,0.302l0.035 0.092c0.041,0.103 0.08,0.207 0.119,0.311l0.028 0.076c0.039,0.107 0.077,0.214 0.115,0.322l0.03 0.088c0.036,0.106 0.071,0.212 0.106,0.319l0.025 0.078c0.035,0.11 0.069,0.22 0.103,0.331l0.023 0.08c0.033,0.11 0.065,0.22 0.096,0.33l0.022 0.083c0.031,0.112 0.06,0.224 0.089,0.336l0.006 0.024 -14.861 0 0 -14.861z"/>
 </g>
</svg>
