<?xml version="1.0" encoding="UTF-8"?>
<!DOCTYPE svg PUBLIC "-//W3C//DTD SVG 1.1//EN" "http://www.w3.org/Graphics/SVG/1.1/DTD/svg11.dtd">
<!-- Creator: CorelDRAW 2019 (64-Bit) -->
<svg xmlns="http://www.w3.org/2000/svg" xml:space="preserve" width="750px" height="200px" version="1.1" style="shape-rendering:geometricPrecision; text-rendering:geometricPrecision; image-rendering:optimizeQuality; fill-rule:evenodd; clip-rule:evenodd"
viewBox="0 0 353.551 94.28"
 xmlns:xlink="http://www.w3.org/1999/xlink"
 xmlns:xodm="http://www.corel.com/coreldraw/odm/2003">
 <defs>
  <style type="text/css">
   <![CDATA[
    .str0 {stroke:black;stroke-width:0.267;stroke-miterlimit:22.9256}
    .fil0 {fill:none}
    .fil3 {fill:#4D4D4D}
    .fil2 {fill:#663333}
    .fil1 {fill:#B3B3B3}
   ]]>
  </style>
 </defs>
 <g id="Слой_x0020_1">
  <metadata id="CorelCorpID_0Corel-Layer"/>
  <rect class="fil0" width="353.551" height="94.28"/>
  <rect class="fil1 str0" x="53.032" y="9.26" width="23.57" height="9.428"/>
  <rect class="fil2 str0" x="76.602" y="9.26" width="23.57" height="9.428"/>
  <rect class="fil1 str0" x="100.172" y="9.26" width="23.57" height="9.428"/>
  <rect class="fil2 str0" x="123.743" y="9.26" width="23.57" height="9.428"/>
  <rect class="fil1 str0" x="147.313" y="9.26" width="23.57" height="9.428"/>
  <rect class="fil2 str0" x="170.883" y="9.26" width="23.57" height="9.428"/>
  <rect class="fil1 str0" x="194.453" y="9.26" width="23.57" height="9.428"/>
  <rect class="fil2 str0" x="218.024" y="9.26" width="23.57" height="9.428"/>
  <rect class="fil1 str0" x="241.594" y="9.26" width="23.57" height="9.428"/>
  <rect class="fil2 str0" x="265.164" y="9.26" width="23.57" height="9.428"/>
  <rect class="fil1 str0" x="288.734" y="9.26" width="23.57" height="9.428"/>
  <rect class="fil2 str0" x="276.949" y="75.592" width="23.57" height="9.428"/>
  <rect class="fil1 str0" x="253.379" y="75.592" width="23.57" height="9.428"/>
  <rect class="fil2 str0" x="229.809" y="75.592" width="23.57" height="9.428"/>
  <rect class="fil1 str0" x="206.238" y="75.592" width="23.57" height="9.428"/>
  <rect class="fil2 str0" x="182.668" y="75.592" width="23.57" height="9.428"/>
  <rect class="fil1 str0" x="159.098" y="75.592" width="23.57" height="9.428"/>
  <rect class="fil2 str0" x="135.528" y="75.592" width="23.57" height="9.428"/>
  <rect class="fil1 str0" x="111.957" y="75.592" width="23.57" height="9.428"/>
  <rect class="fil2 str0" x="88.387" y="75.592" width="23.57" height="9.428"/>
  <rect class="fil1 str0" x="64.817" y="75.592" width="23.57" height="9.428"/>
  <rect class="fil2 str0" x="41.247" y="75.592" width="23.57" height="9.428"/>
  <rect class="fil1 str0" transform="matrix(-0.856595 -0.453452 -0.239928 0.453237 41.232 75.6292)" width="24.319" height="18.385"/>
  <rect class="fil2 str0" transform="matrix(-0.0617799 -0.967242 -0.511782 0.0326887 20.4006 64.6018)" width="24.319" height="18.385"/>
  <rect class="fil1 str0" transform="matrix(0.441685 -0.862722 -0.456479 -0.233702 18.891 41.0762)" width="24.319" height="18.385"/>
  <rect class="fil2 str0" transform="matrix(0.967862 -0.0511517 -0.0270651 -0.51211 29.4946 19.9322)" width="24.319" height="18.385"/>
  <rect class="fil2 str0" transform="matrix(0.856595 0.453452 0.239928 -0.453237 312.319 18.6506)" width="24.319" height="18.385"/>
  <rect class="fil1 str0" transform="matrix(0.0617799 0.967242 0.511782 -0.0326887 333.15 29.678)" width="24.319" height="18.385"/>
  <rect class="fil2 str0" transform="matrix(-0.441685 0.862722 0.456479 0.233702 334.66 53.2036)" width="24.319" height="18.385"/>
  <rect class="fil1 str0" transform="matrix(-0.967862 0.0511517 0.0270651 0.51211 324.056 74.3476)" width="24.319" height="18.385"/>
  <path class="fil3 str0" d="M41.589 19.235c15.411,-3.065 30.39,6.943 33.455,22.354 3.066,15.412 -6.943,30.391 -22.354,33.456 -15.412,3.066 -30.39,-6.943 -33.456,-22.354 -3.065,-15.412 6.943,-30.39 22.355,-33.456zm26.098 29.022c-0.006,0.116 -0.014,0.231 -0.022,0.347l-0.006 0.085c-0.008,0.115 -0.018,0.229 -0.029,0.343l-0.007 0.083c-0.011,0.115 -0.024,0.23 -0.037,0.345l-0.009 0.081c-0.013,0.112 -0.027,0.223 -0.042,0.334l-0.012 0.092c-0.016,0.113 -0.033,0.226 -0.05,0.338l-0.013 0.08c-0.017,0.11 -0.036,0.219 -0.055,0.329l-0.017 0.097c-0.02,0.107 -0.04,0.213 -0.061,0.319l-0.019 0.096c-0.023,0.11 -0.046,0.221 -0.07,0.331l-0.017 0.077c-0.025,0.11 -0.051,0.219 -0.077,0.328l-0.021 0.089c-0.026,0.102 -0.052,0.204 -0.078,0.305l-0.03 0.112c-0.027,0.1 -0.055,0.199 -0.083,0.299l-0.029 0.102c-0.029,0.099 -0.059,0.198 -0.089,0.297l-0.035 0.112c-0.029,0.092 -0.058,0.184 -0.088,0.275l-0.043 0.129c-0.031,0.092 -0.063,0.184 -0.095,0.276l-0.041 0.116c-0.033,0.091 -0.066,0.181 -0.1,0.272l-0.048 0.127c-0.034,0.089 -0.069,0.177 -0.104,0.266l-0.049 0.122c-0.036,0.087 -0.072,0.174 -0.109,0.261l-0.054 0.128c-0.036,0.085 -0.074,0.17 -0.111,0.255l-0.058 0.129c-0.037,0.081 -0.075,0.161 -0.112,0.242l-0.068 0.143c-0.036,0.076 -0.073,0.151 -0.11,0.226l-0.076 0.152c-0.036,0.071 -0.073,0.142 -0.11,0.213l-0.083 0.16c-0.037,0.07 -0.075,0.14 -0.113,0.21l-0.087 0.158c-0.038,0.068 -0.077,0.135 -0.115,0.203 -0.031,0.054 -0.062,0.108 -0.093,0.162 -0.036,0.062 -0.074,0.124 -0.111,0.186 -0.035,0.06 -0.071,0.12 -0.107,0.18 -0.035,0.056 -0.07,0.112 -0.105,0.168 -0.039,0.063 -0.078,0.125 -0.117,0.186 -0.037,0.057 -0.074,0.114 -0.111,0.17 -0.038,0.059 -0.077,0.118 -0.116,0.177 -0.039,0.058 -0.079,0.117 -0.119,0.175 -0.038,0.056 -0.076,0.111 -0.114,0.167 -0.042,0.06 -0.085,0.119 -0.127,0.179 -0.039,0.054 -0.077,0.108 -0.116,0.161 -0.041,0.057 -0.083,0.113 -0.125,0.169 -0.043,0.058 -0.085,0.116 -0.129,0.173 -0.038,0.05 -0.076,0.099 -0.114,0.148 -0.048,0.062 -0.096,0.123 -0.144,0.184 -0.037,0.047 -0.075,0.094 -0.113,0.141 -0.05,0.062 -0.1,0.123 -0.15,0.184 -0.039,0.047 -0.077,0.093 -0.116,0.139 -0.052,0.061 -0.103,0.122 -0.155,0.183 -0.037,0.043 -0.075,0.085 -0.112,0.128 -0.055,0.063 -0.11,0.126 -0.166,0.188l-0.106 0.117c-0.06,0.066 -0.121,0.132 -0.181,0.197l-0.097 0.102c-0.064,0.068 -0.128,0.135 -0.193,0.201l-0.097 0.099c-0.066,0.067 -0.133,0.134 -0.2,0.2l-0.095 0.092c-0.068,0.067 -0.136,0.133 -0.205,0.198l-0.099 0.093c-0.071,0.066 -0.142,0.132 -0.213,0.196l-0.092 0.083c-0.072,0.065 -0.145,0.129 -0.218,0.193l-0.103 0.089c-0.073,0.063 -0.146,0.125 -0.22,0.187l-0.091 0.075c-0.079,0.066 -0.159,0.132 -0.24,0.196l-0.083 0.066c-0.081,0.064 -0.162,0.128 -0.245,0.191l-0.091 0.07c-0.084,0.063 -0.168,0.127 -0.252,0.189l-0.074 0.054c-0.091,0.066 -0.182,0.131 -0.274,0.196l-0.065 0.045c-0.092,0.065 -0.185,0.129 -0.279,0.192l-0.081 0.054c-0.09,0.06 -0.18,0.12 -0.272,0.179l-0.083 0.052c-0.094,0.06 -0.187,0.119 -0.282,0.177l-0.069 0.043c-0.097,0.059 -0.195,0.118 -0.293,0.175l-0.081 0.047c-0.097,0.056 -0.194,0.111 -0.292,0.166l-0.071 0.04c-0.102,0.056 -0.203,0.111 -0.306,0.166l-0.073 0.038c-0.102,0.054 -0.203,0.106 -0.306,0.158l-0.076 0.038c-0.104,0.052 -0.208,0.103 -0.313,0.153l-0.022 0.011 -2.899 -14.576 14.575 -2.899 -0.001 0.025zm-21.64 19.432l-0.025 -0.001c-0.116,-0.006 -0.231,-0.014 -0.347,-0.022l-0.085 -0.006c-0.114,-0.009 -0.228,-0.019 -0.343,-0.029l-0.083 -0.007c-0.115,-0.012 -0.23,-0.024 -0.345,-0.037l-0.081 -0.009c-0.112,-0.013 -0.223,-0.027 -0.334,-0.042l-0.092 -0.012c-0.113,-0.016 -0.225,-0.033 -0.338,-0.05l-0.08 -0.013c-0.11,-0.017 -0.219,-0.036 -0.328,-0.055l-0.097 -0.017c-0.107,-0.02 -0.214,-0.04 -0.32,-0.061l-0.095 -0.019c-0.111,-0.023 -0.222,-0.046 -0.332,-0.071l-0.077 -0.016c-0.109,-0.025 -0.219,-0.051 -0.328,-0.077l-0.089 -0.022c-0.102,-0.025 -0.204,-0.051 -0.305,-0.078l-0.111 -0.029c-0.1,-0.027 -0.2,-0.055 -0.299,-0.083l-0.102 -0.029c-0.1,-0.029 -0.198,-0.059 -0.297,-0.089l-0.113 -0.035c-0.092,-0.029 -0.184,-0.059 -0.275,-0.089l-0.129 -0.042c-0.092,-0.031 -0.184,-0.063 -0.275,-0.095l-0.117 -0.041c-0.09,-0.033 -0.181,-0.066 -0.271,-0.1l-0.128 -0.048c-0.089,-0.034 -0.177,-0.069 -0.265,-0.104l-0.122 -0.049c-0.088,-0.036 -0.175,-0.072 -0.262,-0.109l-0.128 -0.054c-0.085,-0.036 -0.17,-0.074 -0.254,-0.112l-0.129 -0.057c-0.081,-0.037 -0.162,-0.075 -0.243,-0.113l-0.143 -0.067c-0.075,-0.036 -0.15,-0.073 -0.226,-0.111l-0.152 -0.075c-0.071,-0.036 -0.142,-0.073 -0.213,-0.11l-0.16 -0.083c-0.07,-0.038 -0.14,-0.075 -0.209,-0.113l-0.158 -0.087c-0.068,-0.038 -0.136,-0.077 -0.204,-0.115 -0.054,-0.031 -0.108,-0.062 -0.162,-0.093 -0.062,-0.037 -0.124,-0.074 -0.186,-0.111 -0.06,-0.036 -0.12,-0.071 -0.179,-0.108 -0.057,-0.034 -0.113,-0.069 -0.169,-0.104 -0.062,-0.039 -0.124,-0.078 -0.186,-0.118 -0.057,-0.036 -0.113,-0.073 -0.17,-0.11 -0.059,-0.038 -0.118,-0.077 -0.176,-0.116 -0.059,-0.039 -0.117,-0.079 -0.175,-0.119 -0.056,-0.038 -0.112,-0.076 -0.167,-0.115 -0.06,-0.042 -0.12,-0.084 -0.18,-0.127 -0.054,-0.038 -0.108,-0.076 -0.161,-0.115 -0.056,-0.042 -0.112,-0.083 -0.168,-0.125 -0.058,-0.043 -0.116,-0.086 -0.174,-0.13 -0.049,-0.037 -0.098,-0.075 -0.148,-0.113 -0.061,-0.048 -0.123,-0.096 -0.184,-0.144 -0.047,-0.038 -0.094,-0.076 -0.14,-0.113 -0.062,-0.05 -0.124,-0.1 -0.185,-0.15 -0.047,-0.039 -0.093,-0.077 -0.139,-0.116 -0.061,-0.052 -0.122,-0.103 -0.182,-0.156 -0.043,-0.036 -0.086,-0.074 -0.128,-0.111 -0.063,-0.055 -0.126,-0.11 -0.189,-0.166l-0.117 -0.107c-0.066,-0.06 -0.132,-0.12 -0.197,-0.181l-0.102 -0.097c-0.067,-0.063 -0.135,-0.127 -0.201,-0.192l-0.099 -0.097c-0.067,-0.067 -0.134,-0.133 -0.2,-0.2l-0.092 -0.095c-0.066,-0.068 -0.132,-0.136 -0.198,-0.205l-0.093 -0.1c-0.066,-0.07 -0.131,-0.141 -0.196,-0.212l-0.082 -0.092c-0.065,-0.072 -0.13,-0.145 -0.194,-0.218l-0.088 -0.103c-0.063,-0.073 -0.126,-0.146 -0.188,-0.22l-0.075 -0.091c-0.066,-0.08 -0.131,-0.16 -0.196,-0.24l-0.066 -0.083c-0.064,-0.081 -0.128,-0.163 -0.191,-0.245l-0.07 -0.091c-0.063,-0.084 -0.126,-0.168 -0.188,-0.252l-0.054 -0.074c-0.066,-0.091 -0.132,-0.182 -0.197,-0.274l-0.045 -0.065c-0.065,-0.093 -0.129,-0.186 -0.192,-0.279l-0.054 -0.081c-0.06,-0.09 -0.119,-0.181 -0.178,-0.272l-0.053 -0.083c-0.06,-0.094 -0.119,-0.188 -0.177,-0.282l-0.042 -0.07c-0.06,-0.097 -0.118,-0.194 -0.176,-0.293l-0.046 -0.08c-0.057,-0.097 -0.112,-0.194 -0.167,-0.292l-0.039 -0.072c-0.056,-0.101 -0.112,-0.203 -0.166,-0.305l-0.039 -0.074c-0.053,-0.101 -0.106,-0.203 -0.158,-0.305l-0.038 -0.076c-0.052,-0.104 -0.103,-0.208 -0.153,-0.313l-0.01 -0.022 14.575 -2.9 2.899 14.576zm-19.455 -21.666c0.006,-0.116 0.013,-0.231 0.021,-0.347l0.006 -0.085c0.009,-0.115 0.019,-0.229 0.029,-0.343l0.008 -0.083c0.011,-0.115 0.023,-0.23 0.036,-0.345l0.009 -0.081c0.013,-0.112 0.028,-0.223 0.042,-0.334l0.013 -0.092c0.015,-0.113 0.032,-0.225 0.05,-0.338l0.012 -0.08c0.018,-0.11 0.036,-0.219 0.056,-0.328l0.017 -0.098c0.019,-0.106 0.04,-0.213 0.061,-0.319l0.018 -0.095c0.023,-0.111 0.047,-0.222 0.071,-0.332l0.017 -0.077c0.024,-0.11 0.05,-0.219 0.077,-0.328l0.021 -0.089c0.025,-0.102 0.051,-0.204 0.078,-0.305l0.029 -0.111c0.027,-0.1 0.055,-0.2 0.083,-0.3l0.029 -0.101c0.029,-0.1 0.059,-0.199 0.09,-0.298l0.034 -0.112c0.029,-0.092 0.059,-0.184 0.089,-0.275l0.042 -0.129c0.031,-0.092 0.063,-0.184 0.096,-0.276l0.041 -0.116c0.032,-0.091 0.066,-0.181 0.1,-0.271l0.048 -0.128c0.034,-0.089 0.068,-0.177 0.104,-0.265l0.048 -0.123c0.036,-0.087 0.073,-0.174 0.109,-0.261l0.054 -0.128c0.037,-0.085 0.074,-0.17 0.112,-0.255l0.058 -0.128c0.036,-0.081 0.074,-0.162 0.112,-0.243l0.068 -0.143c0.036,-0.076 0.073,-0.151 0.11,-0.226l0.075 -0.152c0.037,-0.071 0.073,-0.142 0.11,-0.213l0.084 -0.16c0.037,-0.07 0.075,-0.14 0.113,-0.21l0.086 -0.158c0.038,-0.068 0.077,-0.135 0.116,-0.203 0.031,-0.054 0.061,-0.108 0.093,-0.162 0.036,-0.062 0.073,-0.124 0.11,-0.186 0.036,-0.06 0.072,-0.12 0.108,-0.179 0.035,-0.057 0.07,-0.113 0.105,-0.169 0.039,-0.062 0.078,-0.124 0.117,-0.186 0.036,-0.057 0.073,-0.113 0.11,-0.17 0.039,-0.059 0.077,-0.118 0.116,-0.177 0.04,-0.058 0.08,-0.117 0.119,-0.175 0.038,-0.055 0.076,-0.111 0.115,-0.166 0.042,-0.061 0.084,-0.12 0.127,-0.18 0.038,-0.054 0.077,-0.108 0.116,-0.161 0.041,-0.057 0.082,-0.113 0.124,-0.169 0.043,-0.058 0.086,-0.116 0.13,-0.173 0.038,-0.05 0.076,-0.099 0.114,-0.148 0.048,-0.062 0.095,-0.123 0.144,-0.184 0.037,-0.047 0.075,-0.094 0.113,-0.141 0.049,-0.061 0.099,-0.123 0.15,-0.184 0.038,-0.047 0.077,-0.093 0.116,-0.139 0.051,-0.061 0.103,-0.122 0.155,-0.183 0.037,-0.043 0.074,-0.085 0.111,-0.128 0.055,-0.063 0.111,-0.125 0.167,-0.188l0.106 -0.117c0.06,-0.066 0.12,-0.132 0.181,-0.197l0.097 -0.102c0.064,-0.068 0.128,-0.135 0.193,-0.201l0.097 -0.099c0.066,-0.067 0.133,-0.134 0.2,-0.2l0.094 -0.092c0.068,-0.067 0.136,-0.132 0.205,-0.198l0.1 -0.093c0.07,-0.066 0.141,-0.131 0.213,-0.196l0.091 -0.083c0.073,-0.065 0.145,-0.129 0.218,-0.193l0.103 -0.089c0.073,-0.063 0.147,-0.125 0.221,-0.187l0.09 -0.075c0.08,-0.066 0.16,-0.131 0.241,-0.196l0.083 -0.066c0.081,-0.064 0.162,-0.128 0.244,-0.191l0.092 -0.07c0.083,-0.063 0.167,-0.126 0.252,-0.189l0.074 -0.053c0.09,-0.067 0.181,-0.132 0.274,-0.197l0.064 -0.045c0.093,-0.065 0.186,-0.129 0.28,-0.192l0.08 -0.054c0.091,-0.06 0.181,-0.12 0.272,-0.178l0.084 -0.053c0.093,-0.06 0.187,-0.119 0.282,-0.177l0.069 -0.043c0.097,-0.059 0.195,-0.117 0.293,-0.175l0.08 -0.046c0.097,-0.057 0.194,-0.112 0.292,-0.167l0.072 -0.04c0.101,-0.056 0.203,-0.111 0.305,-0.165l0.074 -0.039c0.101,-0.053 0.203,-0.106 0.305,-0.158l0.077 -0.038c0.103,-0.052 0.207,-0.103 0.312,-0.153l0.023 -0.011 2.899 14.576 -14.576 2.899 0.002 -0.025zm21.639 -19.432l0.025 0.001c0.116,0.007 0.232,0.014 0.347,0.022l0.086 0.006c0.114,0.009 0.228,0.019 0.342,0.029l0.083 0.008c0.115,0.011 0.23,0.023 0.345,0.036l0.082 0.009c0.111,0.013 0.222,0.027 0.333,0.042l0.092 0.013c0.113,0.015 0.226,0.032 0.338,0.05l0.08 0.012c0.11,0.017 0.22,0.036 0.329,0.056l0.097 0.016c0.107,0.02 0.213,0.04 0.319,0.061l0.096 0.019c0.11,0.023 0.221,0.047 0.331,0.071l0.077 0.017c0.11,0.024 0.219,0.05 0.329,0.076l0.088 0.022c0.102,0.025 0.204,0.051 0.305,0.078l0.112 0.029c0.1,0.027 0.199,0.055 0.299,0.083l0.102 0.029c0.099,0.029 0.198,0.059 0.297,0.089l0.112 0.035c0.092,0.029 0.184,0.059 0.276,0.089l0.128 0.042c0.093,0.031 0.184,0.063 0.276,0.096l0.116 0.041c0.091,0.032 0.181,0.066 0.272,0.099l0.128 0.048c0.088,0.034 0.177,0.069 0.265,0.104l0.122 0.049c0.088,0.036 0.175,0.072 0.262,0.109l0.127 0.054c0.085,0.037 0.17,0.074 0.255,0.112l0.129 0.057c0.081,0.037 0.162,0.075 0.242,0.113l0.143 0.067c0.076,0.037 0.151,0.074 0.226,0.111l0.152 0.075c0.071,0.036 0.142,0.073 0.213,0.11l0.161 0.083c0.07,0.038 0.139,0.076 0.209,0.114l0.158 0.086c0.068,0.038 0.136,0.077 0.203,0.115 0.054,0.031 0.108,0.062 0.162,0.093 0.063,0.037 0.124,0.074 0.186,0.111 0.06,0.036 0.12,0.071 0.18,0.108 0.056,0.034 0.112,0.069 0.168,0.105 0.063,0.038 0.125,0.077 0.187,0.117 0.056,0.036 0.113,0.073 0.169,0.11 0.059,0.039 0.118,0.077 0.177,0.116 0.059,0.039 0.117,0.079 0.175,0.119 0.056,0.038 0.111,0.076 0.167,0.115 0.06,0.042 0.12,0.084 0.179,0.127 0.054,0.038 0.108,0.077 0.162,0.115 0.056,0.042 0.112,0.083 0.168,0.125 0.058,0.043 0.116,0.086 0.173,0.13 0.05,0.037 0.099,0.076 0.148,0.114 0.062,0.047 0.124,0.095 0.185,0.144 0.047,0.037 0.093,0.075 0.14,0.112 0.062,0.05 0.123,0.1 0.185,0.151 0.046,0.038 0.092,0.077 0.138,0.115 0.061,0.052 0.122,0.104 0.183,0.156 0.043,0.036 0.085,0.074 0.128,0.111 0.063,0.055 0.126,0.11 0.188,0.166l0.117 0.107c0.066,0.06 0.132,0.12 0.197,0.181l0.103 0.097c0.067,0.063 0.134,0.127 0.2,0.192l0.099 0.097c0.067,0.067 0.135,0.133 0.201,0.201l0.092 0.094c0.066,0.068 0.132,0.136 0.197,0.205l0.093 0.1c0.066,0.07 0.132,0.141 0.197,0.212l0.082 0.092c0.065,0.072 0.13,0.145 0.193,0.218l0.089 0.103c0.063,0.073 0.125,0.146 0.187,0.22l0.075 0.091c0.066,0.08 0.132,0.16 0.196,0.24l0.066 0.083c0.065,0.081 0.129,0.163 0.192,0.245l0.069 0.092c0.064,0.083 0.127,0.167 0.189,0.252l0.054 0.073c0.066,0.091 0.132,0.182 0.196,0.274l0.045 0.065c0.065,0.093 0.129,0.186 0.192,0.279l0.054 0.081c0.06,0.09 0.12,0.181 0.179,0.272l0.053 0.083c0.059,0.094 0.118,0.188 0.177,0.282l0.042 0.07c0.059,0.097 0.118,0.195 0.175,0.293l0.047 0.08c0.056,0.097 0.112,0.194 0.166,0.292l0.04 0.072c0.056,0.101 0.111,0.203 0.166,0.305l0.039 0.074c0.053,0.101 0.106,0.203 0.157,0.305l0.038 0.077c0.052,0.103 0.103,0.207 0.153,0.312l0.011 0.022 -14.575 2.9 -2.9 -14.576z"/>
  <path class="fil3 str0" d="M300.861 19.235c15.412,-3.065 30.39,6.943 33.456,22.354 3.065,15.412 -6.943,30.391 -22.355,33.456 -15.411,3.066 -30.39,-6.943 -33.455,-22.354 -3.066,-15.412 6.943,-30.39 22.354,-33.456zm26.098 29.022c-0.006,0.116 -0.013,0.231 -0.021,0.347l-0.006 0.085c-0.009,0.115 -0.019,0.229 -0.029,0.343l-0.008 0.083c-0.011,0.115 -0.023,0.23 -0.036,0.345l-0.009 0.081c-0.013,0.112 -0.028,0.223 -0.042,0.334l-0.013 0.092c-0.015,0.113 -0.032,0.226 -0.05,0.338l-0.012 0.08c-0.018,0.11 -0.036,0.219 -0.056,0.329l-0.017 0.097c-0.019,0.107 -0.04,0.213 -0.061,0.319l-0.018 0.096c-0.023,0.11 -0.047,0.221 -0.071,0.331l-0.017 0.077c-0.024,0.11 -0.05,0.219 -0.076,0.328l-0.022 0.089c-0.025,0.102 -0.051,0.204 -0.078,0.305l-0.029 0.112c-0.027,0.1 -0.055,0.199 -0.083,0.299l-0.029 0.102c-0.029,0.099 -0.059,0.198 -0.09,0.297l-0.034 0.112c-0.029,0.092 -0.059,0.184 -0.089,0.275l-0.042 0.129c-0.031,0.092 -0.063,0.184 -0.096,0.276l-0.041 0.116c-0.032,0.091 -0.066,0.181 -0.1,0.272l-0.048 0.127c-0.034,0.089 -0.068,0.177 -0.104,0.266l-0.048 0.122c-0.036,0.087 -0.072,0.174 -0.109,0.261l-0.054 0.128c-0.037,0.085 -0.074,0.17 -0.112,0.255l-0.058 0.129c-0.036,0.081 -0.074,0.161 -0.112,0.242l-0.068 0.143c-0.036,0.076 -0.073,0.151 -0.11,0.226l-0.075 0.152c-0.036,0.071 -0.073,0.142 -0.11,0.213l-0.084 0.16c-0.037,0.07 -0.075,0.14 -0.113,0.21l-0.086 0.158c-0.038,0.068 -0.077,0.135 -0.116,0.203 -0.03,0.054 -0.061,0.108 -0.093,0.162 -0.036,0.062 -0.073,0.124 -0.11,0.186 -0.036,0.06 -0.072,0.12 -0.108,0.18 -0.035,0.056 -0.07,0.112 -0.105,0.168 -0.039,0.063 -0.077,0.125 -0.117,0.186 -0.036,0.057 -0.073,0.114 -0.11,0.17 -0.039,0.059 -0.077,0.118 -0.116,0.177 -0.04,0.058 -0.079,0.117 -0.119,0.175 -0.038,0.056 -0.076,0.111 -0.115,0.167 -0.042,0.06 -0.084,0.119 -0.127,0.179 -0.038,0.054 -0.077,0.108 -0.116,0.161 -0.041,0.057 -0.082,0.113 -0.124,0.169 -0.043,0.058 -0.086,0.116 -0.13,0.173 -0.037,0.05 -0.076,0.099 -0.114,0.148 -0.047,0.062 -0.095,0.123 -0.144,0.184 -0.037,0.047 -0.075,0.094 -0.112,0.141 -0.05,0.062 -0.1,0.123 -0.151,0.184 -0.038,0.047 -0.077,0.093 -0.115,0.139 -0.052,0.061 -0.104,0.122 -0.156,0.183 -0.037,0.043 -0.074,0.085 -0.111,0.128 -0.055,0.063 -0.111,0.126 -0.167,0.188l-0.106 0.117c-0.06,0.066 -0.12,0.132 -0.181,0.197l-0.097 0.102c-0.064,0.068 -0.128,0.135 -0.192,0.201l-0.098 0.099c-0.066,0.067 -0.133,0.134 -0.2,0.2l-0.094 0.092c-0.068,0.067 -0.136,0.133 -0.205,0.198l-0.1 0.093c-0.07,0.066 -0.141,0.132 -0.212,0.196l-0.092 0.083c-0.072,0.065 -0.145,0.129 -0.218,0.193l-0.103 0.089c-0.073,0.063 -0.147,0.125 -0.22,0.187l-0.091 0.075c-0.08,0.066 -0.16,0.132 -0.24,0.196l-0.084 0.066c-0.081,0.064 -0.162,0.128 -0.244,0.191l-0.092 0.07c-0.083,0.063 -0.167,0.127 -0.252,0.189l-0.074 0.054c-0.09,0.066 -0.181,0.131 -0.273,0.196l-0.065 0.045c-0.093,0.065 -0.186,0.129 -0.279,0.192l-0.081 0.054c-0.09,0.06 -0.181,0.12 -0.272,0.179l-0.083 0.052c-0.094,0.06 -0.188,0.119 -0.283,0.177l-0.069 0.043c-0.097,0.059 -0.195,0.118 -0.293,0.175l-0.08 0.047c-0.097,0.056 -0.194,0.111 -0.292,0.166l-0.072 0.04c-0.101,0.056 -0.203,0.111 -0.305,0.166l-0.074 0.038c-0.101,0.054 -0.203,0.106 -0.305,0.158l-0.077 0.038c-0.103,0.052 -0.207,0.103 -0.312,0.153l-0.023 0.011 -2.899 -14.576 14.576 -2.899 -0.002 0.025zm-21.639 19.432l-0.025 -0.001c-0.116,-0.006 -0.232,-0.014 -0.347,-0.022l-0.085 -0.006c-0.115,-0.009 -0.229,-0.019 -0.343,-0.029l-0.083 -0.007c-0.115,-0.012 -0.23,-0.024 -0.345,-0.037l-0.082 -0.009c-0.111,-0.013 -0.222,-0.027 -0.333,-0.042l-0.092 -0.012c-0.113,-0.016 -0.226,-0.033 -0.338,-0.05l-0.08 -0.013c-0.11,-0.017 -0.219,-0.036 -0.329,-0.055l-0.097 -0.017c-0.107,-0.02 -0.213,-0.04 -0.319,-0.061l-0.096 -0.019c-0.11,-0.023 -0.221,-0.046 -0.331,-0.071l-0.077 -0.016c-0.11,-0.025 -0.219,-0.051 -0.328,-0.077l-0.089 -0.022c-0.102,-0.025 -0.204,-0.051 -0.305,-0.078l-0.112 -0.029c-0.1,-0.027 -0.199,-0.055 -0.299,-0.083l-0.102 -0.029c-0.099,-0.029 -0.198,-0.059 -0.297,-0.089l-0.112 -0.035c-0.092,-0.029 -0.184,-0.059 -0.276,-0.089l-0.128 -0.042c-0.092,-0.031 -0.184,-0.063 -0.276,-0.095l-0.116 -0.041c-0.091,-0.033 -0.181,-0.066 -0.272,-0.1l-0.127 -0.048c-0.089,-0.034 -0.177,-0.069 -0.266,-0.104l-0.122 -0.049c-0.087,-0.036 -0.175,-0.072 -0.262,-0.109l-0.127 -0.054c-0.085,-0.036 -0.17,-0.074 -0.255,-0.112l-0.129 -0.057c-0.081,-0.037 -0.162,-0.075 -0.242,-0.113l-0.143 -0.067c-0.076,-0.036 -0.151,-0.073 -0.226,-0.111l-0.152 -0.075c-0.071,-0.036 -0.142,-0.073 -0.213,-0.11l-0.16 -0.083c-0.07,-0.038 -0.14,-0.075 -0.21,-0.113l-0.158 -0.087c-0.068,-0.038 -0.136,-0.077 -0.203,-0.115 -0.054,-0.031 -0.108,-0.062 -0.162,-0.093 -0.063,-0.037 -0.124,-0.074 -0.186,-0.111 -0.06,-0.036 -0.12,-0.071 -0.18,-0.108 -0.056,-0.034 -0.112,-0.069 -0.168,-0.104 -0.063,-0.039 -0.125,-0.078 -0.186,-0.118 -0.057,-0.036 -0.114,-0.073 -0.17,-0.11 -0.059,-0.038 -0.118,-0.077 -0.177,-0.116 -0.059,-0.039 -0.117,-0.079 -0.175,-0.119 -0.056,-0.038 -0.111,-0.076 -0.167,-0.115 -0.06,-0.042 -0.12,-0.084 -0.179,-0.127 -0.054,-0.038 -0.108,-0.076 -0.162,-0.115 -0.056,-0.042 -0.112,-0.083 -0.168,-0.125 -0.058,-0.043 -0.116,-0.086 -0.173,-0.13 -0.05,-0.037 -0.099,-0.075 -0.148,-0.113 -0.062,-0.048 -0.123,-0.096 -0.184,-0.144 -0.047,-0.038 -0.094,-0.076 -0.141,-0.113 -0.062,-0.05 -0.123,-0.1 -0.185,-0.15 -0.046,-0.039 -0.092,-0.077 -0.138,-0.116 -0.061,-0.052 -0.122,-0.103 -0.183,-0.156 -0.043,-0.036 -0.085,-0.074 -0.128,-0.111 -0.063,-0.055 -0.126,-0.11 -0.188,-0.166l-0.117 -0.107c-0.066,-0.06 -0.132,-0.12 -0.197,-0.181l-0.103 -0.097c-0.067,-0.063 -0.134,-0.127 -0.2,-0.192l-0.099 -0.097c-0.067,-0.067 -0.134,-0.133 -0.201,-0.2l-0.092 -0.095c-0.066,-0.068 -0.132,-0.136 -0.197,-0.205l-0.093 -0.1c-0.066,-0.07 -0.132,-0.141 -0.197,-0.212l-0.082 -0.092c-0.065,-0.072 -0.13,-0.145 -0.193,-0.218l-0.089 -0.103c-0.063,-0.073 -0.125,-0.146 -0.187,-0.22l-0.075 -0.091c-0.066,-0.08 -0.132,-0.16 -0.196,-0.24l-0.066 -0.083c-0.064,-0.081 -0.128,-0.163 -0.192,-0.245l-0.069 -0.091c-0.064,-0.084 -0.127,-0.168 -0.189,-0.252l-0.054 -0.074c-0.066,-0.091 -0.132,-0.182 -0.196,-0.274l-0.045 -0.065c-0.065,-0.093 -0.129,-0.186 -0.192,-0.279l-0.054 -0.081c-0.06,-0.09 -0.12,-0.181 -0.179,-0.272l-0.053 -0.083c-0.059,-0.094 -0.118,-0.188 -0.177,-0.282l-0.042 -0.07c-0.059,-0.097 -0.118,-0.194 -0.175,-0.293l-0.047 -0.08c-0.056,-0.097 -0.112,-0.194 -0.166,-0.292l-0.04 -0.072c-0.056,-0.101 -0.111,-0.203 -0.166,-0.305l-0.038 -0.074c-0.054,-0.101 -0.106,-0.203 -0.158,-0.305l-0.038 -0.076c-0.052,-0.104 -0.103,-0.208 -0.153,-0.313l-0.011 -0.022 14.576 -2.9 2.899 14.576zm-19.456 -21.666c0.006,-0.116 0.014,-0.231 0.022,-0.347l0.006 -0.085c0.009,-0.115 0.018,-0.229 0.029,-0.343l0.007 -0.083c0.012,-0.115 0.024,-0.23 0.037,-0.345l0.009 -0.081c0.013,-0.112 0.027,-0.223 0.042,-0.334l0.012 -0.092c0.016,-0.113 0.033,-0.225 0.05,-0.338l0.013 -0.08c0.017,-0.11 0.036,-0.219 0.055,-0.328l0.017 -0.098c0.02,-0.106 0.04,-0.213 0.061,-0.319l0.019 -0.095c0.023,-0.111 0.046,-0.222 0.07,-0.332l0.017 -0.077c0.025,-0.11 0.051,-0.219 0.077,-0.328l0.021 -0.089c0.026,-0.102 0.052,-0.204 0.079,-0.305l0.029 -0.111c0.027,-0.1 0.055,-0.2 0.083,-0.3l0.029 -0.101c0.029,-0.1 0.059,-0.199 0.089,-0.298l0.035 -0.112c0.029,-0.092 0.058,-0.184 0.089,-0.275l0.042 -0.129c0.031,-0.092 0.063,-0.184 0.095,-0.276l0.041 -0.116c0.033,-0.091 0.066,-0.181 0.1,-0.271l0.048 -0.128c0.034,-0.089 0.069,-0.177 0.104,-0.265l0.049 -0.123c0.036,-0.087 0.072,-0.174 0.109,-0.261l0.054 -0.128c0.036,-0.085 0.074,-0.17 0.112,-0.255l0.057 -0.128c0.037,-0.081 0.075,-0.162 0.113,-0.243l0.067 -0.143c0.036,-0.076 0.073,-0.151 0.111,-0.226l0.075 -0.152c0.036,-0.071 0.073,-0.142 0.11,-0.213l0.083 -0.16c0.037,-0.07 0.075,-0.14 0.113,-0.21l0.087 -0.158c0.038,-0.068 0.077,-0.135 0.115,-0.203 0.031,-0.054 0.062,-0.108 0.093,-0.162 0.037,-0.062 0.074,-0.124 0.111,-0.186 0.036,-0.06 0.071,-0.12 0.108,-0.179 0.034,-0.057 0.069,-0.113 0.104,-0.169 0.039,-0.062 0.078,-0.124 0.117,-0.186 0.037,-0.057 0.074,-0.113 0.111,-0.17 0.038,-0.059 0.077,-0.118 0.116,-0.177 0.039,-0.058 0.079,-0.117 0.119,-0.175 0.038,-0.055 0.076,-0.111 0.114,-0.166 0.042,-0.061 0.085,-0.12 0.128,-0.18 0.038,-0.054 0.076,-0.108 0.115,-0.161 0.041,-0.057 0.083,-0.113 0.125,-0.169 0.043,-0.058 0.086,-0.116 0.129,-0.173 0.038,-0.05 0.076,-0.099 0.114,-0.148 0.048,-0.062 0.096,-0.123 0.144,-0.184 0.037,-0.047 0.075,-0.094 0.113,-0.141 0.05,-0.061 0.1,-0.123 0.15,-0.184 0.039,-0.047 0.077,-0.093 0.116,-0.139 0.052,-0.061 0.103,-0.122 0.155,-0.183 0.037,-0.043 0.075,-0.085 0.112,-0.128 0.055,-0.063 0.11,-0.125 0.166,-0.188l0.107 -0.117c0.059,-0.066 0.12,-0.132 0.18,-0.197l0.098 -0.102c0.063,-0.068 0.127,-0.135 0.192,-0.201l0.097 -0.099c0.066,-0.067 0.133,-0.134 0.2,-0.2l0.095 -0.092c0.068,-0.067 0.136,-0.132 0.205,-0.198l0.1 -0.093c0.07,-0.066 0.141,-0.131 0.212,-0.196l0.092 -0.083c0.072,-0.065 0.145,-0.129 0.218,-0.193l0.103 -0.089c0.073,-0.063 0.146,-0.125 0.22,-0.187l0.091 -0.075c0.079,-0.066 0.159,-0.131 0.24,-0.196l0.083 -0.066c0.081,-0.064 0.163,-0.128 0.245,-0.191l0.091 -0.07c0.084,-0.063 0.168,-0.126 0.252,-0.189l0.074 -0.053c0.091,-0.067 0.182,-0.132 0.274,-0.197l0.065 -0.045c0.092,-0.065 0.185,-0.129 0.279,-0.192l0.081 -0.054c0.09,-0.06 0.18,-0.12 0.272,-0.178l0.083 -0.053c0.094,-0.06 0.187,-0.119 0.282,-0.177l0.069 -0.043c0.098,-0.059 0.195,-0.117 0.294,-0.175l0.08 -0.046c0.097,-0.057 0.194,-0.112 0.292,-0.167l0.071 -0.04c0.102,-0.056 0.203,-0.111 0.306,-0.165l0.073 -0.039c0.102,-0.053 0.203,-0.106 0.306,-0.158l0.076 -0.038c0.104,-0.052 0.208,-0.103 0.313,-0.153l0.022 -0.011 2.899 14.576 -14.575 2.899 0.001 -0.025zm21.64 -19.432l0.025 0.001c0.116,0.007 0.231,0.014 0.347,0.022l0.085 0.006c0.114,0.009 0.229,0.019 0.343,0.029l0.083 0.008c0.115,0.011 0.23,0.023 0.345,0.036l0.081 0.009c0.112,0.013 0.223,0.027 0.334,0.042l0.092 0.013c0.113,0.015 0.225,0.032 0.338,0.05l0.08 0.012c0.11,0.017 0.219,0.036 0.328,0.056l0.098 0.016c0.106,0.02 0.213,0.04 0.319,0.061l0.095 0.019c0.111,0.023 0.222,0.047 0.332,0.071l0.077 0.017c0.109,0.024 0.219,0.05 0.328,0.076l0.089 0.022c0.102,0.025 0.204,0.051 0.305,0.078l0.111 0.029c0.1,0.027 0.2,0.055 0.299,0.083l0.102 0.029c0.1,0.029 0.199,0.059 0.297,0.089l0.113 0.035c0.092,0.029 0.184,0.059 0.275,0.089l0.129 0.042c0.092,0.031 0.184,0.063 0.276,0.096l0.116 0.041c0.091,0.032 0.181,0.066 0.271,0.099l0.128 0.048c0.089,0.034 0.177,0.069 0.265,0.104l0.123 0.049c0.087,0.036 0.174,0.072 0.261,0.109l0.128 0.054c0.085,0.037 0.17,0.074 0.254,0.112l0.129 0.057c0.081,0.037 0.162,0.075 0.243,0.113l0.143 0.067c0.075,0.037 0.151,0.074 0.226,0.111l0.152 0.075c0.071,0.036 0.142,0.073 0.213,0.11l0.16 0.083c0.07,0.038 0.14,0.076 0.209,0.114l0.158 0.086c0.069,0.038 0.136,0.077 0.204,0.115 0.054,0.031 0.108,0.062 0.162,0.093 0.062,0.037 0.124,0.074 0.186,0.111 0.06,0.036 0.12,0.071 0.179,0.108 0.057,0.034 0.113,0.069 0.169,0.105 0.062,0.038 0.124,0.077 0.186,0.117 0.057,0.036 0.113,0.073 0.17,0.11 0.059,0.039 0.118,0.077 0.176,0.116 0.059,0.039 0.117,0.079 0.176,0.119 0.055,0.038 0.111,0.076 0.166,0.115 0.06,0.042 0.12,0.084 0.18,0.127 0.054,0.038 0.108,0.077 0.161,0.115 0.057,0.042 0.112,0.083 0.169,0.125 0.057,0.043 0.115,0.086 0.173,0.13 0.049,0.037 0.098,0.076 0.148,0.114 0.061,0.047 0.123,0.095 0.184,0.144 0.047,0.037 0.094,0.075 0.14,0.112 0.062,0.05 0.124,0.1 0.185,0.151 0.047,0.038 0.093,0.077 0.139,0.115 0.061,0.052 0.122,0.104 0.183,0.156 0.042,0.036 0.085,0.074 0.127,0.111 0.063,0.055 0.126,0.11 0.189,0.166l0.117 0.107c0.066,0.06 0.132,0.12 0.197,0.181l0.102 0.097c0.068,0.063 0.135,0.127 0.201,0.192l0.099 0.097c0.067,0.067 0.134,0.133 0.2,0.201l0.092 0.094c0.066,0.068 0.132,0.136 0.198,0.205l0.093 0.1c0.066,0.07 0.131,0.141 0.196,0.212l0.083 0.092c0.064,0.072 0.129,0.145 0.193,0.218l0.088 0.103c0.063,0.073 0.126,0.146 0.188,0.22l0.075 0.091c0.066,0.08 0.131,0.16 0.196,0.24l0.066 0.083c0.064,0.081 0.128,0.163 0.191,0.245l0.07 0.092c0.063,0.083 0.126,0.167 0.188,0.252l0.054 0.073c0.066,0.091 0.132,0.182 0.197,0.274l0.045 0.065c0.065,0.093 0.129,0.186 0.192,0.279l0.054 0.081c0.06,0.09 0.12,0.181 0.178,0.272l0.053 0.083c0.06,0.094 0.119,0.188 0.177,0.282l0.042 0.07c0.06,0.097 0.118,0.195 0.176,0.293l0.046 0.08c0.057,0.097 0.112,0.194 0.167,0.292l0.04 0.072c0.056,0.101 0.111,0.203 0.165,0.305l0.039 0.074c0.053,0.101 0.106,0.203 0.158,0.305l0.038 0.077c0.052,0.103 0.103,0.207 0.153,0.312l0.011 0.022 -14.576 2.9 -2.899 -14.576z"/>
 </g>
</svg>
