<?xml version="1.0" encoding="UTF-8"?>
<!DOCTYPE svg PUBLIC "-//W3C//DTD SVG 1.1//EN" "http://www.w3.org/Graphics/SVG/1.1/DTD/svg11.dtd">
<!-- Creator: CorelDRAW 2019 (64-Bit) -->
<svg xmlns="http://www.w3.org/2000/svg" xml:space="preserve" width="750px" height="200px" version="1.1" style="shape-rendering:geometricPrecision; text-rendering:geometricPrecision; image-rendering:optimizeQuality; fill-rule:evenodd; clip-rule:evenodd"
viewBox="0 0 353.551 94.28"
 xmlns:xlink="http://www.w3.org/1999/xlink"
 xmlns:xodm="http://www.corel.com/coreldraw/odm/2003">
 <defs>
  <style type="text/css">
   <![CDATA[
    .str0 {stroke:black;stroke-width:0.267;stroke-miterlimit:22.9256}
    .fil0 {fill:none}
    .fil3 {fill:#4D4D4D}
    .fil1 {fill:#663333}
    .fil2 {fill:#B3B3B3}
   ]]>
  </style>
 </defs>
 <g id="Слой_x0020_1">
  <metadata id="CorelCorpID_0Corel-Layer"/>
  <rect class="fil0" width="353.551" height="94.28"/>
  <rect class="fil1 str0" transform="matrix(2.56692E-14 -0.969213 0.512825 1.35819E-14 334.863 58.9252)" width="24.319" height="18.385"/>
  <rect class="fil2 str0" transform="matrix(0.685337 -0.685337 0.362622 0.362622 318.197 75.5919)" width="24.319" height="18.385"/>
  <rect class="fil2 str0" transform="matrix(-0.685337 -0.685337 0.362622 -0.362622 334.863 35.3551)" width="24.319" height="18.385"/>
  <rect class="fil2 str0" x="35.354" y="75.592" width="23.57" height="9.428"/>
  <rect class="fil1 str0" x="58.924" y="75.592" width="23.57" height="9.428"/>
  <rect class="fil2 str0" x="82.495" y="75.592" width="23.57" height="9.428"/>
  <rect class="fil1 str0" x="106.065" y="75.592" width="23.57" height="9.428"/>
  <rect class="fil2 str0" x="129.635" y="75.592" width="23.57" height="9.428"/>
  <rect class="fil1 str0" x="153.205" y="75.592" width="23.57" height="9.428"/>
  <rect class="fil2 str0" x="176.776" y="75.592" width="23.57" height="9.428"/>
  <rect class="fil1 str0" x="200.346" y="75.592" width="23.57" height="9.428"/>
  <rect class="fil2 str0" x="223.916" y="75.592" width="23.57" height="9.428"/>
  <rect class="fil1 str0" x="247.486" y="75.592" width="23.57" height="9.428"/>
  <rect class="fil2 str0" x="271.057" y="75.592" width="23.57" height="9.428"/>
  <rect class="fil1 str0" x="294.627" y="75.592" width="23.57" height="9.428"/>
  <rect class="fil2 str0" transform="matrix(-7.70075E-14 0.969213 -0.512825 -4.07458E-14 18.6877 35.3551)" width="24.319" height="18.385"/>
  <rect class="fil1 str0" transform="matrix(-0.685337 0.685337 -0.362622 -0.362622 35.3542 18.6885)" width="24.319" height="18.385"/>
  <rect class="fil1 str0" transform="matrix(0.685337 0.685337 -0.362622 0.362622 18.6876 58.9253)" width="24.319" height="18.385"/>
  <rect class="fil1 str0" x="294.627" y="9.261" width="23.57" height="9.428"/>
  <rect class="fil2 str0" x="271.057" y="9.261" width="23.57" height="9.428"/>
  <rect class="fil1 str0" x="247.486" y="9.261" width="23.57" height="9.428"/>
  <rect class="fil2 str0" x="223.916" y="9.261" width="23.57" height="9.428"/>
  <rect class="fil1 str0" x="200.346" y="9.261" width="23.57" height="9.428"/>
  <rect class="fil2 str0" x="176.776" y="9.261" width="23.57" height="9.428"/>
  <rect class="fil1 str0" x="153.205" y="9.261" width="23.57" height="9.428"/>
  <rect class="fil2 str0" x="129.635" y="9.261" width="23.57" height="9.428"/>
  <rect class="fil1 str0" x="106.065" y="9.261" width="23.57" height="9.428"/>
  <rect class="fil2 str0" x="82.495" y="9.261" width="23.57" height="9.428"/>
  <rect class="fil1 str0" x="58.924" y="9.261" width="23.57" height="9.428"/>
  <rect class="fil2 str0" x="35.354" y="9.261" width="23.57" height="9.428"/>
  <path class="fil3 str0" d="M286.293 27.022c11.112,-11.111 29.126,-11.111 40.237,0 11.111,11.111 11.111,29.125 0,40.236 -11.111,11.112 -29.125,11.112 -40.237,0 -11.111,-11.111 -11.111,-29.125 0,-40.236zm37.824 9.631c0.059,0.1 0.117,0.2 0.175,0.301l0.042 0.074c0.057,0.1 0.112,0.2 0.167,0.301l0.039 0.073c0.055,0.102 0.109,0.205 0.162,0.307l0.038 0.073c0.051,0.1 0.101,0.2 0.15,0.301l0.041 0.083c0.049,0.103 0.098,0.206 0.146,0.309l0.034 0.073c0.046,0.101 0.092,0.203 0.136,0.304l0.04 0.091c0.043,0.099 0.085,0.199 0.127,0.299l0.037 0.09c0.043,0.104 0.085,0.21 0.126,0.315l0.029 0.073c0.04,0.105 0.079,0.21 0.118,0.316l0.032 0.085c0.036,0.099 0.07,0.198 0.104,0.297l0.038 0.109c0.033,0.098 0.065,0.197 0.097,0.295l0.032 0.101c0.032,0.099 0.062,0.197 0.091,0.297l0.034 0.112c0.027,0.093 0.053,0.186 0.079,0.278l0.036 0.131c0.026,0.094 0.05,0.188 0.074,0.282l0.031 0.12c0.023,0.093 0.045,0.187 0.067,0.281l0.032 0.133c0.021,0.092 0.041,0.185 0.061,0.278l0.027 0.129c0.019,0.092 0.037,0.185 0.055,0.278l0.026 0.136c0.017,0.091 0.033,0.182 0.048,0.274l0.024 0.139c0.014,0.088 0.028,0.176 0.041,0.264l0.023 0.157c0.012,0.083 0.023,0.165 0.034,0.249l0.022 0.168c0.009,0.079 0.018,0.159 0.027,0.238l0.02 0.18c0.008,0.079 0.015,0.158 0.022,0.237l0.016 0.179c0.006,0.078 0.011,0.156 0.017,0.233 0.004,0.063 0.009,0.125 0.013,0.187 0.004,0.072 0.007,0.144 0.011,0.216 0.004,0.069 0.007,0.139 0.01,0.209 0.003,0.066 0.005,0.132 0.007,0.198 0.002,0.074 0.004,0.147 0.006,0.22 0.001,0.068 0.002,0.135 0.002,0.203 0.001,0.07 0.002,0.141 0.002,0.211 0,0.071 -0.001,0.141 -0.002,0.212 0,0.067 -0.001,0.134 -0.002,0.202 -0.002,0.073 -0.004,0.146 -0.006,0.22 -0.002,0.066 -0.004,0.132 -0.007,0.198 -0.003,0.07 -0.006,0.14 -0.01,0.209 -0.004,0.072 -0.007,0.144 -0.011,0.216 -0.004,0.063 -0.009,0.125 -0.013,0.187 -0.005,0.078 -0.011,0.155 -0.017,0.233 -0.005,0.06 -0.011,0.12 -0.016,0.18 -0.007,0.078 -0.014,0.157 -0.022,0.236 -0.006,0.06 -0.013,0.12 -0.02,0.18 -0.009,0.079 -0.018,0.159 -0.027,0.238 -0.007,0.056 -0.015,0.113 -0.022,0.169 -0.011,0.083 -0.022,0.166 -0.034,0.249l-0.023 0.156c-0.013,0.088 -0.027,0.176 -0.041,0.264l-0.024 0.139c-0.015,0.092 -0.031,0.183 -0.048,0.274l-0.026 0.136c-0.018,0.093 -0.036,0.186 -0.055,0.278l-0.027 0.129c-0.02,0.093 -0.04,0.186 -0.061,0.278l-0.032 0.133c-0.022,0.094 -0.044,0.188 -0.067,0.282l-0.031 0.119c-0.024,0.094 -0.048,0.188 -0.074,0.282l-0.036 0.131c-0.026,0.092 -0.052,0.185 -0.079,0.278l-0.034 0.113c-0.029,0.099 -0.059,0.198 -0.091,0.296l-0.032 0.101c-0.032,0.099 -0.064,0.197 -0.097,0.295l-0.038 0.109c-0.034,0.099 -0.068,0.198 -0.104,0.297l-0.032 0.086c-0.039,0.105 -0.078,0.21 -0.118,0.315l-0.029 0.074c-0.041,0.105 -0.083,0.21 -0.126,0.314l-0.037 0.09c-0.042,0.1 -0.083,0.2 -0.127,0.299l-0.04 0.091c-0.044,0.101 -0.09,0.203 -0.136,0.304l-0.034 0.073c-0.048,0.103 -0.097,0.206 -0.146,0.309l-0.041 0.083c-0.049,0.101 -0.099,0.201 -0.15,0.301l-0.038 0.073c-0.053,0.102 -0.107,0.205 -0.162,0.307l-0.039 0.073c-0.055,0.101 -0.11,0.201 -0.167,0.301l-0.042 0.074c-0.058,0.101 -0.116,0.201 -0.175,0.301l-0.013 0.021 -10.508 -10.508 10.508 -10.508 0.013 0.021zm-7.197 28.18l-0.021 0.012c-0.1,0.06 -0.2,0.118 -0.301,0.175l-0.074 0.042c-0.1,0.057 -0.2,0.112 -0.301,0.167l-0.073 0.04c-0.102,0.054 -0.205,0.108 -0.308,0.161l-0.072 0.038c-0.1,0.051 -0.2,0.101 -0.301,0.15l-0.083 0.041c-0.103,0.05 -0.206,0.098 -0.309,0.146l-0.074 0.034c-0.101,0.047 -0.202,0.092 -0.303,0.137l-0.091 0.039c-0.099,0.044 -0.199,0.086 -0.299,0.127l-0.09 0.037c-0.105,0.043 -0.21,0.085 -0.315,0.126l-0.073 0.029c-0.105,0.04 -0.21,0.08 -0.316,0.118l-0.085 0.032c-0.099,0.036 -0.198,0.071 -0.298,0.105l-0.108 0.037c-0.098,0.033 -0.197,0.066 -0.295,0.097l-0.101 0.033c-0.099,0.031 -0.198,0.061 -0.297,0.091l-0.112 0.033c-0.093,0.027 -0.186,0.054 -0.279,0.079l-0.13 0.037c-0.094,0.025 -0.188,0.049 -0.282,0.074l-0.12 0.03c-0.093,0.023 -0.187,0.046 -0.281,0.068l-0.133 0.031c-0.092,0.021 -0.185,0.041 -0.278,0.061l-0.129 0.027c-0.093,0.019 -0.185,0.037 -0.278,0.055l-0.136 0.026c-0.091,0.017 -0.182,0.033 -0.274,0.049l-0.139 0.023c-0.088,0.015 -0.176,0.028 -0.264,0.041l-0.157 0.024c-0.083,0.012 -0.166,0.023 -0.249,0.033l-0.168 0.022c-0.079,0.01 -0.159,0.019 -0.238,0.027l-0.18 0.02c-0.079,0.008 -0.158,0.015 -0.237,0.022l-0.179 0.016c-0.078,0.006 -0.156,0.012 -0.233,0.017 -0.063,0.005 -0.125,0.009 -0.187,0.013 -0.072,0.004 -0.144,0.008 -0.216,0.011 -0.07,0.004 -0.139,0.007 -0.209,0.01 -0.066,0.003 -0.132,0.005 -0.198,0.007 -0.074,0.002 -0.147,0.004 -0.22,0.006 -0.068,0.001 -0.135,0.002 -0.203,0.002 -0.07,0.001 -0.141,0.002 -0.211,0.002 -0.071,0 -0.141,-0.001 -0.212,-0.002 -0.067,0 -0.135,-0.001 -0.202,-0.002 -0.073,-0.002 -0.147,-0.004 -0.22,-0.006 -0.066,-0.002 -0.132,-0.004 -0.198,-0.007 -0.07,-0.003 -0.14,-0.006 -0.209,-0.01 -0.073,-0.003 -0.145,-0.007 -0.217,-0.011 -0.062,-0.004 -0.124,-0.008 -0.186,-0.013 -0.078,-0.005 -0.155,-0.011 -0.233,-0.017 -0.06,-0.005 -0.12,-0.01 -0.18,-0.016 -0.079,-0.007 -0.158,-0.014 -0.237,-0.022 -0.059,-0.006 -0.119,-0.013 -0.179,-0.02 -0.08,-0.008 -0.159,-0.017 -0.238,-0.027 -0.057,-0.007 -0.113,-0.014 -0.169,-0.022 -0.083,-0.01 -0.166,-0.021 -0.249,-0.033l-0.156 -0.024c-0.088,-0.013 -0.176,-0.026 -0.264,-0.041l-0.139 -0.023c-0.092,-0.016 -0.183,-0.032 -0.274,-0.049l-0.136 -0.026c-0.093,-0.018 -0.186,-0.036 -0.278,-0.055l-0.129 -0.027c-0.093,-0.02 -0.186,-0.04 -0.278,-0.061l-0.133 -0.031c-0.094,-0.022 -0.188,-0.045 -0.282,-0.068l-0.119 -0.03c-0.094,-0.024 -0.188,-0.049 -0.282,-0.074l-0.131 -0.037c-0.093,-0.025 -0.185,-0.052 -0.278,-0.079l-0.113 -0.033c-0.099,-0.03 -0.198,-0.06 -0.296,-0.091l-0.101 -0.033c-0.099,-0.031 -0.197,-0.064 -0.295,-0.097l-0.109 -0.037c-0.099,-0.035 -0.198,-0.069 -0.297,-0.105l-0.086 -0.032c-0.105,-0.038 -0.21,-0.078 -0.315,-0.118l-0.074 -0.029c-0.105,-0.041 -0.21,-0.083 -0.314,-0.126l-0.09 -0.037c-0.1,-0.041 -0.2,-0.083 -0.3,-0.127l-0.09 -0.039c-0.101,-0.045 -0.203,-0.09 -0.304,-0.137l-0.073 -0.034c-0.103,-0.048 -0.207,-0.096 -0.309,-0.146l-0.083 -0.041c-0.101,-0.049 -0.201,-0.099 -0.301,-0.15l-0.073 -0.038c-0.103,-0.053 -0.205,-0.107 -0.307,-0.161l-0.073 -0.04c-0.101,-0.055 -0.201,-0.11 -0.301,-0.167l-0.074 -0.042c-0.101,-0.057 -0.201,-0.115 -0.301,-0.175l-0.022 -0.012 10.509 -10.509 10.508 10.509zm-28.213 -7.206c-0.06,-0.1 -0.118,-0.2 -0.175,-0.301l-0.043 -0.074c-0.056,-0.1 -0.111,-0.2 -0.166,-0.301l-0.04 -0.073c-0.054,-0.102 -0.108,-0.205 -0.161,-0.307l-0.038 -0.073c-0.051,-0.1 -0.101,-0.2 -0.15,-0.301l-0.041 -0.083c-0.05,-0.103 -0.098,-0.206 -0.146,-0.309l-0.034 -0.073c-0.047,-0.101 -0.092,-0.203 -0.137,-0.304l-0.04 -0.091c-0.043,-0.099 -0.085,-0.199 -0.126,-0.299l-0.038 -0.09c-0.042,-0.104 -0.084,-0.209 -0.125,-0.314l-0.029 -0.074c-0.041,-0.105 -0.08,-0.21 -0.119,-0.315l-0.031 -0.086c-0.036,-0.099 -0.071,-0.198 -0.105,-0.297l-0.037 -0.109c-0.034,-0.098 -0.066,-0.196 -0.097,-0.295l-0.033 -0.101c-0.031,-0.098 -0.061,-0.197 -0.091,-0.296l-0.033 -0.113c-0.028,-0.093 -0.054,-0.186 -0.08,-0.278l-0.036 -0.131c-0.025,-0.094 -0.05,-0.188 -0.074,-0.282l-0.03 -0.119c-0.024,-0.094 -0.046,-0.188 -0.068,-0.282l-0.031 -0.133c-0.021,-0.092 -0.041,-0.185 -0.061,-0.278l-0.027 -0.129c-0.019,-0.092 -0.037,-0.185 -0.055,-0.278l-0.026 -0.136c-0.017,-0.091 -0.033,-0.182 -0.049,-0.274l-0.023 -0.139c-0.015,-0.088 -0.028,-0.176 -0.042,-0.264l-0.023 -0.156c-0.012,-0.083 -0.023,-0.166 -0.034,-0.249l-0.021 -0.169c-0.01,-0.079 -0.019,-0.159 -0.028,-0.238l-0.019 -0.18c-0.008,-0.078 -0.015,-0.158 -0.022,-0.236l-0.016 -0.18c-0.006,-0.078 -0.012,-0.155 -0.017,-0.233 -0.005,-0.062 -0.009,-0.124 -0.013,-0.187 -0.004,-0.072 -0.008,-0.144 -0.011,-0.216 -0.004,-0.069 -0.008,-0.139 -0.01,-0.209 -0.003,-0.066 -0.005,-0.132 -0.007,-0.198 -0.002,-0.074 -0.004,-0.147 -0.006,-0.22 -0.001,-0.068 -0.002,-0.135 -0.003,-0.202 0,-0.071 -0.001,-0.141 -0.001,-0.212 0,-0.07 0.001,-0.141 0.001,-0.211 0.001,-0.068 0.002,-0.135 0.003,-0.203 0.002,-0.073 0.004,-0.146 0.006,-0.22 0.002,-0.066 0.004,-0.132 0.007,-0.198 0.002,-0.07 0.006,-0.139 0.01,-0.209 0.003,-0.072 0.007,-0.144 0.011,-0.216 0.004,-0.062 0.008,-0.124 0.013,-0.187 0.005,-0.078 0.01,-0.155 0.017,-0.233 0.005,-0.06 0.01,-0.12 0.016,-0.179 0.007,-0.079 0.014,-0.158 0.022,-0.237 0.006,-0.06 0.013,-0.12 0.019,-0.18 0.009,-0.079 0.018,-0.159 0.028,-0.238 0.007,-0.056 0.014,-0.112 0.021,-0.168 0.011,-0.084 0.022,-0.166 0.034,-0.249l0.023 -0.157c0.014,-0.088 0.027,-0.176 0.042,-0.264l0.023 -0.139c0.016,-0.092 0.032,-0.183 0.049,-0.274l0.026 -0.136c0.018,-0.093 0.036,-0.186 0.055,-0.278l0.027 -0.129c0.02,-0.093 0.04,-0.185 0.061,-0.278l0.031 -0.133c0.022,-0.094 0.044,-0.188 0.068,-0.281l0.03 -0.12c0.024,-0.094 0.049,-0.188 0.074,-0.282l0.036 -0.131c0.026,-0.092 0.053,-0.185 0.08,-0.278l0.033 -0.112c0.03,-0.1 0.06,-0.198 0.091,-0.297l0.033 -0.101c0.031,-0.098 0.063,-0.197 0.097,-0.295l0.037 -0.109c0.034,-0.099 0.069,-0.198 0.105,-0.297l0.031 -0.085c0.039,-0.106 0.078,-0.211 0.119,-0.316l0.029 -0.073c0.041,-0.106 0.083,-0.211 0.125,-0.315l0.038 -0.09c0.041,-0.1 0.083,-0.2 0.126,-0.299l0.04 -0.091c0.045,-0.101 0.09,-0.203 0.137,-0.304l0.034 -0.073c0.048,-0.103 0.096,-0.206 0.146,-0.309l0.041 -0.083c0.049,-0.101 0.099,-0.201 0.15,-0.301l0.038 -0.073c0.053,-0.102 0.107,-0.205 0.161,-0.307l0.04 -0.073c0.055,-0.101 0.11,-0.201 0.166,-0.301l0.043 -0.074c0.057,-0.101 0.115,-0.201 0.175,-0.301l0.012 -0.021 10.509 10.508 -10.509 10.508 -0.012 -0.021zm7.196 -28.179l0.022 -0.013c0.1,-0.059 0.2,-0.117 0.301,-0.175l0.074 -0.042c0.1,-0.057 0.2,-0.112 0.301,-0.167l0.073 -0.039c0.102,-0.055 0.204,-0.109 0.307,-0.162l0.073 -0.038c0.1,-0.051 0.2,-0.101 0.301,-0.15l0.083 -0.041c0.102,-0.05 0.205,-0.098 0.309,-0.146l0.073 -0.034c0.101,-0.047 0.203,-0.092 0.304,-0.136l0.09 -0.04c0.1,-0.044 0.2,-0.086 0.3,-0.127l0.09 -0.037c0.104,-0.043 0.209,-0.085 0.314,-0.126l0.074 -0.029c0.105,-0.04 0.21,-0.08 0.315,-0.118l0.086 -0.032c0.099,-0.036 0.198,-0.07 0.297,-0.104l0.109 -0.038c0.098,-0.033 0.196,-0.065 0.295,-0.097l0.101 -0.033c0.098,-0.031 0.197,-0.061 0.296,-0.091l0.113 -0.033c0.093,-0.027 0.185,-0.054 0.278,-0.079l0.131 -0.037c0.094,-0.025 0.188,-0.049 0.282,-0.073l0.119 -0.031c0.094,-0.023 0.188,-0.046 0.282,-0.068l0.133 -0.031c0.092,-0.021 0.185,-0.041 0.278,-0.061l0.129 -0.027c0.092,-0.019 0.185,-0.037 0.278,-0.055l0.136 -0.026c0.091,-0.017 0.182,-0.033 0.274,-0.048l0.139 -0.024c0.088,-0.015 0.176,-0.028 0.264,-0.041l0.156 -0.024c0.083,-0.012 0.166,-0.022 0.249,-0.033l0.169 -0.022c0.079,-0.01 0.158,-0.019 0.238,-0.027l0.179 -0.02c0.079,-0.008 0.158,-0.015 0.237,-0.022l0.18 -0.016c0.078,-0.006 0.155,-0.012 0.233,-0.017 0.062,-0.004 0.124,-0.009 0.186,-0.013 0.072,-0.004 0.144,-0.008 0.217,-0.011 0.069,-0.004 0.139,-0.007 0.209,-0.01 0.066,-0.003 0.132,-0.005 0.198,-0.007 0.073,-0.002 0.147,-0.004 0.22,-0.006 0.067,-0.001 0.135,-0.002 0.202,-0.002 0.071,-0.001 0.141,-0.002 0.212,-0.002 0.07,0 0.141,0.001 0.211,0.002 0.068,0 0.135,0.001 0.203,0.002 0.073,0.002 0.146,0.004 0.22,0.006 0.066,0.002 0.132,0.004 0.198,0.007 0.07,0.003 0.139,0.006 0.209,0.01 0.072,0.003 0.144,0.007 0.216,0.011 0.062,0.004 0.124,0.009 0.187,0.013 0.077,0.005 0.155,0.011 0.233,0.017 0.06,0.005 0.119,0.01 0.179,0.016 0.079,0.007 0.158,0.014 0.237,0.022 0.06,0.006 0.12,0.013 0.18,0.02 0.079,0.008 0.159,0.017 0.238,0.027 0.056,0.007 0.112,0.014 0.168,0.022 0.083,0.011 0.166,0.021 0.249,0.033l0.157 0.024c0.088,0.013 0.176,0.026 0.264,0.041l0.139 0.024c0.092,0.015 0.183,0.031 0.274,0.048l0.136 0.026c0.093,0.018 0.186,0.036 0.278,0.055l0.129 0.027c0.093,0.02 0.185,0.04 0.278,0.061l0.133 0.031c0.094,0.022 0.188,0.045 0.281,0.068l0.12 0.031c0.094,0.024 0.188,0.048 0.282,0.073l0.13 0.037c0.093,0.025 0.186,0.052 0.279,0.079l0.112 0.033c0.099,0.03 0.198,0.06 0.297,0.091l0.101 0.033c0.098,0.032 0.197,0.064 0.295,0.097l0.108 0.038c0.1,0.034 0.199,0.068 0.298,0.104l0.085 0.032c0.106,0.038 0.211,0.078 0.316,0.118l0.073 0.029c0.105,0.041 0.21,0.083 0.315,0.126l0.09 0.037c0.1,0.041 0.2,0.083 0.299,0.127l0.091 0.04c0.101,0.044 0.202,0.089 0.303,0.136l0.074 0.034c0.103,0.048 0.206,0.097 0.309,0.146l0.083 0.041c0.1,0.049 0.201,0.099 0.301,0.15l0.072 0.038c0.103,0.053 0.206,0.107 0.308,0.162l0.073 0.039c0.101,0.055 0.201,0.11 0.301,0.167l0.074 0.042c0.101,0.057 0.201,0.116 0.301,0.175l0.021 0.013 -10.508 10.508 -10.509 -10.508z"/>
  <path class="fil3 str0" d="M27.021 27.022c11.111,-11.111 29.126,-11.111 40.237,0 11.111,11.111 11.111,29.125 0,40.236 -11.111,11.112 -29.126,11.112 -40.237,0 -11.111,-11.111 -11.111,-29.125 0,-40.236zm37.824 9.631c0.059,0.1 0.117,0.2 0.174,0.301l0.043 0.074c0.056,0.1 0.111,0.2 0.166,0.301l0.04 0.073c0.055,0.102 0.108,0.205 0.161,0.307l0.038 0.073c0.051,0.1 0.101,0.2 0.15,0.301l0.041 0.083c0.05,0.103 0.098,0.206 0.146,0.309l0.035 0.073c0.046,0.101 0.091,0.203 0.136,0.304l0.04 0.091c0.043,0.099 0.085,0.199 0.126,0.299l0.038 0.09c0.043,0.104 0.084,0.21 0.125,0.315l0.029 0.073c0.041,0.105 0.08,0.21 0.119,0.316l0.031 0.085c0.036,0.099 0.071,0.198 0.105,0.297l0.037 0.109c0.034,0.098 0.066,0.197 0.097,0.295l0.033 0.101c0.031,0.099 0.061,0.197 0.091,0.297l0.033 0.112c0.028,0.093 0.054,0.186 0.08,0.278l0.036 0.131c0.025,0.094 0.05,0.188 0.074,0.282l0.03 0.12c0.024,0.093 0.046,0.187 0.068,0.281l0.031 0.133c0.021,0.092 0.041,0.185 0.061,0.278l0.027 0.129c0.019,0.092 0.037,0.185 0.055,0.278l0.026 0.136c0.017,0.091 0.033,0.182 0.049,0.274l0.023 0.139c0.015,0.088 0.028,0.176 0.042,0.264l0.023 0.157c0.012,0.083 0.023,0.165 0.034,0.249l0.021 0.168c0.01,0.079 0.019,0.159 0.028,0.238l0.019 0.18c0.008,0.079 0.015,0.158 0.022,0.237l0.016 0.179c0.007,0.078 0.012,0.156 0.017,0.233 0.005,0.063 0.009,0.125 0.013,0.187 0.004,0.072 0.008,0.144 0.012,0.216 0.003,0.069 0.007,0.139 0.01,0.209 0.002,0.066 0.004,0.132 0.006,0.198 0.002,0.074 0.005,0.147 0.006,0.22 0.001,0.068 0.002,0.135 0.003,0.203 0,0.07 0.001,0.141 0.001,0.211 0,0.071 -0.001,0.141 -0.001,0.212 -0.001,0.067 -0.002,0.134 -0.003,0.202 -0.001,0.073 -0.004,0.146 -0.006,0.22 -0.002,0.066 -0.004,0.132 -0.006,0.198 -0.003,0.07 -0.007,0.14 -0.01,0.209 -0.004,0.072 -0.008,0.144 -0.012,0.216 -0.004,0.063 -0.008,0.125 -0.013,0.187 -0.005,0.078 -0.01,0.155 -0.017,0.233 -0.005,0.06 -0.01,0.12 -0.016,0.18 -0.007,0.078 -0.014,0.157 -0.022,0.236 -0.006,0.06 -0.013,0.12 -0.019,0.18 -0.009,0.079 -0.018,0.159 -0.028,0.238 -0.007,0.056 -0.014,0.113 -0.021,0.169 -0.011,0.083 -0.022,0.166 -0.034,0.249l-0.023 0.156c-0.014,0.088 -0.027,0.176 -0.042,0.264l-0.023 0.139c-0.016,0.092 -0.032,0.183 -0.049,0.274l-0.026 0.136c-0.018,0.093 -0.036,0.186 -0.055,0.278l-0.027 0.129c-0.02,0.093 -0.04,0.186 -0.061,0.278l-0.031 0.133c-0.022,0.094 -0.044,0.188 -0.068,0.282l-0.03 0.119c-0.024,0.094 -0.049,0.188 -0.074,0.282l-0.036 0.131c-0.026,0.092 -0.052,0.185 -0.08,0.278l-0.033 0.113c-0.03,0.099 -0.06,0.198 -0.091,0.296l-0.033 0.101c-0.031,0.099 -0.063,0.197 -0.097,0.295l-0.037 0.109c-0.034,0.099 -0.069,0.198 -0.105,0.297l-0.031 0.086c-0.039,0.105 -0.078,0.21 -0.119,0.315l-0.029 0.074c-0.041,0.105 -0.082,0.21 -0.125,0.314l-0.038 0.09c-0.041,0.1 -0.083,0.2 -0.126,0.299l-0.04 0.091c-0.045,0.101 -0.09,0.203 -0.136,0.304l-0.035 0.073c-0.047,0.103 -0.096,0.206 -0.146,0.309l-0.041 0.083c-0.049,0.101 -0.099,0.201 -0.15,0.301l-0.038 0.073c-0.053,0.102 -0.106,0.205 -0.161,0.307l-0.04 0.073c-0.055,0.101 -0.11,0.201 -0.166,0.301l-0.043 0.074c-0.057,0.101 -0.115,0.201 -0.174,0.301l-0.013 0.021 -10.509 -10.508 10.509 -10.508 0.013 0.021zm-7.197 28.18l-0.022 0.012c-0.1,0.06 -0.2,0.118 -0.3,0.175l-0.075 0.042c-0.1,0.057 -0.2,0.112 -0.301,0.167l-0.073 0.04c-0.102,0.054 -0.204,0.108 -0.307,0.161l-0.073 0.038c-0.1,0.051 -0.2,0.101 -0.301,0.15l-0.083 0.041c-0.102,0.05 -0.205,0.098 -0.309,0.146l-0.073 0.034c-0.101,0.047 -0.202,0.092 -0.304,0.137l-0.09 0.039c-0.1,0.044 -0.2,0.086 -0.3,0.127l-0.089 0.037c-0.105,0.043 -0.21,0.085 -0.315,0.126l-0.074 0.029c-0.105,0.04 -0.21,0.08 -0.315,0.118l-0.086 0.032c-0.099,0.036 -0.198,0.071 -0.297,0.105l-0.109 0.037c-0.098,0.033 -0.196,0.066 -0.295,0.097l-0.101 0.033c-0.098,0.031 -0.197,0.061 -0.296,0.091l-0.113 0.033c-0.093,0.027 -0.185,0.054 -0.278,0.079l-0.131 0.037c-0.094,0.025 -0.188,0.049 -0.282,0.074l-0.119 0.03c-0.094,0.023 -0.188,0.046 -0.282,0.068l-0.133 0.031c-0.092,0.021 -0.185,0.041 -0.278,0.061l-0.129 0.027c-0.092,0.019 -0.185,0.037 -0.278,0.055l-0.136 0.026c-0.091,0.017 -0.182,0.033 -0.273,0.049l-0.14 0.023c-0.087,0.015 -0.176,0.028 -0.264,0.041l-0.156 0.024c-0.083,0.012 -0.166,0.023 -0.249,0.033l-0.169 0.022c-0.079,0.01 -0.158,0.019 -0.238,0.027l-0.179 0.02c-0.079,0.008 -0.158,0.015 -0.237,0.022l-0.18 0.016c-0.078,0.006 -0.155,0.012 -0.233,0.017 -0.062,0.005 -0.124,0.009 -0.186,0.013 -0.072,0.004 -0.144,0.008 -0.217,0.011 -0.069,0.004 -0.139,0.007 -0.209,0.01 -0.066,0.003 -0.132,0.005 -0.198,0.007 -0.073,0.002 -0.147,0.004 -0.22,0.006 -0.067,0.001 -0.135,0.002 -0.202,0.002 -0.071,0.001 -0.141,0.002 -0.212,0.002 -0.07,0 -0.141,-0.001 -0.211,-0.002 -0.068,0 -0.135,-0.001 -0.203,-0.002 -0.073,-0.002 -0.146,-0.004 -0.22,-0.006 -0.066,-0.002 -0.132,-0.004 -0.198,-0.007 -0.07,-0.003 -0.139,-0.006 -0.209,-0.01 -0.072,-0.003 -0.144,-0.007 -0.216,-0.011 -0.062,-0.004 -0.124,-0.008 -0.187,-0.013 -0.077,-0.005 -0.155,-0.011 -0.233,-0.017 -0.059,-0.005 -0.119,-0.01 -0.179,-0.016 -0.079,-0.007 -0.158,-0.014 -0.237,-0.022 -0.06,-0.006 -0.12,-0.013 -0.18,-0.02 -0.079,-0.008 -0.159,-0.017 -0.238,-0.027 -0.056,-0.007 -0.112,-0.014 -0.168,-0.022 -0.083,-0.01 -0.166,-0.021 -0.249,-0.033l-0.157 -0.024c-0.088,-0.013 -0.176,-0.026 -0.264,-0.041l-0.139 -0.023c-0.091,-0.016 -0.183,-0.032 -0.274,-0.049l-0.136 -0.026c-0.093,-0.018 -0.185,-0.036 -0.278,-0.055l-0.129 -0.027c-0.093,-0.02 -0.185,-0.04 -0.278,-0.061l-0.133 -0.031c-0.094,-0.022 -0.188,-0.045 -0.281,-0.068l-0.12 -0.03c-0.094,-0.024 -0.188,-0.049 -0.282,-0.074l-0.13 -0.037c-0.093,-0.025 -0.186,-0.052 -0.279,-0.079l-0.112 -0.033c-0.099,-0.03 -0.198,-0.06 -0.297,-0.091l-0.101 -0.033c-0.098,-0.031 -0.197,-0.064 -0.295,-0.097l-0.108 -0.037c-0.1,-0.035 -0.199,-0.069 -0.297,-0.105l-0.086 -0.032c-0.106,-0.038 -0.211,-0.078 -0.316,-0.118l-0.073 -0.029c-0.105,-0.041 -0.21,-0.083 -0.315,-0.126l-0.09 -0.037c-0.1,-0.041 -0.199,-0.083 -0.299,-0.127l-0.09 -0.039c-0.102,-0.045 -0.203,-0.09 -0.304,-0.137l-0.074 -0.034c-0.103,-0.048 -0.206,-0.096 -0.309,-0.146l-0.083 -0.041c-0.1,-0.049 -0.201,-0.099 -0.301,-0.15l-0.072 -0.038c-0.103,-0.053 -0.206,-0.107 -0.308,-0.161l-0.073 -0.04c-0.101,-0.055 -0.201,-0.11 -0.301,-0.167l-0.074 -0.042c-0.101,-0.057 -0.201,-0.115 -0.301,-0.175l-0.021 -0.012 10.508 -10.509 10.509 10.509zm-28.214 -7.206c-0.059,-0.1 -0.117,-0.2 -0.175,-0.301l-0.042 -0.074c-0.057,-0.1 -0.112,-0.2 -0.167,-0.301l-0.039 -0.073c-0.055,-0.102 -0.109,-0.205 -0.162,-0.307l-0.037 -0.073c-0.051,-0.1 -0.101,-0.2 -0.151,-0.301l-0.041 -0.083c-0.049,-0.103 -0.098,-0.206 -0.146,-0.309l-0.034 -0.073c-0.046,-0.101 -0.092,-0.203 -0.136,-0.304l-0.04 -0.091c-0.043,-0.099 -0.085,-0.199 -0.127,-0.299l-0.037 -0.09c-0.043,-0.104 -0.085,-0.209 -0.126,-0.314l-0.029 -0.074c-0.04,-0.105 -0.079,-0.21 -0.118,-0.315l-0.032 -0.086c-0.035,-0.099 -0.07,-0.198 -0.104,-0.297l-0.038 -0.109c-0.033,-0.098 -0.065,-0.196 -0.097,-0.295l-0.032 -0.101c-0.032,-0.098 -0.062,-0.197 -0.091,-0.296l-0.034 -0.113c-0.027,-0.093 -0.053,-0.186 -0.079,-0.278l-0.036 -0.131c-0.026,-0.094 -0.05,-0.188 -0.074,-0.282l-0.031 -0.119c-0.023,-0.094 -0.045,-0.188 -0.067,-0.282l-0.032 -0.133c-0.021,-0.092 -0.041,-0.185 -0.06,-0.278l-0.028 -0.129c-0.019,-0.092 -0.037,-0.185 -0.055,-0.278l-0.026 -0.136c-0.017,-0.091 -0.033,-0.182 -0.048,-0.274l-0.024 -0.139c-0.014,-0.088 -0.028,-0.176 -0.041,-0.264l-0.023 -0.156c-0.012,-0.083 -0.023,-0.166 -0.034,-0.249l-0.022 -0.169c-0.009,-0.079 -0.018,-0.159 -0.027,-0.238l-0.02 -0.18c-0.008,-0.078 -0.015,-0.158 -0.022,-0.236l-0.016 -0.18c-0.006,-0.078 -0.011,-0.155 -0.017,-0.233 -0.004,-0.062 -0.009,-0.124 -0.013,-0.187 -0.004,-0.072 -0.007,-0.144 -0.011,-0.216 -0.004,-0.069 -0.007,-0.139 -0.01,-0.209 -0.003,-0.066 -0.005,-0.132 -0.007,-0.198 -0.002,-0.074 -0.004,-0.147 -0.006,-0.22 -0.001,-0.068 -0.002,-0.135 -0.002,-0.202 -0.001,-0.071 -0.002,-0.141 -0.002,-0.212 0,-0.07 0.001,-0.141 0.002,-0.211 0.001,-0.068 0.001,-0.135 0.002,-0.203 0.002,-0.073 0.004,-0.146 0.006,-0.22 0.002,-0.066 0.004,-0.132 0.007,-0.198 0.003,-0.07 0.006,-0.139 0.01,-0.209 0.004,-0.072 0.007,-0.144 0.011,-0.216 0.004,-0.062 0.009,-0.124 0.013,-0.187 0.006,-0.078 0.011,-0.155 0.017,-0.233 0.005,-0.06 0.011,-0.12 0.016,-0.179 0.007,-0.079 0.014,-0.158 0.022,-0.237 0.006,-0.06 0.013,-0.12 0.02,-0.18 0.009,-0.079 0.018,-0.159 0.027,-0.238 0.007,-0.056 0.015,-0.112 0.022,-0.168 0.011,-0.084 0.022,-0.166 0.034,-0.249l0.023 -0.157c0.013,-0.088 0.027,-0.176 0.041,-0.264l0.024 -0.139c0.015,-0.092 0.031,-0.183 0.048,-0.274l0.026 -0.136c0.018,-0.093 0.036,-0.186 0.055,-0.278l0.028 -0.129c0.019,-0.093 0.039,-0.185 0.06,-0.278l0.032 -0.133c0.022,-0.094 0.044,-0.188 0.067,-0.281l0.031 -0.12c0.024,-0.094 0.048,-0.188 0.074,-0.282l0.036 -0.131c0.026,-0.092 0.052,-0.185 0.079,-0.278l0.034 -0.112c0.029,-0.1 0.059,-0.198 0.091,-0.297l0.032 -0.101c0.032,-0.098 0.064,-0.197 0.097,-0.295l0.038 -0.109c0.034,-0.099 0.069,-0.198 0.104,-0.297l0.032 -0.085c0.039,-0.106 0.078,-0.211 0.118,-0.316l0.029 -0.073c0.041,-0.106 0.083,-0.211 0.126,-0.315l0.037 -0.09c0.042,-0.1 0.084,-0.2 0.127,-0.299l0.04 -0.091c0.044,-0.101 0.09,-0.203 0.136,-0.304l0.034 -0.073c0.048,-0.103 0.097,-0.206 0.146,-0.309l0.041 -0.083c0.05,-0.101 0.1,-0.201 0.151,-0.301l0.037 -0.073c0.053,-0.102 0.107,-0.205 0.162,-0.307l0.039 -0.073c0.055,-0.101 0.11,-0.201 0.167,-0.301l0.042 -0.074c0.058,-0.101 0.116,-0.201 0.175,-0.301l0.013 -0.021 10.508 10.508 -10.508 10.508 -0.013 -0.021zm7.197 -28.179l0.021 -0.013c0.1,-0.059 0.2,-0.117 0.301,-0.175l0.074 -0.042c0.1,-0.057 0.2,-0.112 0.301,-0.167l0.073 -0.039c0.102,-0.055 0.205,-0.109 0.308,-0.162l0.072 -0.038c0.1,-0.051 0.2,-0.101 0.301,-0.15l0.083 -0.041c0.103,-0.05 0.206,-0.098 0.309,-0.146l0.074 -0.034c0.101,-0.047 0.202,-0.092 0.304,-0.136l0.09 -0.04c0.099,-0.044 0.199,-0.086 0.299,-0.127l0.09 -0.037c0.105,-0.043 0.21,-0.085 0.315,-0.126l0.073 -0.029c0.105,-0.04 0.21,-0.08 0.316,-0.118l0.086 -0.032c0.098,-0.036 0.197,-0.07 0.297,-0.104l0.108 -0.038c0.098,-0.033 0.197,-0.065 0.295,-0.097l0.101 -0.033c0.099,-0.031 0.198,-0.061 0.297,-0.091l0.112 -0.033c0.093,-0.027 0.186,-0.054 0.279,-0.079l0.13 -0.037c0.094,-0.025 0.188,-0.049 0.282,-0.073l0.12 -0.031c0.093,-0.023 0.187,-0.046 0.281,-0.068l0.133 -0.031c0.093,-0.021 0.185,-0.041 0.278,-0.061l0.129 -0.027c0.093,-0.019 0.185,-0.037 0.278,-0.055l0.136 -0.026c0.091,-0.017 0.183,-0.033 0.274,-0.048l0.139 -0.024c0.088,-0.015 0.176,-0.028 0.264,-0.041l0.157 -0.024c0.083,-0.012 0.166,-0.022 0.249,-0.033l0.168 -0.022c0.079,-0.01 0.159,-0.019 0.238,-0.027l0.18 -0.02c0.079,-0.008 0.158,-0.015 0.237,-0.022l0.179 -0.016c0.078,-0.006 0.156,-0.012 0.233,-0.017 0.063,-0.004 0.125,-0.009 0.187,-0.013 0.072,-0.004 0.144,-0.008 0.216,-0.011 0.07,-0.004 0.139,-0.007 0.209,-0.01 0.066,-0.003 0.132,-0.005 0.198,-0.007 0.074,-0.002 0.147,-0.004 0.22,-0.006 0.068,-0.001 0.135,-0.002 0.203,-0.002 0.07,-0.001 0.141,-0.002 0.211,-0.002 0.071,0 0.141,0.001 0.212,0.002 0.067,0 0.135,0.001 0.202,0.002 0.073,0.002 0.147,0.004 0.22,0.006 0.066,0.002 0.132,0.004 0.198,0.007 0.07,0.003 0.14,0.006 0.209,0.01 0.073,0.003 0.145,0.007 0.217,0.011 0.062,0.004 0.124,0.009 0.186,0.013 0.078,0.005 0.155,0.011 0.233,0.017 0.06,0.005 0.12,0.01 0.18,0.016 0.079,0.007 0.158,0.014 0.237,0.022 0.06,0.006 0.119,0.013 0.179,0.02 0.08,0.008 0.159,0.017 0.238,0.027 0.057,0.007 0.113,0.014 0.169,0.022 0.083,0.011 0.166,0.021 0.249,0.033l0.156 0.024c0.088,0.013 0.177,0.026 0.264,0.041l0.14 0.024c0.091,0.015 0.182,0.031 0.273,0.048l0.136 0.026c0.093,0.018 0.186,0.036 0.278,0.055l0.129 0.027c0.093,0.02 0.186,0.04 0.278,0.061l0.133 0.031c0.094,0.022 0.188,0.045 0.282,0.068l0.119 0.031c0.094,0.024 0.188,0.048 0.282,0.073l0.131 0.037c0.093,0.025 0.185,0.052 0.278,0.079l0.113 0.033c0.099,0.03 0.198,0.06 0.296,0.091l0.101 0.033c0.099,0.032 0.197,0.064 0.295,0.097l0.109 0.038c0.099,0.034 0.198,0.068 0.297,0.104l0.086 0.032c0.105,0.038 0.21,0.078 0.315,0.118l0.074 0.029c0.105,0.041 0.21,0.083 0.315,0.126l0.089 0.037c0.1,0.041 0.2,0.083 0.3,0.127l0.09 0.04c0.102,0.044 0.203,0.089 0.304,0.136l0.073 0.034c0.104,0.048 0.207,0.097 0.309,0.146l0.083 0.041c0.101,0.049 0.201,0.099 0.301,0.15l0.073 0.038c0.103,0.053 0.205,0.107 0.307,0.162l0.073 0.039c0.101,0.055 0.201,0.11 0.301,0.167l0.075 0.042c0.1,0.057 0.2,0.116 0.3,0.175l0.022 0.013 -10.509 10.508 -10.508 -10.508z"/>
 </g>
</svg>
