<?xml version="1.0" encoding="UTF-8"?>
<!DOCTYPE svg PUBLIC "-//W3C//DTD SVG 1.1//EN" "http://www.w3.org/Graphics/SVG/1.1/DTD/svg11.dtd">
<!-- Creator: CorelDRAW 2019 (64-Bit) -->
<svg xmlns="http://www.w3.org/2000/svg" xml:space="preserve" width="750px" height="200px" version="1.1" style="shape-rendering:geometricPrecision; text-rendering:geometricPrecision; image-rendering:optimizeQuality; fill-rule:evenodd; clip-rule:evenodd"
viewBox="0 0 353.551 94.28"
 xmlns:xlink="http://www.w3.org/1999/xlink"
 xmlns:xodm="http://www.corel.com/coreldraw/odm/2003">
 <defs>
  <style type="text/css">
   <![CDATA[
    .str0 {stroke:black;stroke-width:0.267;stroke-miterlimit:22.9256}
    .fil0 {fill:none}
    .fil3 {fill:#4D4D4D}
    .fil1 {fill:#663333}
    .fil2 {fill:#B3B3B3}
   ]]>
  </style>
 </defs>
 <g id="Слой_x0020_1">
  <metadata id="CorelCorpID_0Corel-Layer"/>
  <rect class="fil0" width="353.551" height="94.28"/>
  <rect class="fil1 str0" x="53.032" y="9.26" width="23.57" height="9.428"/>
  <rect class="fil2 str0" x="76.602" y="9.26" width="23.57" height="9.428"/>
  <rect class="fil1 str0" x="100.172" y="9.26" width="23.57" height="9.428"/>
  <rect class="fil2 str0" x="123.743" y="9.26" width="23.57" height="9.428"/>
  <rect class="fil1 str0" x="147.313" y="9.26" width="23.57" height="9.428"/>
  <rect class="fil2 str0" x="170.883" y="9.26" width="23.57" height="9.428"/>
  <rect class="fil1 str0" x="194.453" y="9.26" width="23.57" height="9.428"/>
  <rect class="fil2 str0" x="218.024" y="9.26" width="23.57" height="9.428"/>
  <rect class="fil1 str0" x="241.594" y="9.26" width="23.57" height="9.428"/>
  <rect class="fil2 str0" x="265.164" y="9.26" width="23.57" height="9.428"/>
  <rect class="fil1 str0" x="288.734" y="9.26" width="23.57" height="9.428"/>
  <rect class="fil2 str0" x="276.949" y="75.592" width="23.57" height="9.428"/>
  <rect class="fil1 str0" x="253.379" y="75.592" width="23.57" height="9.428"/>
  <rect class="fil2 str0" x="229.809" y="75.592" width="23.57" height="9.428"/>
  <rect class="fil1 str0" x="206.238" y="75.592" width="23.57" height="9.428"/>
  <rect class="fil2 str0" x="182.668" y="75.592" width="23.57" height="9.428"/>
  <rect class="fil1 str0" x="159.098" y="75.592" width="23.57" height="9.428"/>
  <rect class="fil2 str0" x="135.528" y="75.592" width="23.57" height="9.428"/>
  <rect class="fil1 str0" x="111.957" y="75.592" width="23.57" height="9.428"/>
  <rect class="fil2 str0" x="88.387" y="75.592" width="23.57" height="9.428"/>
  <rect class="fil1 str0" x="64.817" y="75.592" width="23.57" height="9.428"/>
  <rect class="fil2 str0" x="41.247" y="75.592" width="23.57" height="9.428"/>
  <rect class="fil1 str0" transform="matrix(-0.856595 -0.453452 -0.239928 0.453237 41.232 75.6292)" width="24.319" height="18.385"/>
  <rect class="fil2 str0" transform="matrix(-0.0617799 -0.967242 -0.511782 0.0326887 20.4006 64.6018)" width="24.319" height="18.385"/>
  <rect class="fil1 str0" transform="matrix(0.441685 -0.862722 -0.456479 -0.233702 18.891 41.0762)" width="24.319" height="18.385"/>
  <rect class="fil2 str0" transform="matrix(0.967862 -0.0511517 -0.0270651 -0.51211 29.4946 19.9322)" width="24.319" height="18.385"/>
  <rect class="fil2 str0" transform="matrix(0.856595 0.453452 0.239928 -0.453237 312.319 18.6506)" width="24.319" height="18.385"/>
  <rect class="fil1 str0" transform="matrix(0.0617799 0.967242 0.511782 -0.0326887 333.15 29.678)" width="24.319" height="18.385"/>
  <rect class="fil2 str0" transform="matrix(-0.441685 0.862722 0.456479 0.233702 334.66 53.2036)" width="24.319" height="18.385"/>
  <rect class="fil1 str0" transform="matrix(-0.967862 0.0511517 0.0270651 0.51211 324.056 74.3476)" width="24.319" height="18.385"/>
  <path class="fil3 str0" d="M23.483 31.333c8.729,-13.065 26.398,-16.58 39.463,-7.85 13.065,8.73 16.58,26.399 7.85,39.464 -8.73,13.065 -26.398,16.58 -39.464,7.85 -13.065,-8.73 -16.579,-26.399 -7.849,-39.464zm38.975 2.067c0.078,0.087 0.154,0.174 0.23,0.261l0.056 0.065c0.075,0.087 0.149,0.174 0.222,0.262l0.054 0.064c0.073,0.09 0.146,0.18 0.218,0.27l0.051 0.064c0.07,0.088 0.138,0.177 0.206,0.266l0.057 0.074c0.068,0.091 0.136,0.182 0.203,0.274l0.048 0.066c0.065,0.09 0.129,0.18 0.193,0.271l0.057 0.081c0.062,0.089 0.122,0.179 0.183,0.269l0.054 0.08c0.062,0.095 0.123,0.19 0.184,0.285l0.043 0.066c0.06,0.095 0.119,0.191 0.178,0.286l0.047 0.078c0.055,0.09 0.108,0.181 0.161,0.271l0.058 0.1c0.052,0.089 0.102,0.18 0.153,0.27l0.051 0.093c0.05,0.09 0.099,0.181 0.147,0.273l0.055 0.104c0.045,0.085 0.089,0.171 0.132,0.257l0.061 0.121c0.043,0.087 0.086,0.175 0.128,0.262l0.053 0.112c0.041,0.087 0.081,0.174 0.121,0.262l0.056 0.125c0.039,0.086 0.077,0.173 0.115,0.261l0.051 0.121c0.037,0.087 0.073,0.174 0.109,0.262l0.052 0.128c0.034,0.086 0.068,0.173 0.101,0.259l0.05 0.132c0.031,0.083 0.062,0.167 0.092,0.251l0.053 0.149c0.028,0.079 0.055,0.158 0.082,0.238l0.054 0.16c0.025,0.076 0.049,0.152 0.073,0.229l0.054 0.172c0.024,0.076 0.046,0.152 0.069,0.228l0.05 0.173c0.021,0.075 0.042,0.15 0.062,0.225 0.017,0.06 0.033,0.12 0.049,0.181 0.018,0.069 0.036,0.139 0.054,0.209 0.017,0.068 0.034,0.136 0.05,0.204 0.016,0.064 0.031,0.128 0.045,0.193 0.017,0.071 0.033,0.143 0.049,0.214 0.015,0.066 0.028,0.132 0.042,0.198 0.015,0.069 0.029,0.138 0.043,0.207 0.014,0.07 0.027,0.139 0.04,0.208 0.012,0.067 0.025,0.133 0.037,0.199 0.012,0.072 0.025,0.145 0.037,0.217 0.011,0.065 0.022,0.131 0.032,0.196 0.011,0.069 0.021,0.138 0.031,0.207 0.01,0.071 0.021,0.143 0.031,0.214 0.008,0.062 0.016,0.124 0.024,0.185 0.01,0.078 0.019,0.155 0.028,0.233 0.007,0.059 0.014,0.119 0.02,0.179 0.008,0.079 0.017,0.157 0.024,0.236 0.006,0.06 0.011,0.12 0.016,0.18 0.007,0.08 0.014,0.159 0.02,0.239 0.004,0.057 0.008,0.113 0.011,0.17 0.006,0.083 0.011,0.167 0.016,0.25l0.008 0.158c0.004,0.089 0.008,0.178 0.011,0.267l0.004 0.142c0.002,0.092 0.004,0.185 0.006,0.278l0.001 0.138c0,0.095 0.001,0.189 0,0.283l-0.002 0.132c-0.001,0.095 -0.003,0.19 -0.005,0.285l-0.005 0.136c-0.003,0.097 -0.007,0.193 -0.011,0.289l-0.007 0.124c-0.005,0.097 -0.011,0.194 -0.017,0.291l-0.01 0.135c-0.008,0.096 -0.015,0.192 -0.024,0.288l-0.011 0.117c-0.01,0.103 -0.02,0.206 -0.031,0.309l-0.012 0.105c-0.012,0.103 -0.024,0.206 -0.038,0.308l-0.016 0.114c-0.014,0.104 -0.028,0.208 -0.044,0.312l-0.014 0.09c-0.018,0.111 -0.036,0.222 -0.055,0.333l-0.014 0.078c-0.02,0.111 -0.04,0.222 -0.062,0.333l-0.019 0.095c-0.021,0.106 -0.043,0.212 -0.066,0.318l-0.021 0.097c-0.024,0.108 -0.049,0.216 -0.075,0.325l-0.019 0.078c-0.027,0.111 -0.054,0.222 -0.083,0.332l-0.024 0.089c-0.029,0.109 -0.058,0.217 -0.089,0.325l-0.022 0.078c-0.032,0.111 -0.065,0.223 -0.099,0.333l-0.024 0.08c-0.034,0.109 -0.069,0.218 -0.105,0.327l-0.027 0.081c-0.037,0.11 -0.074,0.22 -0.113,0.329l-0.008 0.024 -12.357 -8.257 8.257 -12.356 0.016 0.018zm-1.561 29.042l-0.018 0.017c-0.087,0.078 -0.174,0.154 -0.261,0.23l-0.064 0.056c-0.087,0.075 -0.175,0.149 -0.263,0.222l-0.064 0.053c-0.09,0.074 -0.18,0.147 -0.27,0.219l-0.064 0.051c-0.088,0.069 -0.177,0.138 -0.266,0.206l-0.073 0.056c-0.091,0.069 -0.183,0.137 -0.275,0.204l-0.065 0.048c-0.09,0.065 -0.181,0.129 -0.272,0.193l-0.08 0.057c-0.09,0.061 -0.179,0.122 -0.27,0.182l-0.08 0.054c-0.094,0.063 -0.189,0.124 -0.284,0.185l-0.067 0.043c-0.095,0.06 -0.19,0.119 -0.286,0.177l-0.078 0.048c-0.09,0.054 -0.18,0.108 -0.271,0.161l-0.099 0.058c-0.09,0.051 -0.18,0.102 -0.271,0.152l-0.092 0.052c-0.091,0.05 -0.182,0.099 -0.273,0.147l-0.104 0.055c-0.086,0.045 -0.172,0.088 -0.258,0.132l-0.121 0.061c-0.087,0.043 -0.174,0.085 -0.262,0.127l-0.111 0.054c-0.088,0.041 -0.175,0.081 -0.263,0.121l-0.124 0.056c-0.087,0.039 -0.174,0.077 -0.261,0.114l-0.121 0.052c-0.087,0.037 -0.175,0.073 -0.262,0.108l-0.129 0.052c-0.086,0.035 -0.172,0.068 -0.259,0.101l-0.132 0.051c-0.083,0.031 -0.167,0.061 -0.251,0.092l-0.148 0.053c-0.08,0.028 -0.159,0.055 -0.238,0.082l-0.161 0.054c-0.076,0.025 -0.152,0.049 -0.228,0.073l-0.173 0.054c-0.075,0.024 -0.152,0.046 -0.228,0.068l-0.173 0.051c-0.075,0.021 -0.15,0.042 -0.225,0.062 -0.06,0.017 -0.12,0.033 -0.18,0.049 -0.07,0.018 -0.14,0.036 -0.21,0.054 -0.068,0.016 -0.135,0.034 -0.203,0.05 -0.065,0.016 -0.129,0.03 -0.194,0.045 -0.071,0.017 -0.142,0.033 -0.214,0.049 -0.066,0.014 -0.132,0.028 -0.198,0.042 -0.069,0.014 -0.138,0.029 -0.207,0.043 -0.069,0.013 -0.139,0.026 -0.208,0.039 -0.066,0.013 -0.133,0.025 -0.199,0.037 -0.072,0.013 -0.144,0.025 -0.217,0.038 -0.065,0.01 -0.13,0.021 -0.196,0.032 -0.069,0.011 -0.137,0.021 -0.207,0.031 -0.071,0.01 -0.142,0.021 -0.214,0.031 -0.062,0.008 -0.123,0.016 -0.185,0.024 -0.077,0.009 -0.155,0.019 -0.232,0.028 -0.06,0.007 -0.12,0.013 -0.179,0.02 -0.079,0.008 -0.158,0.016 -0.237,0.024 -0.06,0.006 -0.12,0.011 -0.18,0.016 -0.08,0.007 -0.159,0.014 -0.239,0.02 -0.056,0.004 -0.113,0.007 -0.169,0.011 -0.084,0.006 -0.167,0.011 -0.251,0.016l-0.158 0.007c-0.089,0.005 -0.178,0.009 -0.267,0.012l-0.141 0.003c-0.093,0.003 -0.186,0.005 -0.278,0.006l-0.139 0.001c-0.094,0.001 -0.189,0.001 -0.283,0.001l-0.132 -0.002c-0.095,-0.001 -0.19,-0.003 -0.285,-0.005l-0.136 -0.005c-0.096,-0.003 -0.193,-0.007 -0.289,-0.012l-0.123 -0.006c-0.097,-0.005 -0.194,-0.011 -0.291,-0.018l-0.135 -0.01c-0.097,-0.007 -0.193,-0.015 -0.289,-0.023l-0.117 -0.011c-0.103,-0.01 -0.206,-0.02 -0.309,-0.031l-0.105 -0.013c-0.103,-0.011 -0.205,-0.024 -0.308,-0.037l-0.114 -0.016c-0.104,-0.014 -0.208,-0.029 -0.312,-0.044l-0.09 -0.015c-0.111,-0.017 -0.222,-0.035 -0.333,-0.054l-0.077 -0.014c-0.111,-0.02 -0.223,-0.04 -0.334,-0.062l-0.095 -0.019c-0.106,-0.021 -0.212,-0.043 -0.318,-0.066l-0.097 -0.021c-0.108,-0.025 -0.216,-0.049 -0.324,-0.075l-0.079 -0.019c-0.11,-0.027 -0.221,-0.055 -0.331,-0.083l-0.09 -0.024c-0.108,-0.029 -0.216,-0.058 -0.324,-0.089l-0.079 -0.022c-0.111,-0.032 -0.222,-0.065 -0.333,-0.099l-0.079 -0.025c-0.11,-0.034 -0.219,-0.068 -0.328,-0.104l-0.081 -0.027c-0.11,-0.037 -0.22,-0.074 -0.329,-0.113l-0.024 -0.008 8.257 -12.357 12.356 8.256zm-29.077 -1.562c-0.077,-0.087 -0.154,-0.174 -0.23,-0.261l-0.056 -0.065c-0.075,-0.087 -0.149,-0.174 -0.222,-0.262l-0.053 -0.064c-0.074,-0.09 -0.147,-0.18 -0.219,-0.27l-0.051 -0.064c-0.069,-0.088 -0.138,-0.177 -0.206,-0.266l-0.056 -0.074c-0.069,-0.09 -0.137,-0.182 -0.204,-0.274l-0.048 -0.065c-0.065,-0.09 -0.129,-0.181 -0.192,-0.272l-0.057 -0.081c-0.062,-0.089 -0.123,-0.179 -0.183,-0.269l-0.054 -0.08c-0.062,-0.095 -0.124,-0.19 -0.185,-0.285l-0.042 -0.066c-0.06,-0.095 -0.12,-0.191 -0.178,-0.286l-0.048 -0.078c-0.054,-0.09 -0.107,-0.181 -0.16,-0.271l-0.058 -0.099c-0.052,-0.09 -0.103,-0.18 -0.153,-0.271l-0.052 -0.092c-0.049,-0.091 -0.098,-0.182 -0.147,-0.274l-0.055 -0.104c-0.044,-0.085 -0.088,-0.171 -0.132,-0.257l-0.06 -0.121c-0.044,-0.087 -0.086,-0.175 -0.128,-0.262l-0.053 -0.112c-0.041,-0.087 -0.082,-0.174 -0.122,-0.262l-0.056 -0.125c-0.039,-0.086 -0.077,-0.173 -0.114,-0.261l-0.052 -0.121c-0.037,-0.087 -0.072,-0.174 -0.108,-0.261l-0.052 -0.129c-0.034,-0.086 -0.068,-0.172 -0.101,-0.259l-0.051 -0.132c-0.031,-0.083 -0.061,-0.167 -0.091,-0.251l-0.054 -0.149c-0.028,-0.079 -0.055,-0.158 -0.081,-0.237l-0.054 -0.161c-0.025,-0.076 -0.05,-0.152 -0.074,-0.229l-0.054 -0.172c-0.023,-0.076 -0.046,-0.152 -0.068,-0.228l-0.051 -0.173c-0.021,-0.075 -0.041,-0.15 -0.062,-0.225 -0.016,-0.06 -0.033,-0.12 -0.049,-0.18 -0.018,-0.07 -0.035,-0.14 -0.053,-0.21 -0.017,-0.068 -0.034,-0.136 -0.051,-0.204 -0.015,-0.064 -0.03,-0.128 -0.045,-0.193 -0.016,-0.071 -0.033,-0.143 -0.049,-0.214 -0.014,-0.066 -0.028,-0.132 -0.042,-0.198 -0.014,-0.069 -0.029,-0.138 -0.042,-0.207 -0.014,-0.069 -0.027,-0.139 -0.04,-0.208 -0.013,-0.066 -0.025,-0.133 -0.037,-0.199 -0.013,-0.072 -0.025,-0.145 -0.037,-0.217 -0.011,-0.065 -0.022,-0.13 -0.032,-0.196 -0.011,-0.069 -0.021,-0.138 -0.031,-0.207 -0.011,-0.071 -0.022,-0.142 -0.031,-0.214 -0.009,-0.062 -0.016,-0.123 -0.024,-0.185 -0.01,-0.078 -0.02,-0.155 -0.029,-0.232 -0.007,-0.06 -0.013,-0.12 -0.019,-0.179 -0.009,-0.079 -0.017,-0.158 -0.025,-0.237 -0.005,-0.06 -0.011,-0.12 -0.016,-0.18 -0.007,-0.08 -0.013,-0.159 -0.019,-0.239 -0.005,-0.057 -0.008,-0.113 -0.012,-0.169 -0.005,-0.084 -0.011,-0.167 -0.016,-0.251l-0.007 -0.158c-0.004,-0.089 -0.008,-0.178 -0.011,-0.267l-0.004 -0.141c-0.003,-0.093 -0.005,-0.186 -0.006,-0.279l-0.001 -0.138c-0.001,-0.094 -0.001,-0.189 0,-0.283l0.001 -0.132c0.002,-0.095 0.003,-0.19 0.006,-0.285l0.004 -0.136c0.004,-0.097 0.007,-0.193 0.012,-0.289l0.006 -0.123c0.006,-0.097 0.011,-0.195 0.018,-0.291l0.01 -0.136c0.007,-0.096 0.015,-0.192 0.023,-0.288l0.011 -0.117c0.01,-0.103 0.02,-0.206 0.032,-0.309l0.012 -0.105c0.012,-0.103 0.024,-0.206 0.037,-0.308l0.016 -0.114c0.014,-0.104 0.029,-0.208 0.045,-0.312l0.014 -0.09c0.017,-0.111 0.035,-0.222 0.055,-0.333l0.014 -0.078c0.019,-0.111 0.04,-0.222 0.061,-0.333l0.019 -0.095c0.022,-0.106 0.043,-0.212 0.066,-0.318l0.022 -0.097c0.024,-0.108 0.048,-0.216 0.074,-0.324l0.019 -0.079c0.027,-0.111 0.055,-0.221 0.083,-0.332l0.024 -0.089c0.029,-0.108 0.059,-0.216 0.089,-0.325l0.023 -0.078c0.032,-0.111 0.064,-0.222 0.098,-0.333l0.025 -0.08c0.034,-0.109 0.069,-0.218 0.104,-0.327l0.028 -0.081c0.036,-0.11 0.074,-0.22 0.112,-0.329l0.009 -0.024 12.356 8.257 -8.256 12.356 -0.017 -0.018zm1.561 -29.042l0.019 -0.017c0.086,-0.078 0.173,-0.154 0.261,-0.23l0.064 -0.056c0.087,-0.075 0.175,-0.149 0.263,-0.222l0.064 -0.053c0.089,-0.074 0.179,-0.147 0.27,-0.219l0.064 -0.051c0.088,-0.069 0.176,-0.138 0.265,-0.206l0.074 -0.056c0.091,-0.069 0.182,-0.137 0.274,-0.204l0.066 -0.048c0.09,-0.065 0.18,-0.129 0.271,-0.193l0.081 -0.056c0.089,-0.062 0.179,-0.123 0.269,-0.183l0.081 -0.054c0.094,-0.063 0.189,-0.124 0.284,-0.185l0.066 -0.042c0.095,-0.061 0.191,-0.12 0.287,-0.178l0.078 -0.048c0.089,-0.054 0.18,-0.108 0.271,-0.16l0.099 -0.058c0.09,-0.052 0.18,-0.103 0.27,-0.153l0.093 -0.052c0.09,-0.05 0.181,-0.098 0.273,-0.147l0.104 -0.055c0.085,-0.045 0.171,-0.088 0.257,-0.132l0.121 -0.061c0.088,-0.043 0.175,-0.085 0.263,-0.127l0.111 -0.053c0.087,-0.042 0.175,-0.082 0.262,-0.122l0.125 -0.056c0.086,-0.039 0.174,-0.077 0.261,-0.114l0.121 -0.052c0.087,-0.037 0.174,-0.073 0.262,-0.108l0.128 -0.052c0.086,-0.035 0.173,-0.068 0.259,-0.101l0.132 -0.051c0.083,-0.031 0.167,-0.061 0.251,-0.092l0.149 -0.053c0.079,-0.028 0.158,-0.055 0.238,-0.082l0.161 -0.054c0.076,-0.025 0.152,-0.049 0.228,-0.073l0.172 -0.054c0.076,-0.023 0.152,-0.046 0.228,-0.068l0.173 -0.051c0.075,-0.021 0.15,-0.042 0.226,-0.062 0.06,-0.016 0.12,-0.033 0.18,-0.049 0.07,-0.018 0.14,-0.036 0.21,-0.053 0.067,-0.017 0.135,-0.034 0.203,-0.051 0.064,-0.015 0.129,-0.03 0.193,-0.045 0.072,-0.017 0.143,-0.033 0.215,-0.049 0.066,-0.014 0.131,-0.028 0.198,-0.042 0.069,-0.014 0.138,-0.029 0.207,-0.043 0.069,-0.013 0.138,-0.026 0.207,-0.039 0.067,-0.013 0.133,-0.025 0.199,-0.037 0.073,-0.013 0.145,-0.025 0.217,-0.037 0.066,-0.011 0.131,-0.022 0.196,-0.033 0.069,-0.01 0.138,-0.02 0.207,-0.031 0.072,-0.01 0.143,-0.021 0.214,-0.03 0.062,-0.009 0.124,-0.017 0.186,-0.024 0.077,-0.01 0.154,-0.02 0.232,-0.029 0.059,-0.007 0.119,-0.013 0.179,-0.02 0.079,-0.008 0.157,-0.016 0.237,-0.024 0.059,-0.006 0.119,-0.011 0.179,-0.016 0.08,-0.007 0.16,-0.013 0.239,-0.019 0.057,-0.005 0.113,-0.008 0.17,-0.012 0.083,-0.006 0.167,-0.011 0.251,-0.016l0.158 -0.007c0.089,-0.005 0.178,-0.008 0.267,-0.011l0.141 -0.004c0.092,-0.003 0.185,-0.005 0.278,-0.006l0.138 -0.001c0.095,-0.001 0.189,-0.001 0.284,-0.001l0.131 0.002c0.095,0.001 0.19,0.003 0.285,0.006l0.137 0.004c0.096,0.003 0.192,0.007 0.289,0.012l0.123 0.006c0.097,0.005 0.194,0.011 0.291,0.018l0.135 0.01c0.096,0.007 0.192,0.015 0.288,0.023l0.118 0.011c0.102,0.01 0.205,0.02 0.308,0.031l0.105 0.013c0.103,0.012 0.206,0.024 0.309,0.037l0.114 0.016c0.103,0.014 0.207,0.029 0.311,0.044l0.09 0.015c0.112,0.017 0.222,0.035 0.333,0.054l0.078 0.014c0.111,0.02 0.222,0.041 0.333,0.062l0.095 0.019c0.107,0.021 0.213,0.043 0.319,0.066l0.096 0.022c0.108,0.024 0.217,0.048 0.325,0.074l0.078 0.019c0.111,0.027 0.222,0.055 0.332,0.083l0.089 0.024c0.109,0.029 0.217,0.058 0.325,0.089l0.078 0.022c0.112,0.033 0.223,0.065 0.333,0.099l0.08 0.025c0.109,0.034 0.219,0.068 0.328,0.104l0.081 0.027c0.109,0.037 0.219,0.074 0.329,0.113l0.023 0.008 -8.256 12.357 -12.357 -8.256z"/>
  <path class="fil3 str0" d="M282.755 31.333c8.73,-13.065 26.399,-16.58 39.464,-7.85 13.065,8.73 16.58,26.399 7.85,39.464 -8.73,13.065 -26.399,16.58 -39.464,7.85 -13.065,-8.73 -16.58,-26.399 -7.85,-39.464zm38.976 2.067c0.078,0.087 0.154,0.174 0.23,0.261l0.056 0.065c0.075,0.087 0.149,0.174 0.222,0.262l0.053 0.064c0.074,0.09 0.147,0.18 0.219,0.27l0.051 0.064c0.069,0.088 0.138,0.177 0.206,0.266l0.056 0.074c0.069,0.091 0.137,0.182 0.204,0.274l0.048 0.066c0.065,0.09 0.129,0.18 0.193,0.271l0.056 0.081c0.062,0.089 0.123,0.179 0.183,0.269l0.054 0.08c0.063,0.095 0.124,0.19 0.185,0.285l0.042 0.066c0.06,0.095 0.12,0.191 0.178,0.286l0.048 0.078c0.054,0.09 0.108,0.181 0.16,0.271l0.058 0.1c0.052,0.089 0.103,0.18 0.153,0.27l0.052 0.093c0.049,0.09 0.098,0.181 0.147,0.273l0.055 0.104c0.044,0.085 0.088,0.171 0.132,0.257l0.061 0.121c0.043,0.087 0.085,0.175 0.127,0.262l0.053 0.112c0.041,0.087 0.082,0.174 0.122,0.262l0.056 0.125c0.039,0.086 0.077,0.173 0.114,0.261l0.052 0.121c0.037,0.087 0.073,0.174 0.108,0.262l0.052 0.128c0.035,0.086 0.068,0.173 0.101,0.259l0.051 0.132c0.031,0.083 0.061,0.167 0.091,0.251l0.054 0.149c0.028,0.079 0.055,0.158 0.082,0.238l0.053 0.16c0.025,0.076 0.05,0.152 0.074,0.229l0.054 0.172c0.023,0.076 0.046,0.152 0.068,0.228l0.051 0.173c0.021,0.075 0.041,0.15 0.062,0.225 0.016,0.06 0.033,0.12 0.049,0.181 0.018,0.069 0.035,0.139 0.053,0.209 0.017,0.068 0.034,0.136 0.051,0.204 0.015,0.064 0.03,0.128 0.045,0.193 0.017,0.071 0.033,0.143 0.049,0.214 0.014,0.066 0.028,0.132 0.042,0.198 0.014,0.069 0.029,0.138 0.042,0.207 0.014,0.07 0.027,0.139 0.04,0.208 0.013,0.067 0.025,0.133 0.037,0.199 0.013,0.072 0.025,0.145 0.037,0.217 0.011,0.065 0.022,0.131 0.032,0.196 0.011,0.069 0.021,0.138 0.031,0.207 0.011,0.071 0.022,0.143 0.031,0.214 0.009,0.062 0.016,0.124 0.024,0.185 0.01,0.078 0.02,0.155 0.029,0.233 0.007,0.059 0.013,0.119 0.02,0.179 0.008,0.079 0.016,0.157 0.024,0.236 0.006,0.06 0.011,0.12 0.016,0.18 0.007,0.08 0.013,0.159 0.019,0.239 0.005,0.057 0.008,0.113 0.012,0.17 0.005,0.083 0.011,0.167 0.016,0.25l0.007 0.158c0.004,0.089 0.008,0.178 0.011,0.267l0.004 0.142c0.003,0.092 0.005,0.185 0.006,0.278l0.001 0.138c0.001,0.095 0.001,0.189 0,0.283l-0.001 0.132c-0.002,0.095 -0.003,0.19 -0.006,0.285l-0.004 0.136c-0.004,0.097 -0.007,0.193 -0.012,0.289l-0.006 0.124c-0.006,0.097 -0.011,0.194 -0.018,0.291l-0.01 0.135c-0.007,0.096 -0.015,0.192 -0.023,0.288l-0.011 0.117c-0.01,0.103 -0.02,0.206 -0.032,0.309l-0.012 0.105c-0.012,0.103 -0.024,0.206 -0.037,0.308l-0.016 0.114c-0.014,0.104 -0.029,0.208 -0.045,0.312l-0.014 0.09c-0.017,0.111 -0.035,0.222 -0.055,0.333l-0.013 0.078c-0.02,0.111 -0.041,0.222 -0.062,0.333l-0.019 0.095c-0.022,0.106 -0.043,0.212 -0.066,0.318l-0.022 0.097c-0.024,0.108 -0.048,0.216 -0.074,0.325l-0.019 0.078c-0.027,0.111 -0.055,0.222 -0.083,0.332l-0.024 0.089c-0.029,0.109 -0.059,0.217 -0.089,0.325l-0.023 0.078c-0.032,0.111 -0.064,0.223 -0.098,0.333l-0.025 0.08c-0.034,0.109 -0.069,0.218 -0.104,0.327l-0.028 0.081c-0.036,0.11 -0.074,0.22 -0.112,0.329l-0.009 0.024 -12.356 -8.257 8.256 -12.356 0.017 0.018zm-1.561 29.042l-0.019 0.017c-0.086,0.078 -0.173,0.154 -0.26,0.23l-0.065 0.056c-0.087,0.075 -0.175,0.149 -0.263,0.222l-0.064 0.053c-0.089,0.074 -0.179,0.147 -0.27,0.219l-0.064 0.051c-0.088,0.069 -0.176,0.138 -0.265,0.206l-0.074 0.056c-0.091,0.069 -0.182,0.137 -0.274,0.204l-0.066 0.048c-0.09,0.065 -0.18,0.129 -0.271,0.193l-0.081 0.057c-0.089,0.061 -0.179,0.122 -0.269,0.182l-0.081 0.054c-0.094,0.063 -0.189,0.124 -0.284,0.185l-0.066 0.043c-0.095,0.06 -0.191,0.119 -0.287,0.177l-0.078 0.048c-0.089,0.054 -0.18,0.108 -0.27,0.161l-0.1 0.058c-0.09,0.051 -0.18,0.102 -0.27,0.152l-0.093 0.052c-0.09,0.05 -0.181,0.099 -0.273,0.147l-0.104 0.055c-0.085,0.045 -0.171,0.088 -0.257,0.132l-0.121 0.061c-0.087,0.043 -0.175,0.085 -0.263,0.127l-0.111 0.054c-0.087,0.041 -0.174,0.081 -0.262,0.121l-0.125 0.056c-0.086,0.039 -0.174,0.077 -0.261,0.114l-0.121 0.052c-0.087,0.037 -0.174,0.073 -0.262,0.108l-0.128 0.052c-0.086,0.035 -0.173,0.068 -0.259,0.101l-0.132 0.051c-0.083,0.031 -0.167,0.061 -0.251,0.092l-0.149 0.053c-0.079,0.028 -0.158,0.055 -0.238,0.082l-0.161 0.054c-0.075,0.025 -0.152,0.049 -0.228,0.073l-0.172 0.054c-0.076,0.024 -0.152,0.046 -0.228,0.068l-0.173 0.051c-0.075,0.021 -0.15,0.042 -0.225,0.062 -0.061,0.017 -0.12,0.033 -0.181,0.049 -0.069,0.018 -0.139,0.036 -0.21,0.054 -0.067,0.016 -0.135,0.034 -0.203,0.05 -0.064,0.016 -0.129,0.03 -0.193,0.045 -0.071,0.017 -0.143,0.033 -0.214,0.049 -0.066,0.014 -0.132,0.028 -0.198,0.042 -0.069,0.014 -0.139,0.029 -0.208,0.043 -0.069,0.013 -0.138,0.026 -0.207,0.039 -0.067,0.013 -0.133,0.025 -0.199,0.037 -0.073,0.013 -0.145,0.025 -0.217,0.038 -0.065,0.01 -0.131,0.021 -0.196,0.032 -0.069,0.011 -0.138,0.021 -0.207,0.031 -0.071,0.01 -0.143,0.021 -0.214,0.031 -0.062,0.008 -0.124,0.016 -0.186,0.024 -0.077,0.009 -0.154,0.019 -0.232,0.028 -0.059,0.007 -0.119,0.013 -0.179,0.02 -0.079,0.008 -0.157,0.016 -0.236,0.024 -0.06,0.006 -0.12,0.011 -0.18,0.016 -0.08,0.007 -0.16,0.014 -0.239,0.02 -0.057,0.004 -0.113,0.007 -0.17,0.011 -0.083,0.006 -0.167,0.011 -0.251,0.016l-0.158 0.007c-0.089,0.005 -0.178,0.009 -0.267,0.012l-0.141 0.003c-0.092,0.003 -0.185,0.005 -0.278,0.006l-0.138 0.001c-0.095,0.001 -0.189,0.001 -0.284,0.001l-0.131 -0.002c-0.095,-0.001 -0.19,-0.003 -0.285,-0.005l-0.137 -0.005c-0.096,-0.003 -0.192,-0.007 -0.289,-0.012l-0.123 -0.006c-0.097,-0.005 -0.194,-0.011 -0.291,-0.018l-0.135 -0.01c-0.096,-0.007 -0.192,-0.015 -0.288,-0.023l-0.117 -0.011c-0.103,-0.01 -0.206,-0.02 -0.309,-0.031l-0.105 -0.013c-0.103,-0.011 -0.206,-0.024 -0.308,-0.037l-0.114 -0.016c-0.104,-0.014 -0.208,-0.029 -0.312,-0.044l-0.09 -0.015c-0.111,-0.017 -0.222,-0.035 -0.333,-0.054l-0.078 -0.014c-0.111,-0.02 -0.222,-0.04 -0.333,-0.062l-0.095 -0.019c-0.107,-0.021 -0.212,-0.043 -0.319,-0.066l-0.096 -0.021c-0.108,-0.025 -0.217,-0.049 -0.325,-0.075l-0.078 -0.019c-0.111,-0.027 -0.222,-0.055 -0.332,-0.083l-0.089 -0.024c-0.109,-0.029 -0.217,-0.058 -0.325,-0.089l-0.078 -0.022c-0.111,-0.032 -0.223,-0.065 -0.333,-0.099l-0.08 -0.025c-0.109,-0.034 -0.219,-0.068 -0.327,-0.104l-0.082 -0.027c-0.109,-0.037 -0.219,-0.074 -0.329,-0.113l-0.023 -0.008 8.256 -12.357 12.357 8.256zm-29.077 -1.562c-0.078,-0.087 -0.154,-0.174 -0.23,-0.261l-0.056 -0.065c-0.075,-0.087 -0.149,-0.174 -0.222,-0.262l-0.054 -0.064c-0.073,-0.09 -0.146,-0.18 -0.218,-0.27l-0.051 -0.064c-0.07,-0.088 -0.138,-0.177 -0.206,-0.266l-0.056 -0.074c-0.069,-0.09 -0.137,-0.182 -0.204,-0.274l-0.048 -0.065c-0.065,-0.09 -0.129,-0.181 -0.193,-0.272l-0.057 -0.081c-0.061,-0.089 -0.122,-0.179 -0.183,-0.269l-0.054 -0.08c-0.062,-0.095 -0.123,-0.19 -0.184,-0.285l-0.043 -0.066c-0.06,-0.095 -0.119,-0.191 -0.178,-0.286l-0.047 -0.078c-0.055,-0.09 -0.108,-0.181 -0.161,-0.271l-0.058 -0.099c-0.052,-0.09 -0.102,-0.18 -0.152,-0.271l-0.052 -0.092c-0.05,-0.091 -0.099,-0.182 -0.147,-0.274l-0.055 -0.104c-0.045,-0.085 -0.089,-0.171 -0.132,-0.257l-0.061 -0.121c-0.043,-0.087 -0.086,-0.175 -0.127,-0.262l-0.054 -0.112c-0.041,-0.087 -0.081,-0.174 -0.121,-0.262l-0.056 -0.125c-0.039,-0.086 -0.077,-0.173 -0.115,-0.261l-0.051 -0.121c-0.037,-0.087 -0.073,-0.174 -0.108,-0.261l-0.053 -0.129c-0.034,-0.086 -0.067,-0.172 -0.1,-0.259l-0.051 -0.132c-0.031,-0.083 -0.062,-0.167 -0.092,-0.251l-0.053 -0.149c-0.028,-0.079 -0.055,-0.158 -0.082,-0.237l-0.054 -0.161c-0.025,-0.076 -0.049,-0.152 -0.073,-0.229l-0.054 -0.172c-0.024,-0.076 -0.046,-0.152 -0.068,-0.228l-0.051 -0.173c-0.021,-0.075 -0.042,-0.15 -0.062,-0.225 -0.017,-0.06 -0.033,-0.12 -0.049,-0.18 -0.018,-0.07 -0.036,-0.14 -0.054,-0.21 -0.017,-0.068 -0.034,-0.136 -0.05,-0.204 -0.016,-0.064 -0.031,-0.128 -0.045,-0.193 -0.017,-0.071 -0.033,-0.143 -0.049,-0.214 -0.015,-0.066 -0.028,-0.132 -0.042,-0.198 -0.015,-0.069 -0.029,-0.138 -0.043,-0.207 -0.014,-0.069 -0.027,-0.139 -0.04,-0.208 -0.012,-0.066 -0.025,-0.133 -0.036,-0.199 -0.013,-0.072 -0.025,-0.145 -0.038,-0.217 -0.01,-0.065 -0.022,-0.13 -0.032,-0.196 -0.011,-0.069 -0.021,-0.138 -0.031,-0.207 -0.01,-0.071 -0.021,-0.142 -0.031,-0.214 -0.008,-0.062 -0.016,-0.123 -0.024,-0.185 -0.01,-0.078 -0.019,-0.155 -0.028,-0.232 -0.007,-0.06 -0.013,-0.12 -0.02,-0.179 -0.008,-0.079 -0.017,-0.158 -0.024,-0.237 -0.006,-0.06 -0.011,-0.12 -0.016,-0.18 -0.007,-0.08 -0.014,-0.159 -0.02,-0.239 -0.004,-0.057 -0.007,-0.113 -0.011,-0.169 -0.006,-0.084 -0.011,-0.167 -0.016,-0.251l-0.008 -0.158c-0.004,-0.089 -0.008,-0.178 -0.011,-0.267l-0.004 -0.141c-0.002,-0.093 -0.004,-0.186 -0.005,-0.279l-0.002 -0.138c0,-0.094 0,-0.189 0,-0.283l0.002 -0.132c0.001,-0.095 0.003,-0.19 0.005,-0.285l0.005 -0.136c0.003,-0.097 0.007,-0.193 0.011,-0.289l0.007 -0.123c0.005,-0.097 0.011,-0.195 0.018,-0.291l0.01 -0.136c0.007,-0.096 0.014,-0.192 0.023,-0.288l0.011 -0.117c0.01,-0.103 0.02,-0.206 0.031,-0.309l0.012 -0.105c0.012,-0.103 0.024,-0.206 0.038,-0.308l0.016 -0.114c0.014,-0.104 0.028,-0.208 0.044,-0.312l0.014 -0.09c0.018,-0.111 0.036,-0.222 0.055,-0.333l0.014 -0.078c0.02,-0.111 0.04,-0.222 0.062,-0.333l0.019 -0.095c0.021,-0.106 0.043,-0.212 0.066,-0.318l0.021 -0.097c0.024,-0.108 0.049,-0.216 0.075,-0.324l0.019 -0.079c0.027,-0.111 0.054,-0.221 0.083,-0.332l0.024 -0.089c0.029,-0.108 0.058,-0.216 0.089,-0.325l0.022 -0.078c0.032,-0.111 0.065,-0.222 0.099,-0.333l0.025 -0.08c0.033,-0.109 0.068,-0.218 0.104,-0.327l0.027 -0.081c0.037,-0.11 0.074,-0.22 0.113,-0.329l0.008 -0.024 12.357 8.257 -8.257 12.356 -0.016 -0.018zm1.561 -29.042l0.018 -0.017c0.087,-0.078 0.174,-0.154 0.261,-0.23l0.065 -0.056c0.087,-0.075 0.174,-0.149 0.262,-0.222l0.064 -0.053c0.09,-0.074 0.18,-0.147 0.27,-0.219l0.064 -0.051c0.088,-0.069 0.177,-0.138 0.266,-0.206l0.073 -0.056c0.091,-0.069 0.183,-0.137 0.275,-0.204l0.065 -0.048c0.09,-0.065 0.181,-0.129 0.272,-0.193l0.081 -0.056c0.089,-0.062 0.179,-0.123 0.269,-0.183l0.08 -0.054c0.094,-0.063 0.189,-0.124 0.284,-0.185l0.067 -0.042c0.095,-0.061 0.19,-0.12 0.286,-0.178l0.078 -0.048c0.09,-0.054 0.18,-0.108 0.271,-0.16l0.099 -0.058c0.09,-0.052 0.18,-0.103 0.271,-0.153l0.092 -0.052c0.091,-0.05 0.182,-0.098 0.273,-0.147l0.105 -0.055c0.085,-0.045 0.171,-0.088 0.257,-0.132l0.121 -0.061c0.087,-0.043 0.174,-0.085 0.262,-0.127l0.111 -0.053c0.088,-0.042 0.175,-0.082 0.263,-0.122l0.124 -0.056c0.087,-0.039 0.174,-0.077 0.261,-0.114l0.121 -0.052c0.087,-0.037 0.175,-0.073 0.262,-0.108l0.129 -0.052c0.086,-0.035 0.172,-0.068 0.259,-0.101l0.132 -0.051c0.083,-0.031 0.167,-0.061 0.251,-0.092l0.149 -0.053c0.079,-0.028 0.158,-0.055 0.237,-0.082l0.161 -0.054c0.076,-0.025 0.152,-0.049 0.229,-0.073l0.172 -0.054c0.076,-0.023 0.152,-0.046 0.228,-0.068l0.173 -0.051c0.075,-0.021 0.15,-0.042 0.225,-0.062 0.06,-0.016 0.12,-0.033 0.18,-0.049 0.07,-0.018 0.14,-0.036 0.21,-0.053 0.068,-0.017 0.136,-0.034 0.203,-0.051 0.065,-0.015 0.129,-0.03 0.194,-0.045 0.071,-0.017 0.142,-0.033 0.214,-0.049 0.066,-0.014 0.132,-0.028 0.198,-0.042 0.069,-0.014 0.138,-0.029 0.207,-0.043 0.069,-0.013 0.139,-0.026 0.208,-0.039 0.066,-0.013 0.133,-0.025 0.199,-0.037 0.072,-0.013 0.144,-0.025 0.217,-0.037 0.065,-0.011 0.13,-0.022 0.196,-0.033 0.069,-0.01 0.138,-0.02 0.207,-0.031 0.071,-0.01 0.142,-0.021 0.214,-0.03 0.062,-0.009 0.123,-0.017 0.185,-0.024 0.078,-0.01 0.155,-0.02 0.232,-0.029 0.06,-0.007 0.12,-0.013 0.179,-0.02 0.079,-0.008 0.158,-0.016 0.237,-0.024 0.06,-0.006 0.12,-0.011 0.18,-0.016 0.08,-0.007 0.159,-0.013 0.239,-0.019 0.056,-0.005 0.113,-0.008 0.169,-0.012 0.084,-0.006 0.167,-0.011 0.251,-0.016l0.158 -0.007c0.089,-0.005 0.178,-0.008 0.267,-0.011l0.141 -0.004c0.093,-0.003 0.186,-0.005 0.278,-0.006l0.139 -0.001c0.094,-0.001 0.189,-0.001 0.283,-0.001l0.132 0.002c0.095,0.001 0.19,0.003 0.285,0.006l0.136 0.004c0.097,0.003 0.193,0.007 0.289,0.012l0.123 0.006c0.097,0.005 0.194,0.011 0.291,0.018l0.136 0.01c0.096,0.007 0.192,0.015 0.288,0.023l0.117 0.011c0.103,0.01 0.206,0.02 0.309,0.031l0.105 0.013c0.103,0.012 0.205,0.024 0.308,0.037l0.114 0.016c0.104,0.014 0.208,0.029 0.312,0.044l0.09 0.015c0.111,0.017 0.222,0.035 0.333,0.054l0.077 0.014c0.112,0.02 0.223,0.041 0.334,0.062l0.095 0.019c0.106,0.021 0.212,0.043 0.318,0.066l0.097 0.022c0.108,0.024 0.216,0.048 0.324,0.074l0.079 0.019c0.11,0.027 0.221,0.055 0.331,0.083l0.09 0.024c0.108,0.029 0.216,0.058 0.324,0.089l0.079 0.022c0.111,0.033 0.222,0.065 0.333,0.099l0.08 0.025c0.109,0.034 0.218,0.068 0.327,0.104l0.081 0.027c0.11,0.037 0.22,0.074 0.329,0.113l0.024 0.008 -8.257 12.357 -12.356 -8.256z"/>
 </g>
</svg>
