<?xml version="1.0" encoding="UTF-8"?>
<!DOCTYPE svg PUBLIC "-//W3C//DTD SVG 1.1//EN" "http://www.w3.org/Graphics/SVG/1.1/DTD/svg11.dtd">
<!-- Creator: CorelDRAW 2019 (64-Bit) -->
<svg xmlns="http://www.w3.org/2000/svg" xml:space="preserve" width="750px" height="200px" version="1.1" style="shape-rendering:geometricPrecision; text-rendering:geometricPrecision; image-rendering:optimizeQuality; fill-rule:evenodd; clip-rule:evenodd"
viewBox="0 0 353.551 94.28"
 xmlns:xlink="http://www.w3.org/1999/xlink"
 xmlns:xodm="http://www.corel.com/coreldraw/odm/2003">
 <defs>
  <style type="text/css">
   <![CDATA[
    .str0 {stroke:black;stroke-width:0.267;stroke-miterlimit:22.9256}
    .fil0 {fill:none}
    .fil3 {fill:#4D4D4D}
    .fil2 {fill:#663333}
    .fil1 {fill:#B3B3B3}
   ]]>
  </style>
 </defs>
 <g id="Слой_x0020_1">
  <metadata id="CorelCorpID_0Corel-Layer"/>
  <rect class="fil0" width="353.551" height="94.28"/>
  <rect class="fil1 str0" x="47.139" y="75.592" width="23.57" height="9.428"/>
  <rect class="fil2 str0" x="70.71" y="75.592" width="23.57" height="9.428"/>
  <rect class="fil1 str0" x="94.28" y="75.592" width="23.57" height="9.428"/>
  <rect class="fil2 str0" x="117.85" y="75.592" width="23.57" height="9.428"/>
  <rect class="fil1 str0" x="141.42" y="75.592" width="23.57" height="9.428"/>
  <rect class="fil2 str0" x="164.99" y="75.592" width="23.57" height="9.428"/>
  <rect class="fil1 str0" x="188.561" y="75.592" width="23.57" height="9.428"/>
  <rect class="fil2 str0" x="212.131" y="75.592" width="23.57" height="9.428"/>
  <rect class="fil1 str0" x="235.701" y="75.592" width="23.57" height="9.428"/>
  <rect class="fil2 str0" x="259.271" y="75.592" width="23.57" height="9.428"/>
  <rect class="fil1 str0" x="282.842" y="75.592" width="23.57" height="9.428"/>
  <rect class="fil2 str0" transform="matrix(-0.234898 0.940317 -0.497536 -0.124288 24.4001 24.2728)" width="24.319" height="18.385"/>
  <rect class="fil2 str0" x="282.93" y="9.261" width="23.57" height="9.428"/>
  <rect class="fil1 str0" x="259.359" y="9.261" width="23.57" height="9.428"/>
  <rect class="fil2 str0" x="235.789" y="9.261" width="23.57" height="9.428"/>
  <rect class="fil1 str0" x="212.219" y="9.261" width="23.57" height="9.428"/>
  <rect class="fil2 str0" x="188.649" y="9.261" width="23.57" height="9.428"/>
  <rect class="fil1 str0" x="165.079" y="9.261" width="23.57" height="9.428"/>
  <rect class="fil2 str0" x="141.508" y="9.261" width="23.57" height="9.428"/>
  <rect class="fil1 str0" x="117.938" y="9.261" width="23.57" height="9.428"/>
  <rect class="fil2 str0" x="94.368" y="9.261" width="23.57" height="9.428"/>
  <rect class="fil1 str0" x="70.798" y="9.261" width="23.57" height="9.428"/>
  <rect class="fil2 str0" x="47.227" y="9.261" width="23.57" height="9.428"/>
  <rect class="fil1 str0" transform="matrix(-0.937478 0.245985 -0.130154 -0.496034 47.2215 18.6439)" width="24.319" height="18.385"/>
  <rect class="fil1 str0" transform="matrix(-0.234898 -0.940317 -0.497536 0.124288 24.4001 70.0076)" width="24.319" height="18.385"/>
  <rect class="fil2 str0" transform="matrix(-0.937478 -0.245985 -0.130154 0.496034 47.2215 75.6365)" width="24.319" height="18.385"/>
  <rect class="fil2 str0" transform="matrix(0.234898 0.940317 0.497536 -0.124288 329.233 24.3174)" width="24.319" height="18.385"/>
  <rect class="fil1 str0" transform="matrix(0.937478 0.245985 0.130154 -0.496034 306.412 18.6886)" width="24.319" height="18.385"/>
  <rect class="fil1 str0" transform="matrix(0.234898 -0.940317 0.497536 0.124288 329.233 70.0522)" width="24.319" height="18.385"/>
  <rect class="fil2 str0" transform="matrix(0.937478 -0.245985 0.130154 0.496034 306.412 75.6811)" width="24.319" height="18.385"/>
  <path class="fil3 str0" d="M20.853 36.252c6.014,-14.517 22.657,-21.411 37.174,-15.398 14.518,6.013 21.411,22.657 15.398,37.174 -6.013,14.517 -22.656,21.411 -37.174,15.398 -14.517,-6.013 -21.411,-22.657 -15.398,-37.174zm38.631 -5.576c0.093,0.069 0.184,0.14 0.276,0.211l0.068 0.052c0.09,0.071 0.179,0.142 0.268,0.214l0.065 0.053c0.09,0.073 0.179,0.147 0.267,0.222l0.063 0.053c0.085,0.073 0.17,0.146 0.254,0.22l0.069 0.061c0.085,0.076 0.17,0.153 0.254,0.23l0.059 0.055c0.082,0.075 0.162,0.151 0.242,0.228l0.072 0.068c0.078,0.076 0.155,0.152 0.232,0.229l0.068 0.068c0.08,0.08 0.159,0.161 0.237,0.243l0.055 0.057c0.077,0.081 0.154,0.163 0.23,0.246l0.062 0.067c0.071,0.078 0.141,0.156 0.21,0.234l0.076 0.087c0.069,0.077 0.136,0.156 0.203,0.235l0.069 0.081c0.066,0.079 0.132,0.159 0.197,0.239l0.074 0.091c0.061,0.075 0.12,0.151 0.18,0.227l0.083 0.107c0.06,0.077 0.118,0.154 0.177,0.232l0.073 0.099c0.058,0.077 0.114,0.155 0.171,0.234l0.079 0.111c0.055,0.077 0.109,0.155 0.163,0.233l0.074 0.109c0.054,0.078 0.106,0.157 0.158,0.236l0.076 0.115c0.05,0.078 0.1,0.156 0.149,0.235l0.076 0.119c0.046,0.076 0.093,0.152 0.139,0.228l0.081 0.136c0.043,0.072 0.085,0.145 0.126,0.217l0.085 0.148c0.039,0.069 0.078,0.139 0.116,0.209l0.087 0.159c0.038,0.07 0.075,0.14 0.111,0.21l0.084 0.16c0.035,0.069 0.07,0.139 0.105,0.209 0.028,0.055 0.055,0.111 0.083,0.167 0.031,0.065 0.062,0.13 0.093,0.195 0.03,0.063 0.06,0.126 0.089,0.19 0.028,0.06 0.055,0.12 0.082,0.181 0.03,0.066 0.061,0.133 0.09,0.2 0.027,0.062 0.053,0.124 0.08,0.186 0.028,0.065 0.055,0.13 0.082,0.195 0.027,0.065 0.053,0.131 0.08,0.196 0.025,0.063 0.05,0.125 0.075,0.188 0.026,0.068 0.052,0.137 0.078,0.206 0.024,0.061 0.047,0.123 0.07,0.185 0.024,0.066 0.048,0.131 0.071,0.197 0.024,0.068 0.049,0.136 0.072,0.204 0.02,0.059 0.04,0.118 0.06,0.177 0.025,0.074 0.049,0.148 0.073,0.222 0.018,0.058 0.036,0.115 0.054,0.172 0.024,0.076 0.047,0.152 0.07,0.228 0.018,0.057 0.034,0.115 0.051,0.173 0.022,0.077 0.044,0.154 0.066,0.231 0.015,0.054 0.03,0.109 0.044,0.163 0.022,0.081 0.044,0.162 0.064,0.243l0.039 0.154c0.021,0.086 0.042,0.173 0.063,0.26l0.031 0.137c0.021,0.091 0.041,0.181 0.06,0.272l0.028 0.135c0.019,0.093 0.038,0.186 0.056,0.278l0.024 0.13c0.017,0.093 0.034,0.187 0.05,0.28l0.022 0.135c0.016,0.095 0.031,0.19 0.045,0.286l0.018 0.122c0.014,0.096 0.027,0.192 0.04,0.289l0.016 0.134c0.012,0.096 0.023,0.192 0.033,0.288l0.012 0.117c0.011,0.102 0.021,0.205 0.03,0.308l0.008 0.106c0.009,0.103 0.017,0.206 0.024,0.31l0.007 0.114c0.006,0.105 0.012,0.21 0.017,0.315l0.003 0.091c0.005,0.112 0.009,0.225 0.012,0.337l0.001 0.079c0.002,0.113 0.004,0.226 0.004,0.339l0 0.097c0,0.108 0,0.217 -0.002,0.325l-0.002 0.099c-0.003,0.111 -0.006,0.222 -0.01,0.333l-0.003 0.081c-0.005,0.113 -0.011,0.227 -0.017,0.341l-0.006 0.092c-0.007,0.112 -0.015,0.224 -0.024,0.336l-0.007 0.082c-0.009,0.115 -0.02,0.23 -0.032,0.345l-0.008 0.083c-0.012,0.114 -0.025,0.228 -0.039,0.342l-0.011 0.084c-0.014,0.115 -0.029,0.23 -0.046,0.345l-0.004 0.025 -13.73 -5.687 5.688 -13.73 0.02 0.015zm4.134 28.788l-0.014 0.02c-0.07,0.093 -0.14,0.185 -0.211,0.277l-0.053 0.067c-0.071,0.091 -0.142,0.18 -0.214,0.269l-0.053 0.065c-0.073,0.09 -0.147,0.179 -0.222,0.267l-0.052 0.063c-0.073,0.085 -0.147,0.169 -0.221,0.254l-0.061 0.069c-0.076,0.085 -0.152,0.17 -0.229,0.253l-0.055 0.06c-0.076,0.082 -0.152,0.162 -0.229,0.242l-0.068 0.072c-0.075,0.078 -0.152,0.155 -0.228,0.231l-0.069 0.069c-0.08,0.08 -0.161,0.159 -0.243,0.237l-0.056 0.054c-0.082,0.078 -0.164,0.155 -0.247,0.231l-0.067 0.062c-0.077,0.071 -0.156,0.141 -0.234,0.21l-0.086 0.076c-0.078,0.068 -0.157,0.136 -0.236,0.203l-0.08 0.068c-0.08,0.067 -0.159,0.132 -0.239,0.198l-0.092 0.074c-0.075,0.061 -0.151,0.12 -0.227,0.18l-0.106 0.083c-0.077,0.06 -0.155,0.118 -0.233,0.176l-0.098 0.074c-0.078,0.058 -0.156,0.114 -0.234,0.17l-0.111 0.08c-0.078,0.055 -0.156,0.109 -0.234,0.163l-0.108 0.074c-0.079,0.053 -0.158,0.106 -0.236,0.158l-0.116 0.076c-0.078,0.05 -0.156,0.1 -0.234,0.149l-0.12 0.075c-0.076,0.047 -0.152,0.093 -0.228,0.139l-0.136 0.082c-0.072,0.043 -0.144,0.085 -0.217,0.126l-0.147 0.085c-0.07,0.039 -0.14,0.078 -0.21,0.116l-0.158 0.087c-0.07,0.037 -0.14,0.074 -0.211,0.111l-0.16 0.083c-0.069,0.036 -0.139,0.071 -0.208,0.106 -0.056,0.027 -0.112,0.055 -0.168,0.083 -0.065,0.031 -0.13,0.062 -0.195,0.093 -0.063,0.03 -0.126,0.06 -0.189,0.089 -0.06,0.028 -0.121,0.055 -0.181,0.082 -0.067,0.03 -0.134,0.06 -0.201,0.09 -0.062,0.027 -0.124,0.053 -0.186,0.08 -0.065,0.027 -0.13,0.055 -0.195,0.082 -0.065,0.027 -0.13,0.053 -0.196,0.079 -0.062,0.026 -0.125,0.051 -0.188,0.076 -0.068,0.026 -0.137,0.052 -0.205,0.078 -0.062,0.024 -0.124,0.047 -0.186,0.07 -0.066,0.024 -0.131,0.047 -0.197,0.071 -0.068,0.024 -0.136,0.049 -0.204,0.072 -0.059,0.02 -0.118,0.04 -0.177,0.06 -0.074,0.024 -0.148,0.049 -0.222,0.073 -0.057,0.018 -0.115,0.036 -0.172,0.054 -0.076,0.024 -0.151,0.047 -0.227,0.07 -0.058,0.017 -0.116,0.034 -0.174,0.051 -0.077,0.022 -0.153,0.044 -0.23,0.066 -0.055,0.015 -0.11,0.029 -0.164,0.044 -0.081,0.022 -0.162,0.043 -0.243,0.064l-0.154 0.039c-0.086,0.021 -0.173,0.042 -0.259,0.063l-0.138 0.031c-0.09,0.021 -0.181,0.041 -0.272,0.06l-0.135 0.028c-0.093,0.019 -0.185,0.038 -0.278,0.056l-0.129 0.024c-0.094,0.017 -0.187,0.034 -0.281,0.05l-0.135 0.022c-0.095,0.016 -0.19,0.031 -0.285,0.045l-0.122 0.018c-0.097,0.014 -0.193,0.027 -0.289,0.039l-0.135 0.017c-0.096,0.012 -0.191,0.023 -0.287,0.033l-0.117 0.012c-0.103,0.011 -0.206,0.021 -0.309,0.03l-0.106 0.008c-0.103,0.009 -0.206,0.017 -0.309,0.024l-0.115 0.006c-0.105,0.007 -0.21,0.013 -0.314,0.017l-0.092 0.004c-0.112,0.005 -0.224,0.009 -0.337,0.011l-0.079 0.002c-0.112,0.002 -0.226,0.004 -0.339,0.004l-0.097 0c-0.108,0 -0.216,-0.001 -0.325,-0.002l-0.099 -0.003c-0.11,-0.002 -0.221,-0.005 -0.332,-0.009l-0.081 -0.004c-0.114,-0.004 -0.228,-0.01 -0.342,-0.016l-0.092 -0.006c-0.112,-0.008 -0.224,-0.015 -0.336,-0.024l-0.081 -0.007c-0.115,-0.01 -0.231,-0.02 -0.346,-0.032l-0.083 -0.009c-0.114,-0.012 -0.228,-0.024 -0.341,-0.038l-0.085 -0.011c-0.115,-0.014 -0.23,-0.03 -0.345,-0.046l-0.025 -0.004 5.687 -13.73 13.73 5.687zm-28.823 4.14c-0.093,-0.069 -0.185,-0.14 -0.277,-0.211l-0.067 -0.052c-0.09,-0.071 -0.18,-0.142 -0.269,-0.214l-0.065 -0.053c-0.089,-0.073 -0.178,-0.147 -0.267,-0.222l-0.062 -0.053c-0.086,-0.072 -0.17,-0.146 -0.254,-0.22l-0.07 -0.061c-0.085,-0.076 -0.169,-0.152 -0.253,-0.23l-0.06 -0.055c-0.081,-0.075 -0.162,-0.151 -0.242,-0.228l-0.071 -0.068c-0.078,-0.076 -0.156,-0.152 -0.232,-0.228l-0.069 -0.069c-0.079,-0.08 -0.158,-0.161 -0.236,-0.243l-0.055 -0.057c-0.078,-0.081 -0.154,-0.163 -0.23,-0.246l-0.062 -0.067c-0.071,-0.078 -0.141,-0.156 -0.211,-0.234l-0.076 -0.086c-0.068,-0.078 -0.135,-0.157 -0.202,-0.236l-0.069 -0.08c-0.067,-0.08 -0.132,-0.159 -0.197,-0.24l-0.075 -0.091c-0.06,-0.075 -0.12,-0.151 -0.179,-0.227l-0.084 -0.107c-0.059,-0.077 -0.118,-0.154 -0.176,-0.232l-0.074 -0.099c-0.057,-0.077 -0.114,-0.155 -0.17,-0.234l-0.08 -0.11c-0.055,-0.078 -0.109,-0.156 -0.163,-0.234l-0.074 -0.109c-0.053,-0.078 -0.105,-0.157 -0.157,-0.236l-0.076 -0.115c-0.051,-0.078 -0.1,-0.156 -0.15,-0.235l-0.075 -0.119c-0.047,-0.076 -0.093,-0.152 -0.139,-0.228l-0.082 -0.136c-0.042,-0.072 -0.084,-0.145 -0.126,-0.217l-0.084 -0.147c-0.04,-0.07 -0.078,-0.14 -0.117,-0.21l-0.087 -0.159c-0.037,-0.069 -0.074,-0.14 -0.111,-0.21l-0.083 -0.16c-0.036,-0.069 -0.07,-0.139 -0.105,-0.209 -0.028,-0.055 -0.056,-0.111 -0.083,-0.167 -0.032,-0.065 -0.063,-0.13 -0.094,-0.195 -0.03,-0.063 -0.059,-0.126 -0.089,-0.19 -0.028,-0.06 -0.055,-0.12 -0.082,-0.18 -0.03,-0.067 -0.06,-0.134 -0.089,-0.201 -0.028,-0.062 -0.054,-0.124 -0.08,-0.186 -0.028,-0.065 -0.056,-0.13 -0.083,-0.195 -0.027,-0.065 -0.053,-0.131 -0.079,-0.196 -0.025,-0.063 -0.051,-0.125 -0.075,-0.188 -0.027,-0.068 -0.053,-0.137 -0.079,-0.205 -0.023,-0.062 -0.047,-0.124 -0.07,-0.186 -0.024,-0.066 -0.047,-0.131 -0.071,-0.197 -0.024,-0.068 -0.048,-0.136 -0.072,-0.204 -0.02,-0.059 -0.04,-0.118 -0.059,-0.177 -0.025,-0.074 -0.05,-0.148 -0.074,-0.222 -0.018,-0.057 -0.036,-0.115 -0.054,-0.172 -0.023,-0.076 -0.047,-0.152 -0.07,-0.228 -0.017,-0.057 -0.034,-0.115 -0.05,-0.173 -0.023,-0.077 -0.045,-0.154 -0.066,-0.231 -0.016,-0.054 -0.03,-0.109 -0.045,-0.163 -0.021,-0.081 -0.043,-0.162 -0.064,-0.243l-0.038 -0.154c-0.022,-0.086 -0.043,-0.173 -0.063,-0.26l-0.032 -0.137c-0.02,-0.091 -0.04,-0.181 -0.06,-0.272l-0.028 -0.135c-0.019,-0.093 -0.038,-0.186 -0.055,-0.278l-0.024 -0.13c-0.018,-0.093 -0.035,-0.186 -0.051,-0.28l-0.022 -0.135c-0.015,-0.095 -0.031,-0.19 -0.045,-0.286l-0.017 -0.122c-0.014,-0.096 -0.028,-0.192 -0.04,-0.289l-0.017 -0.134c-0.011,-0.096 -0.022,-0.191 -0.033,-0.287l-0.012 -0.117c-0.01,-0.103 -0.02,-0.206 -0.029,-0.309l-0.009 -0.106c-0.008,-0.103 -0.016,-0.206 -0.023,-0.309l-0.007 -0.115c-0.007,-0.105 -0.012,-0.21 -0.017,-0.315l-0.004 -0.091c-0.004,-0.112 -0.008,-0.225 -0.011,-0.337l-0.002 -0.079c-0.002,-0.113 -0.004,-0.226 -0.004,-0.339l0 -0.097c0,-0.108 0.001,-0.216 0.003,-0.325l0.002 -0.099c0.002,-0.111 0.005,-0.221 0.009,-0.333l0.004 -0.081c0.005,-0.113 0.01,-0.227 0.017,-0.341l0.006 -0.092c0.007,-0.112 0.015,-0.224 0.024,-0.336l0.006 -0.081c0.01,-0.115 0.021,-0.231 0.032,-0.346l0.009 -0.083c0.012,-0.114 0.024,-0.228 0.038,-0.342l0.011 -0.084c0.015,-0.115 0.03,-0.23 0.047,-0.345l0.003 -0.025 13.73 5.687 -5.687 13.73 -0.02 -0.015zm-4.135 -28.788l0.015 -0.02c0.07,-0.093 0.14,-0.185 0.211,-0.277l0.052 -0.067c0.071,-0.091 0.143,-0.18 0.215,-0.269l0.052 -0.065c0.073,-0.09 0.147,-0.179 0.222,-0.267l0.053 -0.062c0.073,-0.086 0.146,-0.17 0.22,-0.254l0.061 -0.07c0.076,-0.085 0.153,-0.169 0.23,-0.253l0.055 -0.06c0.075,-0.082 0.152,-0.162 0.228,-0.242l0.069 -0.071c0.075,-0.079 0.151,-0.156 0.228,-0.232l0.068 -0.069c0.081,-0.08 0.162,-0.158 0.243,-0.237l0.057 -0.054c0.081,-0.078 0.163,-0.154 0.246,-0.231l0.067 -0.062c0.078,-0.07 0.156,-0.14 0.235,-0.21l0.086 -0.076c0.078,-0.068 0.156,-0.136 0.235,-0.203l0.081 -0.068c0.079,-0.067 0.159,-0.132 0.239,-0.198l0.091 -0.074c0.075,-0.061 0.151,-0.12 0.227,-0.18l0.107 -0.083c0.077,-0.059 0.154,-0.118 0.232,-0.176l0.099 -0.074c0.077,-0.057 0.155,-0.114 0.234,-0.17l0.111 -0.08c0.077,-0.055 0.155,-0.109 0.234,-0.163l0.108 -0.074c0.078,-0.053 0.157,-0.105 0.236,-0.157l0.115 -0.076c0.078,-0.051 0.157,-0.101 0.235,-0.15l0.12 -0.075c0.075,-0.047 0.151,-0.093 0.228,-0.139l0.135 -0.082c0.072,-0.042 0.145,-0.084 0.218,-0.126l0.147 -0.085c0.069,-0.039 0.139,-0.078 0.209,-0.116l0.159 -0.087c0.07,-0.037 0.14,-0.074 0.21,-0.111l0.16 -0.083c0.069,-0.036 0.139,-0.071 0.209,-0.105 0.056,-0.028 0.111,-0.056 0.167,-0.083 0.065,-0.032 0.13,-0.063 0.195,-0.094 0.064,-0.03 0.127,-0.06 0.19,-0.089 0.06,-0.028 0.12,-0.055 0.181,-0.082 0.067,-0.03 0.133,-0.06 0.201,-0.09 0.061,-0.027 0.123,-0.053 0.185,-0.08 0.065,-0.027 0.13,-0.055 0.195,-0.082 0.065,-0.027 0.131,-0.053 0.196,-0.079 0.063,-0.025 0.125,-0.051 0.188,-0.075 0.069,-0.027 0.137,-0.053 0.206,-0.079 0.062,-0.023 0.123,-0.047 0.185,-0.07 0.066,-0.024 0.132,-0.047 0.198,-0.071 0.068,-0.024 0.135,-0.048 0.204,-0.072 0.059,-0.02 0.118,-0.04 0.177,-0.059 0.074,-0.025 0.147,-0.05 0.222,-0.074 0.057,-0.018 0.114,-0.036 0.171,-0.054 0.076,-0.024 0.152,-0.047 0.228,-0.07 0.058,-0.017 0.115,-0.034 0.173,-0.051 0.077,-0.022 0.154,-0.044 0.231,-0.066 0.054,-0.015 0.109,-0.029 0.164,-0.044 0.081,-0.022 0.161,-0.043 0.243,-0.064l0.153 -0.039c0.087,-0.021 0.173,-0.042 0.26,-0.063l0.138 -0.031c0.09,-0.02 0.18,-0.041 0.271,-0.06l0.136 -0.028c0.092,-0.019 0.185,-0.038 0.278,-0.055l0.129 -0.025c0.093,-0.017 0.187,-0.034 0.28,-0.05l0.135 -0.022c0.095,-0.015 0.191,-0.031 0.286,-0.045l0.122 -0.018c0.096,-0.013 0.192,-0.027 0.289,-0.039l0.134 -0.017c0.096,-0.011 0.192,-0.022 0.288,-0.033l0.117 -0.012c0.103,-0.011 0.205,-0.021 0.308,-0.03l0.106 -0.008c0.103,-0.009 0.206,-0.017 0.31,-0.023l0.115 -0.007c0.104,-0.007 0.209,-0.013 0.314,-0.017l0.091 -0.004c0.113,-0.005 0.225,-0.009 0.337,-0.011l0.079 -0.002c0.113,-0.002 0.226,-0.004 0.339,-0.004l0.097 0c0.108,0 0.217,0.001 0.325,0.003l0.099 0.002c0.111,0.002 0.222,0.005 0.333,0.009l0.081 0.004c0.114,0.004 0.228,0.01 0.341,0.017l0.093 0.005c0.111,0.008 0.223,0.015 0.335,0.024l0.082 0.007c0.115,0.01 0.23,0.02 0.346,0.032l0.082 0.009c0.114,0.012 0.228,0.024 0.342,0.038l0.085 0.011c0.115,0.014 0.23,0.03 0.344,0.046l0.025 0.004 -5.687 13.73 -13.73 -5.687z"/>
  <path class="fil3 str0" d="M280.126 36.252c6.013,-14.517 22.657,-21.411 37.174,-15.398 14.517,6.013 21.411,22.657 15.398,37.174 -6.014,14.517 -22.657,21.411 -37.174,15.398 -14.517,-6.013 -21.411,-22.657 -15.398,-37.174zm38.63 -5.576c0.093,0.069 0.185,0.14 0.277,0.211l0.067 0.052c0.091,0.071 0.18,0.142 0.269,0.214l0.065 0.053c0.089,0.073 0.178,0.147 0.267,0.222l0.062 0.053c0.086,0.073 0.17,0.146 0.254,0.22l0.07 0.061c0.085,0.076 0.169,0.153 0.253,0.23l0.06 0.055c0.081,0.075 0.162,0.151 0.242,0.228l0.071 0.068c0.078,0.076 0.156,0.152 0.232,0.229l0.069 0.068c0.079,0.08 0.158,0.161 0.236,0.243l0.055 0.057c0.078,0.081 0.154,0.163 0.23,0.246l0.062 0.067c0.071,0.078 0.141,0.156 0.211,0.234l0.076 0.087c0.068,0.077 0.135,0.156 0.203,0.235l0.068 0.081c0.067,0.079 0.132,0.159 0.198,0.239l0.074 0.091c0.06,0.075 0.12,0.151 0.179,0.227l0.084 0.107c0.059,0.077 0.118,0.154 0.176,0.232l0.074 0.099c0.057,0.077 0.114,0.155 0.17,0.234l0.08 0.111c0.055,0.077 0.109,0.155 0.163,0.233l0.074 0.109c0.053,0.078 0.105,0.157 0.157,0.236l0.076 0.115c0.051,0.078 0.101,0.156 0.15,0.235l0.075 0.119c0.047,0.076 0.093,0.152 0.139,0.228l0.082 0.136c0.042,0.072 0.084,0.145 0.126,0.217l0.084 0.148c0.04,0.069 0.078,0.139 0.117,0.209l0.087 0.159c0.037,0.07 0.074,0.14 0.111,0.21l0.083 0.16c0.036,0.069 0.071,0.139 0.105,0.209 0.028,0.055 0.056,0.111 0.083,0.167 0.032,0.065 0.063,0.13 0.094,0.195 0.03,0.063 0.06,0.126 0.089,0.19 0.028,0.06 0.055,0.12 0.082,0.181 0.03,0.066 0.06,0.133 0.09,0.2 0.027,0.062 0.053,0.124 0.079,0.186 0.028,0.065 0.056,0.13 0.083,0.195 0.027,0.065 0.053,0.131 0.079,0.196 0.025,0.063 0.051,0.125 0.075,0.188 0.027,0.068 0.053,0.137 0.079,0.206 0.023,0.061 0.047,0.123 0.07,0.185 0.024,0.066 0.047,0.131 0.071,0.197 0.024,0.068 0.048,0.136 0.072,0.204 0.02,0.059 0.04,0.118 0.059,0.177 0.025,0.074 0.05,0.148 0.074,0.222 0.018,0.058 0.036,0.115 0.054,0.172 0.023,0.076 0.047,0.152 0.07,0.228 0.017,0.057 0.034,0.115 0.051,0.173 0.022,0.077 0.044,0.154 0.065,0.231 0.016,0.054 0.03,0.109 0.045,0.163 0.022,0.081 0.043,0.162 0.064,0.243l0.038 0.154c0.022,0.086 0.043,0.173 0.063,0.26l0.032 0.137c0.02,0.091 0.04,0.181 0.06,0.272l0.028 0.135c0.019,0.093 0.038,0.186 0.055,0.278l0.024 0.13c0.018,0.093 0.035,0.187 0.051,0.28l0.022 0.135c0.015,0.095 0.031,0.19 0.045,0.286l0.017 0.122c0.014,0.096 0.028,0.192 0.04,0.289l0.017 0.134c0.011,0.096 0.022,0.192 0.033,0.288l0.012 0.117c0.01,0.102 0.021,0.205 0.029,0.308l0.009 0.106c0.008,0.103 0.016,0.206 0.023,0.31l0.007 0.114c0.007,0.105 0.013,0.21 0.017,0.315l0.004 0.091c0.004,0.112 0.008,0.225 0.011,0.337l0.002 0.079c0.002,0.113 0.004,0.226 0.004,0.339l0 0.097c0,0.108 -0.001,0.217 -0.003,0.325l-0.002 0.099c-0.002,0.111 -0.005,0.222 -0.009,0.333l-0.004 0.081c-0.005,0.113 -0.01,0.227 -0.017,0.341l-0.006 0.092c-0.007,0.112 -0.015,0.224 -0.024,0.336l-0.006 0.082c-0.01,0.115 -0.02,0.23 -0.032,0.345l-0.009 0.083c-0.012,0.114 -0.024,0.228 -0.038,0.342l-0.011 0.084c-0.015,0.115 -0.03,0.23 -0.046,0.345l-0.004 0.025 -13.73 -5.687 5.687 -13.73 0.02 0.015zm4.135 28.788l-0.015 0.02c-0.07,0.093 -0.14,0.185 -0.211,0.277l-0.052 0.067c-0.071,0.091 -0.143,0.18 -0.215,0.269l-0.052 0.065c-0.073,0.09 -0.147,0.179 -0.222,0.267l-0.053 0.063c-0.073,0.085 -0.146,0.169 -0.22,0.254l-0.061 0.069c-0.076,0.085 -0.153,0.17 -0.23,0.253l-0.055 0.06c-0.075,0.082 -0.152,0.162 -0.228,0.242l-0.069 0.072c-0.075,0.078 -0.151,0.155 -0.228,0.231l-0.068 0.069c-0.081,0.08 -0.162,0.159 -0.243,0.237l-0.057 0.054c-0.081,0.078 -0.163,0.155 -0.246,0.231l-0.067 0.062c-0.078,0.071 -0.156,0.141 -0.235,0.21l-0.086 0.076c-0.077,0.068 -0.156,0.136 -0.235,0.203l-0.081 0.068c-0.079,0.067 -0.159,0.132 -0.239,0.198l-0.091 0.074c-0.075,0.061 -0.151,0.12 -0.227,0.18l-0.107 0.083c-0.077,0.06 -0.154,0.118 -0.232,0.176l-0.099 0.074c-0.077,0.058 -0.155,0.114 -0.234,0.17l-0.111 0.08c-0.077,0.055 -0.155,0.109 -0.233,0.163l-0.109 0.074c-0.078,0.053 -0.157,0.106 -0.236,0.158l-0.115 0.076c-0.078,0.05 -0.156,0.1 -0.235,0.149l-0.119 0.075c-0.076,0.047 -0.152,0.093 -0.229,0.139l-0.135 0.082c-0.072,0.043 -0.145,0.085 -0.217,0.126l-0.148 0.085c-0.069,0.039 -0.139,0.078 -0.209,0.116l-0.159 0.087c-0.07,0.037 -0.14,0.074 -0.21,0.111l-0.16 0.083c-0.069,0.036 -0.139,0.071 -0.209,0.106 -0.056,0.027 -0.111,0.055 -0.167,0.083 -0.065,0.031 -0.13,0.062 -0.195,0.093 -0.063,0.03 -0.127,0.06 -0.19,0.089 -0.06,0.028 -0.12,0.055 -0.181,0.082 -0.067,0.03 -0.133,0.06 -0.201,0.09 -0.061,0.027 -0.123,0.053 -0.185,0.08 -0.065,0.027 -0.13,0.055 -0.195,0.082 -0.065,0.027 -0.131,0.053 -0.196,0.079 -0.063,0.026 -0.125,0.051 -0.188,0.076 -0.069,0.026 -0.137,0.052 -0.206,0.078 -0.062,0.024 -0.123,0.047 -0.185,0.07 -0.066,0.024 -0.132,0.047 -0.197,0.071 -0.069,0.024 -0.136,0.049 -0.205,0.072 -0.058,0.02 -0.118,0.04 -0.177,0.06 -0.073,0.024 -0.147,0.049 -0.222,0.073 -0.057,0.018 -0.114,0.036 -0.171,0.054 -0.076,0.024 -0.152,0.047 -0.228,0.07 -0.058,0.017 -0.115,0.034 -0.173,0.051 -0.077,0.022 -0.154,0.044 -0.231,0.066 -0.054,0.015 -0.109,0.029 -0.164,0.044 -0.08,0.022 -0.161,0.043 -0.243,0.064l-0.153 0.039c-0.087,0.021 -0.173,0.042 -0.26,0.063l-0.137 0.031c-0.091,0.021 -0.181,0.041 -0.272,0.06l-0.136 0.028c-0.092,0.019 -0.185,0.038 -0.278,0.056l-0.129 0.024c-0.093,0.017 -0.187,0.034 -0.28,0.05l-0.135 0.022c-0.095,0.016 -0.191,0.031 -0.286,0.045l-0.122 0.018c-0.096,0.014 -0.192,0.027 -0.289,0.039l-0.134 0.017c-0.096,0.012 -0.192,0.023 -0.288,0.033l-0.117 0.012c-0.103,0.011 -0.205,0.021 -0.308,0.03l-0.106 0.008c-0.103,0.009 -0.206,0.017 -0.31,0.024l-0.114 0.006c-0.105,0.007 -0.21,0.013 -0.315,0.017l-0.091 0.004c-0.113,0.005 -0.225,0.009 -0.337,0.011l-0.079 0.002c-0.113,0.002 -0.226,0.004 -0.339,0.004l-0.097 0c-0.108,0 -0.217,-0.001 -0.325,-0.002l-0.099 -0.003c-0.111,-0.002 -0.222,-0.005 -0.333,-0.009l-0.081 -0.004c-0.113,-0.004 -0.227,-0.01 -0.341,-0.016l-0.093 -0.006c-0.111,-0.008 -0.223,-0.015 -0.335,-0.024l-0.082 -0.007c-0.115,-0.01 -0.23,-0.02 -0.345,-0.032l-0.083 -0.009c-0.114,-0.012 -0.228,-0.024 -0.342,-0.038l-0.085 -0.011c-0.115,-0.014 -0.229,-0.03 -0.344,-0.046l-0.025 -0.004 5.687 -13.73 13.73 5.687zm-28.824 4.14c-0.093,-0.069 -0.184,-0.14 -0.276,-0.211l-0.068 -0.052c-0.09,-0.071 -0.179,-0.142 -0.268,-0.214l-0.065 -0.053c-0.09,-0.073 -0.179,-0.147 -0.267,-0.222l-0.063 -0.053c-0.085,-0.072 -0.17,-0.146 -0.254,-0.22l-0.069 -0.061c-0.085,-0.076 -0.17,-0.152 -0.254,-0.23l-0.059 -0.055c-0.082,-0.075 -0.162,-0.151 -0.242,-0.228l-0.072 -0.068c-0.078,-0.076 -0.155,-0.152 -0.232,-0.228l-0.068 -0.069c-0.08,-0.08 -0.159,-0.161 -0.237,-0.243l-0.054 -0.057c-0.078,-0.081 -0.155,-0.163 -0.231,-0.246l-0.062 -0.067c-0.071,-0.078 -0.141,-0.156 -0.21,-0.234l-0.076 -0.086c-0.069,-0.078 -0.136,-0.157 -0.203,-0.236l-0.068 -0.08c-0.067,-0.08 -0.133,-0.159 -0.198,-0.24l-0.074 -0.091c-0.061,-0.075 -0.12,-0.151 -0.18,-0.227l-0.083 -0.107c-0.06,-0.077 -0.118,-0.154 -0.176,-0.232l-0.074 -0.099c-0.058,-0.077 -0.114,-0.155 -0.171,-0.234l-0.079 -0.11c-0.055,-0.078 -0.109,-0.156 -0.163,-0.234l-0.074 -0.109c-0.054,-0.078 -0.106,-0.157 -0.158,-0.236l-0.076 -0.115c-0.05,-0.078 -0.1,-0.156 -0.149,-0.235l-0.075 -0.119c-0.047,-0.076 -0.094,-0.152 -0.14,-0.228l-0.081 -0.136c-0.043,-0.072 -0.085,-0.145 -0.126,-0.217l-0.085 -0.147c-0.039,-0.07 -0.078,-0.14 -0.116,-0.21l-0.087 -0.159c-0.038,-0.069 -0.074,-0.14 -0.111,-0.21l-0.083 -0.16c-0.036,-0.069 -0.071,-0.139 -0.106,-0.209 -0.027,-0.055 -0.055,-0.111 -0.083,-0.167 -0.031,-0.065 -0.062,-0.13 -0.093,-0.195 -0.03,-0.063 -0.06,-0.126 -0.089,-0.19 -0.028,-0.06 -0.055,-0.12 -0.082,-0.18 -0.03,-0.067 -0.06,-0.134 -0.09,-0.201 -0.027,-0.062 -0.053,-0.124 -0.08,-0.186 -0.027,-0.065 -0.055,-0.13 -0.082,-0.195 -0.027,-0.065 -0.053,-0.131 -0.08,-0.196 -0.025,-0.063 -0.05,-0.125 -0.075,-0.188 -0.026,-0.068 -0.052,-0.137 -0.078,-0.205 -0.024,-0.062 -0.047,-0.124 -0.07,-0.186 -0.024,-0.066 -0.047,-0.131 -0.071,-0.197 -0.024,-0.068 -0.049,-0.136 -0.072,-0.204 -0.02,-0.059 -0.04,-0.118 -0.06,-0.177 -0.024,-0.074 -0.049,-0.148 -0.073,-0.222 -0.018,-0.057 -0.036,-0.115 -0.054,-0.172 -0.024,-0.076 -0.047,-0.152 -0.07,-0.228 -0.017,-0.057 -0.034,-0.115 -0.051,-0.173 -0.022,-0.077 -0.044,-0.154 -0.066,-0.231 -0.015,-0.054 -0.029,-0.109 -0.044,-0.163 -0.022,-0.081 -0.044,-0.162 -0.064,-0.243l-0.039 -0.154c-0.021,-0.086 -0.042,-0.173 -0.063,-0.26l-0.031 -0.137c-0.021,-0.091 -0.041,-0.181 -0.06,-0.272l-0.028 -0.135c-0.019,-0.093 -0.038,-0.186 -0.056,-0.278l-0.024 -0.13c-0.017,-0.093 -0.034,-0.186 -0.05,-0.28l-0.022 -0.135c-0.016,-0.095 -0.031,-0.19 -0.045,-0.286l-0.018 -0.122c-0.014,-0.096 -0.027,-0.192 -0.039,-0.289l-0.017 -0.134c-0.012,-0.096 -0.023,-0.191 -0.033,-0.287l-0.012 -0.117c-0.011,-0.103 -0.021,-0.206 -0.03,-0.309l-0.008 -0.106c-0.009,-0.103 -0.017,-0.206 -0.024,-0.309l-0.007 -0.115c-0.006,-0.105 -0.012,-0.21 -0.017,-0.315l-0.003 -0.091c-0.005,-0.112 -0.009,-0.225 -0.012,-0.337l-0.001 -0.079c-0.002,-0.113 -0.004,-0.226 -0.004,-0.339l0 -0.097c0,-0.108 0,-0.216 0.002,-0.325l0.003 -0.099c0.002,-0.111 0.005,-0.221 0.009,-0.333l0.004 -0.081c0.004,-0.113 0.01,-0.227 0.016,-0.341l0.006 -0.092c0.007,-0.112 0.015,-0.224 0.024,-0.336l0.007 -0.081c0.01,-0.115 0.02,-0.231 0.032,-0.346l0.008 -0.083c0.012,-0.114 0.025,-0.228 0.039,-0.342l0.011 -0.084c0.014,-0.115 0.03,-0.23 0.046,-0.345l0.004 -0.025 13.73 5.687 -5.687 13.73 -0.021 -0.015zm-4.134 -28.788l0.015 -0.02c0.069,-0.093 0.14,-0.185 0.211,-0.277l0.052 -0.067c0.071,-0.091 0.142,-0.18 0.214,-0.269l0.053 -0.065c0.073,-0.09 0.147,-0.179 0.222,-0.267l0.052 -0.062c0.073,-0.086 0.147,-0.17 0.221,-0.254l0.061 -0.07c0.076,-0.085 0.152,-0.169 0.229,-0.253l0.055 -0.06c0.076,-0.082 0.152,-0.162 0.229,-0.242l0.068 -0.071c0.076,-0.079 0.152,-0.156 0.228,-0.232l0.069 -0.069c0.08,-0.08 0.161,-0.158 0.243,-0.237l0.056 -0.054c0.082,-0.078 0.164,-0.154 0.247,-0.231l0.067 -0.062c0.077,-0.07 0.156,-0.14 0.234,-0.21l0.086 -0.076c0.078,-0.068 0.157,-0.136 0.236,-0.203l0.08 -0.068c0.08,-0.067 0.159,-0.132 0.24,-0.198l0.091 -0.074c0.075,-0.061 0.151,-0.12 0.227,-0.18l0.106 -0.083c0.077,-0.059 0.155,-0.118 0.233,-0.176l0.098 -0.074c0.078,-0.057 0.156,-0.114 0.234,-0.17l0.111 -0.08c0.078,-0.055 0.156,-0.109 0.234,-0.163l0.109 -0.074c0.078,-0.053 0.157,-0.105 0.235,-0.157l0.116 -0.076c0.078,-0.051 0.156,-0.101 0.235,-0.15l0.119 -0.075c0.076,-0.047 0.152,-0.093 0.228,-0.139l0.136 -0.082c0.072,-0.042 0.144,-0.084 0.217,-0.126l0.147 -0.085c0.07,-0.039 0.14,-0.078 0.21,-0.116l0.159 -0.087c0.069,-0.037 0.14,-0.074 0.21,-0.111l0.16 -0.083c0.069,-0.036 0.139,-0.071 0.209,-0.105 0.055,-0.028 0.111,-0.056 0.167,-0.083 0.065,-0.032 0.13,-0.063 0.195,-0.094 0.063,-0.03 0.126,-0.06 0.19,-0.089 0.06,-0.028 0.12,-0.055 0.18,-0.082 0.067,-0.03 0.134,-0.06 0.201,-0.09 0.062,-0.027 0.124,-0.053 0.186,-0.08 0.065,-0.027 0.13,-0.055 0.195,-0.082 0.065,-0.027 0.131,-0.053 0.196,-0.079 0.062,-0.025 0.125,-0.051 0.188,-0.075 0.068,-0.027 0.137,-0.053 0.205,-0.079 0.062,-0.023 0.124,-0.047 0.186,-0.07 0.066,-0.024 0.131,-0.047 0.197,-0.071 0.068,-0.024 0.136,-0.048 0.204,-0.072 0.059,-0.02 0.118,-0.04 0.177,-0.059 0.074,-0.025 0.148,-0.05 0.222,-0.074 0.057,-0.018 0.115,-0.036 0.172,-0.054 0.076,-0.024 0.152,-0.047 0.227,-0.07 0.058,-0.017 0.116,-0.034 0.174,-0.051 0.077,-0.022 0.153,-0.044 0.231,-0.066 0.054,-0.015 0.109,-0.029 0.163,-0.044 0.081,-0.022 0.162,-0.043 0.243,-0.064l0.154 -0.039c0.086,-0.021 0.173,-0.042 0.259,-0.063l0.138 -0.031c0.09,-0.02 0.181,-0.041 0.272,-0.06l0.135 -0.028c0.093,-0.019 0.185,-0.038 0.278,-0.055l0.13 -0.025c0.093,-0.017 0.186,-0.034 0.28,-0.05l0.135 -0.022c0.095,-0.015 0.19,-0.031 0.286,-0.045l0.122 -0.018c0.096,-0.013 0.192,-0.027 0.288,-0.039l0.135 -0.017c0.096,-0.011 0.191,-0.022 0.287,-0.033l0.117 -0.012c0.103,-0.011 0.206,-0.021 0.309,-0.03l0.106 -0.008c0.103,-0.009 0.206,-0.017 0.309,-0.023l0.115 -0.007c0.105,-0.007 0.21,-0.013 0.315,-0.017l0.091 -0.004c0.112,-0.005 0.224,-0.009 0.337,-0.011l0.079 -0.002c0.113,-0.002 0.226,-0.004 0.339,-0.004l0.097 0c0.108,0 0.216,0.001 0.325,0.003l0.099 0.002c0.111,0.002 0.221,0.005 0.333,0.009l0.081 0.004c0.113,0.004 0.227,0.01 0.341,0.017l0.092 0.005c0.112,0.008 0.224,0.015 0.336,0.024l0.081 0.007c0.115,0.01 0.231,0.02 0.346,0.032l0.083 0.009c0.114,0.012 0.228,0.024 0.342,0.038l0.084 0.011c0.115,0.014 0.23,0.03 0.345,0.046l0.025 0.004 -5.687 13.73 -13.73 -5.687z"/>
 </g>
</svg>
