<?xml version="1.0" encoding="UTF-8"?>
<!DOCTYPE svg PUBLIC "-//W3C//DTD SVG 1.1//EN" "http://www.w3.org/Graphics/SVG/1.1/DTD/svg11.dtd">
<!-- Creator: CorelDRAW 2019 (64-Bit) -->
<svg xmlns="http://www.w3.org/2000/svg" xml:space="preserve" width="750px" height="200px" version="1.1" style="shape-rendering:geometricPrecision; text-rendering:geometricPrecision; image-rendering:optimizeQuality; fill-rule:evenodd; clip-rule:evenodd"
viewBox="0 0 353.551 94.28"
 xmlns:xlink="http://www.w3.org/1999/xlink"
 xmlns:xodm="http://www.corel.com/coreldraw/odm/2003">
 <defs>
  <style type="text/css">
   <![CDATA[
    .str0 {stroke:black;stroke-width:0.267;stroke-miterlimit:22.9256}
    .fil0 {fill:none}
    .fil3 {fill:#4D4D4D}
    .fil2 {fill:#663333}
    .fil1 {fill:#B3B3B3}
   ]]>
  </style>
 </defs>
 <g id="Слой_x0020_1">
  <metadata id="CorelCorpID_0Corel-Layer"/>
  <rect class="fil0" width="353.551" height="94.28"/>
  <rect class="fil1 str0" x="53.032" y="75.592" width="23.57" height="9.428"/>
  <rect class="fil2 str0" x="76.602" y="75.592" width="23.57" height="9.428"/>
  <rect class="fil1 str0" x="100.172" y="75.592" width="23.57" height="9.428"/>
  <rect class="fil2 str0" x="123.743" y="75.592" width="23.57" height="9.428"/>
  <rect class="fil1 str0" x="147.313" y="75.592" width="23.57" height="9.428"/>
  <rect class="fil2 str0" x="170.883" y="75.592" width="23.57" height="9.428"/>
  <rect class="fil1 str0" x="194.453" y="75.592" width="23.57" height="9.428"/>
  <rect class="fil2 str0" x="218.024" y="75.592" width="23.57" height="9.428"/>
  <rect class="fil1 str0" x="241.594" y="75.592" width="23.57" height="9.428"/>
  <rect class="fil2 str0" x="265.164" y="75.592" width="23.57" height="9.428"/>
  <rect class="fil1 str0" x="288.734" y="75.592" width="23.57" height="9.428"/>
  <rect class="fil2 str0" x="276.949" y="9.261" width="23.57" height="9.428"/>
  <rect class="fil1 str0" x="253.379" y="9.261" width="23.57" height="9.428"/>
  <rect class="fil2 str0" x="229.809" y="9.261" width="23.57" height="9.428"/>
  <rect class="fil1 str0" x="206.238" y="9.261" width="23.57" height="9.428"/>
  <rect class="fil2 str0" x="182.668" y="9.261" width="23.57" height="9.428"/>
  <rect class="fil1 str0" x="159.098" y="9.261" width="23.57" height="9.428"/>
  <rect class="fil2 str0" x="135.528" y="9.261" width="23.57" height="9.428"/>
  <rect class="fil1 str0" x="111.957" y="9.261" width="23.57" height="9.428"/>
  <rect class="fil2 str0" x="88.387" y="9.261" width="23.57" height="9.428"/>
  <rect class="fil1 str0" x="64.817" y="9.261" width="23.57" height="9.428"/>
  <rect class="fil2 str0" x="41.247" y="9.261" width="23.57" height="9.428"/>
  <rect class="fil1 str0" transform="matrix(-0.856595 0.453452 -0.239928 -0.453237 41.232 18.6509)" width="24.319" height="18.385"/>
  <rect class="fil2 str0" transform="matrix(-0.0617799 0.967242 -0.511782 -0.0326887 20.4006 29.6783)" width="24.319" height="18.385"/>
  <rect class="fil1 str0" transform="matrix(0.441685 0.862722 -0.456479 0.233702 18.891 53.2039)" width="24.319" height="18.385"/>
  <rect class="fil2 str0" transform="matrix(0.967862 0.0511517 -0.0270651 0.51211 29.4946 74.3479)" width="24.319" height="18.385"/>
  <rect class="fil2 str0" transform="matrix(0.856595 -0.453452 0.239928 0.453237 312.319 75.6295)" width="24.319" height="18.385"/>
  <rect class="fil1 str0" transform="matrix(0.0617799 -0.967242 0.511782 0.0326887 333.15 64.6021)" width="24.319" height="18.385"/>
  <rect class="fil2 str0" transform="matrix(-0.441685 -0.862722 0.456479 -0.233702 334.66 41.0765)" width="24.319" height="18.385"/>
  <rect class="fil1 str0" transform="matrix(-0.967862 -0.0511517 0.0270651 -0.51211 324.056 19.9325)" width="24.319" height="18.385"/>
  <path class="fil3 str0" d="M19.234 41.589c3.066,-15.411 18.044,-25.419 33.456,-22.354 15.411,3.066 25.42,18.044 22.354,33.456 -3.065,15.411 -18.044,25.42 -33.455,22.354 -15.412,-3.065 -25.42,-18.044 -22.355,-33.456zm36.8 -13.005c0.105,0.05 0.209,0.101 0.313,0.153l0.076 0.038c0.103,0.052 0.204,0.104 0.306,0.158l0.073 0.039c0.103,0.054 0.204,0.109 0.306,0.165l0.071 0.04c0.098,0.055 0.195,0.11 0.292,0.167l0.081 0.046c0.098,0.058 0.195,0.116 0.293,0.175l0.069 0.043c0.095,0.058 0.188,0.117 0.282,0.177l0.083 0.053c0.091,0.058 0.182,0.118 0.272,0.178l0.081 0.054c0.094,0.063 0.187,0.127 0.279,0.192l0.065 0.045c0.092,0.065 0.183,0.13 0.274,0.197l0.074 0.053c0.085,0.063 0.168,0.126 0.252,0.189l0.091 0.07c0.083,0.063 0.164,0.127 0.245,0.191l0.083 0.066c0.081,0.065 0.161,0.13 0.24,0.196l0.091 0.075c0.074,0.062 0.147,0.124 0.22,0.187l0.103 0.089c0.073,0.064 0.146,0.128 0.218,0.193l0.092 0.083c0.071,0.065 0.142,0.13 0.213,0.196l0.099 0.093c0.069,0.065 0.137,0.131 0.205,0.198l0.095 0.092c0.067,0.066 0.134,0.133 0.2,0.2l0.097 0.099c0.065,0.066 0.129,0.133 0.193,0.201l0.097 0.102c0.06,0.065 0.121,0.131 0.181,0.197l0.106 0.117c0.056,0.062 0.111,0.125 0.166,0.188l0.112 0.128c0.052,0.061 0.103,0.122 0.155,0.183l0.116 0.139c0.05,0.061 0.1,0.123 0.15,0.184l0.113 0.141c0.048,0.061 0.096,0.123 0.144,0.184 0.038,0.049 0.076,0.098 0.114,0.148 0.043,0.057 0.086,0.115 0.129,0.173 0.042,0.056 0.084,0.112 0.125,0.169 0.039,0.053 0.077,0.107 0.116,0.161 0.042,0.06 0.085,0.119 0.127,0.18 0.038,0.055 0.076,0.11 0.114,0.166 0.04,0.058 0.08,0.117 0.119,0.175 0.039,0.059 0.078,0.118 0.116,0.177 0.037,0.057 0.074,0.113 0.111,0.17 0.039,0.062 0.078,0.124 0.117,0.186 0.035,0.056 0.07,0.112 0.105,0.169 0.036,0.059 0.072,0.119 0.107,0.179 0.037,0.062 0.075,0.124 0.111,0.186 0.031,0.054 0.062,0.108 0.093,0.162 0.039,0.068 0.077,0.135 0.115,0.203 0.029,0.053 0.058,0.106 0.087,0.158 0.038,0.07 0.076,0.14 0.113,0.21 0.028,0.053 0.056,0.106 0.083,0.16 0.037,0.071 0.074,0.142 0.11,0.213 0.026,0.051 0.05,0.102 0.076,0.152 0.037,0.075 0.074,0.15 0.11,0.226l0.068 0.143c0.037,0.081 0.075,0.162 0.112,0.243l0.058 0.128c0.037,0.085 0.075,0.17 0.111,0.255l0.054 0.128c0.037,0.087 0.074,0.174 0.109,0.261l0.049 0.123c0.035,0.088 0.07,0.176 0.104,0.265l0.048 0.128c0.034,0.09 0.067,0.18 0.1,0.271l0.041 0.116c0.032,0.092 0.064,0.184 0.095,0.276l0.043 0.129c0.03,0.091 0.059,0.183 0.088,0.275l0.035 0.112c0.03,0.099 0.06,0.198 0.089,0.298l0.029 0.101c0.028,0.1 0.056,0.2 0.083,0.3l0.03 0.111c0.026,0.101 0.052,0.203 0.078,0.305l0.021 0.089c0.026,0.109 0.052,0.218 0.077,0.328l0.017 0.077c0.024,0.11 0.047,0.221 0.07,0.332l0.019 0.095c0.021,0.106 0.041,0.212 0.061,0.319l0.017 0.098c0.019,0.109 0.038,0.218 0.055,0.328l0.013 0.08c0.017,0.112 0.034,0.225 0.05,0.338l0.012 0.092c0.015,0.111 0.029,0.222 0.042,0.334l0.009 0.081c0.013,0.115 0.026,0.23 0.037,0.345l0.007 0.083c0.011,0.114 0.021,0.228 0.029,0.343l0.006 0.085c0.008,0.116 0.016,0.231 0.022,0.347l0.001 0.025 -14.575 -2.899 2.899 -14.576 0.022 0.011zm9.672 27.429l-0.011 0.022c-0.05,0.105 -0.101,0.209 -0.153,0.313l-0.038 0.076c-0.051,0.102 -0.104,0.204 -0.157,0.305l-0.039 0.074c-0.055,0.102 -0.11,0.204 -0.166,0.305l-0.04 0.072c-0.054,0.098 -0.11,0.195 -0.166,0.292l-0.047 0.08c-0.057,0.099 -0.116,0.196 -0.175,0.293l-0.042 0.07c-0.059,0.094 -0.118,0.188 -0.177,0.282l-0.053 0.083c-0.059,0.091 -0.119,0.182 -0.179,0.272l-0.054 0.081c-0.063,0.093 -0.127,0.187 -0.192,0.279l-0.045 0.065c-0.064,0.092 -0.13,0.183 -0.196,0.274l-0.054 0.074c-0.062,0.084 -0.125,0.168 -0.189,0.252l-0.069 0.091c-0.063,0.082 -0.127,0.164 -0.192,0.245l-0.066 0.083c-0.064,0.08 -0.13,0.16 -0.196,0.24l-0.075 0.091c-0.062,0.074 -0.124,0.147 -0.187,0.22l-0.089 0.103c-0.063,0.073 -0.128,0.146 -0.193,0.218l-0.082 0.092c-0.065,0.071 -0.131,0.142 -0.197,0.212l-0.093 0.1c-0.065,0.069 -0.131,0.137 -0.197,0.205l-0.092 0.095c-0.067,0.067 -0.134,0.133 -0.201,0.2l-0.099 0.097c-0.066,0.065 -0.133,0.129 -0.2,0.192l-0.103 0.097c-0.065,0.061 -0.131,0.121 -0.197,0.181l-0.117 0.107c-0.062,0.056 -0.125,0.111 -0.188,0.166l-0.128 0.111c-0.061,0.053 -0.122,0.104 -0.183,0.156l-0.138 0.116c-0.061,0.05 -0.123,0.1 -0.185,0.15l-0.14 0.113c-0.062,0.048 -0.123,0.096 -0.185,0.144 -0.049,0.038 -0.098,0.076 -0.148,0.113 -0.057,0.044 -0.115,0.087 -0.173,0.13 -0.056,0.042 -0.112,0.083 -0.168,0.125 -0.054,0.039 -0.108,0.077 -0.162,0.115 -0.059,0.043 -0.119,0.085 -0.179,0.127 -0.056,0.039 -0.111,0.077 -0.167,0.115 -0.058,0.04 -0.116,0.08 -0.175,0.119 -0.059,0.039 -0.118,0.078 -0.177,0.116 -0.056,0.037 -0.113,0.074 -0.169,0.11 -0.062,0.04 -0.124,0.079 -0.187,0.118 -0.056,0.035 -0.112,0.07 -0.168,0.104 -0.06,0.037 -0.12,0.072 -0.18,0.108 -0.062,0.037 -0.123,0.074 -0.186,0.111 -0.054,0.031 -0.108,0.062 -0.162,0.093 -0.067,0.038 -0.135,0.077 -0.203,0.115 -0.053,0.029 -0.105,0.058 -0.158,0.087 -0.07,0.038 -0.139,0.075 -0.209,0.113 -0.054,0.028 -0.107,0.056 -0.161,0.083 -0.071,0.037 -0.142,0.074 -0.213,0.11 -0.05,0.025 -0.101,0.05 -0.152,0.075 -0.075,0.037 -0.15,0.074 -0.226,0.111l-0.143 0.067c-0.08,0.038 -0.161,0.076 -0.242,0.113l-0.129 0.057c-0.085,0.038 -0.17,0.076 -0.255,0.112l-0.127 0.054c-0.087,0.037 -0.175,0.073 -0.262,0.109l-0.122 0.049c-0.088,0.035 -0.177,0.07 -0.265,0.104l-0.128 0.048c-0.091,0.033 -0.181,0.067 -0.272,0.1l-0.116 0.041c-0.092,0.032 -0.183,0.064 -0.276,0.095l-0.128 0.042c-0.092,0.03 -0.184,0.06 -0.276,0.089l-0.112 0.035c-0.099,0.03 -0.198,0.06 -0.297,0.089l-0.102 0.029c-0.1,0.028 -0.199,0.056 -0.299,0.083l-0.112 0.029c-0.101,0.027 -0.203,0.053 -0.305,0.078l-0.088 0.022c-0.11,0.026 -0.219,0.052 -0.329,0.077l-0.077 0.016c-0.11,0.025 -0.221,0.048 -0.331,0.071l-0.096 0.019c-0.106,0.021 -0.212,0.041 -0.319,0.061l-0.097 0.017c-0.109,0.019 -0.219,0.038 -0.329,0.055l-0.08 0.013c-0.112,0.017 -0.225,0.034 -0.338,0.05l-0.092 0.012c-0.111,0.015 -0.222,0.029 -0.333,0.042l-0.082 0.009c-0.114,0.013 -0.23,0.025 -0.345,0.037l-0.083 0.007c-0.114,0.011 -0.228,0.02 -0.342,0.029l-0.086 0.006c-0.115,0.008 -0.231,0.016 -0.347,0.022l-0.025 0.001 2.9 -14.576 14.575 2.9zm-27.462 9.683c-0.105,-0.05 -0.209,-0.101 -0.312,-0.153l-0.077 -0.038c-0.102,-0.052 -0.204,-0.104 -0.305,-0.158l-0.074 -0.038c-0.102,-0.055 -0.204,-0.11 -0.305,-0.166l-0.072 -0.04c-0.098,-0.055 -0.195,-0.11 -0.292,-0.166l-0.08 -0.047c-0.098,-0.057 -0.196,-0.116 -0.293,-0.175l-0.069 -0.043c-0.095,-0.058 -0.189,-0.117 -0.282,-0.177l-0.084 -0.052c-0.091,-0.059 -0.182,-0.119 -0.272,-0.179l-0.08 -0.054c-0.094,-0.063 -0.187,-0.127 -0.28,-0.192l-0.064 -0.045c-0.093,-0.065 -0.184,-0.13 -0.274,-0.196l-0.074 -0.054c-0.085,-0.062 -0.169,-0.126 -0.252,-0.189l-0.092 -0.07c-0.082,-0.063 -0.163,-0.127 -0.244,-0.191l-0.083 -0.066c-0.081,-0.064 -0.161,-0.13 -0.241,-0.196l-0.09 -0.075c-0.074,-0.062 -0.148,-0.124 -0.221,-0.187l-0.103 -0.089c-0.073,-0.064 -0.145,-0.128 -0.218,-0.193l-0.091 -0.083c-0.072,-0.064 -0.142,-0.13 -0.213,-0.196l-0.1 -0.093c-0.069,-0.065 -0.137,-0.131 -0.205,-0.198l-0.094 -0.092c-0.068,-0.066 -0.134,-0.133 -0.2,-0.2l-0.097 -0.099c-0.065,-0.066 -0.129,-0.133 -0.193,-0.201l-0.097 -0.102c-0.061,-0.065 -0.121,-0.131 -0.181,-0.197l-0.106 -0.117c-0.056,-0.062 -0.112,-0.125 -0.167,-0.188l-0.111 -0.128c-0.052,-0.061 -0.104,-0.122 -0.155,-0.183l-0.116 -0.139c-0.051,-0.061 -0.101,-0.122 -0.15,-0.184l-0.113 -0.141c-0.049,-0.061 -0.096,-0.122 -0.144,-0.184 -0.038,-0.049 -0.076,-0.098 -0.114,-0.148 -0.044,-0.057 -0.087,-0.115 -0.13,-0.173 -0.041,-0.056 -0.083,-0.112 -0.124,-0.169 -0.039,-0.053 -0.078,-0.107 -0.116,-0.161 -0.043,-0.06 -0.085,-0.119 -0.127,-0.179 -0.039,-0.056 -0.077,-0.111 -0.115,-0.167 -0.04,-0.058 -0.079,-0.117 -0.119,-0.175 -0.039,-0.059 -0.077,-0.118 -0.116,-0.177 -0.037,-0.056 -0.074,-0.113 -0.11,-0.17 -0.039,-0.061 -0.078,-0.123 -0.117,-0.186 -0.035,-0.056 -0.07,-0.112 -0.105,-0.168 -0.036,-0.06 -0.072,-0.12 -0.108,-0.18 -0.037,-0.062 -0.074,-0.123 -0.11,-0.186 -0.032,-0.054 -0.062,-0.108 -0.093,-0.162 -0.039,-0.068 -0.078,-0.135 -0.116,-0.203 -0.029,-0.053 -0.057,-0.106 -0.086,-0.158 -0.038,-0.07 -0.076,-0.14 -0.113,-0.21 -0.029,-0.053 -0.056,-0.106 -0.084,-0.16 -0.037,-0.071 -0.073,-0.142 -0.11,-0.213 -0.025,-0.051 -0.05,-0.101 -0.075,-0.152 -0.037,-0.075 -0.074,-0.15 -0.11,-0.226l-0.068 -0.143c-0.038,-0.081 -0.076,-0.161 -0.112,-0.242l-0.058 -0.129c-0.038,-0.085 -0.075,-0.17 -0.112,-0.255l-0.054 -0.128c-0.036,-0.087 -0.073,-0.174 -0.109,-0.261l-0.048 -0.122c-0.036,-0.089 -0.07,-0.177 -0.104,-0.266l-0.048 -0.127c-0.034,-0.091 -0.068,-0.181 -0.1,-0.272l-0.041 -0.116c-0.033,-0.092 -0.065,-0.184 -0.096,-0.276l-0.042 -0.129c-0.03,-0.091 -0.06,-0.183 -0.089,-0.275l-0.034 -0.112c-0.031,-0.099 -0.061,-0.198 -0.09,-0.297l-0.029 -0.102c-0.028,-0.1 -0.056,-0.199 -0.083,-0.299l-0.029 -0.112c-0.027,-0.101 -0.053,-0.203 -0.078,-0.305l-0.021 -0.089c-0.027,-0.109 -0.053,-0.218 -0.077,-0.328l-0.017 -0.077c-0.024,-0.11 -0.048,-0.221 -0.071,-0.331l-0.018 -0.096c-0.021,-0.106 -0.042,-0.212 -0.061,-0.319l-0.017 -0.097c-0.02,-0.11 -0.038,-0.219 -0.056,-0.329l-0.012 -0.08c-0.018,-0.112 -0.035,-0.225 -0.05,-0.338l-0.013 -0.092c-0.014,-0.111 -0.029,-0.222 -0.042,-0.334l-0.009 -0.081c-0.013,-0.115 -0.025,-0.23 -0.036,-0.345l-0.008 -0.083c-0.01,-0.114 -0.02,-0.228 -0.029,-0.343l-0.006 -0.085c-0.008,-0.115 -0.015,-0.231 -0.021,-0.347l-0.002 -0.025 14.576 2.899 -2.899 14.576 -0.023 -0.011zm-9.671 -27.429l0.01 -0.022c0.05,-0.105 0.101,-0.209 0.153,-0.312l0.038 -0.077c0.052,-0.102 0.105,-0.204 0.158,-0.305l0.039 -0.074c0.054,-0.102 0.11,-0.204 0.166,-0.305l0.039 -0.072c0.055,-0.098 0.11,-0.195 0.167,-0.292l0.046 -0.08c0.058,-0.099 0.116,-0.196 0.176,-0.293l0.042 -0.07c0.058,-0.094 0.117,-0.188 0.177,-0.282l0.053 -0.083c0.059,-0.091 0.118,-0.182 0.178,-0.272l0.054 -0.081c0.063,-0.093 0.128,-0.186 0.192,-0.279l0.045 -0.065c0.065,-0.092 0.131,-0.183 0.197,-0.274l0.054 -0.073c0.062,-0.085 0.125,-0.169 0.188,-0.252l0.07 -0.092c0.063,-0.082 0.127,-0.164 0.191,-0.245l0.066 -0.083c0.065,-0.08 0.13,-0.16 0.196,-0.24l0.075 -0.091c0.062,-0.074 0.125,-0.147 0.188,-0.22l0.088 -0.103c0.064,-0.073 0.129,-0.146 0.194,-0.218l0.082 -0.092c0.065,-0.071 0.13,-0.142 0.196,-0.212l0.093 -0.1c0.066,-0.069 0.132,-0.137 0.198,-0.205l0.092 -0.094c0.066,-0.068 0.133,-0.134 0.2,-0.201l0.099 -0.097c0.066,-0.065 0.134,-0.129 0.201,-0.192l0.102 -0.097c0.065,-0.061 0.131,-0.121 0.197,-0.181l0.117 -0.107c0.063,-0.056 0.125,-0.111 0.189,-0.166l0.128 -0.111c0.06,-0.052 0.121,-0.104 0.182,-0.156l0.139 -0.115c0.061,-0.051 0.123,-0.101 0.185,-0.151l0.14 -0.112c0.061,-0.049 0.123,-0.097 0.184,-0.144 0.05,-0.038 0.099,-0.077 0.148,-0.114 0.058,-0.044 0.116,-0.087 0.174,-0.13 0.056,-0.042 0.112,-0.083 0.168,-0.125 0.053,-0.038 0.107,-0.077 0.161,-0.115 0.06,-0.043 0.12,-0.085 0.18,-0.127 0.055,-0.039 0.111,-0.077 0.167,-0.115 0.058,-0.04 0.116,-0.08 0.175,-0.119 0.058,-0.039 0.117,-0.077 0.176,-0.116 0.057,-0.037 0.113,-0.074 0.17,-0.11 0.062,-0.04 0.124,-0.079 0.186,-0.117 0.056,-0.035 0.112,-0.071 0.169,-0.105 0.059,-0.037 0.119,-0.072 0.179,-0.108 0.062,-0.037 0.124,-0.074 0.186,-0.111 0.054,-0.031 0.108,-0.062 0.162,-0.093 0.068,-0.038 0.136,-0.077 0.204,-0.115 0.052,-0.029 0.105,-0.058 0.158,-0.086 0.069,-0.038 0.139,-0.076 0.209,-0.114 0.053,-0.028 0.107,-0.056 0.16,-0.083 0.071,-0.037 0.142,-0.074 0.213,-0.11 0.051,-0.025 0.102,-0.05 0.152,-0.075 0.076,-0.037 0.151,-0.074 0.226,-0.111l0.143 -0.067c0.081,-0.038 0.162,-0.076 0.243,-0.113l0.129 -0.057c0.084,-0.038 0.169,-0.075 0.254,-0.112l0.128 -0.054c0.087,-0.037 0.174,-0.073 0.262,-0.109l0.122 -0.049c0.088,-0.035 0.176,-0.07 0.265,-0.104l0.128 -0.048c0.09,-0.033 0.181,-0.067 0.271,-0.099l0.117 -0.041c0.091,-0.033 0.183,-0.065 0.275,-0.096l0.129 -0.042c0.091,-0.03 0.183,-0.06 0.275,-0.089l0.113 -0.035c0.099,-0.03 0.197,-0.06 0.297,-0.089l0.102 -0.029c0.099,-0.028 0.199,-0.056 0.299,-0.083l0.111 -0.029c0.102,-0.027 0.203,-0.053 0.305,-0.078l0.089 -0.022c0.109,-0.026 0.219,-0.052 0.328,-0.076l0.077 -0.017c0.111,-0.024 0.221,-0.048 0.332,-0.071l0.095 -0.019c0.106,-0.021 0.213,-0.041 0.32,-0.061l0.097 -0.016c0.109,-0.02 0.218,-0.039 0.328,-0.056l0.08 -0.012c0.113,-0.018 0.225,-0.035 0.338,-0.05l0.092 -0.013c0.111,-0.015 0.222,-0.029 0.334,-0.042l0.081 -0.009c0.115,-0.013 0.23,-0.025 0.345,-0.036l0.083 -0.008c0.114,-0.01 0.229,-0.02 0.343,-0.029l0.085 -0.006c0.116,-0.008 0.231,-0.015 0.347,-0.022l0.025 -0.001 -2.899 14.576 -14.575 -2.9z"/>
  <path class="fil3 str0" d="M278.507 41.589c3.065,-15.411 18.044,-25.419 33.455,-22.354 15.412,3.066 25.42,18.044 22.355,33.456 -3.066,15.411 -18.044,25.42 -33.456,22.354 -15.411,-3.065 -25.42,-18.044 -22.354,-33.456zm36.8 -13.005c0.105,0.05 0.209,0.101 0.312,0.153l0.077 0.038c0.102,0.052 0.204,0.104 0.305,0.158l0.074 0.039c0.102,0.054 0.204,0.109 0.305,0.165l0.072 0.04c0.098,0.055 0.195,0.11 0.292,0.167l0.08 0.046c0.098,0.058 0.196,0.116 0.293,0.175l0.069 0.043c0.095,0.058 0.189,0.117 0.283,0.177l0.083 0.053c0.091,0.058 0.182,0.118 0.272,0.178l0.081 0.054c0.093,0.063 0.186,0.127 0.279,0.192l0.065 0.045c0.092,0.065 0.183,0.13 0.273,0.197l0.074 0.053c0.085,0.063 0.169,0.126 0.252,0.189l0.092 0.07c0.082,0.063 0.163,0.127 0.244,0.191l0.084 0.066c0.08,0.065 0.16,0.13 0.24,0.196l0.091 0.075c0.074,0.062 0.147,0.124 0.22,0.187l0.103 0.089c0.073,0.064 0.145,0.128 0.218,0.193l0.092 0.083c0.071,0.065 0.142,0.13 0.212,0.196l0.1 0.093c0.069,0.065 0.137,0.131 0.205,0.198l0.094 0.092c0.068,0.066 0.134,0.133 0.2,0.2l0.098 0.099c0.064,0.066 0.128,0.133 0.192,0.201l0.097 0.102c0.061,0.065 0.121,0.131 0.181,0.197l0.106 0.117c0.056,0.062 0.112,0.125 0.167,0.188l0.111 0.128c0.052,0.061 0.104,0.122 0.156,0.183l0.115 0.139c0.051,0.061 0.101,0.123 0.151,0.184l0.112 0.141c0.049,0.061 0.097,0.123 0.144,0.184 0.038,0.049 0.077,0.098 0.114,0.148 0.044,0.057 0.087,0.115 0.13,0.173 0.042,0.056 0.083,0.112 0.124,0.169 0.039,0.053 0.078,0.107 0.116,0.161 0.043,0.06 0.085,0.119 0.127,0.18 0.039,0.055 0.077,0.11 0.115,0.166 0.04,0.058 0.079,0.117 0.119,0.175 0.039,0.059 0.077,0.118 0.116,0.177 0.037,0.057 0.074,0.113 0.11,0.17 0.04,0.062 0.078,0.124 0.117,0.186 0.035,0.056 0.07,0.112 0.105,0.169 0.036,0.059 0.072,0.119 0.108,0.179 0.037,0.062 0.074,0.124 0.11,0.186 0.032,0.054 0.063,0.108 0.093,0.162 0.039,0.068 0.078,0.135 0.116,0.203 0.029,0.053 0.057,0.106 0.086,0.158 0.038,0.07 0.076,0.14 0.113,0.21 0.029,0.053 0.056,0.106 0.084,0.16 0.037,0.071 0.074,0.142 0.11,0.213 0.025,0.051 0.05,0.102 0.075,0.152 0.037,0.075 0.074,0.15 0.11,0.226l0.068 0.143c0.038,0.081 0.076,0.162 0.112,0.243l0.058 0.128c0.038,0.085 0.075,0.17 0.112,0.255l0.054 0.128c0.037,0.087 0.073,0.174 0.109,0.261l0.048 0.123c0.036,0.088 0.07,0.176 0.104,0.265l0.048 0.128c0.034,0.09 0.068,0.18 0.1,0.271l0.041 0.116c0.033,0.092 0.065,0.184 0.096,0.276l0.042 0.129c0.03,0.091 0.06,0.183 0.089,0.275l0.034 0.112c0.031,0.099 0.061,0.198 0.09,0.298l0.029 0.101c0.028,0.1 0.056,0.2 0.083,0.3l0.029 0.111c0.027,0.101 0.053,0.203 0.078,0.305l0.022 0.089c0.026,0.109 0.052,0.218 0.076,0.328l0.017 0.077c0.024,0.11 0.048,0.221 0.071,0.332l0.018 0.095c0.021,0.106 0.042,0.212 0.061,0.319l0.017 0.098c0.02,0.109 0.038,0.218 0.056,0.328l0.012 0.08c0.018,0.112 0.035,0.225 0.05,0.338l0.013 0.092c0.014,0.111 0.029,0.222 0.042,0.334l0.009 0.081c0.013,0.115 0.025,0.23 0.036,0.345l0.008 0.083c0.01,0.114 0.02,0.228 0.029,0.343l0.006 0.085c0.008,0.116 0.015,0.231 0.021,0.347l0.002 0.025 -14.576 -2.899 2.899 -14.576 0.023 0.011zm9.672 27.429l-0.011 0.022c-0.05,0.105 -0.101,0.209 -0.153,0.313l-0.038 0.076c-0.052,0.102 -0.105,0.204 -0.158,0.305l-0.039 0.074c-0.054,0.102 -0.109,0.204 -0.165,0.305l-0.04 0.072c-0.055,0.098 -0.11,0.195 -0.167,0.292l-0.046 0.08c-0.058,0.099 -0.116,0.196 -0.176,0.293l-0.042 0.07c-0.058,0.094 -0.117,0.188 -0.177,0.282l-0.053 0.083c-0.058,0.091 -0.118,0.182 -0.178,0.272l-0.054 0.081c-0.063,0.093 -0.128,0.187 -0.192,0.279l-0.045 0.065c-0.065,0.092 -0.131,0.183 -0.197,0.274l-0.054 0.074c-0.062,0.084 -0.125,0.168 -0.188,0.252l-0.07 0.091c-0.063,0.082 -0.127,0.164 -0.191,0.245l-0.066 0.083c-0.065,0.08 -0.13,0.16 -0.196,0.24l-0.075 0.091c-0.062,0.074 -0.125,0.147 -0.188,0.22l-0.088 0.103c-0.064,0.073 -0.129,0.146 -0.193,0.218l-0.083 0.092c-0.065,0.071 -0.13,0.142 -0.196,0.212l-0.093 0.1c-0.066,0.069 -0.132,0.137 -0.198,0.205l-0.092 0.095c-0.066,0.067 -0.133,0.133 -0.2,0.2l-0.099 0.097c-0.066,0.065 -0.133,0.129 -0.201,0.192l-0.102 0.097c-0.065,0.061 -0.131,0.121 -0.197,0.181l-0.117 0.107c-0.063,0.056 -0.125,0.111 -0.189,0.166l-0.127 0.111c-0.061,0.053 -0.122,0.104 -0.183,0.156l-0.139 0.116c-0.061,0.05 -0.123,0.1 -0.185,0.15l-0.14 0.113c-0.061,0.048 -0.123,0.096 -0.184,0.144 -0.05,0.038 -0.099,0.076 -0.148,0.113 -0.058,0.044 -0.116,0.087 -0.173,0.13 -0.056,0.042 -0.112,0.083 -0.169,0.125 -0.053,0.039 -0.107,0.077 -0.161,0.115 -0.06,0.043 -0.12,0.085 -0.18,0.127 -0.055,0.039 -0.111,0.077 -0.166,0.115 -0.059,0.04 -0.117,0.08 -0.176,0.119 -0.058,0.039 -0.117,0.078 -0.176,0.116 -0.057,0.037 -0.113,0.074 -0.17,0.11 -0.062,0.04 -0.124,0.079 -0.186,0.118 -0.056,0.035 -0.112,0.07 -0.169,0.104 -0.059,0.037 -0.119,0.072 -0.179,0.108 -0.062,0.037 -0.124,0.074 -0.186,0.111 -0.054,0.031 -0.108,0.062 -0.162,0.093 -0.068,0.038 -0.135,0.077 -0.204,0.115 -0.052,0.029 -0.105,0.058 -0.158,0.087 -0.069,0.038 -0.139,0.075 -0.209,0.113 -0.053,0.028 -0.107,0.056 -0.16,0.083 -0.071,0.037 -0.142,0.074 -0.213,0.11 -0.051,0.025 -0.102,0.05 -0.152,0.075 -0.075,0.037 -0.151,0.074 -0.226,0.111l-0.143 0.067c-0.081,0.038 -0.162,0.076 -0.243,0.113l-0.129 0.057c-0.084,0.038 -0.169,0.076 -0.254,0.112l-0.128 0.054c-0.087,0.037 -0.174,0.073 -0.261,0.109l-0.123 0.049c-0.088,0.035 -0.176,0.07 -0.265,0.104l-0.128 0.048c-0.09,0.033 -0.18,0.067 -0.271,0.1l-0.116 0.041c-0.092,0.032 -0.184,0.064 -0.276,0.095l-0.129 0.042c-0.091,0.03 -0.183,0.06 -0.275,0.089l-0.113 0.035c-0.098,0.03 -0.197,0.06 -0.297,0.089l-0.102 0.029c-0.099,0.028 -0.199,0.056 -0.299,0.083l-0.111 0.029c-0.102,0.027 -0.203,0.053 -0.305,0.078l-0.089 0.022c-0.109,0.026 -0.219,0.052 -0.328,0.077l-0.077 0.016c-0.11,0.025 -0.221,0.048 -0.332,0.071l-0.095 0.019c-0.106,0.021 -0.213,0.041 -0.319,0.061l-0.098 0.017c-0.109,0.019 -0.218,0.038 -0.328,0.055l-0.08 0.013c-0.113,0.017 -0.225,0.034 -0.338,0.05l-0.092 0.012c-0.111,0.015 -0.222,0.029 -0.334,0.042l-0.081 0.009c-0.115,0.013 -0.23,0.025 -0.345,0.037l-0.083 0.007c-0.114,0.011 -0.229,0.02 -0.343,0.029l-0.085 0.006c-0.116,0.008 -0.231,0.016 -0.347,0.022l-0.025 0.001 2.899 -14.576 14.576 2.9zm-27.462 9.683c-0.105,-0.05 -0.209,-0.101 -0.313,-0.153l-0.076 -0.038c-0.103,-0.052 -0.204,-0.104 -0.306,-0.158l-0.073 -0.038c-0.103,-0.055 -0.204,-0.11 -0.306,-0.166l-0.071 -0.04c-0.098,-0.055 -0.195,-0.11 -0.292,-0.166l-0.08 -0.047c-0.099,-0.057 -0.196,-0.116 -0.294,-0.175l-0.069 -0.043c-0.095,-0.058 -0.188,-0.117 -0.282,-0.177l-0.083 -0.052c-0.091,-0.059 -0.182,-0.119 -0.272,-0.179l-0.081 -0.054c-0.094,-0.063 -0.187,-0.127 -0.279,-0.192l-0.065 -0.045c-0.092,-0.065 -0.183,-0.13 -0.274,-0.196l-0.074 -0.054c-0.084,-0.062 -0.168,-0.126 -0.252,-0.189l-0.091 -0.07c-0.082,-0.063 -0.164,-0.127 -0.245,-0.191l-0.083 -0.066c-0.081,-0.064 -0.161,-0.13 -0.24,-0.196l-0.091 -0.075c-0.074,-0.062 -0.147,-0.124 -0.22,-0.187l-0.103 -0.089c-0.073,-0.064 -0.146,-0.128 -0.218,-0.193l-0.092 -0.083c-0.071,-0.064 -0.142,-0.13 -0.212,-0.196l-0.1 -0.093c-0.069,-0.065 -0.137,-0.131 -0.205,-0.198l-0.095 -0.092c-0.067,-0.066 -0.134,-0.133 -0.2,-0.2l-0.097 -0.099c-0.065,-0.066 -0.129,-0.133 -0.192,-0.201l-0.098 -0.102c-0.06,-0.065 -0.12,-0.131 -0.18,-0.197l-0.107 -0.117c-0.056,-0.062 -0.111,-0.125 -0.166,-0.188l-0.112 -0.128c-0.052,-0.061 -0.103,-0.122 -0.155,-0.183l-0.116 -0.139c-0.05,-0.061 -0.1,-0.122 -0.15,-0.184l-0.113 -0.141c-0.048,-0.061 -0.096,-0.122 -0.144,-0.184 -0.038,-0.049 -0.076,-0.098 -0.114,-0.148 -0.043,-0.057 -0.086,-0.115 -0.129,-0.173 -0.042,-0.056 -0.084,-0.112 -0.125,-0.169 -0.039,-0.053 -0.077,-0.107 -0.115,-0.161 -0.043,-0.06 -0.086,-0.119 -0.128,-0.179 -0.038,-0.056 -0.076,-0.111 -0.114,-0.167 -0.04,-0.058 -0.08,-0.117 -0.119,-0.175 -0.039,-0.059 -0.078,-0.118 -0.116,-0.177 -0.037,-0.056 -0.074,-0.113 -0.111,-0.17 -0.039,-0.061 -0.078,-0.123 -0.117,-0.186 -0.035,-0.056 -0.07,-0.112 -0.104,-0.168 -0.037,-0.06 -0.072,-0.12 -0.108,-0.18 -0.037,-0.062 -0.074,-0.123 -0.111,-0.186 -0.031,-0.054 -0.062,-0.108 -0.093,-0.162 -0.039,-0.068 -0.077,-0.135 -0.115,-0.203 -0.029,-0.053 -0.058,-0.106 -0.087,-0.158 -0.038,-0.07 -0.075,-0.14 -0.113,-0.21 -0.028,-0.053 -0.056,-0.106 -0.083,-0.16 -0.037,-0.071 -0.074,-0.142 -0.11,-0.213 -0.026,-0.051 -0.05,-0.101 -0.075,-0.152 -0.037,-0.075 -0.075,-0.15 -0.111,-0.226l-0.067 -0.143c-0.038,-0.081 -0.076,-0.161 -0.113,-0.242l-0.057 -0.129c-0.038,-0.085 -0.076,-0.17 -0.112,-0.255l-0.054 -0.128c-0.037,-0.087 -0.073,-0.174 -0.109,-0.261l-0.049 -0.122c-0.035,-0.089 -0.07,-0.177 -0.104,-0.266l-0.048 -0.127c-0.034,-0.091 -0.067,-0.181 -0.1,-0.272l-0.041 -0.116c-0.032,-0.092 -0.064,-0.184 -0.095,-0.276l-0.042 -0.129c-0.031,-0.091 -0.06,-0.183 -0.089,-0.275l-0.035 -0.112c-0.03,-0.099 -0.06,-0.198 -0.089,-0.297l-0.029 -0.102c-0.028,-0.1 -0.056,-0.199 -0.083,-0.299l-0.029 -0.112c-0.027,-0.101 -0.053,-0.203 -0.079,-0.305l-0.021 -0.089c-0.026,-0.109 -0.052,-0.218 -0.077,-0.328l-0.017 -0.077c-0.024,-0.11 -0.047,-0.221 -0.07,-0.331l-0.019 -0.096c-0.021,-0.106 -0.041,-0.212 -0.061,-0.319l-0.017 -0.097c-0.019,-0.11 -0.038,-0.219 -0.055,-0.329l-0.013 -0.08c-0.017,-0.112 -0.034,-0.225 -0.05,-0.338l-0.012 -0.092c-0.015,-0.111 -0.029,-0.222 -0.042,-0.334l-0.009 -0.081c-0.013,-0.115 -0.025,-0.23 -0.037,-0.345l-0.007 -0.083c-0.011,-0.114 -0.02,-0.228 -0.029,-0.343l-0.006 -0.085c-0.008,-0.115 -0.016,-0.231 -0.022,-0.347l-0.001 -0.025 14.575 2.899 -2.899 14.576 -0.022 -0.011zm-9.672 -27.429l0.011 -0.022c0.05,-0.105 0.101,-0.209 0.153,-0.312l0.038 -0.077c0.052,-0.102 0.104,-0.204 0.158,-0.305l0.038 -0.074c0.055,-0.102 0.11,-0.204 0.166,-0.305l0.04 -0.072c0.054,-0.098 0.11,-0.195 0.166,-0.292l0.047 -0.08c0.057,-0.099 0.116,-0.196 0.175,-0.293l0.042 -0.07c0.059,-0.094 0.118,-0.188 0.177,-0.282l0.053 -0.083c0.059,-0.091 0.119,-0.182 0.179,-0.272l0.054 -0.081c0.063,-0.093 0.127,-0.186 0.192,-0.279l0.045 -0.065c0.064,-0.092 0.13,-0.183 0.196,-0.274l0.054 -0.073c0.062,-0.085 0.125,-0.169 0.189,-0.252l0.069 -0.092c0.064,-0.082 0.128,-0.164 0.192,-0.245l0.066 -0.083c0.064,-0.08 0.13,-0.16 0.196,-0.24l0.075 -0.091c0.062,-0.074 0.124,-0.147 0.187,-0.22l0.089 -0.103c0.063,-0.073 0.128,-0.146 0.193,-0.218l0.082 -0.092c0.065,-0.071 0.131,-0.142 0.197,-0.212l0.093 -0.1c0.065,-0.069 0.131,-0.137 0.197,-0.205l0.092 -0.094c0.067,-0.068 0.134,-0.134 0.201,-0.201l0.099 -0.097c0.066,-0.065 0.133,-0.129 0.2,-0.192l0.103 -0.097c0.065,-0.061 0.131,-0.121 0.197,-0.181l0.117 -0.107c0.062,-0.056 0.125,-0.111 0.188,-0.166l0.128 -0.111c0.061,-0.052 0.122,-0.104 0.183,-0.156l0.138 -0.115c0.062,-0.051 0.123,-0.101 0.185,-0.151l0.141 -0.112c0.061,-0.049 0.122,-0.097 0.184,-0.144 0.049,-0.038 0.098,-0.077 0.148,-0.114 0.057,-0.044 0.115,-0.087 0.173,-0.13 0.056,-0.042 0.112,-0.083 0.168,-0.125 0.054,-0.038 0.108,-0.077 0.162,-0.115 0.059,-0.043 0.119,-0.085 0.179,-0.127 0.056,-0.039 0.111,-0.077 0.167,-0.115 0.058,-0.04 0.116,-0.08 0.175,-0.119 0.059,-0.039 0.118,-0.077 0.177,-0.116 0.056,-0.037 0.113,-0.074 0.17,-0.11 0.061,-0.04 0.123,-0.079 0.186,-0.117 0.056,-0.035 0.112,-0.071 0.168,-0.105 0.06,-0.037 0.12,-0.072 0.18,-0.108 0.062,-0.037 0.123,-0.074 0.186,-0.111 0.054,-0.031 0.108,-0.062 0.162,-0.093 0.067,-0.038 0.135,-0.077 0.203,-0.115 0.053,-0.029 0.106,-0.058 0.158,-0.086 0.07,-0.038 0.14,-0.076 0.21,-0.114 0.053,-0.028 0.106,-0.056 0.16,-0.083 0.071,-0.037 0.142,-0.074 0.213,-0.11 0.051,-0.025 0.101,-0.05 0.152,-0.075 0.075,-0.037 0.15,-0.074 0.226,-0.111l0.143 -0.067c0.08,-0.038 0.161,-0.076 0.242,-0.113l0.129 -0.057c0.085,-0.038 0.17,-0.075 0.255,-0.112l0.127 -0.054c0.087,-0.037 0.175,-0.073 0.262,-0.109l0.122 -0.049c0.089,-0.035 0.177,-0.07 0.266,-0.104l0.127 -0.048c0.091,-0.033 0.181,-0.067 0.272,-0.099l0.116 -0.041c0.092,-0.033 0.184,-0.065 0.276,-0.096l0.128 -0.042c0.092,-0.03 0.184,-0.06 0.276,-0.089l0.112 -0.035c0.099,-0.03 0.198,-0.06 0.297,-0.089l0.102 -0.029c0.1,-0.028 0.199,-0.056 0.299,-0.083l0.112 -0.029c0.101,-0.027 0.203,-0.053 0.305,-0.078l0.089 -0.022c0.109,-0.026 0.218,-0.052 0.328,-0.076l0.077 -0.017c0.11,-0.024 0.221,-0.048 0.331,-0.071l0.096 -0.019c0.106,-0.021 0.212,-0.041 0.319,-0.061l0.097 -0.016c0.11,-0.02 0.219,-0.039 0.329,-0.056l0.08 -0.012c0.112,-0.018 0.225,-0.035 0.338,-0.05l0.092 -0.013c0.111,-0.015 0.222,-0.029 0.333,-0.042l0.082 -0.009c0.114,-0.013 0.23,-0.025 0.345,-0.036l0.083 -0.008c0.114,-0.01 0.228,-0.02 0.343,-0.029l0.085 -0.006c0.115,-0.008 0.231,-0.015 0.347,-0.022l0.025 -0.001 -2.899 14.576 -14.576 -2.9z"/>
 </g>
</svg>
