<?xml version="1.0" encoding="UTF-8"?>
<!DOCTYPE svg PUBLIC "-//W3C//DTD SVG 1.1//EN" "http://www.w3.org/Graphics/SVG/1.1/DTD/svg11.dtd">
<!-- Creator: CorelDRAW 2019 (64-Bit) -->
<svg xmlns="http://www.w3.org/2000/svg" xml:space="preserve" width="550px" height="160px" version="1.1" style="shape-rendering:geometricPrecision; text-rendering:geometricPrecision; image-rendering:optimizeQuality; fill-rule:evenodd; clip-rule:evenodd"
viewBox="0 0 62.384 18.148"
 xmlns:xlink="http://www.w3.org/1999/xlink"
 xmlns:xodm="http://www.corel.com/coreldraw/odm/2003">
 <defs>
  <style type="text/css">
   <![CDATA[
    .fil0 {fill:none}
    .fil2 {fill:#333333}
    .fil1 {fill:black}
   ]]>
  </style>
 </defs>
 <g id="Слой_x0020_1">
  <metadata id="CorelCorpID_0Corel-Layer"/>
  <rect class="fil0" width="62.384" height="18.148"/>
  <g id="_1556138328128">
   <path class="fil1" d="M8.709 8.756c0.042,-0.375 0.102,-0.566 0.28,-0.879 0.354,-0.624 1.136,-0.99 1.844,-0.909 0.502,0.057 1.016,0.376 1.24,0.659 0.269,0.339 0.507,0.864 0.457,1.302 -0.043,0.384 -0.082,0.622 -0.291,0.964 -0.122,0.199 -0.253,0.341 -0.423,0.477 -0.262,0.209 -0.825,0.457 -1.285,0.405 -0.605,-0.069 -1.035,-0.254 -1.408,-0.722 -0.148,-0.186 -0.224,-0.321 -0.31,-0.557 -0.072,-0.198 -0.135,-0.471 -0.104,-0.74zm2.481 -3.778c-0.809,-0.092 -1.083,0.034 -1.291,0.028 -0.06,-0.116 -0.584,-1.092 -0.675,-1.168 -0.247,0.029 -0.544,0.174 -0.751,0.263 -0.18,0.077 -0.552,0.237 -0.675,0.382 0.038,0.097 0.076,0.199 0.111,0.304l0.314 0.945c-0.064,0.076 -0.144,0.121 -0.223,0.187 -0.155,0.128 -0.568,0.555 -0.62,0.699 -0.156,-0.017 -0.486,-0.131 -0.659,-0.181 -0.117,-0.033 -0.204,-0.059 -0.326,-0.093 -0.087,-0.024 -0.274,-0.06 -0.326,-0.093 -0.238,0.347 -0.517,1.086 -0.562,1.486 0.085,0.053 0.185,0.095 0.282,0.147 0.103,0.056 0.204,0.105 0.298,0.156 0.103,0.056 0.19,0.097 0.297,0.155 0.102,0.056 0.207,0.099 0.297,0.156 -0.091,0.798 0.042,1.137 0.028,1.291 -0.119,0.017 -0.978,0.535 -1.164,0.631 0.046,0.116 0.075,0.25 0.117,0.378 0.026,0.076 0.047,0.103 0.075,0.175 0.032,0.08 0.045,0.115 0.08,0.191 0.059,0.131 0.11,0.235 0.171,0.354 0.253,0.496 0.115,0.336 0.846,0.127l0.646 -0.197c0.075,0.144 0.454,0.504 0.615,0.628 0.09,0.069 0.165,0.131 0.253,0.191l-0.267 0.97c-0.028,0.108 -0.064,0.211 -0.079,0.344 0.216,0.148 1.118,0.52 1.464,0.559 0.037,-0.104 0.098,-0.199 0.153,-0.3l0.466 -0.917c0.37,0.042 0.867,0.089 1.226,-0.035 0.051,0.099 0.113,0.194 0.167,0.298l0.25 0.448c0.029,0.052 0.046,0.094 0.079,0.152 0.063,0.111 0.118,0.206 0.174,0.313 0.212,-0.109 0.562,-0.155 1.09,-0.453 0.073,-0.041 0.28,-0.184 0.336,-0.192 0.005,-0.159 -0.379,-1.161 -0.396,-1.311l0.418 -0.386c0.091,-0.098 0.312,-0.343 0.355,-0.465 0.137,0.019 1.207,0.356 1.333,0.37 0.02,-0.056 0.057,-0.114 0.085,-0.165 0.176,-0.326 0.437,-0.964 0.477,-1.321 -0.1,-0.035 -0.192,-0.094 -0.286,-0.144l-0.912 -0.45c0.042,-0.369 0.063,-0.607 0.017,-0.955 -0.01,-0.078 -0.037,-0.197 -0.028,-0.291 0.114,-0.044 0.184,-0.092 0.292,-0.15l0.874 -0.503c0.004,-0.139 -0.197,-0.624 -0.257,-0.756 -0.077,-0.17 -0.268,-0.569 -0.389,-0.671 -0.159,0.019 -0.323,0.094 -0.474,0.142 -0.056,0.018 -0.105,0.029 -0.159,0.048 -0.203,0.073 -0.414,0.136 -0.613,0.214 -0.089,-0.075 -0.342,-0.421 -0.614,-0.628 -0.055,-0.042 -0.078,-0.049 -0.127,-0.095 -0.047,-0.043 -0.063,-0.071 -0.126,-0.096l0.367 -1.311c-0.514,-0.352 -0.961,-0.425 -1.459,-0.603 -0.079,0.126 -0.577,1.107 -0.595,1.198z"/>
   <path class="fil1" d="M10.776 7.66c0.154,0.017 0.336,0.089 0.451,0.15 0.244,0.129 0.443,0.37 0.545,0.625 0.425,1.063 -0.776,2.102 -1.77,1.487 -0.68,-0.42 -0.843,-1.414 -0.125,-1.988 0.215,-0.172 0.521,-0.317 0.899,-0.274zm-1.77 0.977c-0.045,0.393 -0.038,0.613 0.153,0.956 0.023,0.042 0.038,0.076 0.064,0.126 0.05,0.095 0.108,0.152 0.173,0.234 0.479,0.609 1.485,0.762 2.137,0.308 0.048,-0.034 0.085,-0.053 0.129,-0.084 0.053,-0.038 0.051,-0.052 0.1,-0.096 0.478,-0.438 0.65,-1.113 0.426,-1.722 -0.571,-1.553 -2.413,-1.348 -2.945,-0.36 -0.083,0.154 -0.214,0.431 -0.237,0.638z"/>
  </g>
  <g id="_1556138328704">
   <path class="fil2" d="M17.743 8.859c0,-0.19 0.062,-0.441 0.119,-0.586 0.185,-0.462 0.73,-0.939 1.224,-0.939 0.624,0 0.844,-0.006 1.338,0.483 0.568,0.564 0.551,1.562 -0.011,2.118 -1.035,1.025 -2.67,0.289 -2.67,-1.076zm1.353 -4.212l0.388 0c0.178,0.006 0.342,0.021 0.445,0.045l0.113 1.116c0.355,0 0.733,0.342 0.911,0.342 0.001,0 0.374,-0.319 0.42,-0.355 0.145,-0.115 0.275,-0.23 0.423,-0.329 0.044,0.06 0.179,0.15 0.245,0.211 0.088,0.082 0.153,0.13 0.239,0.216 0.089,0.09 0.139,0.138 0.218,0.237 0.057,0.07 0.161,0.154 0.186,0.247 -0.113,0.17 -0.571,0.676 -0.683,0.843 0.182,0.345 0.271,0.509 0.364,0.911 0.098,0.002 0.296,0.032 0.391,0.042 0.148,0.015 0.255,0.014 0.403,0.03 0.06,0.006 0.13,0.01 0.209,0.018 0.088,0.009 0.095,0.022 0.109,0.096 0.013,0.067 0.021,0.136 0.027,0.206l0 0.468c-0.011,0.191 -0.031,0.379 -0.046,0.551 -0.165,0 -0.363,0.034 -0.545,0.048 -0.178,0.014 -0.344,0.044 -0.548,0.044 -0.047,0.203 -0.075,0.286 -0.149,0.465 -0.055,0.131 -0.166,0.311 -0.192,0.423l0.527 0.634c0.062,0.077 0.133,0.133 0.156,0.231 -0.126,0.189 -0.27,0.308 -0.416,0.473 -0.148,0.168 -0.245,0.295 -0.472,0.415l-0.843 -0.683c-0.079,0.018 -0.154,0.076 -0.223,0.119 -0.255,0.155 -0.623,0.226 -0.711,0.268 0,0.277 -0.091,0.836 -0.091,1.093 -0.157,0.004 -0.284,0.046 -0.478,0.046 -0.128,0 -0.733,0.016 -0.798,-0.045 -0.044,-0.04 -0.135,-1.016 -0.135,-1.094 -0.553,-0.046 -0.823,-0.438 -0.997,-0.291l-0.565 0.483c-0.069,0.054 -0.125,0.105 -0.192,0.15 -0.039,-0.027 -0.087,-0.064 -0.129,-0.099 -0.286,-0.232 -0.553,-0.482 -0.759,-0.789 0.023,-0.085 0.103,-0.164 0.156,-0.231 0.084,-0.105 0.447,-0.559 0.527,-0.612 -0.095,-0.142 -0.183,-0.285 -0.25,-0.455l-0.138 -0.409c-0.021,-0.059 0.005,-0.086 -0.118,-0.11l-0.974 -0.096c-0.042,-0.179 -0.068,-0.37 -0.068,-0.592 0,-0.366 0.042,-0.522 0.045,-0.683 0.199,0 0.843,-0.109 1.093,-0.114 0.007,-0.087 0.125,-0.425 0.16,-0.501 0.066,-0.149 0.141,-0.282 0.227,-0.41l-0.706 -0.843 0.416 -0.495c0.085,-0.085 0.137,-0.144 0.235,-0.22 0.082,-0.064 0.158,-0.142 0.238,-0.196l0.607 0.486c0.06,0.05 0.124,0.113 0.186,0.158 0.106,0.078 0.147,0.011 0.241,-0.042 0.155,-0.088 0.595,-0.283 0.787,-0.283 0,-0.175 0.008,-0.391 0.033,-0.56 0.021,-0.147 0.058,-0.399 0.058,-0.533 0.104,-0.024 0.266,-0.039 0.443,-0.045z"/>
   <path class="fil2" d="M19.291 7.88c0.933,0 1.301,1.08 0.735,1.669 -0.341,0.355 -0.91,0.427 -1.298,0.123 -0.812,-0.634 -0.318,-1.792 0.563,-1.792zm-1.321 0.934c0,1.306 1.47,1.807 2.238,1.03 0.348,-0.353 0.427,-0.564 0.427,-1.076 0,-0.62 -0.616,-1.229 -1.23,-1.229 -0.365,0 -0.581,0.017 -0.888,0.25 -0.302,0.229 -0.547,0.563 -0.547,1.025z"/>
  </g>
  <g id="_1556138333312">
   <path class="fil2" d="M24.38 4.598c-0.001,-0.191 0.06,-0.442 0.116,-0.587 0.181,-0.464 0.723,-0.945 1.217,-0.949 0.624,-0.004 0.844,-0.011 1.341,0.474 0.573,0.559 0.562,1.558 0.004,2.118 -1.027,1.032 -2.668,0.308 -2.678,-1.056zm1.324 -4.223l0.387 -0.003c0.179,0.005 0.342,0.02 0.445,0.043l0.122 1.115c0.354,-0.003 0.736,0.336 0.914,0.335 0.001,0 0.371,-0.322 0.416,-0.358 0.145,-0.116 0.274,-0.232 0.421,-0.332 0.044,0.06 0.181,0.149 0.246,0.209 0.089,0.082 0.154,0.129 0.241,0.215 0.09,0.089 0.14,0.137 0.22,0.235 0.058,0.07 0.162,0.153 0.188,0.246 -0.112,0.17 -0.567,0.68 -0.677,0.847 0.185,0.344 0.274,0.508 0.371,0.908 0.098,0.002 0.296,0.03 0.391,0.04 0.148,0.014 0.254,0.012 0.403,0.027 0.06,0.005 0.13,0.009 0.209,0.017 0.088,0.008 0.096,0.021 0.11,0.094 0.013,0.067 0.022,0.136 0.028,0.206l0.004 0.468c-0.01,0.191 -0.029,0.38 -0.042,0.552 -0.166,0.002 -0.363,0.036 -0.544,0.052 -0.179,0.015 -0.345,0.046 -0.548,0.047 -0.046,0.204 -0.073,0.287 -0.147,0.467 -0.053,0.131 -0.163,0.313 -0.188,0.424l0.531 0.63c0.063,0.077 0.134,0.132 0.158,0.23 -0.125,0.19 -0.268,0.31 -0.412,0.476 -0.147,0.169 -0.243,0.297 -0.47,0.419l-0.847 -0.677c-0.079,0.019 -0.153,0.077 -0.222,0.12 -0.254,0.157 -0.621,0.231 -0.709,0.274 0.002,0.277 -0.085,0.837 -0.083,1.093 -0.158,0.005 -0.285,0.048 -0.478,0.049 -0.129,0.001 -0.733,0.022 -0.799,-0.038 -0.044,-0.04 -0.142,-1.015 -0.143,-1.093 -0.553,-0.042 -0.826,-0.432 -0.998,-0.285l-0.562 0.488c-0.068,0.054 -0.124,0.105 -0.191,0.151 -0.039,-0.026 -0.088,-0.063 -0.13,-0.097 -0.287,-0.23 -0.556,-0.478 -0.764,-0.785 0.022,-0.085 0.101,-0.164 0.154,-0.232 0.084,-0.105 0.443,-0.561 0.523,-0.615 -0.096,-0.142 -0.185,-0.284 -0.254,-0.454l-0.141 -0.408c-0.021,-0.059 0.005,-0.085 -0.118,-0.109l-0.975 -0.089c-0.043,-0.179 -0.071,-0.369 -0.073,-0.591 -0.002,-0.366 0.038,-0.522 0.041,-0.684 0.198,-0.001 0.841,-0.114 1.092,-0.122 0.007,-0.086 0.122,-0.425 0.156,-0.502 0.065,-0.148 0.139,-0.282 0.224,-0.411l-0.712 -0.838 0.412 -0.498c0.085,-0.086 0.137,-0.145 0.234,-0.222 0.081,-0.064 0.156,-0.143 0.236,-0.197l0.611 0.481c0.06,0.05 0.125,0.112 0.187,0.157 0.106,0.077 0.147,0.01 0.241,-0.044 0.154,-0.089 0.593,-0.287 0.785,-0.288 -0.001,-0.176 0.005,-0.392 0.028,-0.56 0.02,-0.148 0.056,-0.401 0.055,-0.534 0.103,-0.025 0.265,-0.041 0.443,-0.049z"/>
   <path class="fil2" d="M25.922 3.607c0.933,-0.006 1.309,1.07 0.747,1.664 -0.339,0.358 -0.906,0.433 -1.297,0.133 -0.817,-0.629 -0.332,-1.79 0.55,-1.797zm-1.314 0.944c0.009,1.306 1.483,1.796 2.245,1.014 0.346,-0.356 0.422,-0.568 0.419,-1.079 -0.005,-0.62 -0.625,-1.226 -1.239,-1.221 -0.364,0.003 -0.58,0.021 -0.886,0.257 -0.3,0.231 -0.542,0.566 -0.539,1.029z"/>
  </g>
  <g id="_1556138336352">
   <path class="fil1" d="M30.121 10.672c0.043,-0.375 0.103,-0.565 0.281,-0.879 0.354,-0.624 1.136,-0.99 1.844,-0.909 0.501,0.057 1.016,0.376 1.24,0.659 0.269,0.34 0.507,0.864 0.457,1.302 -0.043,0.384 -0.082,0.622 -0.291,0.964 -0.122,0.199 -0.253,0.342 -0.424,0.478 -0.261,0.208 -0.824,0.457 -1.285,0.404 -0.604,-0.069 -1.034,-0.254 -1.407,-0.722 -0.148,-0.185 -0.224,-0.321 -0.31,-0.557 -0.072,-0.198 -0.135,-0.47 -0.105,-0.74zm2.482 -3.777c-0.809,-0.092 -1.083,0.034 -1.291,0.027 -0.06,-0.115 -0.584,-1.091 -0.675,-1.168 -0.247,0.029 -0.544,0.174 -0.751,0.263 -0.18,0.077 -0.552,0.237 -0.675,0.383 0.038,0.097 0.076,0.198 0.111,0.303l0.314 0.945c-0.064,0.076 -0.144,0.122 -0.224,0.187 -0.154,0.128 -0.568,0.556 -0.619,0.7 -0.156,-0.018 -0.486,-0.132 -0.659,-0.181 -0.117,-0.034 -0.204,-0.06 -0.326,-0.094 -0.087,-0.024 -0.274,-0.06 -0.326,-0.093 -0.238,0.347 -0.517,1.087 -0.562,1.486 0.085,0.054 0.185,0.095 0.282,0.147 0.103,0.056 0.204,0.105 0.297,0.156 0.103,0.056 0.191,0.098 0.298,0.155 0.102,0.056 0.207,0.1 0.297,0.156 -0.091,0.798 0.042,1.137 0.028,1.291 -0.119,0.017 -0.978,0.535 -1.164,0.631 0.046,0.117 0.075,0.25 0.117,0.378 0.026,0.076 0.047,0.104 0.075,0.175 0.032,0.08 0.045,0.116 0.08,0.192 0.059,0.13 0.11,0.234 0.171,0.354 0.253,0.495 0.114,0.336 0.846,0.127l0.646 -0.198c0.075,0.145 0.454,0.505 0.615,0.628 0.09,0.069 0.165,0.131 0.252,0.191l-0.267 0.97c-0.028,0.108 -0.063,0.212 -0.079,0.344 0.216,0.148 1.119,0.52 1.465,0.56 0.037,-0.105 0.098,-0.2 0.152,-0.301l0.466 -0.917c0.371,0.042 0.868,0.09 1.227,-0.035 0.051,0.099 0.113,0.194 0.167,0.298l0.25 0.448c0.028,0.052 0.046,0.095 0.079,0.153 0.063,0.11 0.118,0.205 0.174,0.312 0.212,-0.109 0.562,-0.155 1.09,-0.452 0.073,-0.041 0.28,-0.184 0.336,-0.193 0.005,-0.159 -0.379,-1.161 -0.396,-1.311l0.418 -0.385c0.091,-0.099 0.312,-0.344 0.355,-0.466 0.137,0.019 1.207,0.356 1.333,0.37 0.02,-0.055 0.057,-0.114 0.085,-0.164 0.176,-0.327 0.437,-0.965 0.477,-1.321 -0.1,-0.036 -0.193,-0.095 -0.286,-0.145l-0.912 -0.45c0.042,-0.369 0.063,-0.607 0.017,-0.954 -0.01,-0.079 -0.037,-0.198 -0.028,-0.292 0.114,-0.044 0.184,-0.092 0.292,-0.15l0.874 -0.503c0.004,-0.139 -0.197,-0.624 -0.257,-0.756 -0.077,-0.17 -0.268,-0.568 -0.389,-0.67 -0.159,0.018 -0.323,0.094 -0.475,0.142 -0.055,0.017 -0.104,0.028 -0.158,0.047 -0.203,0.073 -0.414,0.137 -0.613,0.214 -0.089,-0.075 -0.342,-0.421 -0.614,-0.628 -0.055,-0.041 -0.078,-0.049 -0.127,-0.095 -0.047,-0.043 -0.063,-0.071 -0.126,-0.096l0.367 -1.311c-0.514,-0.352 -0.961,-0.425 -1.459,-0.603 -0.079,0.126 -0.577,1.107 -0.595,1.199z"/>
   <path class="fil1" d="M32.189 9.576c0.154,0.018 0.336,0.09 0.451,0.151 0.244,0.128 0.443,0.37 0.545,0.624 0.425,1.063 -0.777,2.102 -1.771,1.487 -0.679,-0.42 -0.842,-1.413 -0.124,-1.988 0.215,-0.172 0.52,-0.317 0.899,-0.274zm-1.77 0.977c-0.045,0.393 -0.039,0.613 0.153,0.956 0.023,0.043 0.038,0.077 0.064,0.126 0.05,0.096 0.108,0.152 0.173,0.234 0.479,0.609 1.484,0.762 2.136,0.308 0.049,-0.034 0.086,-0.052 0.13,-0.084 0.053,-0.038 0.051,-0.052 0.099,-0.096 0.479,-0.437 0.651,-1.113 0.427,-1.722 -0.571,-1.552 -2.413,-1.348 -2.945,-0.359 -0.083,0.154 -0.214,0.43 -0.237,0.637z"/>
  </g>
  <g id="_1556138340128">
   <path class="fil2" d="M44.214 13.394c0,-0.191 0.062,-0.441 0.12,-0.586 0.184,-0.462 0.73,-0.94 1.224,-0.94 0.624,0 0.844,-0.005 1.337,0.484 0.569,0.563 0.551,1.562 -0.011,2.118 -1.035,1.024 -2.67,0.289 -2.67,-1.076zm1.354 -4.213l0.387 0c0.179,0.007 0.342,0.022 0.445,0.046l0.114 1.116c0.354,0 0.733,0.341 0.911,0.341 0.001,0 0.374,-0.318 0.419,-0.355 0.146,-0.114 0.276,-0.229 0.423,-0.328 0.044,0.06 0.18,0.15 0.245,0.211 0.088,0.082 0.153,0.129 0.239,0.216 0.089,0.09 0.14,0.138 0.219,0.237 0.057,0.07 0.161,0.154 0.186,0.247 -0.114,0.169 -0.572,0.676 -0.684,0.842 0.183,0.345 0.271,0.51 0.365,0.911 0.098,0.003 0.296,0.032 0.39,0.042 0.148,0.016 0.255,0.015 0.403,0.03 0.061,0.007 0.13,0.01 0.209,0.019 0.088,0.009 0.096,0.022 0.11,0.095 0.012,0.067 0.021,0.136 0.026,0.207l0 0.467c-0.011,0.191 -0.031,0.38 -0.045,0.552 -0.166,0 -0.363,0.033 -0.545,0.047 -0.178,0.014 -0.345,0.044 -0.548,0.044 -0.048,0.203 -0.075,0.286 -0.15,0.465 -0.055,0.131 -0.166,0.312 -0.192,0.423l0.527 0.635c0.063,0.077 0.133,0.133 0.156,0.231 -0.126,0.188 -0.27,0.307 -0.415,0.472 -0.148,0.169 -0.246,0.296 -0.473,0.416l-0.842 -0.683c-0.079,0.018 -0.154,0.076 -0.223,0.118 -0.255,0.156 -0.623,0.227 -0.711,0.269 0,0.277 -0.091,0.836 -0.091,1.093 -0.158,0.003 -0.285,0.045 -0.478,0.045 -0.129,0 -0.734,0.017 -0.799,-0.044 -0.043,-0.041 -0.135,-1.016 -0.135,-1.094 -0.552,-0.046 -0.823,-0.438 -0.996,-0.292l-0.565 0.484c-0.069,0.054 -0.125,0.104 -0.192,0.149 -0.04,-0.026 -0.088,-0.064 -0.13,-0.098 -0.285,-0.232 -0.552,-0.482 -0.758,-0.79 0.022,-0.085 0.102,-0.163 0.156,-0.23 0.084,-0.106 0.447,-0.559 0.527,-0.612 -0.095,-0.142 -0.183,-0.285 -0.251,-0.456l-0.137 -0.409c-0.022,-0.059 0.005,-0.085 -0.118,-0.109l-0.974 -0.097c-0.042,-0.179 -0.069,-0.369 -0.069,-0.592 0,-0.366 0.042,-0.521 0.046,-0.683 0.198,0 0.842,-0.108 1.093,-0.114 0.007,-0.086 0.125,-0.424 0.159,-0.501 0.067,-0.148 0.142,-0.281 0.228,-0.41l-0.706 -0.842 0.416 -0.495c0.085,-0.085 0.137,-0.144 0.235,-0.221 0.081,-0.064 0.157,-0.141 0.237,-0.195l0.608 0.485c0.06,0.051 0.124,0.114 0.185,0.158 0.106,0.078 0.148,0.012 0.241,-0.041 0.156,-0.089 0.596,-0.283 0.788,-0.283 0,-0.176 0.008,-0.391 0.032,-0.56 0.021,-0.147 0.059,-0.4 0.059,-0.533 0.104,-0.024 0.266,-0.039 0.443,-0.046z"/>
   <path class="fil2" d="M45.763 12.415c0.932,0 1.301,1.079 0.735,1.669 -0.342,0.355 -0.91,0.426 -1.298,0.123 -0.812,-0.635 -0.319,-1.792 0.563,-1.792zm-1.321 0.933c0,1.307 1.47,1.808 2.237,1.031 0.349,-0.353 0.427,-0.564 0.427,-1.076 0,-0.62 -0.616,-1.23 -1.23,-1.23 -0.364,0 -0.58,0.017 -0.888,0.251 -0.301,0.228 -0.546,0.562 -0.546,1.024z"/>
  </g>
  <g id="_1556318720304">
   <path class="fil2" d="M50.852 9.132c-0.001,-0.19 0.059,-0.441 0.116,-0.586 0.181,-0.464 0.723,-0.945 1.216,-0.949 0.625,-0.005 0.844,-0.011 1.342,0.474 0.572,0.559 0.562,1.558 0.004,2.118 -1.027,1.032 -2.668,0.308 -2.678,-1.057zm1.323 -4.222l0.387 -0.003c0.179,0.005 0.343,0.019 0.446,0.042l0.122 1.115c0.354,-0.002 0.735,0.337 0.913,0.335 0.001,0 0.371,-0.321 0.417,-0.357 0.144,-0.116 0.274,-0.232 0.421,-0.332 0.044,0.059 0.18,0.149 0.246,0.209 0.089,0.081 0.154,0.128 0.241,0.214 0.089,0.089 0.14,0.138 0.22,0.236 0.057,0.07 0.162,0.153 0.187,0.245 -0.112,0.171 -0.566,0.68 -0.677,0.848 0.185,0.343 0.275,0.508 0.371,0.908 0.098,0.002 0.296,0.03 0.391,0.039 0.148,0.015 0.255,0.013 0.403,0.027 0.061,0.006 0.13,0.009 0.21,0.017 0.088,0.009 0.095,0.022 0.11,0.095 0.013,0.067 0.022,0.136 0.028,0.206l0.003 0.468c-0.01,0.191 -0.028,0.38 -0.041,0.552 -0.166,0.001 -0.363,0.036 -0.545,0.051 -0.178,0.015 -0.344,0.047 -0.548,0.048 -0.046,0.203 -0.072,0.287 -0.146,0.466 -0.054,0.132 -0.164,0.313 -0.189,0.425l0.532 0.63c0.063,0.077 0.134,0.132 0.158,0.23 -0.125,0.189 -0.268,0.309 -0.412,0.476 -0.148,0.169 -0.244,0.297 -0.47,0.418l-0.848 -0.677c-0.078,0.019 -0.153,0.078 -0.222,0.121 -0.253,0.157 -0.621,0.231 -0.708,0.273 0.002,0.278 -0.085,0.837 -0.084,1.094 -0.157,0.005 -0.284,0.048 -0.477,0.049 -0.129,0.001 -0.734,0.022 -0.799,-0.038 -0.044,-0.041 -0.143,-1.015 -0.143,-1.094 -0.553,-0.042 -0.826,-0.432 -0.999,-0.284l-0.561 0.488c-0.069,0.054 -0.124,0.105 -0.191,0.151 -0.04,-0.026 -0.088,-0.064 -0.13,-0.098 -0.287,-0.23 -0.556,-0.478 -0.765,-0.784 0.022,-0.085 0.102,-0.164 0.155,-0.232 0.083,-0.106 0.443,-0.562 0.522,-0.616 -0.096,-0.141 -0.184,-0.283 -0.254,-0.453l-0.14 -0.408c-0.022,-0.059 0.005,-0.085 -0.119,-0.109l-0.975 -0.089c-0.043,-0.179 -0.071,-0.369 -0.072,-0.592 -0.003,-0.365 0.038,-0.521 0.04,-0.683 0.199,-0.001 0.842,-0.114 1.093,-0.122 0.006,-0.087 0.121,-0.425 0.155,-0.502 0.066,-0.149 0.14,-0.282 0.225,-0.411l-0.712 -0.838 0.412 -0.498c0.085,-0.086 0.136,-0.145 0.233,-0.222 0.082,-0.065 0.157,-0.143 0.236,-0.197l0.612 0.481c0.06,0.05 0.125,0.112 0.186,0.156 0.107,0.077 0.148,0.011 0.241,-0.043 0.155,-0.09 0.593,-0.287 0.785,-0.289 -0.001,-0.175 0.006,-0.391 0.029,-0.56 0.02,-0.147 0.056,-0.4 0.055,-0.533 0.103,-0.025 0.265,-0.041 0.442,-0.049z"/>
   <path class="fil2" d="M52.393 8.142c0.933,-0.007 1.309,1.07 0.748,1.663 -0.339,0.358 -0.907,0.434 -1.297,0.133 -0.817,-0.628 -0.332,-1.79 0.549,-1.796zm-1.314 0.943c0.01,1.307 1.483,1.797 2.245,1.014 0.347,-0.355 0.423,-0.567 0.419,-1.079 -0.004,-0.62 -0.624,-1.225 -1.238,-1.22 -0.365,0.002 -0.581,0.021 -0.887,0.256 -0.299,0.231 -0.542,0.567 -0.539,1.029z"/>
  </g>
  <g id="_1556318704080">
   <path class="fil1" d="M38.697 7.302c-0.148,-0.347 -0.19,-0.543 -0.19,-0.903 0,-0.718 0.5,-1.422 1.155,-1.701 0.465,-0.198 1.07,-0.174 1.404,-0.039 0.402,0.163 0.868,0.501 1.041,0.907 0.151,0.355 0.235,0.581 0.222,0.982 -0.008,0.233 -0.052,0.422 -0.133,0.624 -0.124,0.311 -0.491,0.805 -0.918,0.987 -0.559,0.238 -1.025,0.289 -1.58,0.066 -0.22,-0.088 -0.353,-0.169 -0.545,-0.332 -0.16,-0.136 -0.349,-0.342 -0.456,-0.591zm0.294 -4.51c-0.749,0.319 -0.925,0.564 -1.109,0.661 -0.109,-0.071 -1.047,-0.661 -1.163,-0.683 -0.201,0.147 -0.388,0.42 -0.524,0.599 -0.118,0.156 -0.363,0.479 -0.398,0.666 0.081,0.066 0.164,0.135 0.246,0.209l0.74 0.667c-0.019,0.098 -0.066,0.177 -0.102,0.273 -0.072,0.188 -0.22,0.763 -0.194,0.914 -0.145,0.062 -0.488,0.126 -0.663,0.168 -0.118,0.029 -0.206,0.049 -0.329,0.08 -0.088,0.022 -0.268,0.083 -0.33,0.08 -0.035,0.419 0.087,1.2 0.245,1.569 0.1,0.005 0.208,-0.009 0.318,-0.011 0.117,-0.002 0.229,-0.009 0.335,-0.011 0.118,-0.002 0.214,-0.009 0.336,-0.012 0.116,-0.002 0.229,-0.016 0.335,-0.011 0.315,0.739 0.597,0.968 0.661,1.109 -0.094,0.074 -0.586,0.948 -0.7,1.123 0.097,0.079 0.188,0.181 0.288,0.271 0.06,0.054 0.092,0.067 0.152,0.116 0.067,0.053 0.096,0.078 0.163,0.127 0.116,0.084 0.212,0.149 0.324,0.223 0.464,0.306 0.265,0.236 0.798,-0.307l0.465 -0.491c0.136,0.089 0.643,0.215 0.845,0.243 0.112,0.016 0.208,0.033 0.313,0.042l0.247 0.975c0.029,0.108 0.049,0.216 0.101,0.338 0.261,0.022 1.23,-0.099 1.55,-0.236 -0.02,-0.109 -0.014,-0.222 -0.016,-0.337l-0.047 -1.027c0.343,-0.146 0.799,-0.35 1.049,-0.636 0.094,0.061 0.194,0.113 0.293,0.177l0.438 0.266c0.051,0.031 0.087,0.06 0.144,0.094 0.109,0.065 0.205,0.12 0.306,0.186 0.13,-0.2 0.412,-0.413 0.724,-0.931 0.043,-0.072 0.153,-0.299 0.198,-0.334 -0.074,-0.141 -0.903,-0.823 -0.992,-0.945l0.174 -0.542c0.03,-0.13 0.101,-0.452 0.079,-0.579 0.128,-0.051 1.225,-0.286 1.342,-0.336 -0.01,-0.059 -0.007,-0.128 -0.008,-0.185 -0.008,-0.371 -0.096,-1.055 -0.237,-1.385 -0.104,0.019 -0.214,0.013 -0.32,0.015l-1.015 0.059c-0.146,-0.341 -0.245,-0.559 -0.456,-0.838 -0.048,-0.063 -0.13,-0.154 -0.169,-0.24 0.077,-0.094 0.115,-0.17 0.18,-0.274l0.512 -0.869c-0.065,-0.123 -0.479,-0.446 -0.596,-0.531 -0.151,-0.11 -0.514,-0.362 -0.669,-0.391 -0.129,0.094 -0.235,0.241 -0.343,0.358 -0.04,0.042 -0.077,0.076 -0.114,0.119 -0.141,0.163 -0.294,0.323 -0.428,0.489 -0.115,-0.022 -0.505,-0.198 -0.844,-0.243 -0.068,-0.01 -0.092,-0.005 -0.158,-0.02 -0.061,-0.015 -0.089,-0.031 -0.157,-0.021l-0.327 -1.322c-0.621,-0.052 -1.045,0.104 -1.567,0.196 -0.006,0.148 0.045,1.247 0.074,1.336z"/>
   <path class="fil1" d="M39.954 5.328c0.143,-0.061 0.337,-0.088 0.467,-0.092 0.276,-0.008 0.568,0.103 0.782,0.275 0.894,0.715 0.362,2.211 -0.806,2.167 -0.798,-0.031 -1.43,-0.814 -1.089,-1.668 0.102,-0.256 0.296,-0.533 0.646,-0.682zm-1.057 1.724c0.155,0.363 0.269,0.552 0.605,0.756 0.041,0.025 0.071,0.047 0.118,0.077 0.091,0.058 0.169,0.079 0.266,0.118 0.717,0.294 1.667,-0.069 2.01,-0.786 0.026,-0.054 0.049,-0.088 0.071,-0.137 0.028,-0.059 0.019,-0.07 0.039,-0.133 0.201,-0.616 0.017,-1.289 -0.479,-1.708 -1.262,-1.068 -2.764,0.019 -2.738,1.141 0.004,0.175 0.026,0.48 0.108,0.672z"/>
  </g>
 </g>
</svg>
