<?xml version="1.0" encoding="UTF-8"?>
<!DOCTYPE svg PUBLIC "-//W3C//DTD SVG 1.1//EN" "http://www.w3.org/Graphics/SVG/1.1/DTD/svg11.dtd">
<!-- Creator: CorelDRAW 2019 (64-Bit) -->
<svg xmlns="http://www.w3.org/2000/svg" xml:space="preserve" width="550px" height="160px" version="1.1" style="shape-rendering:geometricPrecision; text-rendering:geometricPrecision; image-rendering:optimizeQuality; fill-rule:evenodd; clip-rule:evenodd"
viewBox="0 0 62.384 18.148"
 xmlns:xlink="http://www.w3.org/1999/xlink"
 xmlns:xodm="http://www.corel.com/coreldraw/odm/2003">
 <defs>
  <style type="text/css">
   <![CDATA[
    .fil0 {fill:none}
    .fil2 {fill:#333333}
    .fil1 {fill:black}
   ]]>
  </style>
 </defs>
 <g id="Слой_x0020_1">
  <metadata id="CorelCorpID_0Corel-Layer"/>
  <rect class="fil0" width="62.384" height="18.148"/>
  <g id="_1556138979488">
   <path class="fil1" d="M8.719 9.126c-0.031,-0.376 -0.009,-0.575 0.104,-0.917 0.226,-0.681 0.922,-1.192 1.631,-1.251 0.503,-0.042 1.07,0.17 1.345,0.405 0.33,0.28 0.666,0.748 0.703,1.187 0.031,0.385 0.04,0.626 -0.098,1.002 -0.081,0.219 -0.182,0.385 -0.323,0.551 -0.215,0.256 -0.719,0.609 -1.181,0.648 -0.606,0.05 -1.064,-0.047 -1.521,-0.434 -0.181,-0.153 -0.282,-0.271 -0.413,-0.486 -0.109,-0.18 -0.224,-0.435 -0.247,-0.705zm1.698 -4.189c-0.812,0.067 -1.056,0.245 -1.261,0.279 -0.081,-0.102 -0.786,-0.957 -0.89,-1.014 -0.237,0.076 -0.5,0.276 -0.685,0.404 -0.161,0.111 -0.496,0.34 -0.588,0.507 0.056,0.088 0.113,0.179 0.168,0.276l0.493 0.866c-0.048,0.086 -0.118,0.147 -0.183,0.227 -0.127,0.155 -0.449,0.655 -0.471,0.806 -0.157,0.013 -0.503,-0.034 -0.682,-0.049 -0.122,-0.01 -0.212,-0.018 -0.338,-0.028 -0.09,-0.007 -0.281,-0.005 -0.338,-0.027 -0.166,0.386 -0.295,1.166 -0.262,1.566 0.094,0.036 0.201,0.057 0.306,0.09 0.112,0.034 0.22,0.063 0.322,0.095 0.112,0.034 0.206,0.058 0.322,0.094 0.111,0.035 0.223,0.057 0.322,0.095 0.066,0.8 0.262,1.107 0.278,1.26 -0.112,0.041 -0.854,0.716 -1.017,0.847 0.067,0.105 0.121,0.23 0.188,0.347 0.04,0.07 0.066,0.093 0.108,0.158 0.046,0.072 0.066,0.104 0.115,0.172 0.083,0.116 0.154,0.208 0.237,0.313 0.344,0.437 0.178,0.308 0.854,-0.04l0.596 -0.32c0.101,0.128 0.543,0.407 0.725,0.497 0.102,0.05 0.188,0.096 0.285,0.138l-0.073 1.003c-0.006,0.112 -0.021,0.22 -0.01,0.353 0.24,0.103 1.198,0.292 1.545,0.263 0.016,-0.109 0.057,-0.215 0.091,-0.324l0.279 -0.991c0.371,-0.03 0.868,-0.081 1.195,-0.273 0.07,0.087 0.149,0.168 0.222,0.26l0.333 0.39c0.038,0.046 0.064,0.084 0.107,0.135 0.083,0.096 0.157,0.178 0.232,0.272 0.186,-0.148 0.521,-0.262 0.98,-0.656 0.064,-0.055 0.239,-0.235 0.293,-0.255 -0.026,-0.156 -0.598,-1.064 -0.644,-1.208l0.335 -0.46c0.07,-0.114 0.239,-0.397 0.257,-0.525 0.138,-0.009 1.253,0.113 1.38,0.103 0.009,-0.059 0.034,-0.123 0.051,-0.178 0.109,-0.355 0.24,-1.032 0.21,-1.389 -0.105,-0.016 -0.207,-0.055 -0.308,-0.086l-0.983 -0.264c-0.031,-0.37 -0.056,-0.607 -0.169,-0.939 -0.025,-0.075 -0.075,-0.187 -0.084,-0.28 0.102,-0.066 0.162,-0.127 0.257,-0.204l0.759 -0.664c-0.023,-0.138 -0.315,-0.574 -0.399,-0.692 -0.109,-0.151 -0.375,-0.505 -0.512,-0.582 -0.153,0.049 -0.299,0.156 -0.438,0.232 -0.051,0.028 -0.098,0.048 -0.146,0.078 -0.185,0.111 -0.38,0.214 -0.56,0.329 -0.102,-0.056 -0.417,-0.346 -0.725,-0.496 -0.062,-0.03 -0.086,-0.033 -0.143,-0.068 -0.054,-0.034 -0.076,-0.058 -0.143,-0.07l0.105 -1.358c-0.572,-0.244 -1.025,-0.229 -1.549,-0.306 -0.052,0.138 -0.349,1.197 -0.349,1.291z"/>
   <path class="fil1" d="M10.533 7.648c0.155,-0.013 0.347,0.022 0.472,0.059 0.264,0.079 0.507,0.277 0.656,0.507 0.624,0.96 -0.351,2.213 -1.446,1.803 -0.749,-0.279 -1.102,-1.222 -0.51,-1.925 0.178,-0.211 0.449,-0.413 0.828,-0.444zm-1.545 1.303c0.032,0.394 0.082,0.609 0.336,0.908 0.031,0.037 0.052,0.068 0.087,0.111 0.069,0.084 0.136,0.128 0.216,0.196 0.588,0.504 1.604,0.458 2.155,-0.115 0.042,-0.042 0.074,-0.068 0.111,-0.107 0.045,-0.048 0.04,-0.061 0.079,-0.114 0.384,-0.522 0.421,-1.218 0.083,-1.772 -0.863,-1.411 -2.63,-0.852 -2.959,0.221 -0.051,0.168 -0.126,0.464 -0.108,0.672z"/>
  </g>
  <g id="_1556138980928">
   <path class="fil2" d="M17.776 8.562c0.038,-0.187 0.148,-0.421 0.232,-0.551 0.271,-0.417 0.9,-0.779 1.384,-0.683 0.612,0.122 0.829,0.159 1.218,0.735 0.447,0.664 0.235,1.64 -0.425,2.075 -1.214,0.803 -2.675,-0.238 -2.409,-1.576zm2.15 -3.868l0.38 0.076c0.174,0.041 0.331,0.088 0.428,0.132l-0.106 1.116c0.347,0.069 0.652,0.478 0.826,0.513 0.001,0 0.429,-0.24 0.481,-0.266 0.165,-0.085 0.315,-0.172 0.479,-0.24 0.031,0.067 0.147,0.182 0.199,0.255 0.07,0.097 0.125,0.156 0.192,0.258 0.07,0.106 0.11,0.163 0.169,0.275 0.041,0.08 0.127,0.183 0.133,0.279 -0.144,0.144 -0.692,0.551 -0.834,0.693 0.112,0.374 0.166,0.553 0.179,0.964 0.096,0.022 0.284,0.089 0.376,0.118 0.142,0.044 0.246,0.064 0.389,0.108 0.058,0.018 0.125,0.035 0.201,0.059 0.085,0.026 0.09,0.04 0.089,0.115 -0.001,0.068 -0.006,0.137 -0.014,0.207l-0.092 0.459c-0.048,0.185 -0.104,0.366 -0.152,0.532 -0.162,-0.032 -0.362,-0.038 -0.543,-0.06 -0.178,-0.021 -0.347,-0.024 -0.547,-0.064 -0.086,0.19 -0.129,0.266 -0.237,0.427 -0.079,0.118 -0.224,0.274 -0.271,0.378l0.393 0.725c0.046,0.088 0.105,0.156 0.108,0.257 -0.16,0.16 -0.325,0.249 -0.499,0.382 -0.179,0.137 -0.299,0.242 -0.545,0.316l-0.693 -0.835c-0.081,0.003 -0.166,0.045 -0.242,0.073 -0.28,0.103 -0.655,0.1 -0.749,0.125 -0.054,0.272 -0.253,0.802 -0.303,1.054 -0.155,-0.027 -0.288,-0.011 -0.478,-0.049 -0.126,-0.025 -0.722,-0.127 -0.774,-0.199 -0.035,-0.048 0.065,-1.023 0.081,-1.1 -0.533,-0.152 -0.722,-0.589 -0.921,-0.48l-0.648 0.364c-0.078,0.04 -0.143,0.078 -0.218,0.109 -0.033,-0.033 -0.073,-0.079 -0.108,-0.121 -0.234,-0.283 -0.447,-0.581 -0.59,-0.923 0.039,-0.079 0.133,-0.14 0.199,-0.196 0.103,-0.087 0.547,-0.46 0.636,-0.497 -0.066,-0.158 -0.124,-0.315 -0.157,-0.496l-0.055 -0.427c-0.009,-0.062 0.022,-0.083 -0.094,-0.131l-0.937 -0.284c-0.006,-0.184 0.005,-0.376 0.048,-0.595 0.072,-0.358 0.143,-0.503 0.178,-0.661 0.195,0.039 0.848,0.059 1.095,0.102 0.024,-0.084 0.205,-0.392 0.254,-0.46 0.094,-0.133 0.193,-0.249 0.303,-0.358l-0.528 -0.964 0.504 -0.405c0.101,-0.066 0.163,-0.114 0.274,-0.17 0.092,-0.047 0.182,-0.108 0.271,-0.145l0.501 0.594c0.049,0.062 0.1,0.136 0.151,0.192 0.089,0.097 0.143,0.04 0.245,0.006 0.169,-0.057 0.639,-0.161 0.827,-0.124 0.034,-0.172 0.085,-0.382 0.141,-0.543 0.049,-0.14 0.136,-0.38 0.162,-0.511 0.106,-0.004 0.268,0.013 0.443,0.041z"/>
   <path class="fil2" d="M19.486 7.904c0.915,0.182 1.066,1.312 0.396,1.78 -0.404,0.282 -0.976,0.241 -1.297,-0.132 -0.673,-0.781 0.037,-1.82 0.901,-1.648zm-1.477 0.658c-0.255,1.281 1.089,2.059 1.993,1.447 0.411,-0.278 0.529,-0.47 0.629,-0.972 0.121,-0.608 -0.364,-1.326 -0.966,-1.446 -0.358,-0.071 -0.573,-0.096 -0.92,0.072 -0.341,0.166 -0.646,0.446 -0.736,0.899z"/>
  </g>
  <g id="_1556138980288">
   <path class="fil2" d="M24.406 4.886c-0.038,-0.187 -0.026,-0.445 0.002,-0.598 0.091,-0.489 0.532,-1.065 1.016,-1.161 0.613,-0.122 0.827,-0.171 1.407,0.212 0.668,0.441 0.846,1.424 0.404,2.079 -0.815,1.208 -2.562,0.806 -2.829,-0.532zm0.502 -4.396l0.38 -0.076c0.177,-0.029 0.34,-0.046 0.446,-0.043l0.33 1.072c0.347,-0.069 0.785,0.192 0.96,0.157 0.001,0 0.304,-0.386 0.342,-0.43 0.12,-0.141 0.225,-0.279 0.35,-0.405 0.055,0.05 0.206,0.112 0.282,0.159 0.102,0.063 0.175,0.097 0.276,0.165 0.105,0.07 0.164,0.108 0.261,0.189 0.07,0.058 0.188,0.12 0.231,0.206 -0.079,0.189 -0.429,0.775 -0.505,0.96 0.246,0.303 0.365,0.447 0.535,0.822 0.097,-0.017 0.297,-0.026 0.392,-0.035 0.148,-0.014 0.252,-0.035 0.4,-0.049 0.061,-0.006 0.13,-0.016 0.209,-0.023 0.088,-0.008 0.098,0.003 0.126,0.072 0.025,0.063 0.047,0.129 0.067,0.197l0.091 0.459c0.027,0.189 0.044,0.378 0.063,0.55 -0.162,0.032 -0.349,0.103 -0.525,0.153 -0.172,0.048 -0.329,0.11 -0.529,0.15 -0.006,0.209 -0.017,0.295 -0.055,0.486 -0.028,0.139 -0.102,0.338 -0.106,0.452l0.641 0.519c0.077,0.064 0.157,0.104 0.199,0.196 -0.087,0.209 -0.205,0.354 -0.315,0.545 -0.113,0.194 -0.183,0.337 -0.382,0.5l-0.96 -0.505c-0.074,0.033 -0.136,0.105 -0.196,0.16 -0.219,0.202 -0.566,0.343 -0.644,0.402 0.054,0.272 0.074,0.838 0.124,1.09 -0.154,0.034 -0.27,0.1 -0.46,0.138 -0.126,0.025 -0.716,0.16 -0.791,0.113 -0.051,-0.031 -0.332,-0.97 -0.347,-1.047 -0.551,0.063 -0.893,-0.268 -1.034,-0.091l-0.46 0.585c-0.057,0.067 -0.102,0.127 -0.159,0.184 -0.043,-0.018 -0.098,-0.045 -0.146,-0.07 -0.325,-0.172 -0.636,-0.365 -0.898,-0.627 0.005,-0.087 0.068,-0.18 0.108,-0.256 0.061,-0.12 0.329,-0.636 0.397,-0.704 -0.122,-0.12 -0.235,-0.243 -0.335,-0.397l-0.215 -0.374c-0.033,-0.054 -0.012,-0.085 -0.137,-0.085l-0.975 0.097c-0.076,-0.168 -0.139,-0.35 -0.182,-0.568 -0.072,-0.358 -0.061,-0.519 -0.09,-0.678 0.195,-0.039 0.805,-0.272 1.05,-0.326 -0.01,-0.087 0.04,-0.441 0.058,-0.523 0.036,-0.158 0.084,-0.303 0.143,-0.446l-0.857 -0.688 0.311 -0.567c0.067,-0.1 0.106,-0.168 0.187,-0.262 0.068,-0.079 0.127,-0.17 0.195,-0.238l0.691 0.357c0.068,0.037 0.144,0.087 0.212,0.118 0.12,0.056 0.147,-0.017 0.229,-0.088 0.135,-0.117 0.528,-0.394 0.717,-0.431 -0.035,-0.172 -0.069,-0.386 -0.078,-0.556 -0.009,-0.148 -0.021,-0.403 -0.047,-0.534 0.097,-0.044 0.253,-0.09 0.425,-0.131z"/>
   <path class="fil2" d="M25.732 3.623c0.915,-0.183 1.488,0.803 1.048,1.492 -0.265,0.415 -0.809,0.597 -1.248,0.375 -0.921,-0.463 -0.664,-1.695 0.2,-1.867zm-1.112 1.174c0.256,1.281 1.795,1.485 2.396,0.572 0.273,-0.414 0.308,-0.637 0.208,-1.139 -0.122,-0.608 -0.845,-1.085 -1.447,-0.965 -0.357,0.072 -0.566,0.131 -0.822,0.42 -0.251,0.283 -0.426,0.658 -0.335,1.112z"/>
  </g>
  <g id="_1556138983360">
   <path class="fil1" d="M30.183 10.307c0.115,-0.359 0.211,-0.535 0.447,-0.807 0.469,-0.543 1.308,-0.749 1.986,-0.532 0.481,0.154 0.923,0.567 1.088,0.888 0.197,0.386 0.328,0.947 0.194,1.367 -0.118,0.368 -0.202,0.593 -0.474,0.888 -0.158,0.171 -0.315,0.286 -0.509,0.386 -0.297,0.153 -0.898,0.287 -1.339,0.146 -0.579,-0.186 -0.965,-0.451 -1.239,-0.983 -0.109,-0.211 -0.157,-0.359 -0.195,-0.607 -0.033,-0.208 -0.041,-0.488 0.041,-0.746zm3.172 -3.22c-0.776,-0.249 -1.069,-0.179 -1.272,-0.225 -0.036,-0.126 -0.36,-1.185 -0.434,-1.278 -0.248,-0.02 -0.568,0.064 -0.788,0.111 -0.191,0.041 -0.588,0.125 -0.737,0.244 0.019,0.102 0.036,0.209 0.05,0.319l0.124 0.989c-0.078,0.061 -0.166,0.09 -0.256,0.139 -0.177,0.095 -0.666,0.434 -0.744,0.565 -0.15,-0.048 -0.451,-0.224 -0.611,-0.306 -0.109,-0.056 -0.189,-0.098 -0.302,-0.155 -0.081,-0.041 -0.257,-0.113 -0.302,-0.155 -0.3,0.294 -0.718,0.965 -0.841,1.347 0.073,0.07 0.164,0.13 0.248,0.2 0.09,0.075 0.18,0.142 0.262,0.211 0.09,0.075 0.167,0.132 0.261,0.21 0.089,0.075 0.184,0.138 0.261,0.21 -0.245,0.766 -0.181,1.124 -0.225,1.272 -0.12,-0.006 -1.063,0.334 -1.264,0.392 0.022,0.123 0.024,0.259 0.041,0.393 0.01,0.08 0.025,0.111 0.039,0.187 0.015,0.085 0.022,0.122 0.041,0.203 0.032,0.14 0.062,0.252 0.098,0.381 0.152,0.535 0.047,0.352 0.805,0.29l0.673 -0.068c0.045,0.156 0.346,0.583 0.48,0.736 0.075,0.085 0.136,0.161 0.21,0.237l-0.451 0.899c-0.048,0.1 -0.104,0.195 -0.144,0.322 0.183,0.187 0.995,0.728 1.326,0.834 0.057,-0.095 0.135,-0.176 0.209,-0.265l0.636 -0.808c0.355,0.114 0.833,0.257 1.21,0.205 0.03,0.107 0.073,0.212 0.105,0.325l0.158 0.488c0.018,0.057 0.027,0.102 0.048,0.165 0.04,0.121 0.076,0.225 0.109,0.341 0.229,-0.066 0.582,-0.043 1.157,-0.231 0.08,-0.026 0.311,-0.126 0.368,-0.123 0.036,-0.155 -0.145,-1.213 -0.133,-1.364l0.486 -0.296c0.108,-0.079 0.373,-0.276 0.439,-0.387 0.13,0.045 1.114,0.584 1.235,0.623 0.03,-0.051 0.078,-0.101 0.115,-0.145 0.237,-0.285 0.617,-0.861 0.726,-1.202 -0.091,-0.055 -0.17,-0.131 -0.252,-0.198l-0.807 -0.62c0.113,-0.353 0.181,-0.582 0.203,-0.932 0.006,-0.079 0.003,-0.201 0.029,-0.291 0.121,-0.022 0.199,-0.055 0.316,-0.09l0.955 -0.323c0.032,-0.136 -0.07,-0.651 -0.103,-0.792 -0.043,-0.181 -0.153,-0.61 -0.251,-0.733 -0.16,-0.013 -0.336,0.029 -0.494,0.046 -0.057,0.007 -0.108,0.008 -0.164,0.016 -0.213,0.032 -0.433,0.053 -0.643,0.09 -0.073,-0.091 -0.253,-0.48 -0.48,-0.736 -0.046,-0.051 -0.067,-0.063 -0.106,-0.118 -0.037,-0.051 -0.048,-0.082 -0.105,-0.118l0.616 -1.215c-0.435,-0.445 -0.859,-0.604 -1.313,-0.876 -0.102,0.108 -0.782,0.973 -0.817,1.06z"/>
   <path class="fil1" d="M32.425 9.635c0.148,0.048 0.312,0.154 0.413,0.236 0.214,0.174 0.362,0.45 0.412,0.719 0.209,1.126 -1.171,1.91 -2.026,1.113 -0.584,-0.545 -0.551,-1.551 0.266,-1.974 0.244,-0.127 0.572,-0.21 0.935,-0.094zm-1.927 0.613c-0.121,0.377 -0.157,0.594 -0.037,0.968 0.015,0.046 0.023,0.082 0.039,0.135 0.031,0.104 0.077,0.171 0.124,0.264 0.35,0.691 1.307,1.037 2.035,0.719 0.055,-0.024 0.095,-0.035 0.143,-0.057 0.06,-0.027 0.061,-0.041 0.117,-0.075 0.554,-0.335 0.855,-0.964 0.754,-1.606 -0.257,-1.633 -2.103,-1.793 -2.818,-0.927 -0.111,0.135 -0.293,0.381 -0.357,0.579z"/>
  </g>
  <g id="_1556138982656">
   <path class="fil2" d="M44.248 13.097c0.037,-0.187 0.147,-0.421 0.232,-0.552 0.271,-0.417 0.899,-0.779 1.383,-0.682 0.613,0.121 0.829,0.159 1.218,0.735 0.448,0.663 0.235,1.639 -0.424,2.075 -1.215,0.803 -2.675,-0.238 -2.409,-1.576zm2.15 -3.868l0.379 0.076c0.175,0.041 0.332,0.088 0.428,0.131l-0.106 1.117c0.347,0.069 0.652,0.478 0.827,0.512 0.001,0.001 0.428,-0.239 0.48,-0.266 0.165,-0.084 0.315,-0.171 0.479,-0.239 0.032,0.067 0.147,0.182 0.199,0.254 0.071,0.098 0.125,0.157 0.193,0.259 0.07,0.105 0.109,0.163 0.168,0.275 0.042,0.08 0.128,0.183 0.134,0.278 -0.144,0.144 -0.692,0.552 -0.835,0.694 0.112,0.373 0.167,0.552 0.18,0.964 0.096,0.021 0.284,0.089 0.375,0.117 0.142,0.044 0.247,0.064 0.389,0.108 0.058,0.018 0.126,0.036 0.202,0.059 0.084,0.026 0.089,0.041 0.088,0.115 0,0.068 -0.005,0.138 -0.014,0.208l-0.091 0.459c-0.048,0.185 -0.105,0.366 -0.152,0.532 -0.163,-0.032 -0.363,-0.038 -0.544,-0.06 -0.178,-0.021 -0.347,-0.024 -0.546,-0.064 -0.086,0.19 -0.129,0.266 -0.238,0.427 -0.079,0.118 -0.223,0.273 -0.27,0.377l0.393 0.725c0.046,0.089 0.104,0.157 0.108,0.257 -0.161,0.161 -0.325,0.249 -0.5,0.383 -0.178,0.136 -0.298,0.242 -0.545,0.315l-0.693 -0.834c-0.08,0.002 -0.166,0.045 -0.241,0.073 -0.281,0.102 -0.655,0.1 -0.75,0.124 -0.054,0.272 -0.252,0.803 -0.302,1.055 -0.156,-0.028 -0.289,-0.011 -0.478,-0.049 -0.126,-0.025 -0.723,-0.127 -0.775,-0.199 -0.035,-0.049 0.066,-1.023 0.081,-1.1 -0.533,-0.153 -0.722,-0.59 -0.92,-0.48l-0.649 0.364c-0.078,0.039 -0.143,0.078 -0.217,0.109 -0.034,-0.033 -0.074,-0.08 -0.108,-0.122 -0.235,-0.283 -0.448,-0.58 -0.59,-0.922 0.039,-0.079 0.132,-0.14 0.198,-0.196 0.103,-0.087 0.548,-0.461 0.636,-0.497 -0.065,-0.158 -0.123,-0.315 -0.157,-0.496l-0.055 -0.428c-0.009,-0.062 0.022,-0.082 -0.094,-0.13l-0.937 -0.285c-0.006,-0.184 0.006,-0.376 0.049,-0.594 0.071,-0.359 0.143,-0.503 0.178,-0.661 0.194,0.039 0.847,0.058 1.094,0.102 0.024,-0.084 0.206,-0.392 0.254,-0.461 0.094,-0.132 0.194,-0.248 0.303,-0.357l-0.527 -0.964 0.504 -0.405c0.1,-0.067 0.162,-0.114 0.273,-0.17 0.093,-0.047 0.182,-0.108 0.271,-0.145l0.502 0.594c0.049,0.061 0.099,0.136 0.151,0.191 0.089,0.097 0.142,0.04 0.244,0.006 0.17,-0.056 0.639,-0.161 0.828,-0.123 0.034,-0.172 0.084,-0.382 0.141,-0.543 0.049,-0.14 0.135,-0.381 0.161,-0.512 0.107,-0.003 0.269,0.014 0.444,0.042z"/>
   <path class="fil2" d="M45.958 12.439c0.915,0.182 1.065,1.312 0.395,1.78 -0.404,0.282 -0.975,0.241 -1.297,-0.132 -0.672,-0.781 0.037,-1.82 0.902,-1.648zm-1.478 0.658c-0.255,1.281 1.089,2.059 1.994,1.447 0.411,-0.278 0.528,-0.47 0.628,-0.972 0.121,-0.608 -0.364,-1.326 -0.966,-1.446 -0.358,-0.071 -0.573,-0.097 -0.92,0.072 -0.34,0.165 -0.646,0.445 -0.736,0.899z"/>
  </g>
  <g id="_1556138985472">
   <path class="fil2" d="M50.879 9.43c-0.039,-0.187 -0.028,-0.445 -0.001,-0.598 0.087,-0.49 0.525,-1.068 1.009,-1.168 0.611,-0.126 0.825,-0.175 1.408,0.204 0.67,0.437 0.854,1.418 0.416,2.077 -0.806,1.212 -2.557,0.821 -2.832,-0.515zm0.475 -4.399l0.379 -0.078c0.177,-0.03 0.34,-0.048 0.445,-0.046l0.337 1.07c0.347,-0.071 0.787,0.187 0.961,0.151 0.001,-0.001 0.302,-0.388 0.34,-0.432 0.119,-0.142 0.223,-0.281 0.348,-0.408 0.055,0.05 0.206,0.111 0.282,0.157 0.103,0.063 0.176,0.096 0.278,0.164 0.105,0.07 0.164,0.107 0.262,0.188 0.069,0.057 0.188,0.118 0.231,0.204 -0.077,0.189 -0.423,0.777 -0.499,0.963 0.249,0.301 0.369,0.445 0.541,0.819 0.096,-0.018 0.296,-0.028 0.391,-0.038 0.148,-0.015 0.253,-0.037 0.401,-0.052 0.06,-0.006 0.129,-0.016 0.208,-0.024 0.088,-0.009 0.098,0.003 0.127,0.072 0.026,0.063 0.048,0.128 0.067,0.196l0.095 0.458c0.028,0.19 0.046,0.379 0.067,0.55 -0.162,0.033 -0.349,0.106 -0.524,0.156 -0.172,0.05 -0.329,0.113 -0.528,0.154 -0.006,0.208 -0.016,0.295 -0.053,0.486 -0.027,0.139 -0.1,0.338 -0.103,0.453l0.645 0.515c0.077,0.063 0.157,0.103 0.199,0.194 -0.085,0.21 -0.202,0.356 -0.311,0.547 -0.111,0.195 -0.181,0.339 -0.379,0.502l-0.963 -0.499c-0.074,0.034 -0.136,0.106 -0.195,0.162 -0.218,0.203 -0.564,0.347 -0.642,0.406 0.056,0.272 0.08,0.838 0.132,1.089 -0.154,0.035 -0.27,0.102 -0.459,0.141 -0.126,0.026 -0.715,0.164 -0.791,0.118 -0.051,-0.031 -0.338,-0.968 -0.354,-1.044 -0.55,0.066 -0.894,-0.263 -1.034,-0.085l-0.456 0.588c-0.057,0.067 -0.101,0.127 -0.158,0.185 -0.044,-0.018 -0.098,-0.045 -0.147,-0.07 -0.326,-0.17 -0.638,-0.36 -0.902,-0.62 0.005,-0.088 0.068,-0.181 0.107,-0.258 0.06,-0.12 0.325,-0.637 0.392,-0.705 -0.122,-0.12 -0.237,-0.242 -0.337,-0.396l-0.218 -0.373c-0.032,-0.053 -0.012,-0.084 -0.137,-0.083l-0.974 0.102c-0.077,-0.167 -0.141,-0.348 -0.186,-0.566 -0.074,-0.358 -0.065,-0.519 -0.094,-0.678 0.195,-0.04 0.804,-0.276 1.048,-0.332 -0.011,-0.087 0.037,-0.441 0.055,-0.523 0.035,-0.159 0.082,-0.304 0.14,-0.448l-0.861 -0.682 0.307 -0.569c0.066,-0.101 0.105,-0.169 0.185,-0.264 0.067,-0.079 0.126,-0.17 0.193,-0.239l0.694 0.353c0.069,0.037 0.144,0.086 0.213,0.117 0.12,0.055 0.147,-0.018 0.228,-0.089 0.134,-0.118 0.526,-0.398 0.714,-0.436 -0.035,-0.172 -0.071,-0.385 -0.081,-0.555 -0.01,-0.148 -0.024,-0.404 -0.051,-0.534 0.097,-0.045 0.253,-0.092 0.425,-0.134z"/>
   <path class="fil2" d="M52.198 8.158c0.913,-0.188 1.492,0.795 1.057,1.486 -0.263,0.417 -0.805,0.602 -1.246,0.383 -0.924,-0.457 -0.675,-1.691 0.189,-1.869zm-1.105 1.181c0.263,1.28 1.804,1.474 2.399,0.558 0.27,-0.416 0.304,-0.639 0.201,-1.14 -0.125,-0.607 -0.851,-1.08 -1.453,-0.956 -0.357,0.073 -0.565,0.134 -0.819,0.424 -0.249,0.285 -0.422,0.662 -0.328,1.114z"/>
  </g>
  <g id="_1556138988000">
   <path class="fil1" d="M38.89 7.618c-0.213,-0.311 -0.293,-0.495 -0.363,-0.848 -0.14,-0.704 0.212,-1.492 0.8,-1.894 0.417,-0.285 1.015,-0.38 1.37,-0.313 0.425,0.082 0.948,0.322 1.197,0.686 0.218,0.319 0.344,0.525 0.41,0.92 0.038,0.23 0.032,0.424 -0.008,0.638 -0.062,0.329 -0.325,0.885 -0.708,1.147 -0.502,0.343 -0.948,0.484 -1.537,0.374 -0.233,-0.044 -0.379,-0.097 -0.598,-0.219 -0.184,-0.102 -0.41,-0.267 -0.563,-0.491zm-0.593 -4.481c-0.673,0.46 -0.798,0.734 -0.959,0.866 -0.121,-0.049 -1.156,-0.444 -1.274,-0.443 -0.169,0.184 -0.299,0.488 -0.397,0.69 -0.085,0.176 -0.263,0.541 -0.261,0.731 0.093,0.049 0.188,0.101 0.283,0.157l0.856 0.51c0.001,0.099 -0.03,0.186 -0.047,0.288 -0.033,0.197 -0.067,0.791 -0.011,0.934 -0.13,0.088 -0.454,0.218 -0.617,0.294 -0.111,0.051 -0.194,0.088 -0.308,0.142 -0.082,0.039 -0.247,0.134 -0.308,0.143 0.048,0.418 0.32,1.16 0.547,1.492 0.1,-0.015 0.202,-0.05 0.31,-0.073 0.114,-0.026 0.222,-0.054 0.327,-0.077 0.114,-0.025 0.207,-0.051 0.326,-0.077 0.114,-0.025 0.222,-0.061 0.327,-0.077 0.453,0.664 0.775,0.833 0.865,0.959 -0.078,0.091 -0.389,1.044 -0.467,1.238 0.11,0.058 0.219,0.14 0.335,0.21 0.069,0.041 0.103,0.047 0.172,0.083 0.076,0.04 0.109,0.058 0.185,0.093 0.13,0.06 0.236,0.105 0.361,0.156 0.515,0.209 0.306,0.179 0.723,-0.457l0.36 -0.572c0.151,0.06 0.673,0.085 0.875,0.073 0.114,-0.007 0.211,-0.009 0.316,-0.021l0.433 0.908c0.049,0.1 0.09,0.202 0.165,0.312 0.26,-0.029 1.186,-0.338 1.474,-0.534 -0.041,-0.103 -0.057,-0.215 -0.081,-0.327l-0.247 -0.999c0.307,-0.21 0.714,-0.499 0.904,-0.828 0.104,0.041 0.213,0.072 0.322,0.116l0.482 0.175c0.055,0.021 0.097,0.042 0.159,0.064 0.12,0.043 0.224,0.078 0.336,0.123 0.089,-0.222 0.324,-0.486 0.529,-1.055 0.028,-0.079 0.091,-0.323 0.128,-0.366 -0.1,-0.123 -1.045,-0.63 -1.157,-0.733l0.064 -0.565c0.005,-0.133 0.012,-0.464 -0.035,-0.584 0.115,-0.075 1.145,-0.52 1.25,-0.592 -0.021,-0.055 -0.031,-0.123 -0.043,-0.18 -0.08,-0.362 -0.301,-1.015 -0.503,-1.311 -0.099,0.038 -0.208,0.054 -0.311,0.077l-0.985 0.256c-0.209,-0.306 -0.349,-0.5 -0.611,-0.733 -0.059,-0.052 -0.157,-0.125 -0.211,-0.202 0.056,-0.108 0.078,-0.189 0.122,-0.304l0.332 -0.952c-0.088,-0.108 -0.556,-0.344 -0.688,-0.405 -0.169,-0.078 -0.575,-0.254 -0.733,-0.252 -0.108,0.118 -0.183,0.282 -0.266,0.418 -0.031,0.049 -0.061,0.089 -0.089,0.139 -0.106,0.188 -0.224,0.374 -0.324,0.563 -0.117,0.001 -0.534,-0.095 -0.875,-0.074 -0.069,0.005 -0.091,0.014 -0.159,0.012 -0.063,-0.003 -0.094,-0.013 -0.157,0.01l-0.58 -1.233c-0.619,0.07 -1.005,0.307 -1.498,0.499 0.022,0.146 0.287,1.214 0.334,1.295z"/>
   <path class="fil1" d="M39.737 5.437c0.128,-0.088 0.312,-0.152 0.439,-0.181 0.269,-0.063 0.578,-0.01 0.821,0.116 1.017,0.526 0.788,2.098 -0.367,2.283 -0.788,0.126 -1.561,-0.519 -1.394,-1.423 0.05,-0.271 0.186,-0.58 0.501,-0.795zm-0.7 1.897c0.223,0.326 0.372,0.488 0.741,0.623 0.045,0.016 0.078,0.033 0.13,0.053 0.101,0.039 0.182,0.044 0.285,0.064 0.76,0.148 1.621,-0.394 1.817,-1.164 0.015,-0.058 0.031,-0.096 0.043,-0.148 0.016,-0.064 0.005,-0.073 0.013,-0.138 0.075,-0.644 -0.236,-1.268 -0.804,-1.582 -1.447,-0.801 -2.707,0.558 -2.463,1.654 0.038,0.171 0.12,0.465 0.238,0.638z"/>
  </g>
 </g>
</svg>
