<?xml version="1.0" encoding="UTF-8"?>
<!DOCTYPE svg PUBLIC "-//W3C//DTD SVG 1.1//EN" "http://www.w3.org/Graphics/SVG/1.1/DTD/svg11.dtd">
<!-- Creator: CorelDRAW 2019 (64-Bit) -->
<svg xmlns="http://www.w3.org/2000/svg" xml:space="preserve" width="550px" height="160px" version="1.1" style="shape-rendering:geometricPrecision; text-rendering:geometricPrecision; image-rendering:optimizeQuality; fill-rule:evenodd; clip-rule:evenodd"
viewBox="0 0 62.384 18.148"
 xmlns:xlink="http://www.w3.org/1999/xlink"
 xmlns:xodm="http://www.corel.com/coreldraw/odm/2003">
 <defs>
  <style type="text/css">
   <![CDATA[
    .fil0 {fill:none}
    .fil2 {fill:#333333}
    .fil1 {fill:black}
   ]]>
  </style>
 </defs>
 <g id="Слой_x0020_1">
  <metadata id="CorelCorpID_0Corel-Layer"/>
  <rect class="fil0" width="62.384" height="18.148"/>
  <g id="_1556318718608">
   <path class="fil1" d="M8.802 9.487c-0.104,-0.363 -0.122,-0.562 -0.077,-0.92 0.088,-0.712 0.671,-1.349 1.355,-1.545 0.486,-0.139 1.083,-0.041 1.399,0.134 0.378,0.211 0.799,0.605 0.92,1.029 0.107,0.371 0.162,0.605 0.1,1.001 -0.037,0.231 -0.104,0.413 -0.209,0.604 -0.162,0.292 -0.587,0.737 -1.032,0.865 -0.585,0.168 -1.053,0.161 -1.577,-0.129 -0.207,-0.114 -0.329,-0.211 -0.499,-0.396 -0.143,-0.155 -0.305,-0.383 -0.38,-0.643zm0.848 -4.44c-0.783,0.225 -0.988,0.446 -1.183,0.52 -0.099,-0.084 -0.957,-0.785 -1.07,-0.821 -0.218,0.121 -0.437,0.368 -0.593,0.53 -0.137,0.14 -0.42,0.43 -0.478,0.612 0.072,0.075 0.146,0.154 0.219,0.238l0.652 0.753c-0.031,0.094 -0.087,0.167 -0.135,0.258 -0.094,0.177 -0.313,0.73 -0.305,0.883 -0.151,0.043 -0.5,0.064 -0.678,0.085 -0.121,0.014 -0.212,0.023 -0.337,0.038 -0.09,0.011 -0.277,0.05 -0.337,0.039 -0.087,0.412 -0.062,1.202 0.049,1.588 0.099,0.017 0.208,0.017 0.317,0.028 0.117,0.012 0.228,0.019 0.334,0.03 0.117,0.012 0.214,0.017 0.334,0.03 0.116,0.012 0.23,0.012 0.335,0.03 0.221,0.772 0.473,1.035 0.519,1.182 -0.103,0.062 -0.698,0.869 -0.833,1.029 0.086,0.09 0.164,0.202 0.252,0.304 0.053,0.061 0.083,0.078 0.137,0.133 0.059,0.062 0.085,0.089 0.146,0.146 0.105,0.098 0.192,0.175 0.294,0.262 0.423,0.361 0.234,0.267 0.83,-0.206l0.522 -0.43c0.124,0.105 0.612,0.293 0.808,0.345 0.109,0.03 0.203,0.058 0.306,0.08l0.125 0.998c0.015,0.111 0.021,0.22 0.058,0.348 0.256,0.054 1.233,0.053 1.567,-0.043 -0.005,-0.11 0.014,-0.222 0.026,-0.336l0.08 -1.025c0.358,-0.103 0.836,-0.25 1.12,-0.502 0.085,0.072 0.179,0.136 0.268,0.212l0.402 0.318c0.047,0.037 0.079,0.069 0.132,0.11 0.1,0.079 0.188,0.145 0.28,0.223 0.154,-0.182 0.46,-0.359 0.834,-0.835 0.052,-0.066 0.188,-0.278 0.237,-0.307 -0.056,-0.149 -0.794,-0.928 -0.868,-1.06l0.239 -0.516c0.047,-0.125 0.157,-0.436 0.151,-0.565 0.133,-0.036 1.251,-0.134 1.373,-0.169 -0.003,-0.059 0.009,-0.127 0.015,-0.184 0.038,-0.369 0.034,-1.059 -0.064,-1.403 -0.107,0.005 -0.215,-0.014 -0.32,-0.025l-1.015 -0.066c-0.102,-0.357 -0.174,-0.585 -0.349,-0.889 -0.04,-0.068 -0.11,-0.168 -0.138,-0.258 0.088,-0.085 0.135,-0.155 0.213,-0.25l0.614 -0.799c-0.049,-0.131 -0.42,-0.502 -0.526,-0.601 -0.136,-0.127 -0.465,-0.422 -0.616,-0.471 -0.139,0.078 -0.262,0.211 -0.384,0.313 -0.044,0.038 -0.086,0.066 -0.128,0.105 -0.16,0.145 -0.331,0.284 -0.485,0.432 -0.111,-0.035 -0.477,-0.258 -0.808,-0.345 -0.066,-0.018 -0.09,-0.016 -0.153,-0.039 -0.06,-0.023 -0.086,-0.042 -0.153,-0.041l-0.162 -1.352c-0.61,-0.128 -1.051,-0.025 -1.579,0.002 -0.025,0.146 -0.11,1.243 -0.091,1.334z"/>
   <path class="fil1" d="M10.293 7.683c0.149,-0.043 0.344,-0.046 0.474,-0.033 0.275,0.025 0.551,0.172 0.742,0.368 0.8,0.82 0.087,2.24 -1.066,2.052 -0.789,-0.129 -1.32,-0.984 -0.876,-1.79 0.133,-0.241 0.36,-0.492 0.726,-0.597zm-1.262 1.58c0.109,0.38 0.199,0.581 0.507,0.825 0.038,0.03 0.064,0.056 0.107,0.092 0.084,0.068 0.159,0.098 0.25,0.15 0.675,0.379 1.663,0.136 2.092,-0.533 0.032,-0.05 0.059,-0.081 0.087,-0.127 0.035,-0.055 0.028,-0.068 0.055,-0.127 0.275,-0.587 0.176,-1.277 -0.264,-1.754 -1.122,-1.216 -2.746,-0.323 -2.859,0.794 -0.017,0.174 -0.032,0.48 0.025,0.68z"/>
  </g>
  <g id="_1556318721328">
   <path class="fil2" d="M17.868 8.277c0.073,-0.176 0.226,-0.384 0.335,-0.495 0.347,-0.357 1.034,-0.589 1.49,-0.4 0.577,0.239 0.782,0.318 1.051,0.959 0.309,0.738 -0.089,1.653 -0.821,1.952 -1.348,0.551 -2.577,-0.755 -2.055,-2.016zm2.863 -3.374l0.357 0.148c0.163,0.075 0.308,0.151 0.394,0.213l-0.322 1.074c0.328,0.136 0.547,0.596 0.711,0.664 0.001,0.001 0.467,-0.151 0.524,-0.167 0.178,-0.05 0.342,-0.106 0.516,-0.141 0.018,0.072 0.108,0.207 0.146,0.288 0.05,0.11 0.091,0.178 0.138,0.291 0.048,0.117 0.075,0.181 0.111,0.303 0.026,0.087 0.09,0.204 0.077,0.299 -0.17,0.113 -0.787,0.406 -0.954,0.517 0.037,0.389 0.056,0.575 -0.012,0.981 0.09,0.04 0.262,0.143 0.345,0.188 0.131,0.071 0.23,0.111 0.361,0.182 0.053,0.029 0.116,0.059 0.186,0.097 0.078,0.042 0.08,0.057 0.065,0.13 -0.014,0.067 -0.033,0.134 -0.055,0.201l-0.179 0.432c-0.083,0.173 -0.174,0.339 -0.253,0.493 -0.153,-0.064 -0.348,-0.109 -0.521,-0.165 -0.171,-0.056 -0.336,-0.092 -0.524,-0.169 -0.121,0.169 -0.178,0.235 -0.316,0.372 -0.101,0.1 -0.273,0.225 -0.339,0.317l0.244 0.788c0.028,0.096 0.072,0.174 0.056,0.273 -0.189,0.126 -0.367,0.181 -0.565,0.278 -0.201,0.099 -0.34,0.179 -0.596,0.203l-0.517 -0.954c-0.079,-0.013 -0.171,0.012 -0.251,0.025 -0.295,0.046 -0.662,-0.03 -0.759,-0.024 -0.106,0.256 -0.404,0.738 -0.503,0.975 -0.147,-0.058 -0.28,-0.067 -0.459,-0.141 -0.119,-0.049 -0.684,-0.266 -0.721,-0.347 -0.024,-0.054 0.264,-0.99 0.294,-1.062 -0.493,-0.254 -0.592,-0.72 -0.809,-0.651l-0.707 0.23c-0.084,0.024 -0.155,0.049 -0.234,0.065 -0.027,-0.039 -0.057,-0.092 -0.083,-0.14 -0.174,-0.324 -0.325,-0.657 -0.398,-1.02 0.053,-0.07 0.157,-0.112 0.233,-0.154 0.117,-0.065 0.626,-0.344 0.721,-0.363 -0.034,-0.168 -0.06,-0.333 -0.058,-0.517l0.03 -0.43c0.003,-0.063 0.037,-0.077 -0.067,-0.147l-0.863 -0.461c0.03,-0.182 0.078,-0.368 0.163,-0.574 0.14,-0.338 0.238,-0.465 0.304,-0.613 0.183,0.076 0.819,0.222 1.053,0.313 0.04,-0.078 0.278,-0.344 0.339,-0.402 0.118,-0.112 0.238,-0.206 0.367,-0.292l-0.33 -1.048 0.574 -0.299c0.111,-0.046 0.182,-0.08 0.301,-0.113 0.1,-0.028 0.2,-0.071 0.294,-0.09l0.376 0.681c0.036,0.07 0.072,0.152 0.111,0.217 0.068,0.113 0.132,0.067 0.239,0.054 0.177,-0.022 0.658,-0.034 0.836,0.04 0.067,-0.162 0.157,-0.359 0.244,-0.505 0.075,-0.128 0.207,-0.347 0.258,-0.47 0.105,0.017 0.26,0.065 0.427,0.127z"/>
   <path class="fil2" d="M19.673 7.965c0.862,0.357 0.789,1.495 0.041,1.823 -0.452,0.198 -1.004,0.046 -1.247,-0.382 -0.507,-0.897 0.392,-1.778 1.206,-1.441zm-1.577 0.357c-0.5,1.207 0.666,2.233 1.672,1.809 0.458,-0.193 0.611,-0.358 0.806,-0.831 0.238,-0.573 -0.098,-1.372 -0.665,-1.607 -0.337,-0.139 -0.543,-0.206 -0.916,-0.108 -0.366,0.095 -0.721,0.31 -0.897,0.737z"/>
  </g>
  <g id="_1556318720304">
   <path class="fil2" d="M24.52 5.247c-0.083,-0.172 -0.134,-0.425 -0.145,-0.581 -0.033,-0.496 0.254,-1.162 0.699,-1.375 0.563,-0.269 0.759,-0.369 1.416,-0.14 0.756,0.263 1.17,1.171 0.903,1.916 -0.492,1.37 -2.285,1.411 -2.873,0.18zm-0.595 -4.385l0.349 -0.167c0.164,-0.071 0.318,-0.128 0.422,-0.151l0.583 0.958c0.32,-0.153 0.809,-0.008 0.969,-0.084 0.001,-0.001 0.2,-0.449 0.226,-0.501 0.082,-0.167 0.15,-0.326 0.24,-0.479 0.065,0.035 0.227,0.058 0.312,0.085 0.115,0.035 0.194,0.05 0.309,0.092 0.119,0.042 0.185,0.064 0.299,0.119 0.082,0.039 0.212,0.07 0.274,0.143 -0.029,0.202 -0.224,0.856 -0.253,1.055 0.313,0.232 0.464,0.343 0.721,0.664 0.09,-0.04 0.281,-0.098 0.371,-0.13 0.14,-0.05 0.236,-0.097 0.376,-0.147 0.058,-0.02 0.122,-0.047 0.197,-0.073 0.083,-0.03 0.096,-0.021 0.14,0.039 0.04,0.055 0.078,0.113 0.113,0.174l0.202 0.423c0.072,0.177 0.135,0.356 0.196,0.517 -0.149,0.071 -0.313,0.187 -0.471,0.278 -0.155,0.089 -0.292,0.188 -0.476,0.275 0.045,0.204 0.056,0.291 0.066,0.485 0.007,0.141 -0.015,0.353 0.009,0.464l0.749 0.345c0.09,0.043 0.178,0.063 0.241,0.141 -0.033,0.225 -0.111,0.394 -0.171,0.606 -0.062,0.216 -0.095,0.372 -0.248,0.579l-1.055 -0.254c-0.063,0.051 -0.105,0.136 -0.15,0.204 -0.163,0.25 -0.464,0.472 -0.525,0.548 0.12,0.25 0.278,0.794 0.389,1.026 -0.141,0.071 -0.237,0.164 -0.412,0.247 -0.116,0.055 -0.654,0.331 -0.739,0.304 -0.057,-0.018 -0.56,-0.858 -0.594,-0.929 -0.518,0.197 -0.931,-0.04 -1.025,0.167l-0.301 0.68c-0.039,0.078 -0.068,0.148 -0.109,0.217 -0.047,-0.006 -0.106,-0.02 -0.159,-0.032 -0.358,-0.087 -0.706,-0.197 -1.025,-0.386 -0.016,-0.086 0.022,-0.191 0.041,-0.276 0.031,-0.131 0.163,-0.696 0.212,-0.779 -0.147,-0.087 -0.288,-0.178 -0.422,-0.303l-0.301 -0.309c-0.044,-0.044 -0.032,-0.08 -0.154,-0.049l-0.92 0.334c-0.115,-0.144 -0.221,-0.305 -0.317,-0.505 -0.158,-0.33 -0.187,-0.488 -0.253,-0.636 0.179,-0.086 0.713,-0.461 0.937,-0.574 -0.031,-0.082 -0.07,-0.437 -0.072,-0.521 -0.004,-0.162 0.006,-0.315 0.028,-0.468l-1 -0.456 0.162 -0.626c0.04,-0.113 0.061,-0.189 0.117,-0.3 0.046,-0.093 0.081,-0.196 0.13,-0.278l0.757 0.175c0.076,0.02 0.161,0.049 0.236,0.063 0.129,0.024 0.138,-0.053 0.199,-0.142 0.102,-0.146 0.416,-0.511 0.589,-0.594 -0.076,-0.159 -0.161,-0.357 -0.212,-0.519 -0.045,-0.142 -0.12,-0.386 -0.177,-0.507 0.083,-0.066 0.223,-0.15 0.38,-0.232z"/>
   <path class="fil2" d="M25.495 3.696c0.841,-0.402 1.639,0.413 1.383,1.189 -0.155,0.467 -0.637,0.777 -1.118,0.671 -1.007,-0.223 -1.061,-1.48 -0.265,-1.86zm-0.789 1.412c0.563,1.178 2.105,0.997 2.463,-0.035 0.162,-0.469 0.141,-0.694 -0.079,-1.155 -0.267,-0.56 -1.086,-0.844 -1.64,-0.579 -0.329,0.157 -0.516,0.265 -0.693,0.608 -0.174,0.337 -0.251,0.744 -0.051,1.161z"/>
  </g>
  <g id="_1556318722352">
   <path class="fil1" d="M30.315 9.961c0.183,-0.33 0.311,-0.483 0.596,-0.705 0.566,-0.441 1.428,-0.479 2.051,-0.134 0.442,0.245 0.795,0.736 0.894,1.084 0.118,0.416 0.137,0.992 -0.076,1.378 -0.188,0.338 -0.314,0.543 -0.639,0.778 -0.188,0.138 -0.364,0.219 -0.574,0.28 -0.321,0.092 -0.936,0.106 -1.342,-0.119 -0.531,-0.294 -0.858,-0.63 -1.023,-1.206 -0.066,-0.227 -0.084,-0.382 -0.073,-0.633 0.009,-0.21 0.055,-0.486 0.186,-0.723zm3.739 -2.54c-0.712,-0.395 -1.014,-0.383 -1.204,-0.469 -0.01,-0.13 -0.122,-1.232 -0.176,-1.337 -0.24,-0.068 -0.569,-0.048 -0.794,-0.045 -0.196,0.003 -0.601,0.008 -0.771,0.095 -0.002,0.104 -0.005,0.212 -0.013,0.323l-0.072 0.994c-0.088,0.045 -0.179,0.056 -0.278,0.087 -0.192,0.059 -0.737,0.295 -0.84,0.409 -0.137,-0.077 -0.398,-0.308 -0.539,-0.42 -0.096,-0.076 -0.166,-0.133 -0.266,-0.211 -0.071,-0.056 -0.23,-0.161 -0.266,-0.211 -0.352,0.23 -0.893,0.806 -1.088,1.158 0.059,0.082 0.136,0.158 0.205,0.244 0.074,0.091 0.148,0.174 0.215,0.257 0.074,0.092 0.139,0.163 0.215,0.258 0.073,0.091 0.154,0.171 0.215,0.257 -0.389,0.703 -0.397,1.067 -0.468,1.203 -0.117,-0.029 -1.108,0.121 -1.317,0.139 -0.002,0.124 -0.027,0.258 -0.036,0.393 -0.006,0.08 0.003,0.114 0.002,0.191 -0.002,0.086 -0.003,0.124 0,0.207 0.005,0.143 0.012,0.259 0.023,0.392 0.043,0.555 -0.023,0.355 0.732,0.442l0.673 0.065c0.014,0.162 0.226,0.639 0.328,0.815 0.056,0.098 0.102,0.185 0.16,0.273l-0.618 0.794c-0.067,0.089 -0.14,0.171 -0.205,0.288 0.143,0.219 0.834,0.908 1.139,1.077 0.074,-0.082 0.167,-0.147 0.256,-0.219l0.781 -0.669c0.326,0.181 0.767,0.415 1.147,0.437 0.009,0.112 0.03,0.223 0.04,0.34l0.059 0.509c0.007,0.059 0.007,0.105 0.015,0.171 0.016,0.126 0.031,0.236 0.041,0.356 0.238,-0.02 0.579,0.071 1.18,-0.001 0.083,-0.01 0.329,-0.063 0.385,-0.049 0.065,-0.145 0.094,-1.218 0.135,-1.363l0.535 -0.196c0.121,-0.056 0.419,-0.198 0.506,-0.294 0.119,0.07 0.978,0.791 1.089,0.852 0.04,-0.044 0.097,-0.083 0.142,-0.12 0.287,-0.234 0.773,-0.724 0.946,-1.037 -0.079,-0.072 -0.142,-0.161 -0.208,-0.244l-0.671 -0.764c0.18,-0.325 0.291,-0.537 0.381,-0.876 0.021,-0.076 0.042,-0.196 0.086,-0.279 0.122,0.002 0.205,-0.015 0.327,-0.027l0.999 -0.13c0.058,-0.128 0.058,-0.652 0.053,-0.797 -0.006,-0.186 -0.03,-0.628 -0.102,-0.768 -0.154,-0.044 -0.335,-0.037 -0.494,-0.051 -0.057,-0.005 -0.107,-0.014 -0.164,-0.017 -0.215,-0.01 -0.435,-0.032 -0.649,-0.037 -0.053,-0.104 -0.154,-0.52 -0.326,-0.815 -0.035,-0.059 -0.054,-0.075 -0.081,-0.136 -0.027,-0.058 -0.031,-0.09 -0.08,-0.137l0.841 -1.071c-0.34,-0.522 -0.725,-0.76 -1.117,-1.115 -0.121,0.085 -0.956,0.801 -1.008,0.879z"/>
   <path class="fil1" d="M32.645 9.739c0.135,0.076 0.276,0.212 0.359,0.312 0.176,0.213 0.268,0.512 0.264,0.786 -0.015,1.145 -1.522,1.645 -2.205,0.696 -0.466,-0.648 -0.237,-1.628 0.646,-1.884 0.265,-0.077 0.603,-0.094 0.936,0.09zm-2.01 0.226c-0.191,0.345 -0.27,0.551 -0.224,0.942 0.005,0.048 0.005,0.085 0.011,0.14 0.01,0.108 0.042,0.182 0.07,0.283 0.209,0.746 1.08,1.272 1.856,1.102 0.058,-0.013 0.099,-0.015 0.151,-0.028 0.064,-0.014 0.068,-0.028 0.129,-0.051 0.61,-0.221 1.027,-0.778 1.054,-1.427 0.066,-1.653 -1.714,-2.169 -2.583,-1.46 -0.136,0.111 -0.363,0.316 -0.464,0.499z"/>
  </g>
  <g id="_1556318722672">
   <path class="fil2" d="M44.339 12.812c0.073,-0.176 0.227,-0.384 0.335,-0.496 0.347,-0.356 1.034,-0.588 1.49,-0.399 0.577,0.238 0.782,0.318 1.051,0.959 0.31,0.737 -0.089,1.653 -0.821,1.952 -1.348,0.55 -2.577,-0.755 -2.055,-2.016zm2.863 -3.374l0.358 0.148c0.163,0.074 0.308,0.151 0.394,0.213l-0.322 1.074c0.327,0.136 0.546,0.596 0.711,0.664 0.001,0.001 0.467,-0.151 0.523,-0.167 0.178,-0.051 0.342,-0.107 0.517,-0.142 0.017,0.072 0.108,0.208 0.145,0.289 0.05,0.109 0.092,0.178 0.138,0.291 0.048,0.117 0.076,0.181 0.112,0.302 0.025,0.087 0.089,0.205 0.076,0.3 -0.169,0.113 -0.786,0.405 -0.953,0.517 0.036,0.388 0.055,0.574 -0.012,0.981 0.089,0.039 0.261,0.143 0.345,0.188 0.131,0.071 0.229,0.111 0.36,0.182 0.054,0.029 0.117,0.059 0.187,0.097 0.077,0.042 0.079,0.057 0.064,0.13 -0.014,0.067 -0.032,0.134 -0.054,0.201l-0.179 0.432c-0.084,0.172 -0.174,0.339 -0.254,0.492 -0.153,-0.063 -0.348,-0.108 -0.521,-0.164 -0.17,-0.056 -0.335,-0.092 -0.523,-0.17 -0.122,0.17 -0.179,0.236 -0.316,0.373 -0.101,0.1 -0.273,0.224 -0.34,0.317l0.244 0.788c0.029,0.095 0.073,0.174 0.056,0.273 -0.188,0.126 -0.367,0.181 -0.564,0.278 -0.202,0.099 -0.34,0.178 -0.596,0.203l-0.517 -0.954c-0.08,-0.013 -0.171,0.012 -0.251,0.024 -0.295,0.046 -0.662,-0.029 -0.76,-0.024 -0.106,0.257 -0.404,0.738 -0.502,0.975 -0.147,-0.057 -0.281,-0.067 -0.459,-0.141 -0.119,-0.049 -0.684,-0.265 -0.721,-0.346 -0.025,-0.054 0.264,-0.99 0.294,-1.063 -0.493,-0.254 -0.593,-0.719 -0.809,-0.65l-0.707 0.23c-0.085,0.024 -0.156,0.049 -0.235,0.065 -0.026,-0.039 -0.056,-0.093 -0.082,-0.14 -0.175,-0.324 -0.326,-0.657 -0.399,-1.021 0.054,-0.069 0.158,-0.111 0.233,-0.153 0.118,-0.065 0.627,-0.345 0.721,-0.364 -0.034,-0.167 -0.06,-0.333 -0.057,-0.516l0.029 -0.431c0.003,-0.062 0.038,-0.076 -0.067,-0.146l-0.863 -0.462c0.03,-0.181 0.079,-0.368 0.164,-0.573 0.14,-0.338 0.238,-0.465 0.303,-0.614 0.183,0.076 0.82,0.223 1.053,0.313 0.04,-0.077 0.278,-0.344 0.339,-0.401 0.119,-0.112 0.239,-0.206 0.368,-0.292l-0.33 -1.049 0.573 -0.298c0.112,-0.046 0.182,-0.08 0.302,-0.114 0.1,-0.027 0.2,-0.07 0.294,-0.089l0.376 0.681c0.036,0.069 0.071,0.152 0.111,0.217 0.068,0.112 0.131,0.067 0.238,0.053 0.178,-0.022 0.659,-0.033 0.836,0.041 0.067,-0.163 0.157,-0.359 0.244,-0.505 0.076,-0.128 0.207,-0.347 0.259,-0.47 0.104,0.017 0.26,0.065 0.426,0.127z"/>
   <path class="fil2" d="M46.145 12.5c0.861,0.357 0.789,1.495 0.04,1.823 -0.451,0.198 -1.004,0.046 -1.246,-0.383 -0.508,-0.897 0.391,-1.777 1.206,-1.44zm-1.578 0.357c-0.5,1.207 0.666,2.232 1.673,1.808 0.457,-0.192 0.61,-0.358 0.806,-0.83 0.237,-0.573 -0.098,-1.372 -0.665,-1.607 -0.337,-0.14 -0.543,-0.206 -0.917,-0.109 -0.366,0.096 -0.72,0.311 -0.897,0.738z"/>
  </g>
  <g id="_1556318691920">
   <path class="fil2" d="M50.963 9.717c-0.074,-0.176 -0.114,-0.431 -0.117,-0.586 -0.01,-0.498 0.306,-1.15 0.761,-1.342 0.575,-0.243 0.776,-0.334 1.421,-0.075 0.743,0.298 1.115,1.224 0.814,1.955 -0.555,1.347 -2.348,1.305 -2.879,0.048zm-0.392 -4.407l0.357 -0.151c0.167,-0.064 0.323,-0.113 0.428,-0.131l0.539 0.983c0.326,-0.138 0.808,0.03 0.972,-0.04 0.001,0 0.22,-0.438 0.248,-0.49 0.089,-0.162 0.164,-0.318 0.262,-0.467 0.063,0.038 0.224,0.069 0.307,0.099 0.114,0.041 0.192,0.06 0.305,0.106 0.117,0.048 0.182,0.073 0.293,0.133 0.08,0.043 0.209,0.08 0.268,0.156 -0.039,0.2 -0.264,0.844 -0.302,1.042 0.302,0.246 0.448,0.364 0.69,0.697 0.091,-0.036 0.285,-0.086 0.376,-0.113 0.143,-0.044 0.241,-0.086 0.383,-0.129 0.058,-0.018 0.124,-0.042 0.2,-0.065 0.085,-0.026 0.097,-0.016 0.138,0.046 0.037,0.056 0.072,0.117 0.105,0.179l0.182 0.431c0.064,0.18 0.119,0.362 0.172,0.526 -0.152,0.065 -0.321,0.172 -0.483,0.256 -0.159,0.082 -0.301,0.174 -0.488,0.253 0.035,0.206 0.042,0.293 0.043,0.487 0.001,0.142 -0.032,0.352 -0.012,0.465l0.732 0.379c0.088,0.047 0.175,0.07 0.234,0.152 -0.043,0.223 -0.129,0.388 -0.199,0.597 -0.071,0.213 -0.111,0.367 -0.274,0.566l-1.042 -0.301c-0.065,0.048 -0.112,0.13 -0.159,0.196 -0.174,0.242 -0.485,0.451 -0.55,0.524 0.108,0.255 0.242,0.806 0.341,1.042 -0.144,0.065 -0.244,0.153 -0.422,0.228 -0.119,0.05 -0.67,0.301 -0.753,0.27 -0.056,-0.02 -0.52,-0.883 -0.551,-0.955 -0.526,0.172 -0.928,-0.083 -1.031,0.119l-0.332 0.665c-0.043,0.077 -0.074,0.145 -0.119,0.213 -0.046,-0.009 -0.105,-0.025 -0.157,-0.04 -0.353,-0.103 -0.697,-0.229 -1.006,-0.433 -0.013,-0.087 0.031,-0.19 0.054,-0.273 0.036,-0.13 0.194,-0.689 0.247,-0.769 -0.143,-0.094 -0.279,-0.191 -0.408,-0.322l-0.286 -0.323c-0.042,-0.046 -0.028,-0.081 -0.151,-0.055l-0.935 0.29c-0.108,-0.149 -0.207,-0.314 -0.293,-0.519 -0.143,-0.337 -0.165,-0.496 -0.224,-0.647 0.183,-0.077 0.734,-0.427 0.962,-0.53 -0.027,-0.083 -0.05,-0.439 -0.048,-0.523 0.004,-0.163 0.021,-0.315 0.051,-0.467l-0.979 -0.501 0.191 -0.618c0.045,-0.112 0.07,-0.186 0.13,-0.294 0.051,-0.091 0.09,-0.192 0.143,-0.273l0.749 0.211c0.075,0.023 0.158,0.056 0.232,0.073 0.128,0.031 0.14,-0.046 0.206,-0.132 0.109,-0.142 0.438,-0.492 0.615,-0.567 -0.068,-0.161 -0.144,-0.363 -0.188,-0.528 -0.038,-0.144 -0.101,-0.391 -0.153,-0.514 0.086,-0.063 0.229,-0.14 0.39,-0.214z"/>
   <path class="fil2" d="M52.009 8.213c0.859,-0.363 1.619,0.487 1.326,1.251 -0.176,0.46 -0.672,0.747 -1.147,0.618 -0.995,-0.268 -0.991,-1.527 -0.179,-1.869zm-0.854 1.373c0.509,1.204 2.058,1.094 2.462,0.079 0.184,-0.461 0.174,-0.686 -0.025,-1.157 -0.241,-0.571 -1.046,-0.893 -1.611,-0.654 -0.336,0.141 -0.528,0.241 -0.721,0.576 -0.189,0.328 -0.284,0.731 -0.105,1.156z"/>
  </g>
  <g id="_1556318694800">
   <path class="fil1" d="M39.139 7.89c-0.269,-0.264 -0.383,-0.428 -0.521,-0.761 -0.275,-0.663 -0.082,-1.505 0.416,-2.014 0.353,-0.36 0.921,-0.57 1.282,-0.573 0.433,-0.004 0.993,0.13 1.308,0.439 0.276,0.27 0.44,0.447 0.581,0.822 0.083,0.218 0.114,0.41 0.117,0.627 0.004,0.335 -0.146,0.932 -0.47,1.263 -0.426,0.434 -0.836,0.66 -1.435,0.667 -0.237,0.002 -0.39,-0.021 -0.63,-0.098 -0.2,-0.065 -0.454,-0.182 -0.648,-0.372zm-1.455 -4.279c-0.57,0.582 -0.639,0.876 -0.772,1.036 -0.128,-0.024 -1.22,-0.21 -1.336,-0.186 -0.129,0.214 -0.197,0.537 -0.254,0.755 -0.05,0.189 -0.152,0.581 -0.113,0.768 0.1,0.029 0.203,0.061 0.307,0.098l0.939 0.333c0.021,0.097 0.007,0.188 0.011,0.292 0.005,0.2 0.089,0.789 0.171,0.918 -0.11,0.112 -0.403,0.302 -0.548,0.409 -0.098,0.072 -0.172,0.124 -0.274,0.2 -0.073,0.053 -0.216,0.179 -0.274,0.2 0.128,0.4 0.54,1.075 0.827,1.356 0.095,-0.034 0.189,-0.088 0.29,-0.132 0.107,-0.047 0.208,-0.097 0.305,-0.139 0.108,-0.047 0.194,-0.091 0.306,-0.139 0.107,-0.047 0.205,-0.103 0.305,-0.139 0.574,0.562 0.923,0.665 1.036,0.771 -0.059,0.104 -0.178,1.1 -0.217,1.306 0.12,0.035 0.243,0.095 0.37,0.14 0.076,0.027 0.11,0.027 0.184,0.048 0.083,0.024 0.119,0.036 0.2,0.055 0.139,0.033 0.253,0.057 0.384,0.082 0.547,0.106 0.336,0.117 0.621,-0.589l0.241 -0.631c0.16,0.03 0.676,-0.048 0.873,-0.099 0.11,-0.029 0.205,-0.05 0.306,-0.082l0.601 0.806c0.068,0.089 0.128,0.181 0.223,0.274 0.249,-0.08 1.098,-0.563 1.341,-0.812 -0.059,-0.093 -0.097,-0.199 -0.143,-0.305l-0.437 -0.931c0.26,-0.266 0.603,-0.629 0.725,-0.989 0.11,0.021 0.223,0.03 0.338,0.052l0.507 0.077c0.059,0.01 0.103,0.022 0.169,0.032 0.126,0.018 0.235,0.033 0.354,0.055 0.043,-0.235 0.223,-0.54 0.312,-1.138 0.013,-0.083 0.027,-0.334 0.055,-0.384 -0.122,-0.102 -1.149,-0.414 -1.278,-0.493l-0.047 -0.567c-0.022,-0.132 -0.08,-0.457 -0.149,-0.566 0.099,-0.096 1.022,-0.733 1.111,-0.824 -0.032,-0.05 -0.055,-0.115 -0.078,-0.168 -0.149,-0.34 -0.493,-0.938 -0.749,-1.188 -0.09,0.057 -0.193,0.094 -0.29,0.136l-0.915 0.444c-0.266,-0.26 -0.44,-0.423 -0.743,-0.6 -0.068,-0.04 -0.178,-0.093 -0.247,-0.157 0.035,-0.117 0.04,-0.201 0.061,-0.323l0.14 -0.998c-0.108,-0.089 -0.613,-0.228 -0.754,-0.262 -0.181,-0.044 -0.614,-0.138 -0.768,-0.105 -0.083,0.136 -0.125,0.313 -0.18,0.462 -0.02,0.054 -0.042,0.1 -0.06,0.154 -0.067,0.205 -0.147,0.41 -0.207,0.615 -0.115,0.024 -0.543,0.011 -0.874,0.099 -0.066,0.017 -0.086,0.031 -0.152,0.042 -0.063,0.01 -0.095,0.006 -0.153,0.04l-0.809 -1.095c-0.594,0.189 -0.926,0.496 -1.372,0.781 0.05,0.139 0.519,1.134 0.58,1.205z"/>
   <path class="fil1" d="M39.545 5.585c0.108,-0.11 0.277,-0.21 0.396,-0.263 0.251,-0.113 0.564,-0.122 0.827,-0.046 1.1,0.318 1.182,1.904 0.086,2.31 -0.749,0.278 -1.633,-0.203 -1.645,-1.123 -0.004,-0.276 0.069,-0.606 0.336,-0.878zm-0.317 1.997c0.283,0.277 0.46,0.407 0.849,0.467 0.047,0.008 0.083,0.017 0.138,0.027 0.107,0.019 0.187,0.007 0.291,0.007 0.775,-0.003 1.514,-0.703 1.556,-1.496 0.003,-0.06 0.011,-0.1 0.013,-0.154 0.003,-0.065 -0.009,-0.072 -0.015,-0.138 -0.051,-0.646 -0.478,-1.197 -1.096,-1.394 -1.576,-0.503 -2.547,1.076 -2.093,2.102 0.071,0.16 0.208,0.434 0.357,0.579z"/>
  </g>
 </g>
</svg>
