<?xml version="1.0" encoding="UTF-8"?>
<!DOCTYPE svg PUBLIC "-//W3C//DTD SVG 1.1//EN" "http://www.w3.org/Graphics/SVG/1.1/DTD/svg11.dtd">
<!-- Creator: CorelDRAW 2019 (64-Bit) -->
<svg xmlns="http://www.w3.org/2000/svg" xml:space="preserve" width="550px" height="160px" version="1.1" style="shape-rendering:geometricPrecision; text-rendering:geometricPrecision; image-rendering:optimizeQuality; fill-rule:evenodd; clip-rule:evenodd"
viewBox="0 0 62.384 18.148"
 xmlns:xlink="http://www.w3.org/1999/xlink"
 xmlns:xodm="http://www.corel.com/coreldraw/odm/2003">
 <defs>
  <style type="text/css">
   <![CDATA[
    .fil0 {fill:none}
    .fil2 {fill:#333333}
    .fil1 {fill:black}
   ]]>
  </style>
 </defs>
 <g id="Слой_x0020_1">
  <metadata id="CorelCorpID_0Corel-Layer"/>
  <rect class="fil0" width="62.384" height="18.148"/>
  <g id="_1556135641824">
   <path class="fil1" d="M8.953 9.825c-0.172,-0.336 -0.228,-0.528 -0.255,-0.887 -0.052,-0.716 0.396,-1.454 1.028,-1.78 0.449,-0.231 1.054,-0.252 1.398,-0.141 0.412,0.133 0.902,0.437 1.104,0.829 0.176,0.343 0.276,0.562 0.293,0.963 0.009,0.233 -0.021,0.425 -0.087,0.632 -0.102,0.319 -0.432,0.838 -0.844,1.051 -0.541,0.278 -1.001,0.363 -1.572,0.181 -0.225,-0.072 -0.364,-0.143 -0.567,-0.291 -0.169,-0.125 -0.374,-0.316 -0.498,-0.557zm-0.034 -4.52c-0.724,0.373 -0.882,0.63 -1.058,0.74 -0.115,-0.063 -1.093,-0.583 -1.21,-0.596 -0.19,0.161 -0.357,0.447 -0.479,0.635 -0.107,0.164 -0.328,0.505 -0.349,0.694 0.085,0.059 0.173,0.122 0.261,0.19l0.786 0.612c-0.011,0.098 -0.052,0.181 -0.082,0.28 -0.057,0.192 -0.164,0.777 -0.127,0.925 -0.139,0.072 -0.477,0.161 -0.648,0.216 -0.116,0.037 -0.203,0.064 -0.323,0.103 -0.086,0.028 -0.262,0.102 -0.323,0.104 -0.005,0.42 0.174,1.19 0.358,1.548 0.101,-0.003 0.207,-0.025 0.317,-0.035 0.116,-0.011 0.227,-0.026 0.333,-0.036 0.117,-0.01 0.213,-0.024 0.334,-0.035 0.116,-0.011 0.227,-0.033 0.333,-0.036 0.368,0.714 0.667,0.922 0.74,1.058 -0.088,0.08 -0.515,0.988 -0.616,1.171 0.102,0.072 0.2,0.166 0.307,0.249 0.063,0.05 0.096,0.061 0.159,0.105 0.071,0.048 0.102,0.07 0.173,0.114 0.122,0.076 0.222,0.134 0.339,0.2 0.485,0.271 0.282,0.215 0.774,-0.365l0.428 -0.523c0.142,0.079 0.657,0.168 0.86,0.181 0.113,0.007 0.21,0.017 0.316,0.019l0.316 0.954c0.037,0.106 0.065,0.212 0.126,0.33 0.262,0.003 1.219,-0.188 1.528,-0.348 -0.027,-0.107 -0.029,-0.22 -0.04,-0.335l-0.121 -1.021c0.331,-0.17 0.771,-0.407 1,-0.71 0.097,0.054 0.202,0.098 0.304,0.155l0.457 0.234c0.053,0.027 0.091,0.052 0.151,0.082 0.113,0.057 0.212,0.106 0.318,0.164 0.115,-0.209 0.381,-0.442 0.655,-0.982 0.037,-0.075 0.13,-0.309 0.173,-0.347 -0.085,-0.135 -0.961,-0.755 -1.058,-0.87l0.133 -0.553c0.021,-0.132 0.069,-0.459 0.037,-0.584 0.124,-0.06 1.201,-0.375 1.314,-0.433 -0.014,-0.057 -0.016,-0.126 -0.021,-0.184 -0.035,-0.369 -0.173,-1.045 -0.337,-1.363 -0.103,0.026 -0.213,0.028 -0.318,0.038l-1.009 0.133c-0.17,-0.33 -0.284,-0.54 -0.515,-0.804 -0.052,-0.059 -0.141,-0.143 -0.186,-0.226 0.07,-0.1 0.102,-0.179 0.16,-0.287l0.447 -0.903c-0.074,-0.119 -0.51,-0.41 -0.633,-0.487 -0.158,-0.098 -0.539,-0.323 -0.696,-0.341 -0.122,0.103 -0.217,0.257 -0.316,0.382 -0.036,0.045 -0.071,0.081 -0.105,0.127 -0.129,0.173 -0.269,0.344 -0.391,0.519 -0.116,-0.014 -0.518,-0.161 -0.86,-0.182 -0.069,-0.004 -0.092,0.003 -0.158,-0.008 -0.063,-0.01 -0.092,-0.024 -0.158,-0.01l-0.423 -1.294c-0.623,-0.007 -1.035,0.18 -1.548,0.309 0.004,0.148 0.135,1.241 0.171,1.327z"/>
   <path class="fil1" d="M10.064 7.765c0.137,-0.071 0.329,-0.112 0.458,-0.126 0.275,-0.028 0.574,0.062 0.8,0.217 0.944,0.648 0.523,2.179 -0.646,2.22 -0.798,0.028 -1.485,-0.707 -1.208,-1.584 0.084,-0.263 0.257,-0.553 0.596,-0.727zm-0.93 1.796c0.181,0.351 0.309,0.531 0.659,0.71 0.043,0.022 0.074,0.042 0.123,0.069 0.095,0.051 0.174,0.066 0.274,0.098 0.736,0.241 1.658,-0.191 1.948,-0.93 0.021,-0.056 0.042,-0.092 0.061,-0.142 0.023,-0.061 0.013,-0.072 0.029,-0.135 0.155,-0.63 -0.077,-1.287 -0.602,-1.669 -1.337,-0.974 -2.755,0.219 -2.648,1.337 0.016,0.174 0.061,0.476 0.156,0.662z"/>
  </g>
  <g id="_1556315421472">
   <path class="fil2" d="M18.013 8.016c0.106,-0.159 0.297,-0.333 0.425,-0.421 0.41,-0.282 1.129,-0.376 1.54,-0.101 0.519,0.346 0.704,0.464 0.843,1.145 0.16,0.784 -0.41,1.605 -1.186,1.755 -1.429,0.277 -2.38,-1.244 -1.622,-2.378zm3.466 -2.751l0.322 0.215c0.145,0.105 0.272,0.208 0.345,0.285l-0.526 0.991c0.295,0.197 0.42,0.691 0.568,0.79 0.001,0.001 0.488,-0.057 0.546,-0.062 0.184,-0.014 0.357,-0.037 0.534,-0.038 0.003,0.074 0.066,0.225 0.087,0.312 0.027,0.117 0.055,0.192 0.078,0.312 0.025,0.124 0.039,0.192 0.051,0.319 0.008,0.09 0.047,0.217 0.017,0.308 -0.189,0.078 -0.851,0.245 -1.037,0.321 -0.039,0.388 -0.058,0.575 -0.203,0.96 0.08,0.056 0.229,0.191 0.302,0.252 0.114,0.095 0.203,0.154 0.318,0.249 0.047,0.038 0.103,0.08 0.164,0.131 0.068,0.057 0.067,0.072 0.037,0.14 -0.026,0.063 -0.057,0.125 -0.092,0.187l-0.26 0.389c-0.115,0.152 -0.237,0.298 -0.344,0.433 -0.138,-0.092 -0.321,-0.174 -0.479,-0.263 -0.157,-0.088 -0.312,-0.155 -0.481,-0.268 -0.152,0.142 -0.221,0.196 -0.383,0.303 -0.118,0.079 -0.311,0.167 -0.394,0.245l0.086 0.821c0.009,0.099 0.037,0.184 0.001,0.278 -0.21,0.087 -0.395,0.106 -0.608,0.163 -0.217,0.057 -0.368,0.109 -0.624,0.082l-0.321 -1.036c-0.075,-0.028 -0.17,-0.022 -0.251,-0.025 -0.298,-0.012 -0.643,-0.158 -0.74,-0.172 -0.154,0.231 -0.54,0.645 -0.683,0.859 -0.133,-0.085 -0.262,-0.121 -0.423,-0.228 -0.107,-0.072 -0.619,-0.394 -0.639,-0.48 -0.014,-0.059 0.452,-0.92 0.495,-0.986 -0.433,-0.345 -0.441,-0.821 -0.666,-0.795l-0.739 0.088c-0.087,0.006 -0.161,0.017 -0.242,0.017 -0.018,-0.043 -0.038,-0.101 -0.054,-0.153 -0.108,-0.352 -0.191,-0.708 -0.191,-1.079 0.066,-0.057 0.176,-0.078 0.258,-0.104 0.128,-0.041 0.682,-0.216 0.778,-0.217 0,-0.171 0.006,-0.338 0.044,-0.517l0.113 -0.417c0.015,-0.061 0.052,-0.068 -0.037,-0.157l-0.756 -0.621c0.064,-0.172 0.148,-0.345 0.272,-0.53 0.203,-0.304 0.324,-0.41 0.417,-0.543 0.165,0.111 0.761,0.378 0.972,0.513 0.054,-0.068 0.34,-0.283 0.411,-0.328 0.138,-0.087 0.274,-0.155 0.417,-0.214l-0.119 -1.093 0.621 -0.181c0.118,-0.023 0.194,-0.043 0.318,-0.053 0.103,-0.007 0.21,-0.03 0.306,-0.03l0.236 0.741c0.021,0.075 0.04,0.163 0.066,0.234 0.045,0.124 0.116,0.092 0.223,0.1 0.179,0.012 0.653,0.095 0.812,0.202 0.098,-0.146 0.225,-0.321 0.338,-0.448 0.099,-0.11 0.271,-0.299 0.345,-0.41 0.1,0.037 0.243,0.115 0.394,0.208z"/>
   <path class="fil2" d="M19.844 8.062c0.776,0.518 0.483,1.62 -0.315,1.796 -0.482,0.106 -0.994,-0.151 -1.148,-0.619 -0.323,-0.978 0.73,-1.667 1.463,-1.177zm-1.617 0.042c-0.725,1.087 0.218,2.32 1.288,2.1 0.486,-0.1 0.669,-0.232 0.953,-0.657 0.345,-0.516 0.171,-1.365 -0.339,-1.706 -0.303,-0.203 -0.492,-0.308 -0.878,-0.285 -0.377,0.022 -0.767,0.164 -1.024,0.548z"/>
  </g>
  <g id="_1556315421888">
   <path class="fil2" d="M24.625 5.439c-0.106,-0.158 -0.193,-0.401 -0.226,-0.553 -0.104,-0.487 0.084,-1.187 0.494,-1.462 0.519,-0.347 0.699,-0.474 1.381,-0.342 0.786,0.152 1.327,0.992 1.169,1.767 -0.29,1.427 -2.059,1.724 -2.818,0.59zm-1.217 -4.254l0.321 -0.215c0.153,-0.094 0.297,-0.172 0.396,-0.21l0.715 0.864c0.294,-0.197 0.799,-0.123 0.947,-0.222 0.001,-0.001 0.133,-0.473 0.151,-0.529 0.057,-0.176 0.101,-0.344 0.169,-0.508 0.07,0.026 0.233,0.025 0.321,0.039 0.119,0.019 0.199,0.023 0.319,0.047 0.124,0.025 0.192,0.037 0.313,0.075 0.086,0.027 0.22,0.039 0.292,0.102 0,0.204 -0.099,0.88 -0.099,1.08 0.343,0.186 0.508,0.274 0.809,0.555 0.083,-0.053 0.264,-0.138 0.348,-0.183 0.132,-0.069 0.22,-0.129 0.351,-0.199 0.054,-0.028 0.114,-0.064 0.185,-0.101 0.078,-0.041 0.091,-0.034 0.144,0.019 0.047,0.049 0.093,0.101 0.136,0.157l0.261 0.388c0.097,0.165 0.185,0.333 0.269,0.484 -0.138,0.093 -0.284,0.23 -0.427,0.343 -0.14,0.11 -0.262,0.228 -0.431,0.341 0.073,0.195 0.097,0.279 0.134,0.47 0.028,0.139 0.036,0.351 0.076,0.458l0.791 0.234c0.095,0.03 0.184,0.036 0.258,0.105 0,0.227 -0.053,0.406 -0.082,0.624 -0.03,0.223 -0.04,0.382 -0.162,0.608l-1.08 -0.099c-0.056,0.059 -0.086,0.149 -0.12,0.223 -0.125,0.27 -0.391,0.534 -0.441,0.618 0.154,0.23 0.389,0.746 0.532,0.959 -0.129,0.091 -0.211,0.196 -0.372,0.304 -0.107,0.071 -0.6,0.421 -0.688,0.407 -0.059,-0.009 -0.678,-0.769 -0.721,-0.834 -0.485,0.269 -0.927,0.094 -0.99,0.312l-0.201 0.716c-0.027,0.083 -0.046,0.156 -0.076,0.231 -0.048,0 -0.109,-0.005 -0.163,-0.01 -0.366,-0.034 -0.727,-0.093 -1.069,-0.234 -0.029,-0.083 -0.006,-0.193 0.001,-0.279 0.011,-0.134 0.061,-0.713 0.098,-0.801 -0.158,-0.066 -0.31,-0.135 -0.462,-0.239l-0.341 -0.264c-0.051,-0.037 -0.043,-0.074 -0.16,-0.026l-0.863 0.462c-0.134,-0.125 -0.262,-0.269 -0.386,-0.454 -0.203,-0.304 -0.255,-0.456 -0.342,-0.593 0.165,-0.11 0.64,-0.558 0.845,-0.702 -0.042,-0.076 -0.132,-0.423 -0.146,-0.505 -0.027,-0.161 -0.039,-0.313 -0.039,-0.468l-1.055 -0.307 0.07 -0.643c0.024,-0.118 0.034,-0.196 0.073,-0.314 0.032,-0.099 0.052,-0.205 0.089,-0.294l0.775 0.065c0.078,0.009 0.166,0.025 0.242,0.028 0.131,0.006 0.129,-0.072 0.177,-0.168 0.08,-0.16 0.337,-0.567 0.497,-0.673 -0.097,-0.146 -0.211,-0.33 -0.285,-0.484 -0.064,-0.133 -0.173,-0.365 -0.247,-0.475 0.073,-0.078 0.199,-0.181 0.343,-0.285z"/>
   <path class="fil2" d="M25.368 3.764c0.775,-0.518 1.682,0.174 1.539,0.978 -0.086,0.486 -0.519,0.861 -1.01,0.825 -1.028,-0.076 -1.262,-1.312 -0.529,-1.803zm-0.579 1.511c0.727,1.086 2.227,0.685 2.433,-0.388 0.094,-0.487 0.041,-0.707 -0.244,-1.132 -0.345,-0.515 -1.195,-0.679 -1.706,-0.338 -0.303,0.203 -0.473,0.337 -0.598,0.702 -0.124,0.358 -0.142,0.772 0.115,1.156z"/>
  </g>
  <g id="_1556315426912">
   <path class="fil1" d="M30.512 9.647c0.244,-0.288 0.399,-0.413 0.722,-0.575 0.641,-0.322 1.494,-0.191 2.038,0.269 0.385,0.326 0.636,0.877 0.665,1.237 0.034,0.432 -0.059,1 -0.344,1.337 -0.249,0.294 -0.414,0.471 -0.778,0.639 -0.211,0.098 -0.4,0.143 -0.617,0.162 -0.333,0.028 -0.94,-0.078 -1.293,-0.378 -0.464,-0.393 -0.719,-0.786 -0.769,-1.382 -0.02,-0.237 -0.008,-0.391 0.052,-0.636 0.05,-0.204 0.149,-0.466 0.324,-0.673zm4.162 -1.762c-0.621,-0.526 -0.919,-0.573 -1.089,-0.694 0.015,-0.129 0.121,-1.232 0.089,-1.346 -0.222,-0.114 -0.55,-0.158 -0.771,-0.199 -0.192,-0.036 -0.591,-0.11 -0.774,-0.057 -0.022,0.102 -0.047,0.207 -0.076,0.314l-0.264 0.96c-0.096,0.028 -0.188,0.021 -0.29,0.032 -0.2,0.02 -0.781,0.146 -0.904,0.237 -0.12,-0.102 -0.331,-0.38 -0.447,-0.517 -0.079,-0.093 -0.137,-0.163 -0.219,-0.259 -0.059,-0.068 -0.195,-0.202 -0.22,-0.258 -0.39,0.156 -1.033,0.616 -1.293,0.923 0.042,0.092 0.102,0.182 0.153,0.279 0.055,0.104 0.111,0.2 0.161,0.295 0.055,0.103 0.104,0.187 0.161,0.294 0.054,0.103 0.117,0.198 0.16,0.294 -0.519,0.614 -0.597,0.969 -0.694,1.089 -0.108,-0.051 -1.11,-0.098 -1.318,-0.121 -0.027,0.122 -0.077,0.248 -0.113,0.378 -0.021,0.078 -0.018,0.113 -0.035,0.188 -0.018,0.084 -0.026,0.121 -0.04,0.203 -0.023,0.142 -0.039,0.256 -0.054,0.39 -0.066,0.552 -0.092,0.343 0.632,0.576l0.648 0.194c-0.019,0.162 0.096,0.672 0.162,0.864 0.036,0.108 0.064,0.201 0.103,0.299l-0.76 0.658c-0.084,0.075 -0.171,0.141 -0.257,0.242 0.097,0.243 0.641,1.054 0.906,1.279 0.089,-0.066 0.192,-0.111 0.294,-0.165l0.897 -0.503c0.284,0.241 0.671,0.556 1.039,0.652 -0.012,0.111 -0.013,0.224 -0.027,0.341l-0.041 0.511c-0.005,0.059 -0.014,0.104 -0.019,0.171 -0.009,0.127 -0.016,0.237 -0.029,0.356 0.237,0.027 0.554,0.184 1.158,0.23 0.083,0.006 0.335,0.002 0.387,0.027 0.092,-0.13 0.33,-1.176 0.398,-1.311l0.563 -0.088c0.129,-0.031 0.449,-0.112 0.553,-0.189 0.103,0.091 0.806,0.966 0.903,1.048 0.047,-0.035 0.111,-0.063 0.162,-0.09 0.327,-0.173 0.899,-0.559 1.131,-0.833 -0.064,-0.085 -0.108,-0.185 -0.158,-0.279l-0.508 -0.881c0.24,-0.283 0.39,-0.469 0.545,-0.784 0.034,-0.071 0.079,-0.185 0.138,-0.258 0.119,0.027 0.204,0.026 0.326,0.038l1.006 0.067c0.081,-0.113 0.184,-0.628 0.207,-0.771 0.03,-0.184 0.093,-0.622 0.049,-0.774 -0.142,-0.072 -0.321,-0.101 -0.474,-0.145 -0.055,-0.016 -0.102,-0.035 -0.157,-0.049 -0.21,-0.052 -0.421,-0.117 -0.629,-0.162 -0.033,-0.113 -0.05,-0.541 -0.162,-0.864 -0.022,-0.065 -0.037,-0.084 -0.053,-0.15 -0.014,-0.061 -0.013,-0.094 -0.051,-0.149l1.034 -0.886c-0.232,-0.578 -0.563,-0.888 -0.879,-1.312 -0.135,0.06 -1.094,0.599 -1.16,0.665z"/>
   <path class="fil1" d="M32.84 9.884c0.118,0.101 0.229,0.262 0.291,0.376 0.131,0.243 0.163,0.554 0.106,0.823 -0.238,1.119 -1.813,1.316 -2.298,0.252 -0.331,-0.727 0.085,-1.643 1.001,-1.722 0.275,-0.024 0.609,0.025 0.9,0.271zm-2.015 -0.171c-0.255,0.302 -0.372,0.489 -0.404,0.88 -0.004,0.049 -0.011,0.085 -0.017,0.14 -0.011,0.108 0.006,0.187 0.014,0.291 0.06,0.773 0.811,1.459 1.605,1.444 0.06,-0.002 0.101,0.004 0.155,0.002 0.065,-0.002 0.071,-0.015 0.136,-0.025 0.64,-0.098 1.159,-0.563 1.311,-1.195 0.388,-1.607 -1.257,-2.461 -2.248,-1.935 -0.155,0.082 -0.417,0.239 -0.552,0.398z"/>
  </g>
  <g id="_1556315428896">
   <path class="fil2" d="M44.492 12.539c0.107,-0.157 0.3,-0.329 0.429,-0.416 0.412,-0.279 1.132,-0.366 1.54,-0.089 0.516,0.352 0.701,0.471 0.834,1.153 0.153,0.786 -0.424,1.601 -1.202,1.745 -1.431,0.264 -2.369,-1.265 -1.601,-2.393zm3.49 -2.72l0.32 0.218c0.144,0.106 0.271,0.21 0.342,0.288l-0.534 0.987c0.293,0.199 0.414,0.694 0.561,0.795 0.001,0 0.488,-0.053 0.547,-0.058 0.184,-0.013 0.356,-0.034 0.534,-0.033 0.003,0.074 0.064,0.225 0.084,0.312 0.027,0.117 0.053,0.193 0.076,0.313 0.023,0.125 0.037,0.193 0.047,0.319 0.007,0.09 0.046,0.218 0.015,0.309 -0.19,0.076 -0.853,0.237 -1.039,0.312 -0.044,0.388 -0.063,0.574 -0.212,0.958 0.08,0.057 0.227,0.193 0.3,0.254 0.113,0.096 0.202,0.156 0.315,0.252 0.047,0.039 0.102,0.081 0.163,0.133 0.068,0.057 0.066,0.072 0.037,0.14 -0.028,0.063 -0.059,0.125 -0.094,0.186l-0.264 0.387c-0.116,0.151 -0.239,0.296 -0.348,0.43 -0.137,-0.093 -0.319,-0.177 -0.477,-0.268 -0.155,-0.088 -0.31,-0.157 -0.478,-0.272 -0.153,0.141 -0.222,0.194 -0.385,0.3 -0.119,0.078 -0.313,0.165 -0.397,0.242l0.079 0.821c0.008,0.099 0.035,0.185 -0.001,0.279 -0.211,0.084 -0.396,0.102 -0.61,0.157 -0.217,0.055 -0.369,0.105 -0.624,0.077l-0.312 -1.039c-0.075,-0.029 -0.17,-0.023 -0.251,-0.027 -0.298,-0.015 -0.642,-0.164 -0.739,-0.178 -0.156,0.229 -0.546,0.64 -0.69,0.852 -0.133,-0.086 -0.261,-0.123 -0.421,-0.232 -0.106,-0.072 -0.615,-0.399 -0.635,-0.486 -0.013,-0.058 0.46,-0.915 0.504,-0.98 -0.431,-0.349 -0.434,-0.825 -0.659,-0.802l-0.74 0.082c-0.087,0.006 -0.162,0.016 -0.243,0.015 -0.017,-0.043 -0.036,-0.102 -0.051,-0.154 -0.106,-0.352 -0.186,-0.709 -0.183,-1.08 0.067,-0.057 0.177,-0.077 0.259,-0.102 0.129,-0.04 0.684,-0.21 0.78,-0.21 0.001,-0.171 0.009,-0.338 0.049,-0.517l0.117 -0.415c0.015,-0.061 0.052,-0.068 -0.036,-0.158l-0.751 -0.627c0.066,-0.172 0.152,-0.344 0.277,-0.528 0.206,-0.303 0.328,-0.407 0.422,-0.539 0.164,0.111 0.757,0.384 0.967,0.521 0.055,-0.068 0.342,-0.28 0.414,-0.325 0.138,-0.085 0.275,-0.152 0.419,-0.21l-0.109 -1.094 0.622 -0.175c0.118,-0.023 0.194,-0.042 0.318,-0.05 0.104,-0.007 0.21,-0.029 0.306,-0.028l0.23 0.743c0.021,0.076 0.038,0.164 0.064,0.235 0.044,0.124 0.115,0.093 0.223,0.101 0.178,0.015 0.651,0.102 0.81,0.21 0.098,-0.145 0.227,-0.319 0.342,-0.445 0.1,-0.11 0.273,-0.297 0.348,-0.407 0.099,0.038 0.242,0.117 0.392,0.211z"/>
   <path class="fil2" d="M46.323 12.602c0.771,0.525 0.468,1.624 -0.331,1.793 -0.483,0.101 -0.993,-0.16 -1.143,-0.629 -0.314,-0.981 0.745,-1.661 1.474,-1.164zm-1.617 0.028c-0.735,1.08 0.197,2.321 1.269,2.111 0.487,-0.095 0.671,-0.226 0.959,-0.649 0.349,-0.513 0.183,-1.363 -0.325,-1.709 -0.301,-0.205 -0.489,-0.312 -0.875,-0.293 -0.377,0.02 -0.768,0.158 -1.028,0.54z"/>
  </g>
  <g id="_1556315431520">
   <path class="fil2" d="M51.102 9.982c-0.107,-0.158 -0.196,-0.4 -0.23,-0.552 -0.106,-0.486 0.077,-1.188 0.486,-1.465 0.516,-0.35 0.695,-0.478 1.378,-0.35 0.787,0.147 1.333,0.983 1.18,1.759 -0.281,1.428 -2.048,1.737 -2.814,0.608zm-1.244 -4.246l0.32 -0.218c0.152,-0.095 0.295,-0.174 0.394,-0.212l0.721 0.86c0.293,-0.199 0.798,-0.129 0.945,-0.229 0.001,0 0.131,-0.473 0.148,-0.529 0.056,-0.176 0.099,-0.345 0.166,-0.509 0.07,0.025 0.233,0.023 0.321,0.037 0.119,0.018 0.199,0.021 0.319,0.044 0.124,0.025 0.193,0.037 0.314,0.074 0.086,0.026 0.22,0.037 0.292,0.1 0.001,0.204 -0.093,0.88 -0.092,1.081 0.344,0.183 0.51,0.27 0.813,0.549 0.082,-0.053 0.263,-0.14 0.347,-0.185 0.131,-0.07 0.219,-0.13 0.35,-0.201 0.053,-0.029 0.113,-0.065 0.183,-0.102 0.078,-0.042 0.092,-0.035 0.144,0.018 0.048,0.048 0.094,0.1 0.138,0.156l0.263 0.387c0.098,0.164 0.187,0.331 0.272,0.482 -0.137,0.093 -0.282,0.231 -0.424,0.345 -0.14,0.111 -0.261,0.23 -0.43,0.344 0.075,0.195 0.099,0.278 0.138,0.469 0.028,0.139 0.037,0.351 0.078,0.458l0.792 0.229c0.096,0.029 0.185,0.035 0.259,0.103 0.002,0.227 -0.05,0.406 -0.078,0.625 -0.028,0.222 -0.038,0.382 -0.158,0.609l-1.081 -0.093c-0.055,0.06 -0.084,0.15 -0.118,0.224 -0.123,0.271 -0.388,0.537 -0.437,0.621 0.156,0.229 0.394,0.743 0.538,0.955 -0.129,0.092 -0.21,0.198 -0.37,0.307 -0.107,0.072 -0.598,0.425 -0.686,0.411 -0.059,-0.009 -0.682,-0.765 -0.726,-0.83 -0.483,0.273 -0.927,0.1 -0.988,0.318l-0.196 0.718c-0.027,0.083 -0.045,0.156 -0.075,0.231 -0.047,0.001 -0.108,-0.003 -0.163,-0.008 -0.366,-0.032 -0.727,-0.089 -1.071,-0.228 -0.029,-0.083 -0.006,-0.193 0,-0.279 0.011,-0.134 0.057,-0.713 0.093,-0.802 -0.159,-0.064 -0.311,-0.133 -0.463,-0.236l-0.344 -0.261c-0.05,-0.037 -0.043,-0.074 -0.159,-0.025l-0.86 0.467c-0.135,-0.124 -0.264,-0.267 -0.389,-0.451 -0.205,-0.303 -0.258,-0.455 -0.346,-0.591 0.164,-0.111 0.637,-0.563 0.841,-0.708 -0.043,-0.076 -0.135,-0.421 -0.149,-0.504 -0.029,-0.16 -0.041,-0.312 -0.042,-0.467l-1.057 -0.301 0.066 -0.643c0.022,-0.119 0.032,-0.196 0.07,-0.315 0.032,-0.098 0.051,-0.205 0.087,-0.294l0.776 0.06c0.078,0.008 0.166,0.024 0.242,0.027 0.131,0.005 0.129,-0.073 0.176,-0.17 0.079,-0.16 0.334,-0.568 0.493,-0.676 -0.099,-0.145 -0.213,-0.329 -0.288,-0.482 -0.065,-0.133 -0.175,-0.363 -0.25,-0.474 0.072,-0.078 0.197,-0.181 0.341,-0.286z"/>
   <path class="fil2" d="M51.834 8.303c0.772,-0.524 1.683,0.162 1.545,0.968 -0.083,0.486 -0.513,0.864 -1.004,0.831 -1.029,-0.07 -1.27,-1.305 -0.541,-1.799zm-0.569 1.514c0.733,1.081 2.231,0.67 2.43,-0.404 0.091,-0.488 0.037,-0.706 -0.251,-1.13 -0.348,-0.513 -1.199,-0.672 -1.708,-0.327 -0.301,0.205 -0.47,0.34 -0.594,0.706 -0.121,0.358 -0.136,0.772 0.123,1.155z"/>
  </g>
  <g id="_1556315432992">
   <path class="fil1" d="M39.438 8.108c-0.316,-0.206 -0.46,-0.345 -0.66,-0.645 -0.399,-0.596 -0.375,-1.459 0.015,-2.056 0.276,-0.422 0.792,-0.739 1.145,-0.812 0.424,-0.088 1,-0.066 1.369,0.175 0.323,0.211 0.519,0.353 0.73,0.693 0.124,0.198 0.192,0.38 0.237,0.593 0.069,0.327 0.039,0.942 -0.215,1.33 -0.332,0.509 -0.69,0.81 -1.277,0.934 -0.231,0.048 -0.387,0.055 -0.636,0.027 -0.209,-0.025 -0.481,-0.09 -0.708,-0.239zm-2.263 -3.912c-0.445,0.681 -0.456,0.983 -0.554,1.166 -0.131,0.001 -1.238,0.032 -1.347,0.079 -0.086,0.234 -0.089,0.564 -0.102,0.789 -0.012,0.195 -0.036,0.6 0.038,0.775 0.104,0.01 0.212,0.021 0.322,0.037l0.985 0.143c0.039,0.091 0.044,0.184 0.067,0.284 0.045,0.196 0.242,0.757 0.347,0.867 -0.086,0.132 -0.335,0.376 -0.457,0.508 -0.083,0.09 -0.145,0.156 -0.23,0.25 -0.061,0.067 -0.177,0.218 -0.23,0.25 0.204,0.367 0.74,0.949 1.076,1.168 0.087,-0.052 0.168,-0.123 0.259,-0.186 0.096,-0.067 0.185,-0.135 0.272,-0.196 0.096,-0.067 0.173,-0.126 0.272,-0.196 0.096,-0.066 0.182,-0.141 0.273,-0.196 0.672,0.44 1.035,0.473 1.166,0.555 -0.038,0.114 0.04,1.113 0.042,1.323 0.125,0.011 0.257,0.045 0.39,0.065 0.08,0.011 0.114,0.005 0.191,0.011 0.085,0.008 0.123,0.012 0.206,0.015 0.143,0.006 0.259,0.007 0.393,0.006 0.557,-0.004 0.352,0.048 0.494,-0.699l0.113 -0.666c0.163,-0.002 0.654,-0.179 0.837,-0.268 0.102,-0.049 0.191,-0.089 0.284,-0.14l0.747 0.674c0.084,0.073 0.161,0.152 0.272,0.225 0.229,-0.127 0.967,-0.766 1.157,-1.058 -0.077,-0.08 -0.134,-0.177 -0.2,-0.271l-0.61 -0.828c0.203,-0.312 0.469,-0.735 0.519,-1.112 0.111,-0.001 0.223,-0.014 0.341,-0.015l0.512 -0.023c0.06,-0.002 0.106,0.001 0.172,-0.002 0.127,-0.006 0.237,-0.013 0.358,-0.015 -0.003,-0.238 0.113,-0.572 0.084,-1.177 -0.004,-0.084 -0.039,-0.333 -0.021,-0.387 -0.14,-0.076 -1.208,-0.182 -1.35,-0.234l-0.157 -0.547c-0.046,-0.125 -0.167,-0.433 -0.256,-0.526 0.078,-0.114 0.859,-0.919 0.929,-1.025 -0.041,-0.043 -0.076,-0.103 -0.109,-0.15 -0.213,-0.304 -0.667,-0.823 -0.967,-1.019 -0.077,0.073 -0.171,0.13 -0.258,0.19l-0.811 0.614c-0.311,-0.203 -0.514,-0.329 -0.845,-0.444 -0.075,-0.026 -0.193,-0.055 -0.273,-0.105 0.011,-0.122 0,-0.206 -0.003,-0.328l-0.058 -1.007c-0.122,-0.066 -0.646,-0.104 -0.791,-0.11 -0.186,-0.008 -0.628,-0.015 -0.773,0.047 -0.055,0.15 -0.061,0.331 -0.086,0.488 -0.009,0.057 -0.022,0.106 -0.029,0.163 -0.026,0.214 -0.064,0.431 -0.084,0.644 -0.107,0.046 -0.529,0.116 -0.837,0.267 -0.061,0.03 -0.079,0.047 -0.142,0.071 -0.059,0.022 -0.091,0.024 -0.142,0.069l-1.007 -0.916c-0.545,0.301 -0.811,0.668 -1.193,1.033 0.077,0.127 0.73,1.012 0.804,1.07z"/>
   <path class="fil1" d="M39.385 5.769c0.085,-0.13 0.231,-0.26 0.337,-0.336 0.225,-0.16 0.53,-0.23 0.803,-0.207 1.141,0.098 1.531,1.637 0.535,2.25 -0.681,0.418 -1.641,0.119 -1.833,-0.781 -0.057,-0.27 -0.05,-0.607 0.158,-0.926zm0.08 2.02c0.331,0.216 0.53,0.309 0.923,0.292 0.048,-0.002 0.085,0.001 0.141,0 0.108,-0.003 0.184,-0.029 0.287,-0.05 0.759,-0.155 1.347,-0.985 1.234,-1.771 -0.009,-0.059 -0.009,-0.101 -0.017,-0.154 -0.01,-0.064 -0.024,-0.069 -0.042,-0.132 -0.176,-0.623 -0.702,-1.081 -1.347,-1.154 -1.644,-0.186 -2.288,1.552 -1.643,2.471 0.101,0.143 0.289,0.384 0.464,0.498z"/>
  </g>
 </g>
</svg>
