<?xml version="1.0" encoding="UTF-8"?>
<!DOCTYPE svg PUBLIC "-//W3C//DTD SVG 1.1//EN" "http://www.w3.org/Graphics/SVG/1.1/DTD/svg11.dtd">
<!-- Creator: CorelDRAW 2020 (64-Bit) -->
<svg xmlns="http://www.w3.org/2000/svg" xml:space="preserve" width="321px" height="100px" version="1.1" style="shape-rendering:geometricPrecision; text-rendering:geometricPrecision; image-rendering:optimizeQuality; fill-rule:evenodd; clip-rule:evenodd"
viewBox="0 0 3.18 0.99"
 xmlns:xlink="http://www.w3.org/1999/xlink"
 xmlns:xodm="http://www.corel.com/coreldraw/odm/2003">
 <defs>
  <style type="text/css">
   <![CDATA[
    .fil2 {fill:url(#id0)}
    .fil0 {fill:url(#id1)}
    .fil1 {fill:url(#id2);fill-rule:nonzero}
   ]]>
  </style>
  <linearGradient id="id0" gradientUnits="userSpaceOnUse" x1="1.94" y1="-0.56" x2="2.94" y2="1.42">
   <stop offset="0" style="stop-opacity:1; stop-color:#00030D"/>
   <stop offset="1" style="stop-opacity:1; stop-color:#0BBBEF"/>
  </linearGradient>
  <linearGradient id="id1" gradientUnits="userSpaceOnUse" xlink:href="#id0" x1="0.12" y1="-0.41" x2="1.44" y2="1.49">
  </linearGradient>
  <linearGradient id="id2" gradientUnits="userSpaceOnUse" x1="1.99" y1="0.27" x2="2.38" y2="0.91">
   <stop offset="0" style="stop-opacity:1; stop-color:#707982"/>
   <stop offset="1" style="stop-opacity:1; stop-color:#BCC2C2"/>
  </linearGradient>
 </defs>
 <g id="Слой_x0020_1">
  <metadata id="CorelCorpID_0Corel-Layer"/>
  <path class="fil0" d="M0.04 0.3c-0.03,-0.02 -0.04,-0.06 -0.04,-0.09 0,-0.07 0.06,-0.12 0.12,-0.12l0.66 0 0.66 0c0.06,0 0.12,0.05 0.12,0.12l0 0.66c0,0.07 -0.06,0.12 -0.12,0.12l-0.56 0 0 0c-0.1,0 -0.2,-0.04 -0.26,-0.11l-0.58 -0.58zm0.9 0.57l0 -0.66 0.21 0c0.08,0 0.15,0.02 0.19,0.05 0.05,0.03 0.07,0.07 0.07,0.13 0,0.03 -0.01,0.06 -0.02,0.08 -0.02,0.03 -0.04,0.05 -0.07,0.06 0.04,0.01 0.07,0.03 0.09,0.05 0.02,0.03 0.03,0.06 0.03,0.09 0,0.07 -0.03,0.12 -0.07,0.15 -0.04,0.03 -0.1,0.05 -0.18,0.05l-0.25 0zm0.15 -0.28l0 0.16 0.1 0c0.03,0 0.05,-0.01 0.07,-0.02 0.02,-0.01 0.02,-0.03 0.02,-0.06 0,-0.03 0,-0.05 -0.02,-0.06 -0.01,-0.02 -0.04,-0.02 -0.07,-0.02l0 0 -0.1 0zm0 -0.11l0.06 0c0.04,0 0.06,0 0.08,-0.01 0.02,-0.02 0.03,-0.04 0.03,-0.06 0,-0.03 -0.01,-0.05 -0.03,-0.06 -0.02,-0.02 -0.04,-0.02 -0.08,-0.02l-0.06 0 0 0.15z"/>
  <path class="fil1" d="M1.88 0.86c0,-0.01 -0.01,-0.02 -0.01,-0.03 0,-0.01 0,-0.02 0,-0.02 -0.01,0.01 -0.03,0.03 -0.05,0.04 -0.02,0.01 -0.04,0.02 -0.07,0.02 -0.04,0 -0.07,-0.01 -0.09,-0.03 -0.02,-0.02 -0.03,-0.05 -0.03,-0.09 0,-0.03 0.01,-0.06 0.04,-0.08 0.03,-0.02 0.07,-0.03 0.12,-0.03l0.08 0 0 -0.04c0,-0.02 -0.01,-0.04 -0.02,-0.05 -0.01,-0.02 -0.03,-0.02 -0.06,-0.02 -0.02,0 -0.04,0 -0.05,0.01 -0.02,0.02 -0.02,0.03 -0.02,0.04l-0.07 0.01 0 -0.01c0,-0.02 0.01,-0.05 0.04,-0.07 0.03,-0.03 0.06,-0.04 0.11,-0.04 0.04,0 0.07,0.01 0.1,0.04 0.03,0.02 0.04,0.05 0.04,0.09l0 0.19c0,0.01 0,0.02 0,0.04 0,0.01 0.01,0.02 0.01,0.03l-0.07 0zm-0.12 -0.05c0.03,0 0.05,0 0.07,-0.02 0.02,-0.01 0.03,-0.03 0.04,-0.04l0 -0.06 -0.08 0c-0.03,0 -0.05,0 -0.07,0.02 -0.01,0.01 -0.02,0.03 -0.02,0.05 0,0.01 0,0.03 0.02,0.04 0.01,0.01 0.02,0.01 0.04,0.01zm0.43 0.01c0.03,0 0.04,-0.01 0.06,-0.03 0.02,-0.01 0.02,-0.03 0.02,-0.05l0.07 0 0 0c0,0.04 -0.01,0.07 -0.04,0.09 -0.03,0.03 -0.07,0.04 -0.11,0.04 -0.05,0 -0.09,-0.02 -0.12,-0.05 -0.03,-0.04 -0.04,-0.09 -0.04,-0.14l0 -0.02c0,-0.05 0.01,-0.1 0.04,-0.13 0.03,-0.04 0.07,-0.06 0.12,-0.06 0.05,0 0.08,0.02 0.11,0.04 0.03,0.03 0.04,0.06 0.04,0.1l0 0 -0.07 0c0,-0.02 0,-0.04 -0.02,-0.06 -0.01,-0.01 -0.03,-0.02 -0.06,-0.02 -0.03,0 -0.06,0.01 -0.07,0.04 -0.02,0.02 -0.02,0.06 -0.02,0.09l0 0.02c0,0.04 0,0.07 0.02,0.1 0.01,0.02 0.04,0.04 0.07,0.04zm0.34 -0.13l-0.04 0 0 0.17 -0.07 0 0 -0.55 0.07 0 0 0.32 0.04 0 0.11 -0.15 0.09 0 -0.14 0.18 0.15 0.2 -0.08 0 -0.13 -0.17z"/>
  <path class="fil2" d="M2.85 0.09c0.18,0 0.33,0.17 0.33,0.39 0,0.21 -0.15,0.38 -0.33,0.38l0 -0.15c0.11,0 0.2,-0.1 0.2,-0.23 0,-0.13 -0.09,-0.24 -0.2,-0.24l-0.83 0c-0.01,0.06 -0.03,0.1 -0.07,0.08l-0.23 -0.13c-0.02,-0.01 -0.03,-0.03 -0.01,-0.05l0.25 -0.14c0.03,-0.01 0.05,0.03 0.06,0.09l0.83 0z"/>
 </g>
</svg>
