<?xml version="1.0" encoding="UTF-8"?>
<!DOCTYPE svg PUBLIC "-//W3C//DTD SVG 1.1//EN" "http://www.w3.org/Graphics/SVG/1.1/DTD/svg11.dtd">
<!-- Creator: CorelDRAW 2020 (64-Bit) -->
<svg xmlns="http://www.w3.org/2000/svg" xml:space="preserve" width="46px" height="80px" version="1.1" style="shape-rendering:geometricPrecision; text-rendering:geometricPrecision; image-rendering:optimizeQuality; fill-rule:evenodd; clip-rule:evenodd"
viewBox="0 0 3.808 6.622"
 xmlns:xlink="http://www.w3.org/1999/xlink"
 xmlns:xodm="http://www.corel.com/coreldraw/odm/2003">
 <defs>
  <style type="text/css">
   <![CDATA[
    .fil0 {fill:none}
    .fil1 {fill:red}
    .fil2 {fill:yellow}
   ]]>
  </style>
 </defs>
 <g id="Слой_x0020_1">
  <metadata id="CorelCorpID_0Corel-Layer"/>
  <rect class="fil0" width="3.808" height="6.622"/>
  <path class="fil1" d="M1.244 2.868c-0.048,0.137 -0.322,0.385 0.019,0.854 0.201,0.278 0.537,0.512 0.366,0.758 -0.082,0.118 -0.291,0.163 -0.422,0.033 -0.139,-0.136 -0.074,-0.285 -0.138,-0.478 -0.086,-0.261 -0.358,-0.495 -0.667,-0.543 0.063,0.094 0.198,0.17 0.268,0.366 0.163,0.459 -0.418,0.737 -0.194,1.583 0.188,0.706 0.654,1.121 1.515,1.098 1.347,-0.036 1.634,-1.308 1.213,-2.334 -0.069,-0.169 -0.081,-0.386 -0.045,-0.579 0.042,-0.234 0.105,-0.305 0.178,-0.472 -0.484,0.159 -0.441,0.775 -0.543,0.982 -0.115,0.234 -0.387,0.135 -0.476,-0.018 -0.314,-0.544 0.601,-0.696 -0.187,-1.72 -0.105,-0.136 -0.239,-0.251 -0.307,-0.45 -0.073,-0.214 -0.064,-0.45 0.05,-0.621 -0.208,0.087 -0.291,0.44 -0.258,0.732 0.056,0.479 0.649,1.277 0.054,1.371 -0.171,0.027 -0.282,-0.064 -0.338,-0.155 -0.105,-0.172 -0.069,-0.212 -0.088,-0.407z"/>
  <path class="fil2" d="M1.414 4.901c-0.048,-0.165 0.177,-0.469 -0.193,-0.574 0.109,0.218 0.01,0.342 -0.105,0.619 -0.086,0.207 -0.167,0.419 -0.15,0.678 0.031,0.475 0.337,0.813 0.802,0.849 0.754,0.059 1.011,-0.518 0.94,-1.1 -0.018,-0.146 -0.048,-0.219 -0.019,-0.378 0.059,-0.323 0.193,-0.369 0.338,-0.481 -0.226,-0.028 -0.426,0.126 -0.51,0.245 -0.062,0.087 -0.075,0.18 -0.126,0.262 -0.044,0.07 -0.176,0.12 -0.259,0.053 -0.027,-0.126 0.098,-0.191 0.132,-0.343 0.059,-0.255 -0.129,-0.6 -0.019,-0.844 0.029,-0.066 0.063,-0.091 0.105,-0.133 0.043,-0.044 0.093,-0.063 0.131,-0.105 -0.334,0.027 -0.554,0.246 -0.574,0.586 -0.01,0.176 -0.043,0.338 -0.122,0.467 -0.06,0.097 -0.2,0.251 -0.371,0.199z"/>
 </g>
</svg>
