<?xml version="1.0" encoding="UTF-8"?>
<!DOCTYPE svg PUBLIC "-//W3C//DTD SVG 1.1//EN" "http://www.w3.org/Graphics/SVG/1.1/DTD/svg11.dtd">
<!-- Creator: CorelDRAW 2020 (64-Bit) -->
<svg xmlns="http://www.w3.org/2000/svg" xml:space="preserve" width="46px" height="80px" version="1.1" style="shape-rendering:geometricPrecision; text-rendering:geometricPrecision; image-rendering:optimizeQuality; fill-rule:evenodd; clip-rule:evenodd"
viewBox="0 0 11.273 19.605"
 xmlns:xlink="http://www.w3.org/1999/xlink"
 xmlns:xodm="http://www.corel.com/coreldraw/odm/2003">
 <defs>
  <style type="text/css">
   <![CDATA[
    .fil0 {fill:none}
    .fil1 {fill:red}
    .fil2 {fill:yellow}
   ]]>
  </style>
 </defs>
 <g id="Слой_x0020_1">
  <metadata id="CorelCorpID_0Corel-Layer"/>
  <rect class="fil0" width="11.273" height="19.605"/>
  <path class="fil1" d="M4.273 7.2c0.665,0.722 -0.022,1.177 -0.261,1.509 -0.49,0.681 0.028,1.188 0.338,1.712 0.534,0.905 -0.477,1.538 -1.479,0.244l-0.395 -0.863c-0.526,1.976 1.071,1.985 1.271,3.278 0.083,0.534 -0.197,0.814 -0.552,0.988 -0.813,0.399 -1.266,0.677 -1.509,1.664 -0.89,3.607 3.534,4.172 5.49,3.259 2.022,-0.943 1.393,-3.156 2.383,-3.957 -0.968,-0.125 -1.119,0.801 -1.569,1.124 -0.872,0.623 -1.261,-0.476 -0.875,-1.29 0.423,-0.894 1.273,-0.735 1.688,-1.074 0.524,-0.428 0.719,-1.114 0.718,-2.031 -0.002,-1.379 -0.667,-2.024 -0.411,-2.722 0.119,-0.325 0.343,-0.37 0.534,-0.564 -0.794,-0.055 -1.336,0.468 -1.266,1.271 0.054,0.613 0.476,1.773 0.023,2.232 -0.39,0.396 -1.666,0.422 -1.748,-0.338 -0.066,-0.609 0.496,-1.491 0.762,-1.882 1.104,-1.623 -0.6,-2.478 -0.983,-3.541 -0.314,-0.872 0.474,-1.245 0.645,-1.795 0.266,-0.854 -0.262,-1.583 -0.727,-1.853 0.181,0.388 0.448,0.777 0.179,1.301 -0.1,0.198 -0.238,0.321 -0.372,0.453 -1.832,1.792 0.035,3.114 -0.258,4.575 -0.083,0.411 -0.565,0.87 -0.95,0.508 -0.275,-0.259 0.124,-0.97 0.114,-1.35 -0.012,-0.444 -0.444,-0.79 -0.79,-0.858z"/>
  <path class="fil2" d="M3.857 14.537c-0.142,-0.488 0.524,-1.388 -0.573,-1.7 0.325,0.646 0.029,1.012 -0.311,1.834 -0.254,0.612 -0.493,1.239 -0.442,2.006 0.092,1.408 0.996,2.409 2.373,2.515 2.233,0.174 2.995,-1.534 2.783,-3.259 -0.053,-0.431 -0.142,-0.646 -0.056,-1.118 0.175,-0.956 0.572,-1.092 1.002,-1.423 -0.67,-0.083 -1.262,0.373 -1.512,0.724 -0.183,0.257 -0.221,0.534 -0.372,0.776 -0.129,0.207 -0.523,0.356 -0.766,0.158 -0.08,-0.374 0.288,-0.565 0.391,-1.015 0.173,-0.755 -0.382,-1.778 -0.058,-2.5 0.086,-0.194 0.188,-0.268 0.31,-0.393 0.128,-0.131 0.277,-0.188 0.39,-0.312 -0.99,0.079 -1.642,0.728 -1.699,1.737 -0.03,0.519 -0.13,0.998 -0.364,1.381 -0.174,0.286 -0.59,0.744 -1.096,0.589z"/>
 </g>
</svg>
