<?xml version="1.0" encoding="UTF-8"?>
<!DOCTYPE svg PUBLIC "-//W3C//DTD SVG 1.1//EN" "http://www.w3.org/Graphics/SVG/1.1/DTD/svg11.dtd">
<!-- Creator: CorelDRAW 2020 (64-Bit) -->
<svg xmlns="http://www.w3.org/2000/svg" xml:space="preserve" width="46px" height="80px" version="1.1" style="shape-rendering:geometricPrecision; text-rendering:geometricPrecision; image-rendering:optimizeQuality; fill-rule:evenodd; clip-rule:evenodd"
viewBox="0 0 4.563 7.936"
 xmlns:xlink="http://www.w3.org/1999/xlink"
 xmlns:xodm="http://www.corel.com/coreldraw/odm/2003">
 <defs>
  <style type="text/css">
   <![CDATA[
    .fil0 {fill:none}
    .fil1 {fill:red}
    .fil2 {fill:yellow}
   ]]>
  </style>
 </defs>
 <g id="Слой_x0020_1">
  <metadata id="CorelCorpID_0Corel-Layer"/>
  <rect class="fil0" width="4.563" height="7.936"/>
  <path class="fil1" d="M0.702 4.691c0.08,0.165 0.177,0.168 0.125,0.549 -0.128,0.948 -0.458,2.2 0.903,2.538 0.428,0.107 0.899,0.067 1.275,-0.097 0.799,-0.348 1.009,-1.376 0.751,-2.023 -0.104,-0.264 -0.456,-0.461 -0.092,-1.079 0.22,-0.374 0.169,-0.738 -0.197,-1.007 0.238,0.721 0.055,0.646 -0.27,1.016 -0.199,0.227 -0.136,0.253 -0.17,0.572 -0.02,0.194 -0.169,0.354 -0.373,0.354 -0.378,0.002 -0.142,-0.403 -0.132,-0.434 0.082,-0.263 -0.034,-0.414 -0.102,-0.611 -0.088,-0.256 0.286,-0.916 -0.124,-1.191 0.116,0.848 -0.374,0.88 -0.509,0.682 -0.192,-0.281 -0.014,-0.639 -0.159,-0.911 -0.038,-0.071 -0.104,-0.155 -0.181,-0.187 0.137,0.416 -0.06,0.64 -0.083,1.087 -0.036,0.739 0.248,0.888 0.312,1.026 0.205,0.443 -0.328,0.914 -0.496,0.568 -0.079,-0.161 0.123,-0.705 -0.478,-0.852z"/>
  <path class="fil2" d="M1.194 5.076c-0.077,0.056 -0.125,0.261 -0.076,0.364 0.043,0.09 0.181,0.168 0.263,0.242 0.216,0.195 0.195,0.449 0.077,0.74 -0.107,0.264 -0.174,0.527 -0.054,0.816 0.233,0.562 0.929,0.643 1.372,0.425 0.503,-0.247 0.735,-0.948 0.543,-1.33 -0.049,-0.097 -0.142,-0.214 -0.154,-0.353 -0.015,-0.18 0.143,-0.2 0.13,-0.374 -0.059,0.049 -0.055,0.066 -0.144,0.114 -0.429,0.233 -0.035,0.652 -0.177,0.781 -0.065,0.06 -0.159,0.032 -0.19,-0.035 -0.054,-0.12 -0.019,-0.341 0.008,-0.471 0.041,-0.192 0.072,-0.254 -0.016,-0.439 -0.061,-0.13 -0.145,-0.216 -0.226,-0.318 -0.151,-0.194 -0.158,-0.376 0.025,-0.573 0.044,-0.048 0.1,-0.071 0.146,-0.115 -0.298,0.019 -0.54,0.216 -0.632,0.419 -0.169,0.377 0.187,0.55 0.114,0.878 -0.015,0.068 -0.062,0.125 -0.109,0.151 -0.194,0.105 -0.149,-0.219 -0.376,-0.395 -0.324,-0.251 -0.583,-0.11 -0.524,-0.527z"/>
 </g>
</svg>
