<?xml version="1.0" encoding="UTF-8"?>
<!DOCTYPE svg PUBLIC "-//W3C//DTD SVG 1.1//EN" "http://www.w3.org/Graphics/SVG/1.1/DTD/svg11.dtd">
<!-- Creator: CorelDRAW 2020 (64-Bit) -->
<svg xmlns="http://www.w3.org/2000/svg" xml:space="preserve" width="46px" height="80px" version="1.1" style="shape-rendering:geometricPrecision; text-rendering:geometricPrecision; image-rendering:optimizeQuality; fill-rule:evenodd; clip-rule:evenodd"
viewBox="0 0 22.11 38.452"
 xmlns:xlink="http://www.w3.org/1999/xlink"
 xmlns:xodm="http://www.corel.com/coreldraw/odm/2003">
 <defs>
  <style type="text/css">
   <![CDATA[
    .fil0 {fill:none}
    .fil1 {fill:red}
    .fil2 {fill:yellow}
   ]]>
  </style>
 </defs>
 <g id="Слой_x0020_1">
  <metadata id="CorelCorpID_0Corel-Layer"/>
  <rect class="fil0" width="22.11" height="38.452"/>
  <path class="fil1" d="M10.903 18.772c0.315,-1.836 -0.433,-3.137 -1.976,-3.509 1.618,2.308 0.532,3.111 -0.994,4.384 -3.632,3.029 2.353,4.693 0.343,7.954 -0.366,-0.772 -0.182,-0.88 -0.864,-1.415 -1.692,-1.328 -2.801,-1.185 -2.871,-4.179 -0.939,1.347 -0.457,2.957 0.088,4.423 0.746,2.007 1.139,2.513 -0.26,4.067 -0.887,0.985 -1.545,2.407 -0.847,4.195 0.499,1.279 1.674,2.133 3.143,2.622 3.959,1.319 10.419,0.96 11.931,-3.896 0.42,-1.351 0.411,-3.733 -0.465,-4.636 0.084,0.962 -0.105,2.054 -0.585,2.737 -0.178,-1.513 -0.693,-2.634 -1.482,-3.833 -0.517,-0.783 -1.877,-2.252 -0.771,-3.797 0.313,-0.439 1.318,-1.119 1.268,-1.817 -0.045,-0.62 0.04,-0.126 -0.122,-0.358 -0.361,0.865 -1.099,0.773 -2.065,1.484 -1.229,0.905 -0.549,1.512 -0.771,2.919 -1.799,0.119 -1.09,-3.059 -0.621,-4.194 1.006,-2.431 2.791,-3.399 1.141,-6.37 -0.739,-1.331 -2.121,-1.774 -1.645,-4.169 0.198,-0.997 0.544,-1.378 0.883,-2.077 -1.218,0.523 -2.709,2.435 -2.247,4.526 0.291,1.319 1.946,2.481 0.339,4.482 -0.256,0.319 -0.199,0.278 -0.55,0.457z"/>
  <path class="fil2" d="M5.72 24.644c-0.373,0.271 -0.606,1.265 -0.367,1.761 0.209,0.435 0.876,0.817 1.271,1.173 1.05,0.948 0.944,2.178 0.374,3.586 -0.517,1.278 -0.843,2.554 -0.262,3.955 1.128,2.721 4.501,3.114 6.651,2.059 2.436,-1.197 3.56,-4.592 2.628,-6.443 -0.239,-0.474 -0.686,-1.04 -0.743,-1.71 -0.075,-0.876 0.689,-0.971 0.625,-1.814 -0.284,0.238 -0.263,0.32 -0.694,0.553 -2.081,1.128 -0.172,3.158 -0.856,3.783 -0.317,0.29 -0.774,0.157 -0.922,-0.168 -0.265,-0.582 -0.093,-1.656 0.039,-2.282 0.197,-0.932 0.345,-1.234 -0.079,-2.131 -0.296,-0.625 -0.705,-1.045 -1.094,-1.541 -0.734,-0.935 -0.765,-1.818 0.119,-2.775 0.213,-0.231 0.484,-0.344 0.709,-0.556 -1.447,0.09 -2.617,1.046 -3.061,2.032 -0.822,1.827 0.904,2.661 0.55,4.252 -0.073,0.33 -0.301,0.608 -0.525,0.73 -0.94,0.509 -0.723,-1.061 -1.822,-1.911 -1.572,-1.215 -2.829,-0.536 -2.541,-2.553z"/>
 </g>
</svg>
