<?xml version="1.0" encoding="UTF-8"?>
<!DOCTYPE svg PUBLIC "-//W3C//DTD SVG 1.1//EN" "http://www.w3.org/Graphics/SVG/1.1/DTD/svg11.dtd">
<!-- Creator: CorelDRAW 2020 (64-Bit) -->
<svg xmlns="http://www.w3.org/2000/svg" xml:space="preserve" width="46px" height="80px" version="1.1" style="shape-rendering:geometricPrecision; text-rendering:geometricPrecision; image-rendering:optimizeQuality; fill-rule:evenodd; clip-rule:evenodd"
viewBox="0 0 571.58 994.044"
 xmlns:xlink="http://www.w3.org/1999/xlink"
 xmlns:xodm="http://www.corel.com/coreldraw/odm/2003">
 <defs>
  <style type="text/css">
   <![CDATA[
    .str0 {stroke:black;stroke-width:24.853;stroke-miterlimit:22.9256}
    .fil2 {fill:black}
    .fil0 {fill:none}
    .fil1 {fill:white}
   ]]>
  </style>
 </defs>
 <g id="Слой_x0020_1">
  <metadata id="CorelCorpID_0Corel-Layer"/>
  <rect class="fil0" width="571.579" height="994.044"/>
  <circle class="fil1 str0" cx="285.788" cy="727.385" r="223.66"/>
  <path class="fil2" d="M184.831 615.414c-7.594,5.516 -12.324,25.729 -7.47,35.831 4.251,8.848 17.822,16.621 25.856,23.867 21.366,19.277 19.21,44.295 7.615,72.934 -10.524,26.001 -17.16,51.967 -5.343,80.454 22.961,55.348 91.57,63.351 135.295,41.883 49.568,-24.342 72.431,-93.409 53.463,-131.069 -4.853,-9.629 -13.955,-21.136 -15.117,-34.781 -1.518,-17.819 14.029,-19.739 12.729,-36.888 -5.794,4.843 -5.364,6.509 -14.117,11.246 -42.336,22.933 -3.508,64.234 -17.427,76.957 -6.446,5.885 -15.745,3.18 -18.742,-3.413 -5.389,-11.846 -1.899,-33.694 0.785,-46.43 4.002,-18.964 7.024,-25.096 -1.602,-43.341 -6.016,-12.726 -14.346,-21.27 -22.25,-31.347 -14.931,-19.027 -15.565,-36.991 2.413,-56.454 4.332,-4.695 9.851,-7.003 14.427,-11.314 -29.439,1.839 -53.246,21.285 -62.266,41.33 -16.727,37.173 18.382,54.129 11.194,86.502 -1.49,6.702 -6.136,12.37 -10.701,14.842 -19.118,10.363 -14.687,-21.587 -37.057,-38.874 -31.964,-24.712 -57.542,-10.887 -51.685,-51.935z"/>
 </g>
</svg>
