<?xml version="1.0" encoding="UTF-8"?>
<!DOCTYPE svg PUBLIC "-//W3C//DTD SVG 1.1//EN" "http://www.w3.org/Graphics/SVG/1.1/DTD/svg11.dtd">
<!-- Creator: CorelDRAW 2020 (64-Bit) -->
<svg xmlns="http://www.w3.org/2000/svg" xml:space="preserve" width="46px" height="80px" version="1.1" style="shape-rendering:geometricPrecision; text-rendering:geometricPrecision; image-rendering:optimizeQuality; fill-rule:evenodd; clip-rule:evenodd"
viewBox="0 0 5.693 9.9"
 xmlns:xlink="http://www.w3.org/1999/xlink"
 xmlns:xodm="http://www.corel.com/coreldraw/odm/2003">
 <defs>
  <style type="text/css">
   <![CDATA[
    .fil0 {fill:none}
    .fil1 {fill:red}
    .fil2 {fill:yellow}
   ]]>
  </style>
 </defs>
 <g id="Слой_x0020_1">
  <metadata id="CorelCorpID_0Corel-Layer"/>
  <rect class="fil0" width="5.693" height="9.9"/>
  <path class="fil1" d="M1.547 4.629c0.312,0.3 0.431,0.441 0.125,0.878 -0.337,0.48 -0.178,0.54 0.023,1.002 0.09,0.206 0.087,0.359 -0.075,0.488 -0.324,0.261 -0.749,-0.004 -0.896,-0.243 -0.132,-0.214 -0.11,-0.291 -0.139,-0.565 -0.044,0.154 -0.57,0.846 0.331,1.225 0.888,0.374 0.144,0.764 0.136,1.249 -0.008,0.542 0.49,0.902 0.93,1.018 0.508,0.134 1.228,0.127 1.726,-0.02 0.541,-0.16 0.857,-0.425 1.12,-0.813 0.237,-0.351 0.449,-0.998 0.441,-1.522 -0.007,-0.566 -0.289,-1.078 -0.559,-1.396 -0.331,-0.388 -0.709,-0.543 -0.181,-1.2 0.042,-0.052 0.006,-0.002 0.043,-0.055 -0.251,0.071 -0.625,0.387 -0.606,0.72 0.029,0.49 1.05,1.202 0.43,1.87 -0.411,0.443 -0.705,0.049 -0.53,-0.258 0.308,-0.539 0.372,-0.671 -0.184,-1.365 -0.074,-0.092 -0.22,-0.278 -0.255,-0.417 -0.096,-0.391 0.424,-0.555 0.248,-0.973 -0.259,-0.618 0.075,-0.826 0.166,-0.994 -0.288,0.072 -0.432,0.303 -0.506,0.636 -0.138,0.622 0.083,0.395 -0.369,0.802 -0.68,0.611 -0.153,1.164 0.03,1.665 0.158,0.433 -0.168,0.62 -0.49,0.394 -0.145,-0.102 -0.428,-0.434 -0.474,-0.688 -0.063,-0.354 0.305,-0.541 0.152,-0.933 -0.083,-0.213 -0.366,-0.456 -0.637,-0.505z"/>
  <path class="fil2" d="M2.216 7.361c-0.071,-0.247 0.265,-0.701 -0.289,-0.859 0.164,0.326 0.015,0.511 -0.157,0.926 -0.128,0.309 -0.248,0.626 -0.223,1.013 0.046,0.711 0.503,1.217 1.198,1.27 1.128,0.088 1.513,-0.774 1.406,-1.645 -0.027,-0.218 -0.072,-0.327 -0.028,-0.565 0.088,-0.483 0.288,-0.552 0.506,-0.719 -0.339,-0.042 -0.638,0.189 -0.764,0.366 -0.093,0.13 -0.112,0.27 -0.188,0.392 -0.065,0.104 -0.264,0.179 -0.387,0.08 -0.04,-0.189 0.146,-0.286 0.198,-0.513 0.087,-0.381 -0.193,-0.898 -0.03,-1.263 0.044,-0.097 0.095,-0.135 0.157,-0.198 0.064,-0.066 0.14,-0.095 0.197,-0.158 -0.5,0.041 -0.829,0.368 -0.858,0.877 -0.015,0.263 -0.066,0.505 -0.184,0.698 -0.088,0.145 -0.298,0.376 -0.554,0.298z"/>
 </g>
</svg>
