<?xml version="1.0" encoding="UTF-8"?>
<!DOCTYPE svg PUBLIC "-//W3C//DTD SVG 1.1//EN" "http://www.w3.org/Graphics/SVG/1.1/DTD/svg11.dtd">
<!-- Creator: CorelDRAW 2020 (64-Bit) -->
<svg xmlns="http://www.w3.org/2000/svg" xml:space="preserve" width="46px" height="80px" version="1.1" style="shape-rendering:geometricPrecision; text-rendering:geometricPrecision; image-rendering:optimizeQuality; fill-rule:evenodd; clip-rule:evenodd"
viewBox="0 0 7.565 13.157"
 xmlns:xlink="http://www.w3.org/1999/xlink"
 xmlns:xodm="http://www.corel.com/coreldraw/odm/2003">
 <defs>
  <style type="text/css">
   <![CDATA[
    .fil0 {fill:none}
    .fil1 {fill:red}
    .fil2 {fill:yellow}
   ]]>
  </style>
 </defs>
 <g id="Слой_x0020_1">
  <metadata id="CorelCorpID_0Corel-Layer"/>
  <rect class="fil0" width="7.565" height="13.157"/>
  <path class="fil1" d="M1.554 5.137c0.405,1.092 -0.444,2.241 0.299,3.047 0.11,0.12 0.193,0.186 0.298,0.296 0.127,0.133 0.188,0.208 0.31,0.321 0.816,0.758 -0.004,1.467 -0.393,0.945 -0.191,-0.257 -0.049,-0.634 -0.255,-0.928 -0.144,-0.207 -0.452,-0.388 -0.769,-0.478 0.174,0.299 0.454,0.425 0.301,1.077 -0.348,1.484 -0.382,3.029 1.38,3.459 2.58,0.631 4.268,-1.367 3.542,-3.578 -0.48,-1.461 -0.235,-1.332 0.156,-2.183 0.078,-0.17 0.131,-0.376 0.019,-0.556l-0.126 -0.13c-0.006,-0.005 -0.017,-0.014 -0.026,-0.021 0.013,0.947 -0.965,0.794 -1.048,1.582 -0.023,0.223 -0.008,0.411 -0.136,0.532 -0.109,0.104 -0.831,0.374 -0.433,-1.105 0.108,-0.4 0.197,-0.697 0.117,-1.144 -0.075,-0.416 -0.246,-0.596 -0.467,-0.873 -0.281,-0.353 -1.066,-1.017 -0.733,-1.792 -0.602,0.276 -0.52,1.147 -0.341,1.84 0.093,0.364 0.231,0.636 -0.044,0.896 -0.194,0.183 -0.511,0.357 -0.424,0.795 0.044,0.226 0.38,0.919 -0.113,0.629 -0.964,-0.569 -0.193,-2.407 -1.114,-2.631z"/>
  <path class="fil2" d="M1.867 8.426c-0.128,0.093 -0.207,0.433 -0.126,0.603 0.072,0.148 0.3,0.279 0.435,0.401 0.359,0.324 0.323,0.745 0.128,1.227 -0.177,0.437 -0.288,0.874 -0.09,1.353 0.387,0.931 1.541,1.066 2.276,0.704 0.834,-0.409 1.218,-1.571 0.899,-2.204 -0.081,-0.162 -0.234,-0.356 -0.254,-0.585 -0.025,-0.3 0.236,-0.332 0.214,-0.621 -0.097,0.082 -0.09,0.11 -0.237,0.19 -0.712,0.385 -0.059,1.08 -0.293,1.294 -0.109,0.099 -0.265,0.053 -0.316,-0.057 -0.09,-0.2 -0.032,-0.567 0.014,-0.781 0.067,-0.319 0.118,-0.422 -0.027,-0.729 -0.102,-0.214 -0.242,-0.358 -0.375,-0.528 -0.251,-0.32 -0.261,-0.622 0.041,-0.949 0.073,-0.079 0.166,-0.118 0.243,-0.191 -0.496,0.031 -0.896,0.359 -1.048,0.696 -0.281,0.625 0.309,0.91 0.189,1.455 -0.026,0.112 -0.104,0.208 -0.18,0.249 -0.322,0.175 -0.248,-0.363 -0.624,-0.654 -0.537,-0.415 -0.968,-0.183 -0.869,-0.873z"/>
 </g>
</svg>
