<?xml version="1.0" encoding="UTF-8"?>
<!DOCTYPE svg PUBLIC "-//W3C//DTD SVG 1.1//EN" "http://www.w3.org/Graphics/SVG/1.1/DTD/svg11.dtd">
<!-- Creator: CorelDRAW 2020 (64-Bit) -->
<svg xmlns="http://www.w3.org/2000/svg" xml:space="preserve" width="252px" height="250px" version="1.1" style="shape-rendering:geometricPrecision; text-rendering:geometricPrecision; image-rendering:optimizeQuality; fill-rule:evenodd; clip-rule:evenodd"
viewBox="0 0 131.711 130.672"
 xmlns:xlink="http://www.w3.org/1999/xlink"
 xmlns:xodm="http://www.corel.com/coreldraw/odm/2003">
 <defs>
  <style type="text/css">
   <![CDATA[
    .fil0 {fill:black}
   ]]>
  </style>
 </defs>
 <g id="Слой_x0020_1">
  <metadata id="CorelCorpID_0Corel-Layer"/>
  <g id="_2092236806816">
   <path class="fil0" d="M8.881 66.94c0,-10.956 1.28,-16.05 4.917,-24.86 1.087,-2.633 3.401,-6.455 4.928,-8.653 9.739,-14.016 27.075,-24.473 44.484,-24.473 11.65,0 16.367,0.451 27.158,5.23 2.787,1.235 5.755,3.079 8.267,4.792 1.278,0.872 2.743,1.895 3.877,2.915l3.668 3.123c1.324,1.159 1.757,2.093 2.884,3.385 7.368,8.445 13.699,21.397 13.699,33.317 0,15.126 -1.865,24.978 -10.97,37.09 -2.278,3.03 -3.709,4.469 -6.399,7.184 -16.075,16.221 -41.382,19.842 -62.864,10.883 -3.22,-1.343 -5.974,-3.091 -8.681,-4.901 -14.35,-9.598 -24.968,-26.832 -24.968,-45.032zm-8.881 -2.612c0,10.752 2.242,20.403 6.088,28.39 3.87,8.039 7.083,12.108 12.771,18.05 0.074,0.077 0.181,0.189 0.257,0.265l0.538 0.507c12.834,11.866 27.142,19.132 46.168,19.132 16.407,0 34.2,-7.183 45.589,-18.143 2.694,-2.593 5.064,-5.311 7.327,-8.345 2.101,-2.816 4.722,-6.646 6.303,-9.891 10.436,-21.424 8.656,-47.916 -5.556,-66.912 -4.043,-5.404 -2.614,-3.681 -7.301,-8.371 -2.899,-2.901 -4.994,-4.79 -8.54,-7.132 -47.773,-31.569 -103.644,4.562 -103.644,52.45z"/>
   <path class="fil0" d="M16.194 53.88c0,26.204 -1.771,24.155 4.684,24.048l12.57 -0.033c2.296,0.25 4.769,3.114 7.366,5.171l6.881 5.657c0.362,0.313 1.392,1.156 1.747,1.387 1.625,1.055 -0.24,0.651 2.275,0.86l0 -51.195c-3.425,0.798 -13.055,10.563 -15.937,12.277 -1.882,1.12 -0.373,0.465 -1.961,0.409l-12.41 -0.158c-2.415,-0.032 -5.215,-0.699 -5.215,1.577z"/>
   <path class="fil0" d="M100.3 64.85c0,27.328 -16.299,38.62 -18.807,43.359 3.158,5.967 5.708,0.55 9.013,-3.003 6.176,-6.639 10.636,-15.677 12.94,-24.672 3.93,-15.339 1.995,-27.095 -3.741,-41.209 -1.715,-4.221 -9.138,-16.693 -14.032,-17.834 -3.462,3.009 -1.467,3.713 2.449,8.521 7.296,8.957 12.178,21.935 12.178,34.838z"/>
   <path class="fil0" d="M73.135 33.506c0,2.525 4.899,6.507 8.367,13.574 4.439,9.05 5.194,18.666 2.72,28.857 -1.373,5.66 -5.083,12.505 -8.863,16.735l-2.937 3.392c-0.697,0.865 -1.012,0.555 -0.694,2.027 0.417,1.93 1.451,1.759 2.974,1.759 3.902,0 12.512,-15.191 14.404,-22.686 2.759,-10.934 1.744,-20.999 -2.605,-31.426 -1.845,-4.425 -6.372,-12.003 -10.754,-14.321 -0.711,0.376 -2.612,1.143 -2.612,2.089z"/>
   <path class="fil0" d="M61.12 44.999c0,2.138 1.305,2.37 2.619,4.172 0.811,1.111 1.705,2.452 2.442,3.827 4.614,8.6 3.497,21.327 -2.595,28.423 -2.421,2.819 -5.353,4.303 -0.376,6.937 7.015,-3.712 10.97,-15.45 10.97,-24.553 0,-4.516 -1.689,-9.428 -3.132,-12.539 -4.081,-8.792 -9.928,-10.25 -9.928,-6.267z"/>
  </g>
 </g>
</svg>
