<?xml version="1.0" encoding="UTF-8"?>
<!DOCTYPE svg PUBLIC "-//W3C//DTD SVG 1.1//EN" "http://www.w3.org/Graphics/SVG/1.1/DTD/svg11.dtd">
<!-- Creator: CorelDRAW 2020 (64-Bit) -->
<svg xmlns="http://www.w3.org/2000/svg" xml:space="preserve" width="276px" height="180px" version="1.1" style="shape-rendering:geometricPrecision; text-rendering:geometricPrecision; image-rendering:optimizeQuality; fill-rule:evenodd; clip-rule:evenodd"
viewBox="0 0 41.644 27.159"
 xmlns:xlink="http://www.w3.org/1999/xlink"
 xmlns:xodm="http://www.corel.com/coreldraw/odm/2003">
 <defs>
  <style type="text/css">
   <![CDATA[
    .str0 {stroke:black;stroke-width:0.302;stroke-miterlimit:22.9256}
    .str1 {stroke:black;stroke-width:0.302;stroke-miterlimit:22.9256}
    .fil3 {fill:white}
    .fil1 {fill:black}
    .fil4 {fill:blue}
    .fil2 {fill:white}
    .fil0 {fill:none}
    .fil5 {fill:#777777}

    .nocolor {fill:none}
    .color1 {fill:#ff0000}
    .color2 {fill:#00ff00}
    .color3 {fill:#0000ff}
    .color4 {fill:#ffff00}
    .color5 {fill:#ff00ff}
    .color6 {fill:#00ffff}
    .color7 {fill:#777777}

   ]]>
  </style>
 </defs>
 <g id="Слой_x0020_1">
  <metadata id="CorelCorpID_0Corel-Layer"/>
  <rect class="fil0" width="41.644" height="27.159"/>
  <ellipse class="fil1" cx="2.807" cy="22.273" rx="0.905" ry="1.358"/>
  <ellipse class="fil1" cx="2.807" cy="24.989" rx="0.905" ry="1.358"/>
  <rect class="fil1" x="2.235" y="23.183" width="1.779" height="0.905"/>
  <rect class="fil2 str0" x="4.165" y="22.58" width="0.635" height="2.112"/>
  <rect class="fil2 str0" x="4.769" y="22.278" width="3.319" height="2.716"/>
  <rect class="fil5 str0" transform="matrix(3.66702E-14 2.50004 -1.49998 7.17302E-14 7.78657 24.9936)" width="0.604" height="1.811"/>
  <ellipse class="fil1" cx="9.748" cy="22.273" rx="0.905" ry="1.358"/>
  <ellipse class="fil1" cx="9.748" cy="24.989" rx="0.905" ry="1.358"/>
  <rect class="fil1" x="9.176" y="23.183" width="1.779" height="0.905"/>
  <rect class="fil2 str0" x="11.106" y="22.58" width="0.635" height="2.112"/>
  <rect class="fil2 str0" x="11.71" y="22.278" width="3.319" height="2.716"/>
  <rect class="fil5 str0" transform="matrix(3.66702E-14 2.50004 -1.49998 7.17302E-14 14.7273 24.9936)" width="0.604" height="1.811"/>
  <rect class="fil5 str0" transform="matrix(3.66702E-14 2.50004 -1.49998 7.17302E-14 14.7273 20.7688)" width="0.604" height="1.811"/>
  <ellipse class="fil1" cx="16.689" cy="22.273" rx="0.905" ry="1.358"/>
  <ellipse class="fil1" cx="16.689" cy="24.989" rx="0.905" ry="1.358"/>
  <rect class="fil1" x="16.117" y="23.183" width="1.779" height="0.905"/>
  <rect class="fil2 str0" x="18.047" y="22.58" width="0.635" height="2.112"/>
  <rect class="fil2 str0" x="18.65" y="22.278" width="3.319" height="2.716"/>
  <rect class="fil5 str0" transform="matrix(3.66702E-14 2.50004 -1.49998 7.17302E-14 21.668 24.9936)" width="0.604" height="1.811"/>
  <rect class="fil5 str0" transform="matrix(3.66702E-14 2.50004 -1.49998 7.17302E-14 21.668 20.7688)" width="0.604" height="1.811"/>
  <ellipse class="fil1" cx="23.629" cy="22.273" rx="0.905" ry="1.358"/>
  <ellipse class="fil1" cx="23.629" cy="24.989" rx="0.905" ry="1.358"/>
  <rect class="fil1" x="23.057" y="23.183" width="1.779" height="0.905"/>
  <rect class="fil2 str0" x="24.987" y="22.58" width="0.635" height="2.112"/>
  <rect class="fil2 str0" x="25.591" y="22.278" width="3.319" height="2.716"/>
  <rect class="fil5 str0" transform="matrix(3.66702E-14 2.50004 -1.49998 7.17302E-14 28.6087 24.9936)" width="0.604" height="1.811"/>
  <rect class="fil5 str0" transform="matrix(3.66702E-14 2.50004 -1.49998 7.17302E-14 28.6087 20.7688)" width="0.604" height="1.811"/>
  <ellipse class="fil1" cx="30.57" cy="22.273" rx="0.905" ry="1.358"/>
  <ellipse class="fil1" cx="30.57" cy="24.989" rx="0.905" ry="1.358"/>
  <rect class="fil1" x="29.998" y="23.183" width="1.779" height="0.905"/>
  <rect class="fil2 str0" x="31.928" y="22.58" width="0.635" height="2.112"/>
  <rect class="fil2 str0" x="32.532" y="22.278" width="3.319" height="2.716"/>
  <rect class="fil5 str0" transform="matrix(3.66702E-14 2.50004 -1.49998 7.17302E-14 35.5493 24.9936)" width="0.604" height="1.811"/>
  <rect class="fil5 str0" transform="matrix(3.66702E-14 2.50004 -1.49998 7.17302E-14 35.5493 20.7688)" width="0.604" height="1.811"/>
  <rect class="fil3 str0" x="11.71" y="17.449" width="3.319" height="3.319"/>
  <rect class="fil3 str0" x="18.65" y="17.449" width="3.319" height="3.319"/>
  <rect class="fil3 str0" x="25.591" y="17.449" width="3.319" height="3.319"/>
  <rect class="fil3 str0" x="32.532" y="17.449" width="3.319" height="3.319"/>
  <rect class="fil5 str0" x="15.029" y="17.751" width="3.621" height="2.716"/>
  <rect class="fil5 str0" x="21.97" y="17.751" width="3.621" height="2.716"/>
  <rect class="fil5 str0" x="28.911" y="17.751" width="3.621" height="2.716"/>
  <path class="fil5 str0" d="M35.851 20.467l0 -2.716 0.905 0 0 -3.621 -0.905 0 0 -2.716c3.84,0 3.621,-0.453 3.621,2.716l0 0 0 3.621 0 0c0,3.018 0.219,2.716 -3.621,2.716z"/>
  <path class="fil5 str1" d="M7.787 20.467l0 1.811 -2.716 0c0,-0.503 0,-1.006 0,-1.509 0,-3.018 0,-3.018 3.017,-3.018l3.622 0 0 2.716 -3.923 0 0 0z"/>
  <rect class="fil3 str0" x="34.946" y="11.112" width="0.905" height="3.319"/>
  <path class="fil3 str0" d="M28.91 0.852l3.018 0c1.66,0 3.018,1.358 3.018,3.018l0 11.316c0,0.415 -0.34,0.755 -0.755,0.755l-7.544 0c-0.415,0 -0.754,-0.34 -0.754,-0.755l0 -11.316c0,-1.66 1.358,-3.018 3.017,-3.018z"/>
  
  <path id="tapsColor4" class="nocolor" d="M28.156 1.305l4.527 0c0.497,0 0.905,0.407 0.905,0.905l0 0 -6.337 0 0 0c0,-0.498 0.407,-0.905 0.905,-0.905z"/>
  <path id="tapsColor3" class="nocolor" d="M27.1 2.512l6.639 0c0.415,0 0.754,0.339 0.754,0.754l0 0.755 -8.148 0 0 -0.755c0,-0.415 0.34,-0.754 0.755,-0.754z"/>
  <rect id="tapsColor2" class="nocolor" x="26.345" y="4.322" width="8.148" height="2.263"/>
  <rect id="tapsColor1" class="nocolor" x="26.345" y="6.887" width="8.148" height="3.319"/>
  <path id="tapsColor0" class="nocolor" d="M26.345 10.509l8.148 0 0 4.54c0,0.241 -0.198,0.439 -0.439,0.439l-7.269 0c-0.242,0 -0.44,-0.198 -0.44,-0.439l0 -4.54z"/>

 </g>
</svg>
