<?xml version="1.0" encoding="UTF-8"?>
<!DOCTYPE svg PUBLIC "-//W3C//DTD SVG 1.1//EN" "http://www.w3.org/Graphics/SVG/1.1/DTD/svg11.dtd">
<!-- Creator: CorelDRAW 2020 (64-Bit) -->
<svg xmlns="http://www.w3.org/2000/svg" xml:space="preserve" width="260px" height="260px" version="1.1" style="shape-rendering:geometricPrecision; text-rendering:geometricPrecision; image-rendering:optimizeQuality; fill-rule:evenodd; clip-rule:evenodd"
viewBox="0 0 260 260"
 xmlns:xlink="http://www.w3.org/1999/xlink"
 xmlns:xodm="http://www.corel.com/coreldraw/odm/2003">
 <defs>
  <style type="text/css">
   <![CDATA[
    .fil1 {fill:none}
    .fil0 {fill:#777777}
   ]]>
  </style>
 </defs>
 <g id="Слой_x0020_1">
  <metadata id="CorelCorpID_0Corel-Layer"/>
  <path class="fil0" d="M62.864 100.358l0 -7.221 22.754 0 0 19.368 -0.778 0.618c-1.509,1.201 -3.051,2.26 -4.623,3.173 -1.569,0.912 -3.167,1.676 -4.794,2.289 -1.631,0.615 -3.293,1.079 -4.981,1.388 -1.709,0.314 -3.415,0.471 -5.116,0.471 -2.315,0 -4.535,-0.25 -6.66,-0.749 -2.122,-0.5 -4.149,-1.256 -6.083,-2.271 -1.956,-1.023 -3.676,-2.281 -5.155,-3.766 -1.478,-1.484 -2.719,-3.199 -3.716,-5.142l-0.003 0.002c-0.983,-1.907 -1.719,-3.926 -2.208,-6.049 -0.488,-2.12 -0.733,-4.334 -0.733,-6.635 0,-2.27 0.241,-4.49 0.726,-6.659 0.485,-2.165 1.208,-4.246 2.17,-6.243 0.981,-2.032 2.191,-3.817 3.628,-5.355l-0.004 -0.004c1.438,-1.539 3.1,-2.813 4.986,-3.82l-0.002 -0.003c1.847,-0.991 3.827,-1.732 5.937,-2.224 2.1,-0.489 4.322,-0.733 6.667,-0.733 1.683,0 3.321,0.142 4.913,0.427 1.583,0.284 3.079,0.709 4.485,1.275 1.439,0.578 2.731,1.274 3.873,2.087 1.169,0.832 2.177,1.782 3.021,2.846 0.836,1.052 1.566,2.255 2.189,3.609 0.6,1.3 1.107,2.763 1.522,4.382l0.499 1.948 -9.134 2.492 -0.571 -1.913c-0.596,-2.002 -1.308,-3.55 -2.133,-4.645 -0.369,-0.481 -0.824,-0.919 -1.363,-1.314 -0.578,-0.423 -1.245,-0.795 -2.002,-1.114 -0.765,-0.325 -1.591,-0.573 -2.475,-0.741 -0.868,-0.166 -1.8,-0.25 -2.794,-0.25 -1.215,0 -2.336,0.092 -3.365,0.274 -1.005,0.178 -1.923,0.441 -2.754,0.786 -0.84,0.351 -1.592,0.754 -2.257,1.208 -0.643,0.439 -1.211,0.933 -1.704,1.482 -0.514,0.572 -0.973,1.175 -1.374,1.808 -0.401,0.631 -0.741,1.282 -1.02,1.951 -0.511,1.255 -0.895,2.547 -1.148,3.879 -0.254,1.34 -0.381,2.75 -0.381,4.235 0,1.854 0.153,3.526 0.458,5.017 0.3,1.462 0.746,2.78 1.338,3.951l-0.004 0.001c0.57,1.112 1.277,2.09 2.118,2.931 0.828,0.828 1.786,1.512 2.871,2.053l-0.002 0.003c1.145,0.567 2.328,0.995 3.548,1.281 1.211,0.285 2.467,0.428 3.768,0.428 1.133,0 2.246,-0.109 3.34,-0.327 1.101,-0.219 2.195,-0.548 3.277,-0.988l0.001 0.004c1.092,-0.447 2.063,-0.915 2.913,-1.403 0.47,-0.269 0.89,-0.539 1.261,-0.812l0 -5.235 -12.925 0 0 -2.051 -0.001 0zm22.561 16.567l17.413 -45.393 3.747 0 0.851 0 4.6 0 19.016 46.71 0 -46.71 5.601 0 1.309 0 5.354 0c3.695,11.061 7.412,22.118 11.083,33.186l0.391 -1.148 0.009 0 11.085 -32.038 4.721 0 0.989 0 5.601 0 0 48.174 -9.704 0 0 -26.832 -9.363 26.832 -8.17 0 -9.201 -27.16 0 27.16 -20.204 0 -5.098 -13.356 -15.704 0 -4.78 13.356 -10.612 0 1.067 -2.781 -0.001 0zm17.543 -19.419l9.112 0 -3.553 -9.452c-0.381,-1.021 -0.724,-1.957 -1.033,-2.812 -0.225,0.687 -0.465,1.38 -0.719,2.078l-3.807 10.186 0 0zm79.601 20.149l0 -46.123 35.925 0 0 9.274 -25.974 0 0 9.438 24.312 0 0 9.273 -24.312 0 0 10.915 27.021 0 0 9.275 -36.972 0 0 -2.052zm-142.11 47.311c0,-3.877 0.53,-7.355 1.587,-10.434 1.079,-3.137 2.707,-5.851 4.88,-8.139 2.17,-2.282 4.657,-3.995 7.462,-5.137 2.785,-1.134 5.863,-1.7 9.235,-1.7 2.201,0 4.308,0.268 6.324,0.802 2.022,0.536 3.93,1.337 5.724,2.4 1.806,1.074 3.401,2.362 4.782,3.864 1.376,1.497 2.536,3.203 3.479,5.118 0.936,1.892 1.636,3.903 2.101,6.03 0.46,2.116 0.692,4.344 0.692,6.684 0,2.365 -0.245,4.631 -0.734,6.795 -0.488,2.16 -1.224,4.199 -2.207,6.116 -0.997,1.949 -2.203,3.661 -3.615,5.135 -1.416,1.48 -3.044,2.722 -4.883,3.728l0.002 0.005c-1.813,0.992 -3.696,1.736 -5.652,2.231 -1.954,0.497 -3.969,0.743 -6.044,0.743 -2.252,0 -4.393,-0.275 -6.425,-0.824 -2.043,-0.552 -3.966,-1.382 -5.772,-2.486 -1.794,-1.1 -3.383,-2.411 -4.76,-3.932 -1.372,-1.512 -2.52,-3.217 -3.44,-5.115l-0.003 0.001c-0.906,-1.861 -1.589,-3.788 -2.046,-5.78 -0.457,-1.993 -0.687,-4.029 -0.687,-6.104l0 -0.001zm10.135 0.103c0,2.432 0.319,4.583 0.958,6.451 0.62,1.817 1.54,3.377 2.759,4.679 1.223,1.307 2.602,2.288 4.135,2.942 1.527,0.65 3.232,0.977 5.115,0.977 1.923,0 3.655,-0.329 5.196,-0.986 1.533,-0.653 2.91,-1.642 4.131,-2.965 1.215,-1.321 2.13,-2.93 2.744,-4.824 0.639,-1.97 0.958,-4.27 0.958,-6.899 0,-1.672 -0.14,-3.222 -0.415,-4.647 -0.271,-1.401 -0.677,-2.697 -1.218,-3.887 -0.525,-1.159 -1.167,-2.181 -1.923,-3.065 -0.753,-0.878 -1.624,-1.631 -2.613,-2.253l0.004 -0.004c-0.992,-0.62 -2.052,-1.091 -3.184,-1.408 -1.118,-0.315 -2.315,-0.473 -3.586,-0.473 -1.815,0 -3.483,0.303 -5.002,0.91 -1.523,0.607 -2.935,1.53 -4.236,2.768 -1.231,1.171 -2.166,2.768 -2.802,4.79 -0.68,2.158 -1.021,4.788 -1.021,7.894l0 0zm52.227 22.085l-18.107 -46.86 10.749 0c4.112,11.506 8.285,23.005 12.333,34.532l0.429 -1.164 -0.005 -0.002 12.376 -33.366 10.372 0 -18.782 48.175 -4.217 0 -0.426 0 -4.214 0 -0.509 -1.314 0.001 -0.001zm28.477 -0.738l0 -46.123 35.925 0 0 9.275 -25.975 0 0 9.437 24.313 0 0 9.274 -24.313 0 0 10.915 27.021 0 0 9.273 -36.971 0 0 -2.051 0 0zm41.054 0l0 -46.123 21.584 0c2.016,0 3.831,0.109 5.443,0.323 1.66,0.221 3.077,0.559 4.25,1.013 1.241,0.48 2.357,1.144 3.347,1.99 0.98,0.839 1.833,1.851 2.556,3.036 0.705,1.156 1.236,2.385 1.594,3.684 0.358,1.303 0.537,2.643 0.537,4.019 0,1.799 -0.302,3.483 -0.905,5.051 -0.606,1.579 -1.504,2.999 -2.693,4.261 -1.202,1.275 -2.712,2.308 -4.529,3.098 -0.389,0.17 -0.792,0.328 -1.209,0.476 0.852,0.799 1.673,1.68 2.463,2.642 0.867,1.055 1.696,2.197 2.482,3.422 1.777,1.777 7.496,11.799 9.63,15.159l-12.14 0 -6.433 -10.124 0.007 -0.003c-0.794,-1.248 -1.542,-2.374 -2.234,-3.378 -0.701,-1.016 -1.316,-1.861 -1.844,-2.537l-0.003 0.003c-0.513,-0.65 -0.981,-1.184 -1.403,-1.604 -0.389,-0.385 -0.741,-0.68 -1.056,-0.885 -0.335,-0.213 -0.679,-0.398 -1.028,-0.551 -0.34,-0.15 -0.681,-0.267 -1.021,-0.353 -0.222,-0.038 -0.538,-0.071 -0.949,-0.097 -0.452,-0.029 -1.049,-0.044 -1.796,-0.044l-4.699 0 0 19.573 -9.951 0 0 -2.051 0 0zm9.951 -26.672l10.463 0c1.278,0 2.375,-0.062 3.293,-0.183 0.872,-0.117 1.619,-0.29 2.239,-0.519l0.008 0c0.538,-0.196 1.011,-0.451 1.417,-0.767 0.385,-0.3 0.705,-0.649 0.955,-1.047l0.007 -0.016c0.288,-0.445 0.5,-0.901 0.638,-1.365 0.136,-0.459 0.203,-0.952 0.203,-1.479 0,-0.767 -0.128,-1.447 -0.388,-2.039 -0.253,-0.577 -0.647,-1.105 -1.178,-1.58 -0.521,-0.463 -1.224,-0.82 -2.107,-1.068 -0.999,-0.281 -2.224,-0.421 -3.671,-0.421l-11.88 0 0 10.484 0.001 0z"/>
  <rect class="fil1" width="260" height="260"/>
 </g>
</svg>
