<?xml version="1.0" encoding="UTF-8"?>
<!DOCTYPE svg PUBLIC "-//W3C//DTD SVG 1.1//EN" "http://www.w3.org/Graphics/SVG/1.1/DTD/svg11.dtd">
<!-- Creator: CorelDRAW 2020 (64-Bit) -->
<svg xmlns="http://www.w3.org/2000/svg" xml:space="preserve" width="260px" height="120px" version="1.1" style="shape-rendering:geometricPrecision; text-rendering:geometricPrecision; image-rendering:optimizeQuality; fill-rule:evenodd; clip-rule:evenodd"
viewBox="0 0 260 120"
 xmlns:xlink="http://www.w3.org/1999/xlink"
 xmlns:xodm="http://www.corel.com/coreldraw/odm/2003">
 <defs>
  <style type="text/css">
   <![CDATA[
    .fil0 {fill:#777777}
   ]]>
  </style>
 </defs>
 <g id="Слой_x0020_1">
  <metadata id="CorelCorpID_0Corel-Layer"/>
  <path class="fil0" d="M200 0c33.137,0 60,26.863 60,60 0,33.137 -26.863,60 -60,60l-140 0c-33.137,0 -60,-26.863 -60,-60 0,-33.137 26.863,-60 60,-60l140 0zm-163.737 65.696l7.272 -0.654 0.224 1.931c0.111,0.96 0.29,1.81 0.536,2.55 0.235,0.706 0.536,1.334 0.902,1.882l0.004 -0.002c0.345,0.512 0.795,0.984 1.348,1.414 0.593,0.461 1.3,0.873 2.12,1.235l-0.001 0.003c0.833,0.362 1.731,0.638 2.687,0.824 0.964,0.187 1.997,0.281 3.099,0.281 0.991,0 1.902,-0.07 2.734,-0.21 0.817,-0.138 1.577,-0.344 2.28,-0.619 0.68,-0.267 1.258,-0.572 1.731,-0.913 0.428,-0.309 0.785,-0.663 1.071,-1.062 0.297,-0.416 0.514,-0.827 0.648,-1.232 0.131,-0.394 0.197,-0.822 0.197,-1.284 0,-0.891 -0.25,-1.656 -0.749,-2.301 -0.251,-0.322 -0.605,-0.631 -1.06,-0.928 -0.517,-0.338 -1.165,-0.656 -1.943,-0.954 -0.556,-0.213 -1.428,-0.482 -2.61,-0.805 -1.261,-0.345 -2.858,-0.75 -4.789,-1.215 -2.047,-0.492 -3.774,-0.965 -5.183,-1.42 -1.514,-0.489 -2.708,-0.966 -3.584,-1.431l0.002 -0.004c-1.154,-0.608 -2.171,-1.299 -3.051,-2.071 -0.91,-0.799 -1.666,-1.678 -2.267,-2.633l-0.004 0.002c-0.605,-0.953 -1.061,-1.973 -1.366,-3.057 -0.305,-1.08 -0.457,-2.202 -0.457,-3.363 0,-1.269 0.186,-2.513 0.557,-3.732 0.368,-1.212 0.91,-2.363 1.622,-3.452l0.003 0.003c0.735,-1.128 1.632,-2.116 2.694,-2.963 1.036,-0.826 2.235,-1.522 3.6,-2.087l-0.001 -0.003c1.3,-0.54 2.684,-0.947 4.146,-1.22 1.454,-0.271 2.955,-0.406 4.5,-0.406 1.688,0 3.309,0.14 4.857,0.424 1.539,0.281 2.984,0.707 4.333,1.279l0.003 -0.007c2.804,1.177 4.974,2.938 6.509,5.28l-0.006 0.004c0.762,1.158 1.344,2.385 1.747,3.677 0.402,1.29 0.631,2.66 0.689,4.105l0.076 1.922 -9.306 0.716 -0.207 -1.929c-0.12,-1.125 -0.378,-2.098 -0.773,-2.914 -0.367,-0.759 -0.858,-1.39 -1.47,-1.89l-0.008 -0.008c-0.625,-0.514 -1.429,-0.907 -2.407,-1.179 -1.06,-0.293 -2.333,-0.44 -3.817,-0.44 -1.564,0 -2.891,0.137 -3.978,0.41 -0.973,0.244 -1.738,0.59 -2.292,1.035 -0.568,0.455 -0.984,0.938 -1.247,1.446 -0.242,0.468 -0.364,0.988 -0.364,1.559 0,0.499 0.083,0.935 0.246,1.308 0.161,0.366 0.415,0.706 0.761,1.018 0.355,0.32 1.129,0.694 2.323,1.12 1.374,0.491 3.157,0.985 5.348,1.479 2.397,0.544 4.382,1.042 5.952,1.494 1.675,0.482 2.99,0.939 3.941,1.371l0.015 0.008c1.374,0.634 2.591,1.366 3.647,2.199l0.004 -0.005c1.079,0.85 1.979,1.808 2.696,2.873l0.004 -0.002c0.705,1.042 1.236,2.177 1.594,3.405 0.353,1.211 0.53,2.479 0.53,3.802 0,1.324 -0.194,2.624 -0.583,3.904 -0.382,1.257 -0.951,2.467 -1.706,3.632 -0.766,1.181 -1.692,2.229 -2.778,3.138 -1.067,0.893 -2.298,1.659 -3.696,2.298 -1.364,0.624 -2.808,1.091 -4.331,1.401 -1.532,0.311 -3.12,0.467 -4.766,0.467 -2.042,0 -3.935,-0.153 -5.678,-0.457 -1.79,-0.312 -3.411,-0.782 -4.862,-1.407 -1.488,-0.64 -2.82,-1.447 -3.996,-2.421 -1.184,-0.981 -2.202,-2.125 -3.056,-3.431 -0.848,-1.289 -1.497,-2.671 -1.947,-4.146 -0.445,-1.457 -0.689,-2.991 -0.734,-4.603l-0.052 -1.871 1.873 -0.168zm50.972 15.784l0 -35.92 -14.161 0 0 -9.04 38.021 0 0 9.04 -14.16 0 0 37.92 -9.7 0 0 -2zm16.702 -0.711l16.975 -44.249 3.652 0 0.83 0 4.484 0 18.777 46.122 0 -46.122 21.04 0c1.965,0 3.734,0.105 5.306,0.313 1.618,0.216 2.999,0.545 4.143,0.988 1.209,0.467 2.297,1.115 3.263,1.941 0.956,0.817 1.786,1.804 2.491,2.959 0.688,1.126 1.205,2.324 1.554,3.591 0.349,1.27 0.523,2.577 0.523,3.918 0,1.753 -0.294,3.395 -0.881,4.923 -0.591,1.539 -1.467,2.925 -2.626,4.154 -1.172,1.243 -2.643,2.25 -4.415,3.021 -0.379,0.165 -0.772,0.319 -1.179,0.463 0.83,0.778 1.631,1.637 2.402,2.575 0.845,1.029 1.652,2.142 2.419,3.336 1.733,1.733 7.307,11.502 9.387,14.778l-11.834 0 -6.27 -9.87 0.005 -0.003c-0.774,-1.216 -1.502,-2.314 -2.177,-3.293 -0.684,-0.991 -1.283,-1.814 -1.798,-2.473l-0.003 0.003c-0.5,-0.633 -0.956,-1.154 -1.368,-1.563 -0.379,-0.376 -0.722,-0.663 -1.029,-0.863 -0.326,-0.208 -0.661,-0.388 -1.002,-0.537 -0.331,-0.146 -0.664,-0.261 -0.995,-0.344 -0.217,-0.038 -0.525,-0.069 -0.925,-0.095 -0.441,-0.027 -1.023,-0.042 -1.751,-0.042l-4.58 0 0 19.08 -20.175 0 -4.97 -13.02 -15.308 0 -4.66 13.02 -10.344 0 1.039 -2.711zm17.102 -18.929l8.882 0 -3.463 -9.215c-0.371,-0.994 -0.706,-1.908 -1.007,-2.741 -0.22,0.67 -0.454,1.345 -0.701,2.026l-3.711 9.93zm37.316 -6.36l10.2 0c1.246,0 2.315,-0.06 3.21,-0.179 0.85,-0.113 1.577,-0.282 2.183,-0.506l0.007 0c0.525,-0.191 0.986,-0.44 1.381,-0.747 0.376,-0.292 0.687,-0.632 0.931,-1.021l0.008 -0.015c0.28,-0.434 0.487,-0.878 0.621,-1.331 0.132,-0.447 0.199,-0.928 0.199,-1.441 0,-0.748 -0.126,-1.411 -0.379,-1.988 -0.247,-0.562 -0.63,-1.077 -1.149,-1.54 -0.507,-0.452 -1.193,-0.8 -2.054,-1.042 -0.973,-0.273 -2.167,-0.41 -3.578,-0.41l-11.58 0 0 10.22zm43.35 26l0 -35.92 -14.16 0 0 -9.04 38.02 0 0 9.04 -14.16 0 0 37.92 -9.7 0 0 -2z"/>
 </g>
</svg>
