<?xml version="1.0" encoding="UTF-8"?>
<!DOCTYPE svg PUBLIC "-//W3C//DTD SVG 1.1//EN" "http://www.w3.org/Graphics/SVG/1.1/DTD/svg11.dtd">
<!-- Creator: CorelDRAW 2020 (64-Bit) -->
<svg xmlns="http://www.w3.org/2000/svg" xml:space="preserve" width="966px" height="876px" version="1.1" style="shape-rendering:geometricPrecision; text-rendering:geometricPrecision; image-rendering:optimizeQuality; fill-rule:evenodd; clip-rule:evenodd"
viewBox="0 0 188.136 170.689"
 xmlns:xlink="http://www.w3.org/1999/xlink"
 xmlns:xodm="http://www.corel.com/coreldraw/odm/2003">
 <defs>
  <style type="text/css">
   <![CDATA[
    polygon { transition: fill .6s ease-in-out; }
   ]]>
  </style>
 </defs>
 <g id="all-hexes">
  <metadata id="Corel-Layer"/>
  
  <g id="hex-0">  
    <polygon fill="#000000" class="base" points="53.753,0 60.472,3.879 67.191,7.759 67.191,15.517 67.191,23.276 60.472,27.155 53.753,31.034 47.034,27.155 40.315,23.276 40.315,15.517 40.315,7.759 47.034,3.879 "/>
    <polygon fill="#000000" class="board-0" points="54.337,3.716 54.337,0.98 66.023,7.727 63.654,9.095 59.009,6.413 "/>
    <polygon fill="#000000" class="board-1" points="66.607,8.739 66.607,22.232 64.265,20.88 64.265,15.517 64.265,10.091 "/>
    <polygon fill="#000000" class="board-2" points="66.078,23.276 54.337,30.054 54.337,27.318 59.009,24.621 63.709,21.908 "/>
    <polygon fill="#000000" class="board-3" points="53.169,29.991 41.483,23.244 43.798,21.908 48.497,24.621 53.169,27.318 "/>
    <polygon fill="#000000" class="board-4" points="40.899,22.232 40.899,8.739 43.241,10.091 43.241,15.517 43.241,20.88 "/>
    <polygon fill="#000000" class="board-5" points="41.483,7.727 53.169,0.98 53.169,3.716 48.497,6.413 43.853,9.095 "/>
    <polygon fill="#000000" class="main" points="53.753,4.742 58.419,7.436 63.085,10.13 63.085,15.517 63.085,20.905 58.419,23.599 53.753,26.292 49.087,23.599 44.422,20.905 44.422,15.517 44.422,10.13 49.087,7.436 "/>
  </g>
  
  <g id="hex-1">  
    <polygon fill="#000000" class="base" points="80.63,0 87.349,3.879 94.068,7.759 94.068,15.517 94.068,23.276 87.349,27.155 80.63,31.034 73.91,27.155 67.191,23.276 67.191,15.517 67.191,7.759 73.91,3.879 "/>
    <polygon fill="#000000" class="board-0" points="81.214,3.716 81.214,0.98 92.899,7.727 90.53,9.095 85.886,6.413 "/>
    <polygon fill="#000000" class="board-1" points="93.484,8.739 93.484,22.232 91.142,20.88 91.142,15.517 91.142,10.091 "/>
    <polygon fill="#000000" class="board-2" points="92.954,23.276 81.214,30.054 81.214,27.318 85.886,24.621 90.585,21.908 "/>
    <polygon fill="#000000" class="board-3" points="80.045,29.991 68.36,23.244 70.674,21.908 75.374,24.621 80.045,27.318 "/>
    <polygon fill="#000000" class="board-4" points="67.776,22.232 67.776,8.739 70.117,10.091 70.117,15.517 70.117,20.88 "/>
    <polygon fill="#000000" class="board-5" points="68.36,7.727 80.045,0.98 80.045,3.716 75.374,6.413 70.729,9.095 "/>
    <polygon fill="#000000" class="main" points="80.63,4.742 85.295,7.436 89.961,10.13 89.961,15.517 89.961,20.905 85.295,23.599 80.63,26.292 75.964,23.599 71.298,20.905 71.298,15.517 71.298,10.13 75.964,7.436 "/>
  </g>
  
  <g id="hex-2">  
    <polygon fill="#000000" class="base" points="107.506,0 114.225,3.879 120.944,7.759 120.944,15.517 120.944,23.276 114.225,27.155 107.506,31.034 100.787,27.155 94.068,23.276 94.068,15.517 94.068,7.759 100.787,3.879 "/>
    <polygon fill="#000000" class="board-0" points="108.09,3.716 108.09,0.98 119.776,7.727 117.407,9.095 112.762,6.413 "/>
    <polygon fill="#000000" class="board-1" points="120.36,8.739 120.36,22.232 118.018,20.88 118.018,15.517 118.018,10.091 "/>
    <polygon fill="#000000" class="board-2" points="119.831,23.276 108.09,30.054 108.09,27.318 112.762,24.621 117.462,21.908 "/>
    <polygon fill="#000000" class="board-3" points="106.922,29.991 95.236,23.244 97.551,21.908 102.25,24.621 106.922,27.318 "/>
    <polygon fill="#000000" class="board-4" points="94.652,22.232 94.652,8.739 96.994,10.091 96.994,15.517 96.994,20.88 "/>
    <polygon fill="#000000" class="board-5" points="95.236,7.727 106.922,0.98 106.922,3.716 102.25,6.413 97.606,9.095 "/>
    <polygon fill="#000000" class="main" points="107.506,4.742 112.172,7.436 116.838,10.13 116.838,15.517 116.838,20.905 112.172,23.599 107.506,26.292 102.84,23.599 98.175,20.905 98.175,15.517 98.175,10.13 102.84,7.436 "/>
  </g>
  
  <g id="hex-3">  
    <polygon fill="#000000" class="base" points="134.383,0 141.102,3.879 147.821,7.759 147.821,15.517 147.821,23.276 141.102,27.155 134.383,31.034 127.664,27.155 120.944,23.276 120.944,15.517 120.944,7.759 127.664,3.879 "/>
    <polygon fill="#000000" class="board-0" points="134.967,3.716 134.967,0.98 146.652,7.727 144.283,9.095 139.639,6.413 "/>
    <polygon fill="#000000" class="board-1" points="147.237,8.739 147.237,22.232 144.895,20.88 144.895,15.517 144.895,10.091 "/>
    <polygon fill="#000000" class="board-2" points="146.707,23.276 134.967,30.054 134.967,27.318 139.639,24.621 144.338,21.908 "/>
    <polygon fill="#000000" class="board-3" points="133.798,29.991 122.113,23.244 124.427,21.908 129.127,24.621 133.798,27.318 "/>
    <polygon fill="#000000" class="board-4" points="121.529,22.232 121.529,8.739 123.871,10.091 123.871,15.517 123.871,20.88 "/>
    <polygon fill="#000000" class="board-5" points="122.113,7.727 133.798,0.98 133.798,3.716 129.127,6.413 124.482,9.095 "/>
    <polygon fill="#000000" class="main" points="134.383,4.742 139.048,7.436 143.714,10.13 143.714,15.517 143.714,20.905 139.048,23.599 134.383,26.292 129.717,23.599 125.051,20.905 125.051,15.517 125.051,10.13 129.717,7.436 "/>
  </g>
  
  <g id="hex-4">
    <polygon fill="#000000" class="base" points="40.315,23.276 47.034,27.155 53.753,31.034 53.753,38.793 53.753,46.552 47.034,50.431 40.315,54.31 33.596,50.431 26.877,46.552 26.877,38.793 26.877,31.034 33.596,27.155 "/>
    <polygon fill="#000000" class="board-0" points="40.899,26.992 40.899,24.256 52.584,31.003 50.215,32.371 45.571,29.689 "/>
    <polygon fill="#000000" class="board-1" points="53.169,32.015 53.169,45.508 50.827,44.156 50.827,38.793 50.827,33.367 "/>
    <polygon fill="#000000" class="board-2" points="52.639,46.552 40.899,53.33 40.899,50.594 45.571,47.897 50.27,45.184 "/>
    <polygon fill="#000000" class="board-3" points="39.73,53.266 28.045,46.52 30.359,45.184 35.059,47.897 39.73,50.594 "/>
    <polygon fill="#000000" class="board-4" points="27.461,45.508 27.461,32.015 29.803,33.367 29.803,38.793 29.803,44.156 "/>
    <polygon fill="#000000" class="board-5" points="28.045,31.003 39.73,24.256 39.73,26.992 35.059,29.689 30.414,32.371 "/>
    <polygon fill="#000000" class="main" points="40.315,28.018 44.981,30.712 49.646,33.405 49.646,38.793 49.646,44.181 44.981,46.874 40.315,49.568 35.649,46.874 30.983,44.181 30.983,38.793 30.983,33.405 35.649,30.712 "/>
  </g>
  
  <g id="hex-5">
    <polygon fill="#000000" class="base" points="67.191,23.276 73.91,27.155 80.63,31.034 80.63,38.793 80.63,46.552 73.91,50.431 67.191,54.31 60.472,50.431 53.753,46.552 53.753,38.793 53.753,31.034 60.472,27.155 "/>
    <polygon fill="#000000" class="board-0" points="67.776,26.992 67.776,24.256 79.461,31.003 77.092,32.371 72.447,29.689 "/>
    <polygon fill="#000000" class="board-1" points="80.045,32.015 80.045,45.508 77.704,44.156 77.704,38.793 77.704,33.367 "/>
    <polygon fill="#000000" class="board-2" points="79.516,46.552 67.776,53.33 67.776,50.594 72.447,47.897 77.147,45.184 "/>
    <polygon fill="#000000" class="board-3" points="66.607,53.266 54.922,46.52 57.236,45.184 61.935,47.897 66.607,50.594 "/>
    <polygon fill="#000000" class="board-4" points="54.337,45.508 54.337,32.015 56.679,33.367 56.679,38.793 56.679,44.156 "/>
    <polygon fill="#000000" class="board-5" points="54.922,31.003 66.607,24.256 66.607,26.992 61.935,29.689 57.291,32.371 "/>
    <polygon fill="#000000" class="main" points="67.191,28.018 71.857,30.712 76.523,33.405 76.523,38.793 76.523,44.181 71.857,46.874 67.191,49.568 62.526,46.874 57.86,44.181 57.86,38.793 57.86,33.405 62.526,30.712 "/>
  </g>
  
  <g id="hex-6">
    <polygon fill="#000000" class="base" points="94.068,23.276 100.787,27.155 107.506,31.034 107.506,38.793 107.506,46.552 100.787,50.431 94.068,54.31 87.349,50.431 80.63,46.552 80.63,38.793 80.63,31.034 87.349,27.155 "/>
    <polygon fill="#000000" class="board-0" points="94.652,26.992 94.652,24.256 106.338,31.003 103.968,32.371 99.324,29.689 "/>
    <polygon fill="#000000" class="board-1" points="106.922,32.015 106.922,45.508 104.58,44.156 104.58,38.793 104.58,33.367 "/>
    <polygon fill="#000000" class="board-2" points="106.393,46.552 94.652,53.33 94.652,50.594 99.324,47.897 104.023,45.184 "/>
    <polygon fill="#000000" class="board-3" points="93.483,53.266 81.798,46.52 84.112,45.184 88.812,47.897 93.483,50.594 "/>
    <polygon fill="#000000" class="board-4" points="81.214,45.508 81.214,32.015 83.556,33.367 83.556,38.793 83.556,44.156 "/>
    <polygon fill="#000000" class="board-5" points="81.798,31.003 93.483,24.256 93.483,26.992 88.812,29.689 84.167,32.371 "/>
    <polygon fill="#000000" class="main" points="94.068,28.018 98.734,30.712 103.399,33.405 103.399,38.793 103.399,44.181 98.734,46.874 94.068,49.568 89.402,46.874 84.736,44.181 84.736,38.793 84.736,33.405 89.402,30.712 "/>
  </g>
  
  <g id="hex-7">  
    <polygon fill="#000000" class="base" points="120.944,23.276 127.664,27.155 134.383,31.034 134.383,38.793 134.383,46.552 127.664,50.431 120.944,54.31 114.225,50.431 107.506,46.552 107.506,38.793 107.506,31.034 114.225,27.155 "/>
    <polygon fill="#000000" class="board-0" points="121.529,26.992 121.529,24.256 133.214,31.003 130.845,32.371 126.201,29.689 "/>
    <polygon fill="#000000" class="board-1" points="133.798,32.015 133.798,45.508 131.457,44.156 131.457,38.793 131.457,33.367 "/>
    <polygon fill="#000000" class="board-2" points="133.269,46.552 121.529,53.33 121.529,50.594 126.201,47.897 130.9,45.184 "/>
    <polygon fill="#000000" class="board-3" points="120.36,53.266 108.675,46.52 110.989,45.184 115.688,47.897 120.36,50.594 "/>
    <polygon fill="#000000" class="board-4" points="108.09,45.508 108.09,32.015 110.432,33.367 110.432,38.793 110.432,44.156 "/>
    <polygon fill="#000000" class="board-5" points="108.675,31.003 120.36,24.256 120.36,26.992 115.688,29.689 111.044,32.371 "/>
    <polygon fill="#000000" class="main" points="120.944,28.018 125.61,30.712 130.276,33.405 130.276,38.793 130.276,44.181 125.61,46.874 120.944,49.568 116.279,46.874 111.613,44.181 111.613,38.793 111.613,33.405 116.279,30.712 "/>
  </g>
  
  <g id="hex-8">  
    <polygon fill="#000000" class="base" points="147.821,23.276 154.54,27.155 161.259,31.034 161.259,38.793 161.259,46.552 154.54,50.431 147.821,54.31 141.102,50.431 134.383,46.552 134.383,38.793 134.383,31.034 141.102,27.155 "/>
    <polygon fill="#000000" class="board-0" points="148.405,26.992 148.405,24.256 160.091,31.003 157.721,32.371 153.077,29.689 "/>
    <polygon fill="#000000" class="board-1" points="160.675,32.015 160.675,45.508 158.333,44.156 158.333,38.793 158.333,33.367 "/>
    <polygon fill="#000000" class="board-2" points="160.146,46.552 148.405,53.33 148.405,50.594 153.077,47.897 157.776,45.184 "/>
    <polygon fill="#000000" class="board-3" points="147.237,53.266 135.551,46.52 137.865,45.184 142.565,47.897 147.237,50.594 "/>
    <polygon fill="#000000" class="board-4" points="134.967,45.508 134.967,32.015 137.309,33.367 137.309,38.793 137.309,44.156 "/>
    <polygon fill="#000000" class="board-5" points="135.551,31.003 147.237,24.256 147.237,26.992 142.565,29.689 137.921,32.371 "/>
    <polygon fill="#000000" class="main" points="147.821,28.018 152.487,30.712 157.153,33.405 157.153,38.793 157.153,44.181 152.487,46.874 147.821,49.568 143.155,46.874 138.489,44.181 138.489,38.793 138.489,33.405 143.155,30.712 "/>
  </g>
  
  <g id="hex-9">  
    <polygon fill="#000000" class="base" points="26.877,46.552 33.596,50.431 40.315,54.31 40.315,62.069 40.315,69.827 33.596,73.707 26.877,77.586 20.157,73.707 13.438,69.827 13.438,62.069 13.438,54.31 20.157,50.431 "/>
    <polygon fill="#000000" class="board-0" points="27.461,50.268 27.461,47.532 39.146,54.279 36.777,55.646 32.133,52.965 "/>
    <polygon fill="#000000" class="board-1" points="39.731,55.29 39.731,68.784 37.389,67.432 37.389,62.069 37.389,56.643 "/>
    <polygon fill="#000000" class="board-2" points="39.201,69.827 27.461,76.606 27.461,73.87 32.133,71.173 36.832,68.46 "/>
    <polygon fill="#000000" class="board-3" points="26.292,76.542 14.607,69.796 16.921,68.46 21.62,71.173 26.292,73.87 "/>
    <polygon fill="#000000" class="board-4" points="14.023,68.784 14.023,55.291 16.364,56.643 16.364,62.069 16.364,67.432 "/>
    <polygon fill="#000000" class="board-5" points="14.607,54.278 26.292,47.532 26.292,50.268 21.62,52.965 16.976,55.646 "/>
    <polygon fill="#000000" class="main" points="26.877,51.294 31.542,53.987 36.208,56.681 36.208,62.069 36.208,67.456 31.542,70.15 26.877,72.844 22.211,70.15 17.545,67.456 17.545,62.069 17.545,56.681 22.211,53.987 "/>
  </g>
  
  <g id="hex-10">  
    <polygon fill="#000000" class="base" points="53.753,46.552 60.472,50.431 67.191,54.31 67.191,62.069 67.191,69.827 60.472,73.707 53.753,77.586 47.034,73.707 40.315,69.827 40.315,62.069 40.315,54.31 47.034,50.431 "/>
    <polygon fill="#000000" class="board-0" points="54.337,50.268 54.337,47.532 66.023,54.279 63.654,55.646 59.009,52.965 "/>
    <polygon fill="#000000" class="board-1" points="66.607,55.29 66.607,68.784 64.265,67.432 64.265,62.069 64.265,56.643 "/>
    <polygon fill="#000000" class="board-2" points="66.078,69.827 54.337,76.606 54.337,73.87 59.009,71.173 63.709,68.46 "/>
    <polygon fill="#000000" class="board-3" points="53.169,76.542 41.483,69.796 43.798,68.46 48.497,71.173 53.169,73.87 "/>
    <polygon fill="#000000" class="board-4" points="40.899,68.784 40.899,55.291 43.241,56.643 43.241,62.069 43.241,67.432 "/>
    <polygon fill="#000000" class="board-5" points="41.483,54.278 53.169,47.532 53.169,50.268 48.497,52.965 43.853,55.646 "/>
    <polygon fill="#000000" class="main" points="53.753,51.294 58.419,53.987 63.085,56.681 63.085,62.069 63.085,67.456 58.419,70.15 53.753,72.844 49.087,70.15 44.422,67.456 44.422,62.069 44.422,56.681 49.087,53.987 "/>
  </g>
  
  <g id="hex-11">  
    <polygon fill="#000000" class="base" points="80.63,46.552 87.349,50.431 94.068,54.31 94.068,62.069 94.068,69.827 87.349,73.707 80.63,77.586 73.91,73.707 67.191,69.827 67.191,62.069 67.191,54.31 73.91,50.431 "/>
    <polygon fill="#000000" class="board-0" points="81.214,50.268 81.214,47.532 92.899,54.279 90.53,55.646 85.886,52.965 "/>
    <polygon fill="#000000" class="board-1" points="93.484,55.29 93.484,68.784 91.142,67.432 91.142,62.069 91.142,56.643 "/>
    <polygon fill="#000000" class="board-2" points="92.954,69.827 81.214,76.606 81.214,73.87 85.886,71.173 90.585,68.46 "/>
    <polygon fill="#000000" class="board-3" points="80.045,76.542 68.36,69.796 70.674,68.46 75.374,71.173 80.045,73.87 "/>
    <polygon fill="#000000" class="board-4" points="67.776,68.784 67.776,55.291 70.117,56.643 70.117,62.069 70.117,67.432 "/>
    <polygon fill="#000000" class="board-5" points="68.36,54.278 80.045,47.532 80.045,50.268 75.374,52.965 70.729,55.646 "/>
    <polygon fill="#000000" class="main" points="80.63,51.294 85.295,53.987 89.961,56.681 89.961,62.069 89.961,67.456 85.295,70.15 80.63,72.844 75.964,70.15 71.298,67.456 71.298,62.069 71.298,56.681 75.964,53.987 "/>
  </g>
  
  <g id="hex-12">  
    <polygon fill="#000000" class="base" points="107.506,46.552 114.225,50.431 120.944,54.31 120.944,62.069 120.944,69.827 114.225,73.707 107.506,77.586 100.787,73.707 94.068,69.827 94.068,62.069 94.068,54.31 100.787,50.431 "/>
    <polygon fill="#000000" class="board-0" points="108.09,50.268 108.09,47.532 119.776,54.279 117.407,55.646 112.762,52.965 "/>
    <polygon fill="#000000" class="board-1" points="120.36,55.29 120.36,68.784 118.018,67.432 118.018,62.069 118.018,56.643 "/>
    <polygon fill="#000000" class="board-2" points="119.831,69.827 108.09,76.606 108.09,73.87 112.762,71.173 117.462,68.46 "/>
    <polygon fill="#000000" class="board-3" points="106.922,76.542 95.236,69.796 97.551,68.46 102.25,71.173 106.922,73.87 "/>
    <polygon fill="#000000" class="board-4" points="94.652,68.784 94.652,55.291 96.994,56.643 96.994,62.069 96.994,67.432 "/>
    <polygon fill="#000000" class="board-5" points="95.236,54.278 106.922,47.532 106.922,50.268 102.25,52.965 97.606,55.646 "/>
    <polygon fill="#000000" class="main" points="107.506,51.294 112.172,53.987 116.838,56.681 116.838,62.069 116.838,67.456 112.172,70.15 107.506,72.844 102.84,70.15 98.175,67.456 98.175,62.069 98.175,56.681 102.84,53.987 "/>
  </g>
  
  <g id="hex-13">  
    <polygon fill="#000000" class="base" points="134.383,46.552 141.102,50.431 147.821,54.31 147.821,62.069 147.821,69.827 141.102,73.707 134.383,77.586 127.664,73.707 120.944,69.827 120.944,62.069 120.944,54.31 127.664,50.431 "/>
    <polygon fill="#000000" class="board-0" points="134.967,50.268 134.967,47.532 146.652,54.279 144.283,55.646 139.639,52.965 "/>
    <polygon fill="#000000" class="board-1" points="147.237,55.29 147.237,68.784 144.895,67.432 144.895,62.069 144.895,56.643 "/>
    <polygon fill="#000000" class="board-2" points="146.707,69.827 134.967,76.606 134.967,73.87 139.639,71.173 144.338,68.46 "/>
    <polygon fill="#000000" class="board-3" points="133.798,76.542 122.113,69.796 124.427,68.46 129.127,71.173 133.798,73.87 "/>
    <polygon fill="#000000" class="board-4" points="121.529,68.784 121.529,55.291 123.871,56.643 123.871,62.069 123.871,67.432 "/>
    <polygon fill="#000000" class="board-5" points="122.113,54.278 133.798,47.532 133.798,50.268 129.127,52.965 124.482,55.646 "/>
    <polygon fill="#000000" class="main" points="134.383,51.294 139.048,53.987 143.714,56.681 143.714,62.069 143.714,67.456 139.048,70.15 134.383,72.844 129.717,70.15 125.051,67.456 125.051,62.069 125.051,56.681 129.717,53.987 "/>
  </g>
  
  <g id="hex-14">  
    <polygon fill="#000000" class="base" points="161.259,46.552 167.978,50.431 174.698,54.31 174.698,62.069 174.698,69.827 167.978,73.707 161.259,77.586 154.54,73.707 147.821,69.827 147.821,62.069 147.821,54.31 154.54,50.431 "/>
    <polygon fill="#000000" class="board-0" points="161.843,50.268 161.843,47.532 173.529,54.279 171.16,55.646 166.515,52.965 "/>
    <polygon fill="#000000" class="board-1" points="174.113,55.29 174.113,68.784 171.771,67.432 171.771,62.069 171.771,56.643 "/>
    <polygon fill="#000000" class="board-2" points="173.584,69.827 161.843,76.606 161.843,73.87 166.515,71.173 171.215,68.46 "/>
    <polygon fill="#000000" class="board-3" points="160.675,76.542 148.989,69.796 151.304,68.46 156.003,71.173 160.675,73.87 "/>
    <polygon fill="#000000" class="board-4" points="148.405,68.784 148.405,55.291 150.747,56.643 150.747,62.069 150.747,67.432 "/>
    <polygon fill="#000000" class="board-5" points="148.989,54.278 160.675,47.532 160.675,50.268 156.003,52.965 151.359,55.646 "/>
    <polygon fill="#000000" class="main" points="161.259,51.294 165.925,53.987 170.591,56.681 170.591,62.069 170.591,67.456 165.925,70.15 161.259,72.844 156.594,70.15 151.928,67.456 151.928,62.069 151.928,56.681 156.594,53.987 "/>
  </g>
  
  <g id="hex-15">  
    <polygon fill="#000000" class="base" points="13.438,69.827 20.157,73.707 26.877,77.586 26.877,85.345 26.877,93.103 20.157,96.983 13.438,100.862 6.719,96.983 0,93.103 0,85.345 0,77.586 6.719,73.707 "/>
    <polygon fill="#000000" class="board-0" points="14.022,73.544 14.022,70.808 25.708,77.554 23.339,78.922 18.694,76.241 "/>
    <polygon fill="#000000" class="board-1" points="26.292,78.566 26.292,92.06 23.95,90.708 23.95,85.345 23.95,79.918 "/>
    <polygon fill="#000000" class="board-2" points="25.763,93.103 14.022,99.882 14.022,97.146 18.694,94.449 23.394,91.735 "/>
    <polygon fill="#000000" class="board-3" points="12.854,99.818 1.168,93.072 3.483,91.735 8.182,94.449 12.854,97.146 "/>
    <polygon fill="#000000" class="board-4" points="0.584,92.06 0.584,78.566 2.926,79.918 2.926,85.345 2.926,90.707 "/>
    <polygon fill="#000000" class="board-5" points="1.168,77.554 12.854,70.808 12.854,73.544 8.182,76.241 3.538,78.922 "/>
    <polygon fill="#000000" class="main" points="13.438,74.57 18.104,77.263 22.77,79.957 22.77,85.345 22.77,90.732 18.104,93.426 13.438,96.12 8.773,93.426 4.107,90.732 4.107,85.345 4.107,79.957 8.773,77.263 "/>
  </g>
  
  <g id="hex-16">  
    <polygon fill="#000000" class="base" points="40.315,69.827 47.034,73.707 53.753,77.586 53.753,85.345 53.753,93.103 47.034,96.983 40.315,100.862 33.596,96.983 26.877,93.103 26.877,85.345 26.877,77.586 33.596,73.707 "/>
    <polygon fill="#000000" class="board-0" points="40.899,73.544 40.899,70.808 52.584,77.554 50.215,78.922 45.571,76.241 "/>
    <polygon fill="#000000" class="board-1" points="53.169,78.566 53.169,92.06 50.827,90.708 50.827,85.345 50.827,79.918 "/>
    <polygon fill="#000000" class="board-2" points="52.639,93.103 40.899,99.882 40.899,97.146 45.571,94.449 50.27,91.735 "/>
    <polygon fill="#000000" class="board-3" points="39.73,99.818 28.045,93.072 30.359,91.735 35.059,94.449 39.73,97.146 "/>
    <polygon fill="#000000" class="board-4" points="27.461,92.06 27.461,78.566 29.803,79.918 29.803,85.345 29.803,90.707 "/>
    <polygon fill="#000000" class="board-5" points="28.045,77.554 39.73,70.808 39.73,73.544 35.059,76.241 30.414,78.922 "/>
    <polygon fill="#000000" class="main" points="40.315,74.57 44.981,77.263 49.646,79.957 49.646,85.345 49.646,90.732 44.981,93.426 40.315,96.12 35.649,93.426 30.983,90.732 30.983,85.345 30.983,79.957 35.649,77.263 "/>
  </g>
  
  <g id="hex-17">  
    <polygon fill="#000000" class="base" points="67.191,69.827 73.91,73.707 80.63,77.586 80.63,85.345 80.63,93.103 73.91,96.983 67.191,100.862 60.472,96.983 53.753,93.103 53.753,85.345 53.753,77.586 60.472,73.707 "/>
    <polygon fill="#000000" class="board-0" points="67.776,73.544 67.776,70.808 79.461,77.554 77.092,78.922 72.447,76.241 "/>
    <polygon fill="#000000" class="board-1" points="80.045,78.566 80.045,92.06 77.704,90.708 77.704,85.345 77.704,79.918 "/>
    <polygon fill="#000000" class="board-2" points="79.516,93.103 67.776,99.882 67.776,97.146 72.447,94.449 77.147,91.735 "/>
    <polygon fill="#000000" class="board-3" points="66.607,99.818 54.922,93.072 57.236,91.735 61.935,94.449 66.607,97.146 "/>
    <polygon fill="#000000" class="board-4" points="54.337,92.06 54.337,78.566 56.679,79.918 56.679,85.345 56.679,90.707 "/>
    <polygon fill="#000000" class="board-5" points="54.922,77.554 66.607,70.808 66.607,73.544 61.935,76.241 57.291,78.922 "/>
    <polygon fill="#000000" class="main" points="67.191,74.57 71.857,77.263 76.523,79.957 76.523,85.345 76.523,90.732 71.857,93.426 67.191,96.12 62.526,93.426 57.86,90.732 57.86,85.345 57.86,79.957 62.526,77.263 "/>
  </g>
  
  <g id="hex-18">  
    <polygon fill="#000000" class="base" points="94.068,69.827 100.787,73.707 107.506,77.586 107.506,85.345 107.506,93.103 100.787,96.983 94.068,100.862 87.349,96.983 80.63,93.103 80.63,85.345 80.63,77.586 87.349,73.707 "/>
    <polygon fill="#000000" class="board-0" points="94.652,73.544 94.652,70.808 106.338,77.554 103.968,78.922 99.324,76.241 "/>
    <polygon fill="#000000" class="board-1" points="106.922,78.566 106.922,92.06 104.58,90.708 104.58,85.345 104.58,79.918 "/>
    <polygon fill="#000000" class="board-2" points="106.393,93.103 94.652,99.882 94.652,97.146 99.324,94.449 104.023,91.735 "/>
    <polygon fill="#000000" class="board-3" points="93.483,99.818 81.798,93.072 84.112,91.735 88.812,94.449 93.483,97.146 "/>
    <polygon fill="#000000" class="board-4" points="81.214,92.06 81.214,78.566 83.556,79.918 83.556,85.345 83.556,90.707 "/>
    <polygon fill="#000000" class="board-5" points="81.798,77.554 93.483,70.808 93.483,73.544 88.812,76.241 84.167,78.922 "/>
    <polygon fill="#000000" class="main" points="94.068,74.57 98.734,77.263 103.399,79.957 103.399,85.345 103.399,90.732 98.734,93.426 94.068,96.12 89.402,93.426 84.736,90.732 84.736,85.345 84.736,79.957 89.402,77.263 "/>
  </g>
  
  <g id="hex-19">  
    <polygon fill="#000000" class="base" points="120.944,69.827 127.664,73.707 134.383,77.586 134.383,85.345 134.383,93.103 127.664,96.983 120.944,100.862 114.225,96.983 107.506,93.103 107.506,85.345 107.506,77.586 114.225,73.707 "/>
    <polygon fill="#000000" class="board-0" points="121.529,73.544 121.529,70.808 133.214,77.554 130.845,78.922 126.201,76.241 "/>
    <polygon fill="#000000" class="board-1" points="133.798,78.566 133.798,92.06 131.457,90.708 131.457,85.345 131.457,79.918 "/>
    <polygon fill="#000000" class="board-2" points="133.269,93.103 121.529,99.882 121.529,97.146 126.201,94.449 130.9,91.735 "/>
    <polygon fill="#000000" class="board-3" points="120.36,99.818 108.675,93.072 110.989,91.735 115.688,94.449 120.36,97.146 "/>
    <polygon fill="#000000" class="board-4" points="108.09,92.06 108.09,78.566 110.432,79.918 110.432,85.345 110.432,90.707 "/>
    <polygon fill="#000000" class="board-5" points="108.675,77.554 120.36,70.808 120.36,73.544 115.688,76.241 111.044,78.922 "/>
    <polygon fill="#000000" class="main" points="120.944,74.57 125.61,77.263 130.276,79.957 130.276,85.345 130.276,90.732 125.61,93.426 120.944,96.12 116.279,93.426 111.613,90.732 111.613,85.345 111.613,79.957 116.279,77.263 "/>
  </g>
  
  <g id="hex-20">  
    <polygon fill="#000000" class="base" points="147.821,69.827 154.54,73.707 161.259,77.586 161.259,85.345 161.259,93.103 154.54,96.983 147.821,100.862 141.102,96.983 134.383,93.103 134.383,85.345 134.383,77.586 141.102,73.707 "/>
    <polygon fill="#000000" class="board-0" points="148.405,73.544 148.405,70.808 160.091,77.554 157.721,78.922 153.077,76.241 "/>
    <polygon fill="#000000" class="board-1" points="160.675,78.566 160.675,92.06 158.333,90.708 158.333,85.345 158.333,79.918 "/>
    <polygon fill="#000000" class="board-2" points="160.146,93.103 148.405,99.882 148.405,97.146 153.077,94.449 157.776,91.735 "/>
    <polygon fill="#000000" class="board-3" points="147.237,99.818 135.551,93.072 137.865,91.735 142.565,94.449 147.237,97.146 "/>
    <polygon fill="#000000" class="board-4" points="134.967,92.06 134.967,78.566 137.309,79.918 137.309,85.345 137.309,90.707 "/>
    <polygon fill="#000000" class="board-5" points="135.551,77.554 147.237,70.808 147.237,73.544 142.565,76.241 137.921,78.922 "/>
    <polygon fill="#000000" class="main" points="147.821,74.57 152.487,77.263 157.153,79.957 157.153,85.345 157.153,90.732 152.487,93.426 147.821,96.12 143.155,93.426 138.489,90.732 138.489,85.345 138.489,79.957 143.155,77.263 "/>
  </g>
  
  <g id="hex-21">  
    <polygon fill="#000000" class="base" points="174.698,69.827 181.417,73.707 188.136,77.586 188.136,85.345 188.136,93.103 181.417,96.983 174.698,100.862 167.978,96.983 161.259,93.103 161.259,85.345 161.259,77.586 167.978,73.707 "/>
    <polygon fill="#000000" class="board-0" points="175.282,73.544 175.282,70.808 186.967,77.554 184.598,78.922 179.954,76.241 "/>
    <polygon fill="#000000" class="board-1" points="187.552,78.566 187.552,92.06 185.21,90.708 185.21,85.345 185.21,79.918 "/>
    <polygon fill="#000000" class="board-2" points="187.022,93.103 175.282,99.882 175.282,97.146 179.954,94.449 184.653,91.735 "/>
    <polygon fill="#000000" class="board-3" points="174.113,99.818 162.428,93.072 164.742,91.735 169.441,94.449 174.113,97.146 "/>
    <polygon fill="#000000" class="board-4" points="161.844,92.06 161.844,78.566 164.185,79.918 164.185,85.345 164.185,90.707 "/>
    <polygon fill="#000000" class="board-5" points="162.428,77.554 174.113,70.808 174.113,73.544 169.441,76.241 164.797,78.922 "/>
    <polygon fill="#000000" class="main" points="174.698,74.57 179.363,77.263 184.029,79.957 184.029,85.345 184.029,90.732 179.363,93.426 174.698,96.12 170.032,93.426 165.366,90.732 165.366,85.345 165.366,79.957 170.032,77.263 "/>
  </g>
  
  <g id="hex-22">  
    <polygon fill="#000000" class="base" points="26.877,93.103 33.596,96.983 40.315,100.862 40.315,108.621 40.315,116.379 33.596,120.258 26.877,124.138 20.157,120.258 13.438,116.379 13.438,108.621 13.438,100.862 20.157,96.983 "/>
    <polygon fill="#000000" class="board-0" points="27.461,96.819 27.461,94.084 39.146,100.83 36.777,102.198 32.133,99.517 "/>
    <polygon fill="#000000" class="board-1" points="39.731,101.842 39.731,115.335 37.389,113.983 37.389,108.621 37.389,103.194 "/>
    <polygon fill="#000000" class="board-2" points="39.201,116.379 27.461,123.157 27.461,120.422 32.133,117.724 36.832,115.011 "/>
    <polygon fill="#000000" class="board-3" points="26.292,123.094 14.607,116.347 16.921,115.011 21.62,117.724 26.292,120.422 "/>
    <polygon fill="#000000" class="board-4" points="14.023,115.335 14.023,101.842 16.364,103.194 16.364,108.621 16.364,113.983 "/>
    <polygon fill="#000000" class="board-5" points="14.607,100.83 26.292,94.084 26.292,96.82 21.62,99.517 16.976,102.198 "/>
    <polygon fill="#000000" class="main" points="26.877,97.845 31.542,100.539 36.208,103.233 36.208,108.621 36.208,114.008 31.542,116.702 26.877,119.396 22.211,116.702 17.545,114.008 17.545,108.621 17.545,103.233 22.211,100.539 "/>
  </g>
  
  <g id="hex-23">  
    <polygon fill="#000000" class="base" points="53.753,93.103 60.472,96.983 67.191,100.862 67.191,108.621 67.191,116.379 60.472,120.258 53.753,124.138 47.034,120.258 40.315,116.379 40.315,108.621 40.315,100.862 47.034,96.983 "/>
    <polygon fill="#000000" class="board-0" points="54.337,96.819 54.337,94.084 66.023,100.83 63.654,102.198 59.009,99.517 "/>
    <polygon fill="#000000" class="board-1" points="66.607,101.842 66.607,115.335 64.265,113.983 64.265,108.621 64.265,103.194 "/>
    <polygon fill="#000000" class="board-2" points="66.078,116.379 54.337,123.157 54.337,120.422 59.009,117.724 63.709,115.011 "/>
    <polygon fill="#000000" class="board-3" points="53.169,123.094 41.483,116.347 43.798,115.011 48.497,117.724 53.169,120.422 "/>
    <polygon fill="#000000" class="board-4" points="40.899,115.335 40.899,101.842 43.241,103.194 43.241,108.621 43.241,113.983 "/>
    <polygon fill="#000000" class="board-5" points="41.483,100.83 53.169,94.084 53.169,96.82 48.497,99.517 43.853,102.198 "/>
    <polygon fill="#000000" class="main" points="53.753,97.845 58.419,100.539 63.085,103.233 63.085,108.621 63.085,114.008 58.419,116.702 53.753,119.396 49.087,116.702 44.422,114.008 44.422,108.621 44.422,103.233 49.087,100.539 "/>
  </g>
  
  <g id="hex-24">  
    <polygon fill="#000000" class="base" points="80.63,93.103 87.349,96.983 94.068,100.862 94.068,108.621 94.068,116.379 87.349,120.258 80.63,124.138 73.91,120.258 67.191,116.379 67.191,108.621 67.191,100.862 73.91,96.983 "/>
    <polygon fill="#000000" class="board-0" points="81.214,96.819 81.214,94.084 92.899,100.83 90.53,102.198 85.886,99.517 "/>
    <polygon fill="#000000" class="board-1" points="93.484,101.842 93.484,115.335 91.142,113.983 91.142,108.621 91.142,103.194 "/>
    <polygon fill="#000000" class="board-2" points="92.954,116.379 81.214,123.157 81.214,120.422 85.886,117.724 90.585,115.011 "/>
    <polygon fill="#000000" class="board-3" points="80.045,123.094 68.36,116.347 70.674,115.011 75.374,117.724 80.045,120.422 "/>
    <polygon fill="#000000" class="board-4" points="67.776,115.335 67.776,101.842 70.117,103.194 70.117,108.621 70.117,113.983 "/>
    <polygon fill="#000000" class="board-5" points="68.36,100.83 80.045,94.084 80.045,96.82 75.374,99.517 70.729,102.198 "/>
    <polygon fill="#000000" class="main" points="80.63,97.845 85.295,100.539 89.961,103.233 89.961,108.621 89.961,114.008 85.295,116.702 80.63,119.396 75.964,116.702 71.298,114.008 71.298,108.621 71.298,103.233 75.964,100.539 "/>
  </g>
  
  <g id="hex-25">  
    <polygon fill="#000000" class="base" points="107.506,93.103 114.225,96.983 120.944,100.862 120.944,108.621 120.944,116.379 114.225,120.258 107.506,124.138 100.787,120.258 94.068,116.379 94.068,108.621 94.068,100.862 100.787,96.983 "/>
    <polygon fill="#000000" class="board-0" points="108.09,96.819 108.09,94.084 119.776,100.83 117.407,102.198 112.762,99.517 "/>
    <polygon fill="#000000" class="board-1" points="120.36,101.842 120.36,115.335 118.018,113.983 118.018,108.621 118.018,103.194 "/>
    <polygon fill="#000000" class="board-2" points="119.831,116.379 108.09,123.157 108.09,120.422 112.762,117.724 117.462,115.011 "/>
    <polygon fill="#000000" class="board-3" points="106.922,123.094 95.236,116.347 97.551,115.011 102.25,117.724 106.922,120.422 "/>
    <polygon fill="#000000" class="board-4" points="94.652,115.335 94.652,101.842 96.994,103.194 96.994,108.621 96.994,113.983 "/>
    <polygon fill="#000000" class="board-5" points="95.236,100.83 106.922,94.084 106.922,96.82 102.25,99.517 97.606,102.198 "/>
    <polygon fill="#000000" class="main" points="107.506,97.845 112.172,100.539 116.838,103.233 116.838,108.621 116.838,114.008 112.172,116.702 107.506,119.396 102.84,116.702 98.175,114.008 98.175,108.621 98.175,103.233 102.84,100.539 "/>
  </g>
  
  <g id="hex-26">  
    <polygon fill="#000000" class="base" points="134.383,93.103 141.102,96.983 147.821,100.862 147.821,108.621 147.821,116.379 141.102,120.258 134.383,124.138 127.664,120.258 120.944,116.379 120.944,108.621 120.944,100.862 127.664,96.983 "/>
    <polygon fill="#000000" class="board-0" points="134.967,96.819 134.967,94.084 146.652,100.83 144.283,102.198 139.639,99.517 "/>
    <polygon fill="#000000" class="board-1" points="147.237,101.842 147.237,115.335 144.895,113.983 144.895,108.621 144.895,103.194 "/>
    <polygon fill="#000000" class="board-2" points="146.707,116.379 134.967,123.157 134.967,120.422 139.639,117.724 144.338,115.011 "/>
    <polygon fill="#000000" class="board-3" points="133.798,123.094 122.113,116.347 124.427,115.011 129.127,117.724 133.798,120.422 "/>
    <polygon fill="#000000" class="board-4" points="121.529,115.335 121.529,101.842 123.871,103.194 123.871,108.621 123.871,113.983 "/>
    <polygon fill="#000000" class="board-5" points="122.113,100.83 133.798,94.084 133.798,96.82 129.127,99.517 124.482,102.198 "/>
    <polygon fill="#000000" class="main" points="134.383,97.845 139.048,100.539 143.714,103.233 143.714,108.621 143.714,114.008 139.048,116.702 134.383,119.396 129.717,116.702 125.051,114.008 125.051,108.621 125.051,103.233 129.717,100.539 "/>
  </g>
  
  <g id="hex-27">  
    <polygon fill="#000000" class="base" points="161.259,93.103 167.978,96.983 174.698,100.862 174.698,108.621 174.698,116.379 167.978,120.258 161.259,124.138 154.54,120.258 147.821,116.379 147.821,108.621 147.821,100.862 154.54,96.983 "/>
    <polygon fill="#000000" class="board-0" points="161.843,96.819 161.843,94.084 173.529,100.83 171.16,102.198 166.515,99.517 "/>
    <polygon fill="#000000" class="board-1" points="174.113,101.842 174.113,115.335 171.771,113.983 171.771,108.621 171.771,103.194 "/>
    <polygon fill="#000000" class="board-2" points="173.584,116.379 161.843,123.157 161.843,120.422 166.515,117.724 171.215,115.011 "/>
    <polygon fill="#000000" class="board-3" points="160.675,123.094 148.989,116.347 151.304,115.011 156.003,117.724 160.675,120.422 "/>
    <polygon fill="#000000" class="board-4" points="148.405,115.335 148.405,101.842 150.747,103.194 150.747,108.621 150.747,113.983 "/>
    <polygon fill="#000000" class="board-5" points="148.989,100.83 160.675,94.084 160.675,96.82 156.003,99.517 151.359,102.198 "/>
    <polygon fill="#000000" class="main" points="161.259,97.845 165.925,100.539 170.591,103.233 170.591,108.621 170.591,114.008 165.925,116.702 161.259,119.396 156.594,116.702 151.928,114.008 151.928,108.621 151.928,103.233 156.594,100.539 "/>
  </g>
  
  <g id="hex-28">  
    <polygon fill="#000000" class="base" points="40.315,116.379 47.034,120.258 53.753,124.138 53.753,131.896 53.753,139.655 47.034,143.534 40.315,147.414 33.596,143.534 26.877,139.655 26.877,131.896 26.877,124.138 33.596,120.258 "/>
    <polygon fill="#000000" class="board-0" points="40.899,120.095 40.899,117.359 52.584,124.106 50.215,125.474 45.571,122.793 "/>
    <polygon fill="#000000" class="board-1" points="53.169,125.118 53.169,138.611 50.827,137.259 50.827,131.896 50.827,126.47 "/>
    <polygon fill="#000000" class="board-2" points="52.639,139.655 40.899,146.433 40.899,143.698 45.571,141 50.27,138.287 "/>
    <polygon fill="#000000" class="board-3" points="39.73,146.37 28.045,139.623 30.359,138.287 35.059,141 39.73,143.697 "/>
    <polygon fill="#000000" class="board-4" points="27.461,138.611 27.461,125.118 29.803,126.47 29.803,131.896 29.803,137.259 "/>
    <polygon fill="#000000" class="board-5" points="28.045,124.106 39.73,117.359 39.73,120.095 35.059,122.793 30.414,125.474 "/>
    <polygon fill="#000000" class="main" points="40.315,121.121 44.981,123.815 49.646,126.509 49.646,131.896 49.646,137.284 44.981,139.978 40.315,142.672 35.649,139.978 30.983,137.284 30.983,131.896 30.983,126.509 35.649,123.815 "/>
  </g>
  
  <g id="hex-29">  
    <polygon fill="#000000" class="base" points="67.191,116.379 73.91,120.258 80.63,124.138 80.63,131.896 80.63,139.655 73.91,143.534 67.191,147.414 60.472,143.534 53.753,139.655 53.753,131.896 53.753,124.138 60.472,120.258 "/>
    <polygon fill="#000000" class="board-0" points="67.776,120.095 67.776,117.359 79.461,124.106 77.092,125.474 72.447,122.793 "/>
    <polygon fill="#000000" class="board-1" points="80.045,125.118 80.045,138.611 77.704,137.259 77.704,131.896 77.704,126.47 "/>
    <polygon fill="#000000" class="board-2" points="79.516,139.655 67.776,146.433 67.776,143.698 72.447,141 77.147,138.287 "/>
    <polygon fill="#000000" class="board-3" points="66.607,146.37 54.922,139.623 57.236,138.287 61.935,141 66.607,143.697 "/>
    <polygon fill="#000000" class="board-4" points="54.337,138.611 54.337,125.118 56.679,126.47 56.679,131.896 56.679,137.259 "/>
    <polygon fill="#000000" class="board-5" points="54.922,124.106 66.607,117.359 66.607,120.095 61.935,122.793 57.291,125.474 "/>
    <polygon fill="#000000" class="main" points="67.191,121.121 71.857,123.815 76.523,126.509 76.523,131.896 76.523,137.284 71.857,139.978 67.191,142.672 62.526,139.978 57.86,137.284 57.86,131.896 57.86,126.509 62.526,123.815 "/>
  </g>
  
  <g id="hex-30">  
    <polygon fill="#000000" class="base" points="94.068,116.379 100.787,120.258 107.506,124.138 107.506,131.896 107.506,139.655 100.787,143.534 94.068,147.414 87.349,143.534 80.63,139.655 80.63,131.896 80.63,124.138 87.349,120.258 "/>
    <polygon fill="#000000" class="board-0" points="94.652,120.095 94.652,117.359 106.338,124.106 103.968,125.474 99.324,122.793 "/>
    <polygon fill="#000000" class="board-1" points="106.922,125.118 106.922,138.611 104.58,137.259 104.58,131.896 104.58,126.47 "/>
    <polygon fill="#000000" class="board-2" points="106.393,139.655 94.652,146.433 94.652,143.698 99.324,141 104.023,138.287 "/>
    <polygon fill="#000000" class="board-3" points="93.483,146.37 81.798,139.623 84.112,138.287 88.812,141 93.483,143.697 "/>
    <polygon fill="#000000" class="board-4" points="81.214,138.611 81.214,125.118 83.556,126.47 83.556,131.896 83.556,137.259 "/>
    <polygon fill="#000000" class="board-5" points="81.798,124.106 93.483,117.359 93.483,120.095 88.812,122.793 84.167,125.474 "/>
    <polygon fill="#000000" class="main" points="94.068,121.121 98.734,123.815 103.399,126.509 103.399,131.896 103.399,137.284 98.734,139.978 94.068,142.672 89.402,139.978 84.736,137.284 84.736,131.896 84.736,126.509 89.402,123.815 "/>
  </g>
  
  <g id="hex-31">  
    <polygon fill="#000000" class="base" points="120.944,116.379 127.664,120.258 134.383,124.138 134.383,131.896 134.383,139.655 127.664,143.534 120.944,147.414 114.225,143.534 107.506,139.655 107.506,131.896 107.506,124.138 114.225,120.258 "/>
    <polygon fill="#000000" class="board-0" points="121.529,120.095 121.529,117.359 133.214,124.106 130.845,125.474 126.201,122.793 "/>
    <polygon fill="#000000" class="board-1" points="133.798,125.118 133.798,138.611 131.457,137.259 131.457,131.896 131.457,126.47 "/>
    <polygon fill="#000000" class="board-2" points="133.269,139.655 121.529,146.433 121.529,143.698 126.201,141 130.9,138.287 "/>
    <polygon fill="#000000" class="board-3" points="120.36,146.37 108.675,139.623 110.989,138.287 115.688,141 120.36,143.697 "/>
    <polygon fill="#000000" class="board-4" points="108.09,138.611 108.09,125.118 110.432,126.47 110.432,131.896 110.432,137.259 "/>
    <polygon fill="#000000" class="board-5" points="108.675,124.106 120.36,117.359 120.36,120.095 115.688,122.793 111.044,125.474 "/>
    <polygon fill="#000000" class="main" points="120.944,121.121 125.61,123.815 130.276,126.509 130.276,131.896 130.276,137.284 125.61,139.978 120.944,142.672 116.279,139.978 111.613,137.284 111.613,131.896 111.613,126.509 116.279,123.815 "/>
  </g>
  
  <g id="hex-32">  
    <polygon fill="#000000" class="base" points="147.821,116.379 154.54,120.258 161.259,124.138 161.259,131.896 161.259,139.655 154.54,143.534 147.821,147.414 141.102,143.534 134.383,139.655 134.383,131.896 134.383,124.138 141.102,120.258 "/>
    <polygon fill="#000000" class="board-0" points="148.405,120.095 148.405,117.359 160.091,124.106 157.721,125.474 153.077,122.793 "/>
    <polygon fill="#000000" class="board-1" points="160.675,125.118 160.675,138.611 158.333,137.259 158.333,131.896 158.333,126.47 "/>
    <polygon fill="#000000" class="board-2" points="160.146,139.655 148.405,146.433 148.405,143.698 153.077,141 157.776,138.287 "/>
    <polygon fill="#000000" class="board-3" points="147.237,146.37 135.551,139.623 137.865,138.287 142.565,141 147.237,143.697 "/>
    <polygon fill="#000000" class="board-4" points="134.967,138.611 134.967,125.118 137.309,126.47 137.309,131.896 137.309,137.259 "/>
    <polygon fill="#000000" class="board-5" points="135.551,124.106 147.237,117.359 147.237,120.095 142.565,122.793 137.921,125.474 "/>
    <polygon fill="#000000" class="main" points="147.821,121.121 152.487,123.815 157.153,126.509 157.153,131.896 157.153,137.284 152.487,139.978 147.821,142.672 143.155,139.978 138.489,137.284 138.489,131.896 138.489,126.509 143.155,123.815 "/>
  </g>
  
  <g id="hex-33">  
    <polygon fill="#000000" class="base" points="53.753,139.655 60.472,143.534 67.191,147.414 67.191,155.172 67.191,162.931 60.472,166.81 53.753,170.689 47.034,166.81 40.315,162.931 40.315,155.172 40.315,147.414 47.034,143.534 "/>
    <polygon fill="#000000" class="board-0" points="54.337,143.371 54.337,140.635 66.023,147.382 63.654,148.75 59.009,146.068 "/>
    <polygon fill="#000000" class="board-1" points="66.607,148.394 66.607,161.887 64.265,160.535 64.265,155.172 64.265,149.746 "/>
    <polygon fill="#000000" class="board-2" points="66.078,162.931 54.337,169.709 54.337,166.973 59.009,164.276 63.709,161.563 "/>
    <polygon fill="#000000" class="board-3" points="53.169,169.646 41.483,162.899 43.798,161.563 48.497,164.276 53.169,166.973 "/>
    <polygon fill="#000000" class="board-4" points="40.899,161.887 40.899,148.394 43.241,149.746 43.241,155.172 43.241,160.535 "/>
    <polygon fill="#000000" class="board-5" points="41.483,147.382 53.169,140.635 53.169,143.371 48.497,146.068 43.853,148.75 "/>
    <polygon fill="#000000" class="main" points="53.753,144.397 58.419,147.091 63.085,149.785 63.085,155.172 63.085,160.56 58.419,163.254 53.753,165.947 49.087,163.254 44.422,160.56 44.422,155.172 44.422,149.785 49.087,147.091 "/>
  </g>
  
  <g id="hex-34">  
    <polygon fill="#000000" class="base" points="80.63,139.655 87.349,143.534 94.068,147.414 94.068,155.172 94.068,162.931 87.349,166.81 80.63,170.689 73.91,166.81 67.191,162.931 67.191,155.172 67.191,147.414 73.91,143.534 "/>
    <polygon fill="#000000" class="board-0" points="81.214,143.371 81.214,140.635 92.899,147.382 90.53,148.75 85.886,146.068 "/>
    <polygon fill="#000000" class="board-1" points="93.484,148.394 93.484,161.887 91.142,160.535 91.142,155.172 91.142,149.746 "/>
    <polygon fill="#000000" class="board-2" points="92.954,162.931 81.214,169.709 81.214,166.973 85.886,164.276 90.585,161.563 "/>
    <polygon fill="#000000" class="board-3" points="80.045,169.646 68.36,162.899 70.674,161.563 75.374,164.276 80.045,166.973 "/>
    <polygon fill="#000000" class="board-4" points="67.776,161.887 67.776,148.394 70.117,149.746 70.117,155.172 70.117,160.535 "/>
    <polygon fill="#000000" class="board-5" points="68.36,147.382 80.045,140.635 80.045,143.371 75.374,146.068 70.729,148.75 "/>
    <polygon fill="#000000" class="main" points="80.63,144.397 85.295,147.091 89.961,149.785 89.961,155.172 89.961,160.56 85.295,163.254 80.63,165.947 75.964,163.254 71.298,160.56 71.298,155.172 71.298,149.785 75.964,147.091 "/>
  </g>
  
  <g id="hex-35">  
    <polygon fill="#000000" class="base" points="107.506,139.655 114.225,143.534 120.944,147.414 120.944,155.172 120.944,162.931 114.225,166.81 107.506,170.689 100.787,166.81 94.068,162.931 94.068,155.172 94.068,147.414 100.787,143.534 "/>
    <polygon fill="#000000" class="board-0" points="108.09,143.371 108.09,140.635 119.776,147.382 117.407,148.75 112.762,146.068 "/>
    <polygon fill="#000000" class="board-1" points="120.36,148.394 120.36,161.887 118.018,160.535 118.018,155.172 118.018,149.746 "/>
    <polygon fill="#000000" class="board-2" points="119.831,162.931 108.09,169.709 108.09,166.973 112.762,164.276 117.462,161.563 "/>
    <polygon fill="#000000" class="board-3" points="106.922,169.646 95.236,162.899 97.551,161.563 102.25,164.276 106.922,166.973 "/>
    <polygon fill="#000000" class="board-4" points="94.652,161.887 94.652,148.394 96.994,149.746 96.994,155.172 96.994,160.535 "/>
    <polygon fill="#000000" class="board-5" points="95.236,147.382 106.922,140.635 106.922,143.371 102.25,146.068 97.606,148.75 "/>
    <polygon fill="#000000" class="main" points="107.506,144.397 112.172,147.091 116.838,149.785 116.838,155.172 116.838,160.56 112.172,163.254 107.506,165.947 102.84,163.254 98.175,160.56 98.175,155.172 98.175,149.785 102.84,147.091 "/>
  </g>
  
  <g id="hex-36">  
    <polygon fill="#000000" class="base" points="134.383,139.655 141.102,143.534 147.821,147.414 147.821,155.172 147.821,162.931 141.102,166.81 134.383,170.689 127.664,166.81 120.944,162.931 120.944,155.172 120.944,147.414 127.664,143.534 "/>
    <polygon fill="#000000" class="board-0" points="134.967,143.371 134.967,140.635 146.652,147.382 144.283,148.75 139.639,146.068 "/>
    <polygon fill="#000000" class="board-1" points="147.237,148.394 147.237,161.887 144.895,160.535 144.895,155.172 144.895,149.746 "/>
    <polygon fill="#000000" class="board-2" points="146.707,162.931 134.967,169.709 134.967,166.973 139.639,164.276 144.338,161.563 "/>
    <polygon fill="#000000" class="board-3" points="133.798,169.646 122.113,162.899 124.427,161.563 129.127,164.276 133.798,166.973 "/>
    <polygon fill="#000000" class="board-4" points="121.529,161.887 121.529,148.394 123.871,149.746 123.871,155.172 123.871,160.535 "/>
    <polygon fill="#000000" class="board-5" points="122.113,147.382 133.798,140.635 133.798,143.371 129.127,146.068 124.482,148.75 "/>
    <polygon fill="#000000" class="main" points="134.383,144.397 139.048,147.091 143.714,149.785 143.714,155.172 143.714,160.56 139.048,163.254 134.383,165.947 129.717,163.254 125.051,160.56 125.051,155.172 125.051,149.785 129.717,147.091 "/>
  </g>
 </g>
</svg>