<?xml version="1.0" encoding="UTF-8"?>
<!DOCTYPE svg PUBLIC "-//W3C//DTD SVG 1.1//EN" "http://www.w3.org/Graphics/SVG/1.1/DTD/svg11.dtd">
<!-- Creator: CorelDRAW 2020 (64-Bit) -->
<svg xmlns="http://www.w3.org/2000/svg" xml:space="preserve" width="120px" height="120px" version="1.1" style="shape-rendering:geometricPrecision; text-rendering:geometricPrecision; image-rendering:optimizeQuality; fill-rule:evenodd; clip-rule:evenodd"
viewBox="0 0 399.994 399.994"
 xmlns:xlink="http://www.w3.org/1999/xlink"
 xmlns:xodm="http://www.corel.com/coreldraw/odm/2003">
 <defs>
  <style type="text/css">
   <![CDATA[
    .fil0 {fill: #FFFFFF}
   ]]>
  </style>
 </defs>
 <g id="Слой_x0020_1">
  <metadata id="CorelCorpID_0Corel-Layer"/>
  <path class="fil0" d="M199.997 0c110.455,0 199.997,89.542 199.997,199.997 0,110.455 -89.542,199.997 -199.997,199.997 -110.455,0 -199.997,-89.542 -199.997,-199.997 0,-110.455 89.542,-199.997 199.997,-199.997zm-34.576 76.469c10.206,-0.227 20.173,-4.412 32.352,-4.412 55.452,0 95.295,27.81 117.651,72.052 20.957,41.473 15.721,94.434 -12.358,131.769 -2.804,3.729 -4.94,4.95 -7.797,8.379 -18.873,22.648 -53.905,42.209 -84.26,42.209 -28.218,0 -41.179,0.137 -68.648,-13.706 -25.482,-12.84 -47.791,-35.828 -58.683,-61.903 -13.412,-32.107 -13.742,-57.485 -4.744,-90.289 1.201,-4.38 3.116,-7.668 4.135,-12.041 11.193,2.608 19.973,7.752 30.882,10.294 -5.062,21.726 -17.155,44.333 -0.519,78.459 38.177,78.308 138.032,72.033 171.618,5.878 10.818,-21.307 9.781,-28.688 9.781,-51.984 0,-42.928 -43.225,-86.764 -94.117,-86.764 -9.494,0 -16.587,2.754 -24.999,2.941 1.604,6.009 2.238,4.101 14.707,10.293 4.846,2.407 13.004,7.744 17.645,8.825 -2.177,4.114 -3.79,8.539 -6.185,12.931 -2.594,4.756 -4.631,8.966 -7.05,13.539 -26.738,-14.148 -54.206,-27.062 -80.881,-41.176 14.157,-26.755 27.047,-54.179 41.175,-80.881l26.459 13.258c-4.147,7.836 -14.202,23.906 -16.164,32.329z"/>
 </g>
</svg>
