<?xml version="1.0" encoding="UTF-8"?>
<!DOCTYPE svg PUBLIC "-//W3C//DTD SVG 1.1//EN" "http://www.w3.org/Graphics/SVG/1.1/DTD/svg11.dtd">
<!-- Creator: CorelDRAW 2020 (64-Bit) -->
<svg xmlns="http://www.w3.org/2000/svg" xml:space="preserve" width="252px" height="250px" version="1.1" style="shape-rendering:geometricPrecision; text-rendering:geometricPrecision; image-rendering:optimizeQuality; fill-rule:evenodd; clip-rule:evenodd"
viewBox="0 0 72.498 71.926"
 xmlns:xlink="http://www.w3.org/1999/xlink"
 xmlns:xodm="http://www.corel.com/coreldraw/odm/2003">
 <defs>
  <style type="text/css">
   <![CDATA[
    .fil0 {fill: #FFFFFF}
   ]]>
  </style>
 </defs>
 <g id="Слой_x0020_1">
  <metadata id="CorelCorpID_0Corel-Layer"/>
  <g id="_2092267682896">
   <path class="fil0" d="M4.888 36.846c0,-6.031 0.705,-8.835 2.707,-13.684 0.598,-1.449 1.872,-3.553 2.713,-4.763 5.36,-7.715 14.902,-13.471 24.484,-13.471 6.413,0 9.009,0.249 14.949,2.879 1.535,0.68 3.168,1.695 4.551,2.638 0.703,0.48 1.51,1.043 2.134,1.604l2.019 1.719c0.728,0.639 0.967,1.152 1.587,1.864 4.056,4.648 7.54,11.777 7.54,18.338 0,8.326 -1.026,13.749 -6.038,20.416 -1.254,1.668 -2.041,2.46 -3.522,3.954 -8.848,8.929 -22.778,10.922 -34.602,5.991 -1.773,-0.74 -3.288,-1.702 -4.778,-2.698 -7.899,-5.283 -13.744,-14.77 -13.744,-24.787zm-4.888 -1.438c0,5.918 1.234,11.23 3.351,15.627 2.13,4.425 3.899,6.664 7.03,9.935 0.04,0.043 0.099,0.104 0.141,0.146l0.296 0.279c7.064,6.531 14.94,10.531 25.412,10.531 9.031,0 18.825,-3.954 25.094,-9.987 1.483,-1.427 2.787,-2.923 4.033,-4.593 1.156,-1.55 2.599,-3.658 3.469,-5.444 5.745,-11.793 4.765,-26.375 -3.058,-36.831 -2.225,-2.974 -1.439,-2.026 -4.018,-4.607 -1.596,-1.597 -2.749,-2.637 -4.701,-3.926 -26.296,-17.377 -57.049,2.511 -57.049,28.87z"/>
   <path class="fil0" d="M8.914 29.657c0,14.424 -0.975,13.296 2.578,13.237l6.919 -0.018c1.264,0.137 2.625,1.714 4.054,2.846l3.788 3.114c0.199,0.172 0.766,0.636 0.962,0.763 0.894,0.581 -0.133,0.358 1.252,0.474l0 -28.18c-1.886,0.44 -7.186,5.815 -8.773,6.758 -1.036,0.616 -0.205,0.256 -1.079,0.225l-6.831 -0.087c-1.329,-0.018 -2.87,-0.384 -2.87,0.868z"/>
   <path class="fil0" d="M53.892 18.373l0 0 -18.309 31.712c-0.338,0.586 -1.087,0.787 -1.672,0.448 -0.586,-0.338 -0.787,-1.087 -0.448,-1.672l0 0 18.308 -31.712c0.339,-0.586 1.087,-0.786 1.673,-0.448 0.586,0.338 0.786,1.087 0.448,1.672z"/>
   <path class="fil0" d="M33.666 23.425l0 0 18.134 31.409c0.335,0.58 1.076,0.779 1.656,0.444 0.58,-0.335 0.779,-1.077 0.444,-1.657l0 0 -18.133 -31.409c-0.335,-0.58 -1.077,-0.778 -1.657,-0.443 -0.58,0.334 -0.779,1.076 -0.444,1.656z"/>
  </g>
 </g>
</svg>
